%TF.GenerationSoftware,KiCad,Pcbnew,9.0.1*%
%TF.CreationDate,2025-04-18T13:59:42+02:00*%
%TF.ProjectId,GPXconn_v2_rev3,47505863-6f6e-46e5-9f76-325f72657633,rev?*%
%TF.SameCoordinates,Original*%
%TF.FileFunction,Soldermask,Top*%
%TF.FilePolarity,Negative*%
%FSLAX46Y46*%
G04 Gerber Fmt 4.6, Leading zero omitted, Abs format (unit mm)*
G04 Created by KiCad (PCBNEW 9.0.1) date 2025-04-18 13:59:42*
%MOMM*%
%LPD*%
G01*
G04 APERTURE LIST*
G04 Aperture macros list*
%AMRoundRect*
0 Rectangle with rounded corners*
0 $1 Rounding radius*
0 $2 $3 $4 $5 $6 $7 $8 $9 X,Y pos of 4 corners*
0 Add a 4 corners polygon primitive as box body*
4,1,4,$2,$3,$4,$5,$6,$7,$8,$9,$2,$3,0*
0 Add four circle primitives for the rounded corners*
1,1,$1+$1,$2,$3*
1,1,$1+$1,$4,$5*
1,1,$1+$1,$6,$7*
1,1,$1+$1,$8,$9*
0 Add four rect primitives between the rounded corners*
20,1,$1+$1,$2,$3,$4,$5,0*
20,1,$1+$1,$4,$5,$6,$7,0*
20,1,$1+$1,$6,$7,$8,$9,0*
20,1,$1+$1,$8,$9,$2,$3,0*%
%AMOutline5P*
0 Free polygon, 5 corners , with rotation*
0 The origin of the aperture is its center*
0 number of corners: always 5*
0 $1 to $10 corner X, Y*
0 $11 Rotation angle, in degrees counterclockwise*
0 create outline with 5 corners*
4,1,5,$1,$2,$3,$4,$5,$6,$7,$8,$9,$10,$1,$2,$11*%
%AMOutline6P*
0 Free polygon, 6 corners , with rotation*
0 The origin of the aperture is its center*
0 number of corners: always 6*
0 $1 to $12 corner X, Y*
0 $13 Rotation angle, in degrees counterclockwise*
0 create outline with 6 corners*
4,1,6,$1,$2,$3,$4,$5,$6,$7,$8,$9,$10,$11,$12,$1,$2,$13*%
%AMOutline7P*
0 Free polygon, 7 corners , with rotation*
0 The origin of the aperture is its center*
0 number of corners: always 7*
0 $1 to $14 corner X, Y*
0 $15 Rotation angle, in degrees counterclockwise*
0 create outline with 7 corners*
4,1,7,$1,$2,$3,$4,$5,$6,$7,$8,$9,$10,$11,$12,$13,$14,$1,$2,$15*%
%AMOutline8P*
0 Free polygon, 8 corners , with rotation*
0 The origin of the aperture is its center*
0 number of corners: always 8*
0 $1 to $16 corner X, Y*
0 $17 Rotation angle, in degrees counterclockwise*
0 create outline with 8 corners*
4,1,8,$1,$2,$3,$4,$5,$6,$7,$8,$9,$10,$11,$12,$13,$14,$15,$16,$1,$2,$17*%
%AMFreePoly0*
4,1,15,-0.512500,0.300000,-0.497276,0.376537,-0.453921,0.441421,-0.389037,0.484776,-0.312500,0.500000,0.387500,0.500000,0.512500,0.375000,0.512500,-0.375000,0.387500,-0.500000,-0.312500,-0.500000,-0.389037,-0.484776,-0.453921,-0.441421,-0.497276,-0.376537,-0.512500,-0.300000,-0.512500,0.300000,-0.512500,0.300000,$1*%
%AMFreePoly1*
4,1,18,-0.375000,0.500000,-0.363582,0.557403,-0.331066,0.606066,-0.282403,0.638582,-0.225000,0.650000,0.225000,0.650000,0.282403,0.638582,0.331066,0.606066,0.363582,0.557403,0.375000,0.500000,0.375000,-0.350000,0.075000,-0.650000,-0.225000,-0.650000,-0.282403,-0.638582,-0.331066,-0.606066,-0.363582,-0.557403,-0.375000,-0.500000,-0.375000,0.500000,-0.375000,0.500000,$1*%
%AMFreePoly2*
4,1,15,-0.512500,0.375000,-0.387500,0.500000,0.312500,0.500000,0.389037,0.484776,0.453921,0.441421,0.497276,0.376537,0.512500,0.300000,0.512500,-0.300000,0.497276,-0.376537,0.453921,-0.441421,0.389037,-0.484776,0.312500,-0.500000,-0.387500,-0.500000,-0.512500,-0.375000,-0.512500,0.375000,-0.512500,0.375000,$1*%
%AMFreePoly3*
4,1,18,-0.375000,0.500000,-0.363582,0.557403,-0.331066,0.606066,-0.282403,0.638582,-0.225000,0.650000,0.225000,0.650000,0.282403,0.638582,0.331066,0.606066,0.363582,0.557403,0.375000,0.500000,0.375000,-0.500000,0.363582,-0.557403,0.331066,-0.606066,0.282403,-0.638582,0.225000,-0.650000,-0.075000,-0.650000,-0.375000,-0.350000,-0.375000,0.500000,-0.375000,0.500000,$1*%
G04 Aperture macros list end*
%ADD10RoundRect,0.250000X-0.250000X-0.475000X0.250000X-0.475000X0.250000X0.475000X-0.250000X0.475000X0*%
%ADD11RoundRect,0.250000X-0.375000X-0.850000X0.375000X-0.850000X0.375000X0.850000X-0.375000X0.850000X0*%
%ADD12RoundRect,0.218750X-0.218750X-0.256250X0.218750X-0.256250X0.218750X0.256250X-0.218750X0.256250X0*%
%ADD13RoundRect,0.087500X0.087500X-0.250000X0.087500X0.250000X-0.087500X0.250000X-0.087500X-0.250000X0*%
%ADD14RoundRect,0.100000X-0.100000X0.225000X-0.100000X-0.225000X0.100000X-0.225000X0.100000X0.225000X0*%
%ADD15RoundRect,0.200000X0.200000X0.275000X-0.200000X0.275000X-0.200000X-0.275000X0.200000X-0.275000X0*%
%ADD16RoundRect,0.225000X0.250000X-0.225000X0.250000X0.225000X-0.250000X0.225000X-0.250000X-0.225000X0*%
%ADD17RoundRect,0.200000X-0.200000X-0.275000X0.200000X-0.275000X0.200000X0.275000X-0.200000X0.275000X0*%
%ADD18RoundRect,0.250000X-1.500000X-0.550000X1.500000X-0.550000X1.500000X0.550000X-1.500000X0.550000X0*%
%ADD19RoundRect,0.200000X0.275000X-0.200000X0.275000X0.200000X-0.275000X0.200000X-0.275000X-0.200000X0*%
%ADD20RoundRect,0.225000X-0.225000X-0.250000X0.225000X-0.250000X0.225000X0.250000X-0.225000X0.250000X0*%
%ADD21RoundRect,0.200000X-0.275000X0.200000X-0.275000X-0.200000X0.275000X-0.200000X0.275000X0.200000X0*%
%ADD22RoundRect,0.225000X0.225000X0.250000X-0.225000X0.250000X-0.225000X-0.250000X0.225000X-0.250000X0*%
%ADD23C,0.100000*%
%ADD24C,1.500000*%
%ADD25R,1.500000X2.650000*%
%ADD26R,1.500000X2.850000*%
%ADD27C,0.650000*%
%ADD28RoundRect,0.150000X0.150000X0.425000X-0.150000X0.425000X-0.150000X-0.425000X0.150000X-0.425000X0*%
%ADD29RoundRect,0.075000X0.075000X0.500000X-0.075000X0.500000X-0.075000X-0.500000X0.075000X-0.500000X0*%
%ADD30O,1.000000X2.100000*%
%ADD31O,1.000000X1.800000*%
%ADD32RoundRect,0.112500X0.187500X0.112500X-0.187500X0.112500X-0.187500X-0.112500X0.187500X-0.112500X0*%
%ADD33RoundRect,0.090000X0.210000X0.410000X-0.210000X0.410000X-0.210000X-0.410000X0.210000X-0.410000X0*%
%ADD34R,1.700000X1.700000*%
%ADD35O,1.700000X1.700000*%
%ADD36RoundRect,0.225000X-0.250000X0.225000X-0.250000X-0.225000X0.250000X-0.225000X0.250000X0.225000X0*%
%ADD37RoundRect,0.090000X-0.410000X0.210000X-0.410000X-0.210000X0.410000X-0.210000X0.410000X0.210000X0*%
%ADD38C,3.350000*%
%ADD39R,1.268000X1.268000*%
%ADD40C,1.268000*%
%ADD41C,1.700000*%
%ADD42O,2.600000X3.000000*%
%ADD43O,2.800000X2.400000*%
%ADD44RoundRect,0.200000X0.550000X0.300000X-0.550000X0.300000X-0.550000X-0.300000X0.550000X-0.300000X0*%
%ADD45Outline5P,-0.375000X0.350000X-0.075000X0.650000X0.375000X0.650000X0.375000X-0.650000X-0.375000X-0.650000X270.000000*%
%ADD46FreePoly0,180.000000*%
%ADD47R,1.425000X0.750000*%
%ADD48Outline5P,-0.375000X0.650000X0.075000X0.650000X0.375000X0.350000X0.375000X-0.650000X-0.375000X-0.650000X270.000000*%
%ADD49FreePoly1,270.000000*%
%ADD50FreePoly2,180.000000*%
%ADD51FreePoly3,270.000000*%
%ADD52RoundRect,0.137500X0.312500X-0.137500X0.312500X0.137500X-0.312500X0.137500X-0.312500X-0.137500X0*%
%ADD53R,0.900000X1.500000*%
%ADD54R,1.500000X0.900000*%
%ADD55C,0.600000*%
%ADD56R,3.800000X3.800000*%
%ADD57RoundRect,0.250000X-0.475000X0.250000X-0.475000X-0.250000X0.475000X-0.250000X0.475000X0.250000X0*%
G04 APERTURE END LIST*
D10*
%TO.C,C3*%
X39750000Y10400000D03*
X41650000Y10400000D03*
%TD*%
D11*
%TO.C,L1*%
X37925000Y8000000D03*
X40075000Y8000000D03*
%TD*%
D12*
%TO.C,F1*%
X26612500Y14300000D03*
X28187500Y14300000D03*
%TD*%
D13*
%TO.C,U2*%
X37500000Y9887500D03*
X38000000Y9887500D03*
X38500000Y9887500D03*
X38500000Y11312500D03*
X38000000Y11312500D03*
X37500000Y11312500D03*
%TD*%
D14*
%TO.C,U3*%
X25150000Y19300000D03*
X24500000Y19300000D03*
X23850000Y19300000D03*
X23850000Y17400000D03*
X25150000Y17400000D03*
%TD*%
D15*
%TO.C,R20*%
X28225000Y15800000D03*
X26575000Y15800000D03*
%TD*%
D16*
%TO.C,C5*%
X26900000Y18825000D03*
X26900000Y20375000D03*
%TD*%
D17*
%TO.C,R3*%
X22175000Y22200000D03*
X23825000Y22200000D03*
%TD*%
D18*
%TO.C,C12*%
X23050000Y8500000D03*
X28450000Y8500000D03*
%TD*%
D17*
%TO.C,R4*%
X25175000Y25200000D03*
X26825000Y25200000D03*
%TD*%
D19*
%TO.C,R7*%
X41600000Y12475000D03*
X41600000Y14125000D03*
%TD*%
D15*
%TO.C,FB1*%
X26825000Y28200000D03*
X25175000Y28200000D03*
%TD*%
D20*
%TO.C,C8*%
X53925000Y37300000D03*
X55475000Y37300000D03*
%TD*%
D21*
%TO.C,R10*%
X40100000Y14125000D03*
X40100000Y12475000D03*
%TD*%
D22*
%TO.C,C10*%
X17975000Y33300000D03*
X16425000Y33300000D03*
%TD*%
D21*
%TO.C,J0*%
X22200000Y16225000D03*
X22200000Y14575000D03*
%TD*%
D22*
%TO.C,C11*%
X35675000Y15600000D03*
X34125000Y15600000D03*
%TD*%
D19*
%TO.C,R9*%
X34100000Y12475000D03*
X34100000Y14125000D03*
%TD*%
D22*
%TO.C,C7*%
X58475000Y35800000D03*
X56925000Y35800000D03*
%TD*%
D19*
%TO.C,R11*%
X38600000Y12475000D03*
X38600000Y14125000D03*
%TD*%
D23*
%TO.C,N1*%
X15000000Y41100000D03*
X15000000Y9100000D03*
X55000000Y41100000D03*
X55000000Y9100000D03*
%TD*%
D19*
%TO.C,R12*%
X45700000Y35575000D03*
X45700000Y37225000D03*
%TD*%
D15*
%TO.C,R19*%
X55525000Y35800000D03*
X53875000Y35800000D03*
%TD*%
D24*
%TO.C,CONN2*%
X6150000Y33500000D03*
X12150000Y33500000D03*
D25*
X5650000Y30175000D03*
D26*
X12450000Y30275000D03*
D25*
X8450000Y37025000D03*
X14250000Y37025000D03*
%TD*%
D27*
%TO.C,USB1*%
X40590000Y40945000D03*
X34810000Y40945000D03*
D28*
X40900000Y39870000D03*
X40100000Y39870000D03*
D29*
X38950000Y39870000D03*
X37950000Y39870000D03*
X37450000Y39870000D03*
X36450000Y39870000D03*
D28*
X35300000Y39870000D03*
X34500000Y39870000D03*
X34500000Y39870000D03*
X35300000Y39870000D03*
D29*
X35950000Y39870000D03*
X36950000Y39870000D03*
X38450000Y39870000D03*
X39450000Y39870000D03*
D28*
X40100000Y39870000D03*
X40900000Y39870000D03*
D30*
X42020000Y40445000D03*
D31*
X42020000Y44625000D03*
D30*
X33380000Y40445000D03*
D31*
X33380000Y44625000D03*
%TD*%
D21*
%TO.C,RS0*%
X22200000Y19225000D03*
X22200000Y17575000D03*
%TD*%
D15*
%TO.C,R25*%
X18025000Y36300000D03*
X16375000Y36300000D03*
%TD*%
D17*
%TO.C,R15*%
X16375000Y28800000D03*
X18025000Y28800000D03*
%TD*%
%TO.C,R5*%
X25175000Y22200000D03*
X26825000Y22200000D03*
%TD*%
D22*
%TO.C,C9*%
X17975000Y31800000D03*
X16425000Y31800000D03*
%TD*%
D15*
%TO.C,R24*%
X18025000Y37800000D03*
X16375000Y37800000D03*
%TD*%
%TO.C,R6*%
X26825000Y26700000D03*
X25175000Y26700000D03*
%TD*%
D22*
%TO.C,C6*%
X58475000Y37300000D03*
X56925000Y37300000D03*
%TD*%
D17*
%TO.C,R27*%
X34075000Y20400000D03*
X35725000Y20400000D03*
%TD*%
D32*
%TO.C,D1*%
X30150000Y28400000D03*
X28050000Y28400000D03*
%TD*%
D15*
%TO.C,R17*%
X18025000Y34800000D03*
X16375000Y34800000D03*
%TD*%
%TO.C,R18*%
X35725000Y17100000D03*
X34075000Y17100000D03*
%TD*%
D19*
%TO.C,R14*%
X42700000Y35575000D03*
X42700000Y37225000D03*
%TD*%
D17*
%TO.C,R1*%
X22175000Y20700000D03*
X23825000Y20700000D03*
%TD*%
D33*
%TO.C,Q3*%
X29950000Y25250000D03*
X28050000Y25250000D03*
X29000000Y23150000D03*
%TD*%
D15*
%TO.C,R26*%
X29825000Y26700000D03*
X28175000Y26700000D03*
%TD*%
D34*
%TO.C,CONN3*%
X44600000Y13200000D03*
D35*
X47140000Y13200000D03*
X49680000Y13200000D03*
X52220000Y13200000D03*
X54760000Y13200000D03*
X57300000Y13200000D03*
%TD*%
D33*
%TO.C,Q2*%
X25350000Y15950000D03*
X23450000Y15950000D03*
X24400000Y13850000D03*
%TD*%
D21*
%TO.C,R8*%
X37100000Y14125000D03*
X37100000Y12475000D03*
%TD*%
D36*
%TO.C,C4*%
X35600000Y14075000D03*
X35600000Y12525000D03*
%TD*%
D17*
%TO.C,R2*%
X25175000Y23700000D03*
X26825000Y23700000D03*
%TD*%
D37*
%TO.C,Q1*%
X29650000Y17550000D03*
X29650000Y15650000D03*
X31750000Y16600000D03*
%TD*%
D38*
%TO.C,CONN1*%
X9000000Y25780000D03*
X9000000Y15620000D03*
D39*
X17890000Y23875000D03*
D40*
X15350000Y22605000D03*
X17890000Y21335000D03*
X15350000Y20065000D03*
X17890000Y18795000D03*
X15350000Y17525000D03*
%TD*%
D21*
%TO.C,R23*%
X52400000Y37325000D03*
X52400000Y35675000D03*
%TD*%
D37*
%TO.C,U4*%
X21750000Y25350000D03*
X21750000Y23450000D03*
X23850000Y24400000D03*
%TD*%
D17*
%TO.C,R21*%
X26575000Y17300000D03*
X28225000Y17300000D03*
%TD*%
D15*
%TO.C,R16*%
X18025000Y30300000D03*
X16375000Y30300000D03*
%TD*%
D19*
%TO.C,R13*%
X44200000Y35575000D03*
X44200000Y37225000D03*
%TD*%
D34*
%TO.C,C1*%
X20000000Y8500000D03*
D41*
X32000000Y8500000D03*
%TD*%
D17*
%TO.C,R22*%
X34075000Y18600000D03*
X35725000Y18600000D03*
%TD*%
D42*
%TO.C,SW1*%
X21000000Y31800000D03*
X25700000Y31800000D03*
X30400000Y31800000D03*
D43*
X23350000Y44500000D03*
X28050000Y44500000D03*
%TD*%
D44*
%TO.C,LED1*%
X49850000Y40400000D03*
D45*
X48800000Y41000000D03*
D46*
X50087500Y42000000D03*
D47*
X48862500Y42000000D03*
D44*
X49850000Y43600000D03*
D48*
X48800000Y43000000D03*
D49*
X46000000Y43000000D03*
D44*
X44950000Y43600000D03*
D47*
X45937500Y42000000D03*
D50*
X44712500Y42000000D03*
D51*
X46000000Y41000000D03*
D44*
X44950000Y40400000D03*
%TD*%
D52*
%TO.C,U5*%
X23800000Y26650000D03*
X23800000Y27600000D03*
X23800000Y28550000D03*
X21400000Y28550000D03*
X21400000Y27600000D03*
X21400000Y26650000D03*
%TD*%
D53*
%TO.C,U1*%
X58550000Y33750000D03*
X57280000Y33750000D03*
X56010000Y33750000D03*
X54740000Y33750000D03*
X53470000Y33750000D03*
X52200000Y33750000D03*
X50930000Y33750000D03*
X49660000Y33750000D03*
X48390000Y33750000D03*
X47120000Y33750000D03*
X45850000Y33750000D03*
X44580000Y33750000D03*
X43310000Y33750000D03*
X42040000Y33750000D03*
D54*
X40790000Y30710000D03*
X40790000Y29440000D03*
X40790000Y28170000D03*
X40790000Y26900000D03*
X40790000Y25630000D03*
X40790000Y24360000D03*
X40790000Y23090000D03*
X40790000Y21820000D03*
X40790000Y20550000D03*
X40790000Y19280000D03*
D53*
X42040000Y16250000D03*
X43310000Y16250000D03*
X44580000Y16250000D03*
X45850000Y16250000D03*
X47120000Y16250000D03*
X48390000Y16250000D03*
X49660000Y16250000D03*
X50930000Y16250000D03*
X52200000Y16250000D03*
X53470000Y16250000D03*
X54740000Y16250000D03*
X56010000Y16250000D03*
X57280000Y16250000D03*
X58550000Y16250000D03*
D55*
X51530000Y27900000D03*
X50130000Y27900000D03*
X52230000Y27200000D03*
X50830000Y27200000D03*
X49430000Y27200000D03*
X51530000Y26525000D03*
X50130000Y26525000D03*
D56*
X50830000Y26500000D03*
D55*
X52230000Y25800000D03*
X50830000Y25800000D03*
X49430000Y25800000D03*
X51530000Y25100000D03*
X50130000Y25100000D03*
%TD*%
D32*
%TO.C,D3*%
X31550000Y14200000D03*
X29450000Y14200000D03*
%TD*%
D57*
%TO.C,C2*%
X36000000Y11050000D03*
X36000000Y9150000D03*
%TD*%
M02*
