M48
; DRILL file {KiCad 9.0.1} date 2025-04-18T13:59:54+0200
; FORMAT={-:-/ absolute / metric / decimal}
; #@! TF.CreationDate,2025-04-18T13:59:54+02:00
; #@! TF.GenerationSoftware,Kicad,Pcbnew,9.0.1
; #@! TF.FileFunction,Plated,1,2,PTH
FMAT,2
METRIC
; #@! TA.AperFunction,Plated,PTH,ViaDrill
T1C0.300
; #@! TA.AperFunction,Plated,PTH,ComponentDrill
T2C0.300
; #@! TA.AperFunction,Plated,PTH,ComponentDrill
T3C0.600
; #@! TA.AperFunction,Plated,PTH,ComponentDrill
T4C0.760
; #@! TA.AperFunction,Plated,PTH,ComponentDrill
T5C0.800
; #@! TA.AperFunction,Plated,PTH,ComponentDrill
T6C1.000
; #@! TA.AperFunction,Plated,PTH,ComponentDrill
T7C1.600
%
G90
G05
T1
X6.3Y18.1
X6.7Y23.55
X7.6Y29.45
X9.0Y33.15
X11.05Y35.55
X11.45Y37.4
X11.65Y6.35
X11.75Y20.55
X12.5Y11.9
X12.9Y37.0
X13.75Y15.1
X17.5Y12.4
X18.25Y8.4
X18.65Y17.35
X19.2Y30.45
X19.3Y34.55
X19.45Y25.4
X19.45Y24.5
X19.6Y19.5
X19.8Y16.4
X19.85Y26.95
X20.0Y12.0
X20.05Y26.1
X20.1Y38.55
X20.45Y35.9
X21.325Y16.475
X21.4Y24.3
X22.0Y6.85
X22.55Y28.4
X22.6Y26.8
X22.7Y23.1
X22.85Y24.8
X22.95Y21.45
X23.05Y13.1
X23.1Y19.75
X23.4Y38.5
X23.75Y18.5
X24.1Y23.6
X24.15Y33.25
X24.35Y30.2
X24.4Y15.45
X24.5Y35.95
X25.043Y14.714
X25.15Y18.4
X25.2Y11.0
X25.7Y34.95
X26.0Y26.0
X26.0Y22.95
X26.2Y8.5
X26.75Y38.45
X27.4Y16.55
X27.4Y15.05
X27.775Y18.825
X27.8Y21.1
X27.85Y30.15
X28.05Y9.9
X28.1Y24.05
X28.4Y13.2
X28.7Y18.45
X28.7Y7.2
X29.05Y25.45
X29.3Y28.4
X29.45Y16.55
X29.9Y23.3
X30.05Y34.25
X30.6Y14.2
X30.85Y15.6
X30.95Y25.6
X31.45Y38.5
X31.7Y13.0
X32.0Y34.2
X32.15Y30.15
X32.15Y11.15
X33.35Y28.8
X33.35Y25.5
X33.35Y23.0
X34.7Y17.85
X34.8Y26.7
X34.8Y23.95
X34.9Y8.25
X34.9Y6.7
X35.0Y30.15
X35.7Y10.2
X35.9Y34.9
X36.1Y28.75
X36.2Y8.2
X36.35Y11.8
X36.5Y30.3
X37.0Y10.6
X37.35Y26.9
X37.6Y36.5
X37.6Y34.1
X37.7Y22.7
X37.8Y21.55
X37.85Y43.3
X37.85Y28.85
X38.9Y10.6
X39.0Y9.6
X39.3Y11.7
X39.5Y29.6
X40.1Y14.875
X40.6Y10.6
X41.1Y38.2
X41.65Y6.95
X42.1Y20.3
X42.15Y22.75
X42.45Y27.7
X42.75Y13.95
X42.8Y30.05
X42.95Y26.0
X43.55Y19.3
X44.55Y11.1
X45.25Y28.45
X45.25Y22.8
X45.55Y25.5
X46.55Y38.8
X46.75Y6.2
X46.9Y35.8
X47.25Y21.15
X47.3Y27.5
X47.7Y44.0
X47.8Y38.25
X47.9Y39.95
X47.9Y14.9
X48.2Y35.65
X48.5Y22.75
X49.3Y31.05
X49.55Y36.05
X49.65Y17.95
X49.8Y37.75
X49.8Y23.45
X49.9Y35.3
X50.65Y20.65
X52.05Y30.7
X52.2Y6.25
X52.3Y23.05
X52.35Y10.7
X52.6Y18.15
X52.9Y32.4
X53.25Y35.0
X53.5Y12.3
X54.45Y30.65
X54.45Y27.95
X54.5Y32.35
X54.5Y19.6
X54.6Y24.7
X56.0Y32.4
X56.1Y12.3
X56.15Y14.95
X56.55Y30.05
X56.6Y17.8
X56.65Y26.1
X56.65Y21.6
X56.9Y38.5
X57.0Y6.5
X57.05Y32.4
X57.05Y11.3
X57.15Y39.3
X57.8Y34.95
X57.85Y30.85
X57.95Y17.85
X58.0Y26.1
X58.05Y21.6
X58.15Y38.65
X58.4Y32.4
X58.5Y34.95
X58.55Y14.95
T2
X49.43Y27.2
X49.43Y25.8
X50.13Y27.9
X50.13Y26.525
X50.13Y25.1
X50.83Y27.2
X50.83Y25.8
X51.53Y27.9
X51.53Y26.525
X51.53Y25.1
X52.23Y27.2
X52.23Y25.8
T4
X15.35Y22.605
X15.35Y20.065
X15.35Y17.525
X17.89Y23.875
X17.89Y21.335
X17.89Y18.795
T5
X20.0Y8.5
X32.0Y8.5
T6
X44.6Y13.2
X47.14Y13.2
X49.68Y13.2
X52.22Y13.2
X54.76Y13.2
X57.3Y13.2
T7
X21.0Y31.8
X23.35Y44.5
X25.7Y31.8
X28.05Y44.5
X30.4Y31.8
T3
X33.38Y44.225G85X33.38Y45.025
G05
X33.38Y39.895G85X33.38Y40.995
G05
X42.02Y44.225G85X42.02Y45.025
G05
X42.02Y39.895G85X42.02Y40.995
G05
M30
