%TF.GenerationSoftware,KiCad,Pcbnew,9.0.1*%
%TF.CreationDate,2025-04-18T13:59:42+02:00*%
%TF.ProjectId,GPXconn_v2_rev3,47505863-6f6e-46e5-9f76-325f72657633,rev?*%
%TF.SameCoordinates,Original*%
%TF.FileFunction,Legend,Bot*%
%TF.FilePolarity,Positive*%
%FSLAX46Y46*%
G04 Gerber Fmt 4.6, Leading zero omitted, Abs format (unit mm)*
G04 Created by KiCad (PCBNEW 9.0.1) date 2025-04-18 13:59:42*
%MOMM*%
%LPD*%
G01*
G04 APERTURE LIST*
%ADD10C,0.100000*%
%ADD11C,0.150000*%
%ADD12C,0.000000*%
%ADD13C,0.010000*%
G04 APERTURE END LIST*
D10*
X55000000Y16522061D02*
X54600000Y16022061D01*
D11*
X48417982Y36879133D02*
X48417982Y38279133D01*
X47817982Y36879133D02*
X47817982Y37612466D01*
X47817982Y37612466D02*
X47884649Y37745800D01*
X47884649Y37745800D02*
X48017982Y37812466D01*
X48017982Y37812466D02*
X48217982Y37812466D01*
X48217982Y37812466D02*
X48351316Y37745800D01*
X48351316Y37745800D02*
X48417982Y37679133D01*
X47351315Y37812466D02*
X46817982Y37812466D01*
X47151315Y38279133D02*
X47151315Y37079133D01*
X47151315Y37079133D02*
X47084649Y36945800D01*
X47084649Y36945800D02*
X46951315Y36879133D01*
X46951315Y36879133D02*
X46817982Y36879133D01*
X46551315Y37812466D02*
X46017982Y37812466D01*
X46351315Y38279133D02*
X46351315Y37079133D01*
X46351315Y37079133D02*
X46284649Y36945800D01*
X46284649Y36945800D02*
X46151315Y36879133D01*
X46151315Y36879133D02*
X46017982Y36879133D01*
X45551315Y37812466D02*
X45551315Y36412466D01*
X45551315Y37745800D02*
X45417982Y37812466D01*
X45417982Y37812466D02*
X45151315Y37812466D01*
X45151315Y37812466D02*
X45017982Y37745800D01*
X45017982Y37745800D02*
X44951315Y37679133D01*
X44951315Y37679133D02*
X44884649Y37545800D01*
X44884649Y37545800D02*
X44884649Y37145800D01*
X44884649Y37145800D02*
X44951315Y37012466D01*
X44951315Y37012466D02*
X45017982Y36945800D01*
X45017982Y36945800D02*
X45151315Y36879133D01*
X45151315Y36879133D02*
X45417982Y36879133D01*
X45417982Y36879133D02*
X45551315Y36945800D01*
X44351315Y36945800D02*
X44217982Y36879133D01*
X44217982Y36879133D02*
X43951315Y36879133D01*
X43951315Y36879133D02*
X43817982Y36945800D01*
X43817982Y36945800D02*
X43751315Y37079133D01*
X43751315Y37079133D02*
X43751315Y37145800D01*
X43751315Y37145800D02*
X43817982Y37279133D01*
X43817982Y37279133D02*
X43951315Y37345800D01*
X43951315Y37345800D02*
X44151315Y37345800D01*
X44151315Y37345800D02*
X44284648Y37412466D01*
X44284648Y37412466D02*
X44351315Y37545800D01*
X44351315Y37545800D02*
X44351315Y37612466D01*
X44351315Y37612466D02*
X44284648Y37745800D01*
X44284648Y37745800D02*
X44151315Y37812466D01*
X44151315Y37812466D02*
X43951315Y37812466D01*
X43951315Y37812466D02*
X43817982Y37745800D01*
X43151315Y37012466D02*
X43084649Y36945800D01*
X43084649Y36945800D02*
X43151315Y36879133D01*
X43151315Y36879133D02*
X43217982Y36945800D01*
X43217982Y36945800D02*
X43151315Y37012466D01*
X43151315Y37012466D02*
X43151315Y36879133D01*
X43151315Y37745800D02*
X43084649Y37679133D01*
X43084649Y37679133D02*
X43151315Y37612466D01*
X43151315Y37612466D02*
X43217982Y37679133D01*
X43217982Y37679133D02*
X43151315Y37745800D01*
X43151315Y37745800D02*
X43151315Y37612466D01*
X41484648Y38345800D02*
X42684648Y36545800D01*
X40017981Y38345800D02*
X41217981Y36545800D01*
X38951314Y36879133D02*
X38951314Y38279133D01*
X38951314Y36945800D02*
X39084648Y36879133D01*
X39084648Y36879133D02*
X39351314Y36879133D01*
X39351314Y36879133D02*
X39484648Y36945800D01*
X39484648Y36945800D02*
X39551314Y37012466D01*
X39551314Y37012466D02*
X39617981Y37145800D01*
X39617981Y37145800D02*
X39617981Y37545800D01*
X39617981Y37545800D02*
X39551314Y37679133D01*
X39551314Y37679133D02*
X39484648Y37745800D01*
X39484648Y37745800D02*
X39351314Y37812466D01*
X39351314Y37812466D02*
X39084648Y37812466D01*
X39084648Y37812466D02*
X38951314Y37745800D01*
X37684647Y36879133D02*
X37684647Y37612466D01*
X37684647Y37612466D02*
X37751314Y37745800D01*
X37751314Y37745800D02*
X37884647Y37812466D01*
X37884647Y37812466D02*
X38151314Y37812466D01*
X38151314Y37812466D02*
X38284647Y37745800D01*
X37684647Y36945800D02*
X37817981Y36879133D01*
X37817981Y36879133D02*
X38151314Y36879133D01*
X38151314Y36879133D02*
X38284647Y36945800D01*
X38284647Y36945800D02*
X38351314Y37079133D01*
X38351314Y37079133D02*
X38351314Y37212466D01*
X38351314Y37212466D02*
X38284647Y37345800D01*
X38284647Y37345800D02*
X38151314Y37412466D01*
X38151314Y37412466D02*
X37817981Y37412466D01*
X37817981Y37412466D02*
X37684647Y37479133D01*
X37084647Y36945800D02*
X36951314Y36879133D01*
X36951314Y36879133D02*
X36684647Y36879133D01*
X36684647Y36879133D02*
X36551314Y36945800D01*
X36551314Y36945800D02*
X36484647Y37079133D01*
X36484647Y37079133D02*
X36484647Y37145800D01*
X36484647Y37145800D02*
X36551314Y37279133D01*
X36551314Y37279133D02*
X36684647Y37345800D01*
X36684647Y37345800D02*
X36884647Y37345800D01*
X36884647Y37345800D02*
X37017980Y37412466D01*
X37017980Y37412466D02*
X37084647Y37545800D01*
X37084647Y37545800D02*
X37084647Y37612466D01*
X37084647Y37612466D02*
X37017980Y37745800D01*
X37017980Y37745800D02*
X36884647Y37812466D01*
X36884647Y37812466D02*
X36684647Y37812466D01*
X36684647Y37812466D02*
X36551314Y37745800D01*
X35884647Y36879133D02*
X35884647Y38279133D01*
X35284647Y36879133D02*
X35284647Y37612466D01*
X35284647Y37612466D02*
X35351314Y37745800D01*
X35351314Y37745800D02*
X35484647Y37812466D01*
X35484647Y37812466D02*
X35684647Y37812466D01*
X35684647Y37812466D02*
X35817981Y37745800D01*
X35817981Y37745800D02*
X35884647Y37679133D01*
X34617980Y36879133D02*
X34617980Y38279133D01*
X34617980Y37745800D02*
X34484647Y37812466D01*
X34484647Y37812466D02*
X34217980Y37812466D01*
X34217980Y37812466D02*
X34084647Y37745800D01*
X34084647Y37745800D02*
X34017980Y37679133D01*
X34017980Y37679133D02*
X33951314Y37545800D01*
X33951314Y37545800D02*
X33951314Y37145800D01*
X33951314Y37145800D02*
X34017980Y37012466D01*
X34017980Y37012466D02*
X34084647Y36945800D01*
X34084647Y36945800D02*
X34217980Y36879133D01*
X34217980Y36879133D02*
X34484647Y36879133D01*
X34484647Y36879133D02*
X34617980Y36945800D01*
X33151313Y36879133D02*
X33284647Y36945800D01*
X33284647Y36945800D02*
X33351313Y37012466D01*
X33351313Y37012466D02*
X33417980Y37145800D01*
X33417980Y37145800D02*
X33417980Y37545800D01*
X33417980Y37545800D02*
X33351313Y37679133D01*
X33351313Y37679133D02*
X33284647Y37745800D01*
X33284647Y37745800D02*
X33151313Y37812466D01*
X33151313Y37812466D02*
X32951313Y37812466D01*
X32951313Y37812466D02*
X32817980Y37745800D01*
X32817980Y37745800D02*
X32751313Y37679133D01*
X32751313Y37679133D02*
X32684647Y37545800D01*
X32684647Y37545800D02*
X32684647Y37145800D01*
X32684647Y37145800D02*
X32751313Y37012466D01*
X32751313Y37012466D02*
X32817980Y36945800D01*
X32817980Y36945800D02*
X32951313Y36879133D01*
X32951313Y36879133D02*
X33151313Y36879133D01*
X31484646Y36879133D02*
X31484646Y37612466D01*
X31484646Y37612466D02*
X31551313Y37745800D01*
X31551313Y37745800D02*
X31684646Y37812466D01*
X31684646Y37812466D02*
X31951313Y37812466D01*
X31951313Y37812466D02*
X32084646Y37745800D01*
X31484646Y36945800D02*
X31617980Y36879133D01*
X31617980Y36879133D02*
X31951313Y36879133D01*
X31951313Y36879133D02*
X32084646Y36945800D01*
X32084646Y36945800D02*
X32151313Y37079133D01*
X32151313Y37079133D02*
X32151313Y37212466D01*
X32151313Y37212466D02*
X32084646Y37345800D01*
X32084646Y37345800D02*
X31951313Y37412466D01*
X31951313Y37412466D02*
X31617980Y37412466D01*
X31617980Y37412466D02*
X31484646Y37479133D01*
X30817979Y36879133D02*
X30817979Y37812466D01*
X30817979Y37545800D02*
X30751313Y37679133D01*
X30751313Y37679133D02*
X30684646Y37745800D01*
X30684646Y37745800D02*
X30551313Y37812466D01*
X30551313Y37812466D02*
X30417979Y37812466D01*
X29351312Y36879133D02*
X29351312Y38279133D01*
X29351312Y36945800D02*
X29484646Y36879133D01*
X29484646Y36879133D02*
X29751312Y36879133D01*
X29751312Y36879133D02*
X29884646Y36945800D01*
X29884646Y36945800D02*
X29951312Y37012466D01*
X29951312Y37012466D02*
X30017979Y37145800D01*
X30017979Y37145800D02*
X30017979Y37545800D01*
X30017979Y37545800D02*
X29951312Y37679133D01*
X29951312Y37679133D02*
X29884646Y37745800D01*
X29884646Y37745800D02*
X29751312Y37812466D01*
X29751312Y37812466D02*
X29484646Y37812466D01*
X29484646Y37812466D02*
X29351312Y37745800D01*
X28684645Y37012466D02*
X28617979Y36945800D01*
X28617979Y36945800D02*
X28684645Y36879133D01*
X28684645Y36879133D02*
X28751312Y36945800D01*
X28751312Y36945800D02*
X28684645Y37012466D01*
X28684645Y37012466D02*
X28684645Y36879133D01*
X27417978Y37812466D02*
X27417978Y36679133D01*
X27417978Y36679133D02*
X27484645Y36545800D01*
X27484645Y36545800D02*
X27551312Y36479133D01*
X27551312Y36479133D02*
X27684645Y36412466D01*
X27684645Y36412466D02*
X27884645Y36412466D01*
X27884645Y36412466D02*
X28017978Y36479133D01*
X27417978Y36945800D02*
X27551312Y36879133D01*
X27551312Y36879133D02*
X27817978Y36879133D01*
X27817978Y36879133D02*
X27951312Y36945800D01*
X27951312Y36945800D02*
X28017978Y37012466D01*
X28017978Y37012466D02*
X28084645Y37145800D01*
X28084645Y37145800D02*
X28084645Y37545800D01*
X28084645Y37545800D02*
X28017978Y37679133D01*
X28017978Y37679133D02*
X27951312Y37745800D01*
X27951312Y37745800D02*
X27817978Y37812466D01*
X27817978Y37812466D02*
X27551312Y37812466D01*
X27551312Y37812466D02*
X27417978Y37745800D01*
X26751311Y37812466D02*
X26751311Y36412466D01*
X26751311Y37745800D02*
X26617978Y37812466D01*
X26617978Y37812466D02*
X26351311Y37812466D01*
X26351311Y37812466D02*
X26217978Y37745800D01*
X26217978Y37745800D02*
X26151311Y37679133D01*
X26151311Y37679133D02*
X26084645Y37545800D01*
X26084645Y37545800D02*
X26084645Y37145800D01*
X26084645Y37145800D02*
X26151311Y37012466D01*
X26151311Y37012466D02*
X26217978Y36945800D01*
X26217978Y36945800D02*
X26351311Y36879133D01*
X26351311Y36879133D02*
X26617978Y36879133D01*
X26617978Y36879133D02*
X26751311Y36945800D01*
X25617978Y36879133D02*
X24884644Y37812466D01*
X25617978Y37812466D02*
X24884644Y36879133D01*
X24351311Y37012466D02*
X24284645Y36945800D01*
X24284645Y36945800D02*
X24351311Y36879133D01*
X24351311Y36879133D02*
X24417978Y36945800D01*
X24417978Y36945800D02*
X24351311Y37012466D01*
X24351311Y37012466D02*
X24351311Y36879133D01*
X23684644Y37812466D02*
X23684644Y36879133D01*
X23684644Y37679133D02*
X23617978Y37745800D01*
X23617978Y37745800D02*
X23484644Y37812466D01*
X23484644Y37812466D02*
X23284644Y37812466D01*
X23284644Y37812466D02*
X23151311Y37745800D01*
X23151311Y37745800D02*
X23084644Y37612466D01*
X23084644Y37612466D02*
X23084644Y36879133D01*
X22217977Y36879133D02*
X22351311Y36945800D01*
X22351311Y36945800D02*
X22417977Y37079133D01*
X22417977Y37079133D02*
X22417977Y38279133D01*
X20684644Y38345800D02*
X21884644Y36545800D01*
X20217977Y36879133D02*
X20217977Y37812466D01*
X20217977Y37679133D02*
X20151311Y37745800D01*
X20151311Y37745800D02*
X20017977Y37812466D01*
X20017977Y37812466D02*
X19817977Y37812466D01*
X19817977Y37812466D02*
X19684644Y37745800D01*
X19684644Y37745800D02*
X19617977Y37612466D01*
X19617977Y37612466D02*
X19617977Y36879133D01*
X19617977Y37612466D02*
X19551311Y37745800D01*
X19551311Y37745800D02*
X19417977Y37812466D01*
X19417977Y37812466D02*
X19217977Y37812466D01*
X19217977Y37812466D02*
X19084644Y37745800D01*
X19084644Y37745800D02*
X19017977Y37612466D01*
X19017977Y37612466D02*
X19017977Y36879133D01*
X17751310Y36879133D02*
X17751310Y37612466D01*
X17751310Y37612466D02*
X17817977Y37745800D01*
X17817977Y37745800D02*
X17951310Y37812466D01*
X17951310Y37812466D02*
X18217977Y37812466D01*
X18217977Y37812466D02*
X18351310Y37745800D01*
X17751310Y36945800D02*
X17884644Y36879133D01*
X17884644Y36879133D02*
X18217977Y36879133D01*
X18217977Y36879133D02*
X18351310Y36945800D01*
X18351310Y36945800D02*
X18417977Y37079133D01*
X18417977Y37079133D02*
X18417977Y37212466D01*
X18417977Y37212466D02*
X18351310Y37345800D01*
X18351310Y37345800D02*
X18217977Y37412466D01*
X18217977Y37412466D02*
X17884644Y37412466D01*
X17884644Y37412466D02*
X17751310Y37479133D01*
X17084643Y37812466D02*
X17084643Y36879133D01*
X17084643Y37679133D02*
X17017977Y37745800D01*
X17017977Y37745800D02*
X16884643Y37812466D01*
X16884643Y37812466D02*
X16684643Y37812466D01*
X16684643Y37812466D02*
X16551310Y37745800D01*
X16551310Y37745800D02*
X16484643Y37612466D01*
X16484643Y37612466D02*
X16484643Y36879133D01*
X15217976Y37812466D02*
X15217976Y36879133D01*
X15817976Y37812466D02*
X15817976Y37079133D01*
X15817976Y37079133D02*
X15751310Y36945800D01*
X15751310Y36945800D02*
X15617976Y36879133D01*
X15617976Y36879133D02*
X15417976Y36879133D01*
X15417976Y36879133D02*
X15284643Y36945800D01*
X15284643Y36945800D02*
X15217976Y37012466D01*
X13951309Y36879133D02*
X13951309Y37612466D01*
X13951309Y37612466D02*
X14017976Y37745800D01*
X14017976Y37745800D02*
X14151309Y37812466D01*
X14151309Y37812466D02*
X14417976Y37812466D01*
X14417976Y37812466D02*
X14551309Y37745800D01*
X13951309Y36945800D02*
X14084643Y36879133D01*
X14084643Y36879133D02*
X14417976Y36879133D01*
X14417976Y36879133D02*
X14551309Y36945800D01*
X14551309Y36945800D02*
X14617976Y37079133D01*
X14617976Y37079133D02*
X14617976Y37212466D01*
X14617976Y37212466D02*
X14551309Y37345800D01*
X14551309Y37345800D02*
X14417976Y37412466D01*
X14417976Y37412466D02*
X14084643Y37412466D01*
X14084643Y37412466D02*
X13951309Y37479133D01*
X13084642Y36879133D02*
X13217976Y36945800D01*
X13217976Y36945800D02*
X13284642Y37079133D01*
X13284642Y37079133D02*
X13284642Y38279133D01*
X56845180Y15193445D02*
X57321371Y14886779D01*
X56845180Y14667731D02*
X57845180Y14667731D01*
X57845180Y14667731D02*
X57845180Y15018207D01*
X57845180Y15018207D02*
X57797561Y15105826D01*
X57797561Y15105826D02*
X57749942Y15149636D01*
X57749942Y15149636D02*
X57654704Y15193445D01*
X57654704Y15193445D02*
X57511847Y15193445D01*
X57511847Y15193445D02*
X57416609Y15149636D01*
X57416609Y15149636D02*
X57368990Y15105826D01*
X57368990Y15105826D02*
X57321371Y15018207D01*
X57321371Y15018207D02*
X57321371Y14667731D01*
X56892800Y15543922D02*
X56845180Y15675350D01*
X56845180Y15675350D02*
X56845180Y15894398D01*
X56845180Y15894398D02*
X56892800Y15982017D01*
X56892800Y15982017D02*
X56940419Y16025826D01*
X56940419Y16025826D02*
X57035657Y16069636D01*
X57035657Y16069636D02*
X57130895Y16069636D01*
X57130895Y16069636D02*
X57226133Y16025826D01*
X57226133Y16025826D02*
X57273752Y15982017D01*
X57273752Y15982017D02*
X57321371Y15894398D01*
X57321371Y15894398D02*
X57368990Y15719160D01*
X57368990Y15719160D02*
X57416609Y15631541D01*
X57416609Y15631541D02*
X57464228Y15587731D01*
X57464228Y15587731D02*
X57559466Y15543922D01*
X57559466Y15543922D02*
X57654704Y15543922D01*
X57654704Y15543922D02*
X57749942Y15587731D01*
X57749942Y15587731D02*
X57797561Y15631541D01*
X57797561Y15631541D02*
X57845180Y15719160D01*
X57845180Y15719160D02*
X57845180Y15938207D01*
X57845180Y15938207D02*
X57797561Y16069636D01*
X57845180Y16332493D02*
X57845180Y16858207D01*
X56845180Y16595350D02*
X57845180Y16595350D01*
X47066133Y14667731D02*
X47066133Y15368684D01*
X46875657Y15193445D02*
X47066133Y15368684D01*
X47066133Y15368684D02*
X47256609Y15193445D01*
X46685180Y16332493D02*
X47161371Y16025827D01*
X46685180Y15806779D02*
X47685180Y15806779D01*
X47685180Y15806779D02*
X47685180Y16157255D01*
X47685180Y16157255D02*
X47637561Y16244874D01*
X47637561Y16244874D02*
X47589942Y16288684D01*
X47589942Y16288684D02*
X47494704Y16332493D01*
X47494704Y16332493D02*
X47351847Y16332493D01*
X47351847Y16332493D02*
X47256609Y16288684D01*
X47256609Y16288684D02*
X47208990Y16244874D01*
X47208990Y16244874D02*
X47161371Y16157255D01*
X47161371Y16157255D02*
X47161371Y15806779D01*
X47685180Y16639160D02*
X46685180Y17252493D01*
X47685180Y17252493D02*
X46685180Y16639160D01*
X26511905Y12340124D02*
X26607143Y12387744D01*
X26607143Y12387744D02*
X26654762Y12435363D01*
X26654762Y12435363D02*
X26702381Y12530601D01*
X26702381Y12530601D02*
X26702381Y12816315D01*
X26702381Y12816315D02*
X26654762Y12911553D01*
X26654762Y12911553D02*
X26607143Y12959172D01*
X26607143Y12959172D02*
X26511905Y13006791D01*
X26511905Y13006791D02*
X26369048Y13006791D01*
X26369048Y13006791D02*
X26273810Y12959172D01*
X26273810Y12959172D02*
X26226191Y12911553D01*
X26226191Y12911553D02*
X26178572Y12816315D01*
X26178572Y12816315D02*
X26178572Y12530601D01*
X26178572Y12530601D02*
X26226191Y12435363D01*
X26226191Y12435363D02*
X26273810Y12387744D01*
X26273810Y12387744D02*
X26369048Y12340124D01*
X26369048Y12340124D02*
X26511905Y12340124D01*
X25750000Y13006791D02*
X25750000Y12006791D01*
X25750000Y12959172D02*
X25654762Y13006791D01*
X25654762Y13006791D02*
X25464286Y13006791D01*
X25464286Y13006791D02*
X25369048Y12959172D01*
X25369048Y12959172D02*
X25321429Y12911553D01*
X25321429Y12911553D02*
X25273810Y12816315D01*
X25273810Y12816315D02*
X25273810Y12530601D01*
X25273810Y12530601D02*
X25321429Y12435363D01*
X25321429Y12435363D02*
X25369048Y12387744D01*
X25369048Y12387744D02*
X25464286Y12340124D01*
X25464286Y12340124D02*
X25654762Y12340124D01*
X25654762Y12340124D02*
X25750000Y12387744D01*
X24464286Y12387744D02*
X24559524Y12340124D01*
X24559524Y12340124D02*
X24750000Y12340124D01*
X24750000Y12340124D02*
X24845238Y12387744D01*
X24845238Y12387744D02*
X24892857Y12482982D01*
X24892857Y12482982D02*
X24892857Y12863934D01*
X24892857Y12863934D02*
X24845238Y12959172D01*
X24845238Y12959172D02*
X24750000Y13006791D01*
X24750000Y13006791D02*
X24559524Y13006791D01*
X24559524Y13006791D02*
X24464286Y12959172D01*
X24464286Y12959172D02*
X24416667Y12863934D01*
X24416667Y12863934D02*
X24416667Y12768696D01*
X24416667Y12768696D02*
X24892857Y12673458D01*
X23988095Y13006791D02*
X23988095Y12340124D01*
X23988095Y12911553D02*
X23940476Y12959172D01*
X23940476Y12959172D02*
X23845238Y13006791D01*
X23845238Y13006791D02*
X23702381Y13006791D01*
X23702381Y13006791D02*
X23607143Y12959172D01*
X23607143Y12959172D02*
X23559524Y12863934D01*
X23559524Y12863934D02*
X23559524Y12340124D01*
X22369047Y12387744D02*
X22273809Y12340124D01*
X22273809Y12340124D02*
X22083333Y12340124D01*
X22083333Y12340124D02*
X21988095Y12387744D01*
X21988095Y12387744D02*
X21940476Y12482982D01*
X21940476Y12482982D02*
X21940476Y12530601D01*
X21940476Y12530601D02*
X21988095Y12625839D01*
X21988095Y12625839D02*
X22083333Y12673458D01*
X22083333Y12673458D02*
X22226190Y12673458D01*
X22226190Y12673458D02*
X22321428Y12721077D01*
X22321428Y12721077D02*
X22369047Y12816315D01*
X22369047Y12816315D02*
X22369047Y12863934D01*
X22369047Y12863934D02*
X22321428Y12959172D01*
X22321428Y12959172D02*
X22226190Y13006791D01*
X22226190Y13006791D02*
X22083333Y13006791D01*
X22083333Y13006791D02*
X21988095Y12959172D01*
X21369047Y12340124D02*
X21464285Y12387744D01*
X21464285Y12387744D02*
X21511904Y12435363D01*
X21511904Y12435363D02*
X21559523Y12530601D01*
X21559523Y12530601D02*
X21559523Y12816315D01*
X21559523Y12816315D02*
X21511904Y12911553D01*
X21511904Y12911553D02*
X21464285Y12959172D01*
X21464285Y12959172D02*
X21369047Y13006791D01*
X21369047Y13006791D02*
X21226190Y13006791D01*
X21226190Y13006791D02*
X21130952Y12959172D01*
X21130952Y12959172D02*
X21083333Y12911553D01*
X21083333Y12911553D02*
X21035714Y12816315D01*
X21035714Y12816315D02*
X21035714Y12530601D01*
X21035714Y12530601D02*
X21083333Y12435363D01*
X21083333Y12435363D02*
X21130952Y12387744D01*
X21130952Y12387744D02*
X21226190Y12340124D01*
X21226190Y12340124D02*
X21369047Y12340124D01*
X20178571Y13006791D02*
X20178571Y12340124D01*
X20607142Y13006791D02*
X20607142Y12482982D01*
X20607142Y12482982D02*
X20559523Y12387744D01*
X20559523Y12387744D02*
X20464285Y12340124D01*
X20464285Y12340124D02*
X20321428Y12340124D01*
X20321428Y12340124D02*
X20226190Y12387744D01*
X20226190Y12387744D02*
X20178571Y12435363D01*
X19702380Y12340124D02*
X19702380Y13006791D01*
X19702380Y12816315D02*
X19654761Y12911553D01*
X19654761Y12911553D02*
X19607142Y12959172D01*
X19607142Y12959172D02*
X19511904Y13006791D01*
X19511904Y13006791D02*
X19416666Y13006791D01*
X18654761Y12387744D02*
X18749999Y12340124D01*
X18749999Y12340124D02*
X18940475Y12340124D01*
X18940475Y12340124D02*
X19035713Y12387744D01*
X19035713Y12387744D02*
X19083332Y12435363D01*
X19083332Y12435363D02*
X19130951Y12530601D01*
X19130951Y12530601D02*
X19130951Y12816315D01*
X19130951Y12816315D02*
X19083332Y12911553D01*
X19083332Y12911553D02*
X19035713Y12959172D01*
X19035713Y12959172D02*
X18940475Y13006791D01*
X18940475Y13006791D02*
X18749999Y13006791D01*
X18749999Y13006791D02*
X18654761Y12959172D01*
X17845237Y12387744D02*
X17940475Y12340124D01*
X17940475Y12340124D02*
X18130951Y12340124D01*
X18130951Y12340124D02*
X18226189Y12387744D01*
X18226189Y12387744D02*
X18273808Y12482982D01*
X18273808Y12482982D02*
X18273808Y12863934D01*
X18273808Y12863934D02*
X18226189Y12959172D01*
X18226189Y12959172D02*
X18130951Y13006791D01*
X18130951Y13006791D02*
X17940475Y13006791D01*
X17940475Y13006791D02*
X17845237Y12959172D01*
X17845237Y12959172D02*
X17797618Y12863934D01*
X17797618Y12863934D02*
X17797618Y12768696D01*
X17797618Y12768696D02*
X18273808Y12673458D01*
X25392857Y10730180D02*
X25392857Y11730180D01*
X24964286Y10730180D02*
X24964286Y11253990D01*
X24964286Y11253990D02*
X25011905Y11349228D01*
X25011905Y11349228D02*
X25107143Y11396847D01*
X25107143Y11396847D02*
X25250000Y11396847D01*
X25250000Y11396847D02*
X25345238Y11349228D01*
X25345238Y11349228D02*
X25392857Y11301609D01*
X24059524Y10730180D02*
X24059524Y11253990D01*
X24059524Y11253990D02*
X24107143Y11349228D01*
X24107143Y11349228D02*
X24202381Y11396847D01*
X24202381Y11396847D02*
X24392857Y11396847D01*
X24392857Y11396847D02*
X24488095Y11349228D01*
X24059524Y10777800D02*
X24154762Y10730180D01*
X24154762Y10730180D02*
X24392857Y10730180D01*
X24392857Y10730180D02*
X24488095Y10777800D01*
X24488095Y10777800D02*
X24535714Y10873038D01*
X24535714Y10873038D02*
X24535714Y10968276D01*
X24535714Y10968276D02*
X24488095Y11063514D01*
X24488095Y11063514D02*
X24392857Y11111133D01*
X24392857Y11111133D02*
X24154762Y11111133D01*
X24154762Y11111133D02*
X24059524Y11158752D01*
X23583333Y10730180D02*
X23583333Y11396847D01*
X23583333Y11206371D02*
X23535714Y11301609D01*
X23535714Y11301609D02*
X23488095Y11349228D01*
X23488095Y11349228D02*
X23392857Y11396847D01*
X23392857Y11396847D02*
X23297619Y11396847D01*
X22535714Y10730180D02*
X22535714Y11730180D01*
X22535714Y10777800D02*
X22630952Y10730180D01*
X22630952Y10730180D02*
X22821428Y10730180D01*
X22821428Y10730180D02*
X22916666Y10777800D01*
X22916666Y10777800D02*
X22964285Y10825419D01*
X22964285Y10825419D02*
X23011904Y10920657D01*
X23011904Y10920657D02*
X23011904Y11206371D01*
X23011904Y11206371D02*
X22964285Y11301609D01*
X22964285Y11301609D02*
X22916666Y11349228D01*
X22916666Y11349228D02*
X22821428Y11396847D01*
X22821428Y11396847D02*
X22630952Y11396847D01*
X22630952Y11396847D02*
X22535714Y11349228D01*
X22154761Y11396847D02*
X21964285Y10730180D01*
X21964285Y10730180D02*
X21773809Y11206371D01*
X21773809Y11206371D02*
X21583333Y10730180D01*
X21583333Y10730180D02*
X21392857Y11396847D01*
X20583333Y10730180D02*
X20583333Y11253990D01*
X20583333Y11253990D02*
X20630952Y11349228D01*
X20630952Y11349228D02*
X20726190Y11396847D01*
X20726190Y11396847D02*
X20916666Y11396847D01*
X20916666Y11396847D02*
X21011904Y11349228D01*
X20583333Y10777800D02*
X20678571Y10730180D01*
X20678571Y10730180D02*
X20916666Y10730180D01*
X20916666Y10730180D02*
X21011904Y10777800D01*
X21011904Y10777800D02*
X21059523Y10873038D01*
X21059523Y10873038D02*
X21059523Y10968276D01*
X21059523Y10968276D02*
X21011904Y11063514D01*
X21011904Y11063514D02*
X20916666Y11111133D01*
X20916666Y11111133D02*
X20678571Y11111133D01*
X20678571Y11111133D02*
X20583333Y11158752D01*
X20107142Y10730180D02*
X20107142Y11396847D01*
X20107142Y11206371D02*
X20059523Y11301609D01*
X20059523Y11301609D02*
X20011904Y11349228D01*
X20011904Y11349228D02*
X19916666Y11396847D01*
X19916666Y11396847D02*
X19821428Y11396847D01*
X19107142Y10777800D02*
X19202380Y10730180D01*
X19202380Y10730180D02*
X19392856Y10730180D01*
X19392856Y10730180D02*
X19488094Y10777800D01*
X19488094Y10777800D02*
X19535713Y10873038D01*
X19535713Y10873038D02*
X19535713Y11253990D01*
X19535713Y11253990D02*
X19488094Y11349228D01*
X19488094Y11349228D02*
X19392856Y11396847D01*
X19392856Y11396847D02*
X19202380Y11396847D01*
X19202380Y11396847D02*
X19107142Y11349228D01*
X19107142Y11349228D02*
X19059523Y11253990D01*
X19059523Y11253990D02*
X19059523Y11158752D01*
X19059523Y11158752D02*
X19535713Y11063514D01*
X45145180Y14580112D02*
X45145180Y15149636D01*
X45145180Y15149636D02*
X44764228Y14842969D01*
X44764228Y14842969D02*
X44764228Y14974398D01*
X44764228Y14974398D02*
X44716609Y15062017D01*
X44716609Y15062017D02*
X44668990Y15105826D01*
X44668990Y15105826D02*
X44573752Y15149636D01*
X44573752Y15149636D02*
X44335657Y15149636D01*
X44335657Y15149636D02*
X44240419Y15105826D01*
X44240419Y15105826D02*
X44192800Y15062017D01*
X44192800Y15062017D02*
X44145180Y14974398D01*
X44145180Y14974398D02*
X44145180Y14711541D01*
X44145180Y14711541D02*
X44192800Y14623922D01*
X44192800Y14623922D02*
X44240419Y14580112D01*
X45145180Y15412493D02*
X44145180Y15719159D01*
X44145180Y15719159D02*
X45145180Y16025826D01*
X45145180Y16244873D02*
X45145180Y16814397D01*
X45145180Y16814397D02*
X44764228Y16507730D01*
X44764228Y16507730D02*
X44764228Y16639159D01*
X44764228Y16639159D02*
X44716609Y16726778D01*
X44716609Y16726778D02*
X44668990Y16770587D01*
X44668990Y16770587D02*
X44573752Y16814397D01*
X44573752Y16814397D02*
X44335657Y16814397D01*
X44335657Y16814397D02*
X44240419Y16770587D01*
X44240419Y16770587D02*
X44192800Y16726778D01*
X44192800Y16726778D02*
X44145180Y16639159D01*
X44145180Y16639159D02*
X44145180Y16376302D01*
X44145180Y16376302D02*
X44192800Y16288683D01*
X44192800Y16288683D02*
X44240419Y16244873D01*
X52246133Y15368684D02*
X52246133Y14667731D01*
X52055657Y14842969D02*
X52246133Y14667731D01*
X52246133Y14667731D02*
X52436609Y14842969D01*
X52865180Y15675351D02*
X52865180Y16201065D01*
X51865180Y15938208D02*
X52865180Y15938208D01*
X52865180Y16420112D02*
X51865180Y17033445D01*
X52865180Y17033445D02*
X51865180Y16420112D01*
X54305180Y14667731D02*
X55305180Y14667731D01*
X55305180Y15281064D02*
X55305180Y15456302D01*
X55305180Y15456302D02*
X55257561Y15543921D01*
X55257561Y15543921D02*
X55162323Y15631540D01*
X55162323Y15631540D02*
X54971847Y15675350D01*
X54971847Y15675350D02*
X54638514Y15675350D01*
X54638514Y15675350D02*
X54448038Y15631540D01*
X54448038Y15631540D02*
X54352800Y15543921D01*
X54352800Y15543921D02*
X54305180Y15456302D01*
X54305180Y15456302D02*
X54305180Y15281064D01*
X54305180Y15281064D02*
X54352800Y15193445D01*
X54352800Y15193445D02*
X54448038Y15105826D01*
X54448038Y15105826D02*
X54638514Y15062017D01*
X54638514Y15062017D02*
X54971847Y15062017D01*
X54971847Y15062017D02*
X55162323Y15105826D01*
X55162323Y15105826D02*
X55257561Y15193445D01*
X55257561Y15193445D02*
X55305180Y15281064D01*
X55305180Y16244874D02*
X55305180Y16332493D01*
X55305180Y16332493D02*
X55257561Y16420112D01*
X55257561Y16420112D02*
X55209942Y16463922D01*
X55209942Y16463922D02*
X55114704Y16507731D01*
X55114704Y16507731D02*
X54924228Y16551541D01*
X54924228Y16551541D02*
X54686133Y16551541D01*
X54686133Y16551541D02*
X54495657Y16507731D01*
X54495657Y16507731D02*
X54400419Y16463922D01*
X54400419Y16463922D02*
X54352800Y16420112D01*
X54352800Y16420112D02*
X54305180Y16332493D01*
X54305180Y16332493D02*
X54305180Y16244874D01*
X54305180Y16244874D02*
X54352800Y16157255D01*
X54352800Y16157255D02*
X54400419Y16113446D01*
X54400419Y16113446D02*
X54495657Y16069636D01*
X54495657Y16069636D02*
X54686133Y16025827D01*
X54686133Y16025827D02*
X54924228Y16025827D01*
X54924228Y16025827D02*
X55114704Y16069636D01*
X55114704Y16069636D02*
X55209942Y16113446D01*
X55209942Y16113446D02*
X55257561Y16157255D01*
X55257561Y16157255D02*
X55305180Y16244874D01*
X50029887Y11342371D02*
X50201316Y11428085D01*
X50201316Y11428085D02*
X50458458Y11428085D01*
X50458458Y11428085D02*
X50715601Y11342371D01*
X50715601Y11342371D02*
X50887030Y11170942D01*
X50887030Y11170942D02*
X50972744Y10999514D01*
X50972744Y10999514D02*
X51058458Y10656657D01*
X51058458Y10656657D02*
X51058458Y10399514D01*
X51058458Y10399514D02*
X50972744Y10056657D01*
X50972744Y10056657D02*
X50887030Y9885228D01*
X50887030Y9885228D02*
X50715601Y9713800D01*
X50715601Y9713800D02*
X50458458Y9628085D01*
X50458458Y9628085D02*
X50287030Y9628085D01*
X50287030Y9628085D02*
X50029887Y9713800D01*
X50029887Y9713800D02*
X49944173Y9799514D01*
X49944173Y9799514D02*
X49944173Y10399514D01*
X49944173Y10399514D02*
X50287030Y10399514D01*
X49172744Y9628085D02*
X49172744Y11428085D01*
X49172744Y11428085D02*
X48487030Y11428085D01*
X48487030Y11428085D02*
X48315601Y11342371D01*
X48315601Y11342371D02*
X48229887Y11256657D01*
X48229887Y11256657D02*
X48144173Y11085228D01*
X48144173Y11085228D02*
X48144173Y10828085D01*
X48144173Y10828085D02*
X48229887Y10656657D01*
X48229887Y10656657D02*
X48315601Y10570942D01*
X48315601Y10570942D02*
X48487030Y10485228D01*
X48487030Y10485228D02*
X49172744Y10485228D01*
X47544173Y11428085D02*
X46344173Y9628085D01*
X46344173Y11428085D02*
X47544173Y9628085D01*
X44887030Y9713800D02*
X45058458Y9628085D01*
X45058458Y9628085D02*
X45401315Y9628085D01*
X45401315Y9628085D02*
X45572744Y9713800D01*
X45572744Y9713800D02*
X45658458Y9799514D01*
X45658458Y9799514D02*
X45744172Y9970942D01*
X45744172Y9970942D02*
X45744172Y10485228D01*
X45744172Y10485228D02*
X45658458Y10656657D01*
X45658458Y10656657D02*
X45572744Y10742371D01*
X45572744Y10742371D02*
X45401315Y10828085D01*
X45401315Y10828085D02*
X45058458Y10828085D01*
X45058458Y10828085D02*
X44887030Y10742371D01*
X43858458Y9628085D02*
X44029887Y9713800D01*
X44029887Y9713800D02*
X44115601Y9799514D01*
X44115601Y9799514D02*
X44201315Y9970942D01*
X44201315Y9970942D02*
X44201315Y10485228D01*
X44201315Y10485228D02*
X44115601Y10656657D01*
X44115601Y10656657D02*
X44029887Y10742371D01*
X44029887Y10742371D02*
X43858458Y10828085D01*
X43858458Y10828085D02*
X43601315Y10828085D01*
X43601315Y10828085D02*
X43429887Y10742371D01*
X43429887Y10742371D02*
X43344173Y10656657D01*
X43344173Y10656657D02*
X43258458Y10485228D01*
X43258458Y10485228D02*
X43258458Y9970942D01*
X43258458Y9970942D02*
X43344173Y9799514D01*
X43344173Y9799514D02*
X43429887Y9713800D01*
X43429887Y9713800D02*
X43601315Y9628085D01*
X43601315Y9628085D02*
X43858458Y9628085D01*
X42487030Y10828085D02*
X42487030Y9628085D01*
X42487030Y10656657D02*
X42401316Y10742371D01*
X42401316Y10742371D02*
X42229887Y10828085D01*
X42229887Y10828085D02*
X41972744Y10828085D01*
X41972744Y10828085D02*
X41801316Y10742371D01*
X41801316Y10742371D02*
X41715602Y10570942D01*
X41715602Y10570942D02*
X41715602Y9628085D01*
X40858459Y10828085D02*
X40858459Y9628085D01*
X40858459Y10656657D02*
X40772745Y10742371D01*
X40772745Y10742371D02*
X40601316Y10828085D01*
X40601316Y10828085D02*
X40344173Y10828085D01*
X40344173Y10828085D02*
X40172745Y10742371D01*
X40172745Y10742371D02*
X40087031Y10570942D01*
X40087031Y10570942D02*
X40087031Y9628085D01*
X38544174Y9713800D02*
X38715602Y9628085D01*
X38715602Y9628085D02*
X39058460Y9628085D01*
X39058460Y9628085D02*
X39229888Y9713800D01*
X39229888Y9713800D02*
X39315602Y9885228D01*
X39315602Y9885228D02*
X39315602Y10570942D01*
X39315602Y10570942D02*
X39229888Y10742371D01*
X39229888Y10742371D02*
X39058460Y10828085D01*
X39058460Y10828085D02*
X38715602Y10828085D01*
X38715602Y10828085D02*
X38544174Y10742371D01*
X38544174Y10742371D02*
X38458460Y10570942D01*
X38458460Y10570942D02*
X38458460Y10399514D01*
X38458460Y10399514D02*
X39315602Y10228085D01*
X36915603Y9713800D02*
X37087031Y9628085D01*
X37087031Y9628085D02*
X37429888Y9628085D01*
X37429888Y9628085D02*
X37601317Y9713800D01*
X37601317Y9713800D02*
X37687031Y9799514D01*
X37687031Y9799514D02*
X37772745Y9970942D01*
X37772745Y9970942D02*
X37772745Y10485228D01*
X37772745Y10485228D02*
X37687031Y10656657D01*
X37687031Y10656657D02*
X37601317Y10742371D01*
X37601317Y10742371D02*
X37429888Y10828085D01*
X37429888Y10828085D02*
X37087031Y10828085D01*
X37087031Y10828085D02*
X36915603Y10742371D01*
X36401317Y10828085D02*
X35715603Y10828085D01*
X36144174Y11428085D02*
X36144174Y9885228D01*
X36144174Y9885228D02*
X36058460Y9713800D01*
X36058460Y9713800D02*
X35887031Y9628085D01*
X35887031Y9628085D02*
X35715603Y9628085D01*
X34858460Y9628085D02*
X35029889Y9713800D01*
X35029889Y9713800D02*
X35115603Y9799514D01*
X35115603Y9799514D02*
X35201317Y9970942D01*
X35201317Y9970942D02*
X35201317Y10485228D01*
X35201317Y10485228D02*
X35115603Y10656657D01*
X35115603Y10656657D02*
X35029889Y10742371D01*
X35029889Y10742371D02*
X34858460Y10828085D01*
X34858460Y10828085D02*
X34601317Y10828085D01*
X34601317Y10828085D02*
X34429889Y10742371D01*
X34429889Y10742371D02*
X34344175Y10656657D01*
X34344175Y10656657D02*
X34258460Y10485228D01*
X34258460Y10485228D02*
X34258460Y9970942D01*
X34258460Y9970942D02*
X34344175Y9799514D01*
X34344175Y9799514D02*
X34429889Y9713800D01*
X34429889Y9713800D02*
X34601317Y9628085D01*
X34601317Y9628085D02*
X34858460Y9628085D01*
X33487032Y9628085D02*
X33487032Y10828085D01*
X33487032Y10485228D02*
X33401318Y10656657D01*
X33401318Y10656657D02*
X33315604Y10742371D01*
X33315604Y10742371D02*
X33144175Y10828085D01*
X33144175Y10828085D02*
X32972746Y10828085D01*
X31258460Y11428085D02*
X30658460Y9628085D01*
X30658460Y9628085D02*
X30058460Y11428085D01*
X29544174Y11256657D02*
X29458460Y11342371D01*
X29458460Y11342371D02*
X29287032Y11428085D01*
X29287032Y11428085D02*
X28858460Y11428085D01*
X28858460Y11428085D02*
X28687032Y11342371D01*
X28687032Y11342371D02*
X28601317Y11256657D01*
X28601317Y11256657D02*
X28515603Y11085228D01*
X28515603Y11085228D02*
X28515603Y10913800D01*
X28515603Y10913800D02*
X28601317Y10656657D01*
X28601317Y10656657D02*
X29629889Y9628085D01*
X29629889Y9628085D02*
X28515603Y9628085D01*
X50839411Y7842419D02*
X50839411Y8575752D01*
X50839411Y8366228D02*
X50787030Y8470990D01*
X50787030Y8470990D02*
X50734649Y8523371D01*
X50734649Y8523371D02*
X50629887Y8575752D01*
X50629887Y8575752D02*
X50525125Y8575752D01*
X49739411Y7894800D02*
X49844173Y7842419D01*
X49844173Y7842419D02*
X50053697Y7842419D01*
X50053697Y7842419D02*
X50158459Y7894800D01*
X50158459Y7894800D02*
X50210840Y7999561D01*
X50210840Y7999561D02*
X50210840Y8418609D01*
X50210840Y8418609D02*
X50158459Y8523371D01*
X50158459Y8523371D02*
X50053697Y8575752D01*
X50053697Y8575752D02*
X49844173Y8575752D01*
X49844173Y8575752D02*
X49739411Y8523371D01*
X49739411Y8523371D02*
X49687030Y8418609D01*
X49687030Y8418609D02*
X49687030Y8313847D01*
X49687030Y8313847D02*
X50210840Y8209085D01*
X49320364Y8575752D02*
X49058459Y7842419D01*
X49058459Y7842419D02*
X48796554Y8575752D01*
X47329888Y8942419D02*
X47225126Y8942419D01*
X47225126Y8942419D02*
X47120364Y8890038D01*
X47120364Y8890038D02*
X47067983Y8837657D01*
X47067983Y8837657D02*
X47015602Y8732895D01*
X47015602Y8732895D02*
X46963221Y8523371D01*
X46963221Y8523371D02*
X46963221Y8261466D01*
X46963221Y8261466D02*
X47015602Y8051942D01*
X47015602Y8051942D02*
X47067983Y7947180D01*
X47067983Y7947180D02*
X47120364Y7894800D01*
X47120364Y7894800D02*
X47225126Y7842419D01*
X47225126Y7842419D02*
X47329888Y7842419D01*
X47329888Y7842419D02*
X47434650Y7894800D01*
X47434650Y7894800D02*
X47487031Y7947180D01*
X47487031Y7947180D02*
X47539412Y8051942D01*
X47539412Y8051942D02*
X47591793Y8261466D01*
X47591793Y8261466D02*
X47591793Y8523371D01*
X47591793Y8523371D02*
X47539412Y8732895D01*
X47539412Y8732895D02*
X47487031Y8837657D01*
X47487031Y8837657D02*
X47434650Y8890038D01*
X47434650Y8890038D02*
X47329888Y8942419D01*
X46491793Y7947180D02*
X46439412Y7894800D01*
X46439412Y7894800D02*
X46491793Y7842419D01*
X46491793Y7842419D02*
X46544174Y7894800D01*
X46544174Y7894800D02*
X46491793Y7947180D01*
X46491793Y7947180D02*
X46491793Y7842419D01*
X46072745Y8942419D02*
X45391792Y8942419D01*
X45391792Y8942419D02*
X45758459Y8523371D01*
X45758459Y8523371D02*
X45601316Y8523371D01*
X45601316Y8523371D02*
X45496554Y8470990D01*
X45496554Y8470990D02*
X45444173Y8418609D01*
X45444173Y8418609D02*
X45391792Y8313847D01*
X45391792Y8313847D02*
X45391792Y8051942D01*
X45391792Y8051942D02*
X45444173Y7947180D01*
X45444173Y7947180D02*
X45496554Y7894800D01*
X45496554Y7894800D02*
X45601316Y7842419D01*
X45601316Y7842419D02*
X45915602Y7842419D01*
X45915602Y7842419D02*
X46020364Y7894800D01*
X46020364Y7894800D02*
X46072745Y7947180D01*
X50177561Y15149636D02*
X50225180Y15062017D01*
X50225180Y15062017D02*
X50225180Y14930588D01*
X50225180Y14930588D02*
X50177561Y14799160D01*
X50177561Y14799160D02*
X50082323Y14711541D01*
X50082323Y14711541D02*
X49987085Y14667731D01*
X49987085Y14667731D02*
X49796609Y14623922D01*
X49796609Y14623922D02*
X49653752Y14623922D01*
X49653752Y14623922D02*
X49463276Y14667731D01*
X49463276Y14667731D02*
X49368038Y14711541D01*
X49368038Y14711541D02*
X49272800Y14799160D01*
X49272800Y14799160D02*
X49225180Y14930588D01*
X49225180Y14930588D02*
X49225180Y15018207D01*
X49225180Y15018207D02*
X49272800Y15149636D01*
X49272800Y15149636D02*
X49320419Y15193445D01*
X49320419Y15193445D02*
X49653752Y15193445D01*
X49653752Y15193445D02*
X49653752Y15018207D01*
X49225180Y15587731D02*
X50225180Y15587731D01*
X50225180Y15587731D02*
X49225180Y16113445D01*
X49225180Y16113445D02*
X50225180Y16113445D01*
X49225180Y16551541D02*
X50225180Y16551541D01*
X50225180Y16551541D02*
X50225180Y16770589D01*
X50225180Y16770589D02*
X50177561Y16902017D01*
X50177561Y16902017D02*
X50082323Y16989636D01*
X50082323Y16989636D02*
X49987085Y17033446D01*
X49987085Y17033446D02*
X49796609Y17077255D01*
X49796609Y17077255D02*
X49653752Y17077255D01*
X49653752Y17077255D02*
X49463276Y17033446D01*
X49463276Y17033446D02*
X49368038Y16989636D01*
X49368038Y16989636D02*
X49272800Y16902017D01*
X49272800Y16902017D02*
X49225180Y16770589D01*
X49225180Y16770589D02*
X49225180Y16551541D01*
D12*
%TO.C,U$1*%
G36*
X41249443Y20623002D02*
G01*
X42383484Y18826046D01*
X41532984Y18826046D01*
X41295979Y19222244D01*
X41060599Y19622895D01*
X40944255Y19822874D01*
X40914347Y19873579D01*
X40883557Y19924551D01*
X40851610Y19975782D01*
X40818230Y20027262D01*
X40147959Y18826537D01*
X39257974Y18826537D01*
X39546044Y19287200D01*
X39689467Y19515562D01*
X39833793Y19742673D01*
X40015431Y20028983D01*
X40195887Y20318532D01*
X40273545Y20445299D01*
X40336354Y20549808D01*
X40379464Y20624370D01*
X40392116Y20648019D01*
X40398024Y20661298D01*
X39324835Y22353276D01*
X40171319Y22353276D01*
X40528743Y21720773D01*
X40788985Y21256774D01*
X40790564Y21254100D01*
X40792256Y21251478D01*
X40794055Y21248891D01*
X40795957Y21246327D01*
X40797961Y21243772D01*
X40800060Y21241210D01*
X40804535Y21236010D01*
X40814480Y21224914D01*
X40819892Y21218791D01*
X40825557Y21212132D01*
X41453155Y22353521D01*
X42328455Y22353521D01*
X41249443Y20623002D01*
G37*
G36*
X29280877Y21124385D02*
G01*
X29321007Y21117762D01*
X29360842Y21110570D01*
X29400409Y21102654D01*
X29439738Y21093857D01*
X29478857Y21084022D01*
X29517795Y21072991D01*
X29569387Y21056642D01*
X29620242Y21038816D01*
X29670362Y21019489D01*
X29719751Y20998637D01*
X29768414Y20976235D01*
X29816352Y20952261D01*
X29863571Y20926688D01*
X29910074Y20899495D01*
X29947054Y20876449D01*
X29983421Y20852629D01*
X30019215Y20828086D01*
X30054477Y20802870D01*
X30089244Y20777032D01*
X30123559Y20750622D01*
X30190986Y20696290D01*
X30257078Y20640279D01*
X30322150Y20582994D01*
X30450515Y20466222D01*
X30512833Y20409501D01*
X30543902Y20381041D01*
X30574644Y20352232D01*
X30587207Y20340124D01*
X30599645Y20327890D01*
X30624238Y20303175D01*
X30672958Y20253650D01*
X30605507Y20257777D01*
X30572123Y20259492D01*
X30555474Y20260025D01*
X30538837Y20260251D01*
X30402339Y20261472D01*
X30334098Y20261720D01*
X30265911Y20260864D01*
X30197812Y20258259D01*
X30129838Y20253259D01*
X30095910Y20249658D01*
X30062026Y20245216D01*
X30028191Y20239852D01*
X29994410Y20233485D01*
X29920495Y20218196D01*
X29883742Y20209847D01*
X29847275Y20200525D01*
X29829183Y20195381D01*
X29811205Y20189852D01*
X29793353Y20183891D01*
X29775642Y20177451D01*
X29758086Y20170483D01*
X29740698Y20162942D01*
X29723494Y20154779D01*
X29706486Y20145949D01*
X29679712Y20130941D01*
X29653476Y20115301D01*
X29627766Y20099039D01*
X29602573Y20082166D01*
X29577889Y20064694D01*
X29553702Y20046632D01*
X29530005Y20027994D01*
X29506786Y20008789D01*
X29484037Y19989028D01*
X29461748Y19968723D01*
X29439909Y19947886D01*
X29418511Y19926526D01*
X29397545Y19904655D01*
X29377000Y19882285D01*
X29356867Y19859426D01*
X29337137Y19836089D01*
X29299957Y19790695D01*
X29262785Y19744510D01*
X29186063Y19648619D01*
X29178380Y19655335D01*
X29171078Y19662212D01*
X29164137Y19669242D01*
X29157537Y19676418D01*
X29151258Y19683730D01*
X29145278Y19691172D01*
X29139579Y19698736D01*
X29134139Y19706413D01*
X29128938Y19714196D01*
X29123957Y19722076D01*
X29119174Y19730047D01*
X29114569Y19738099D01*
X29105814Y19754418D01*
X29097528Y19770969D01*
X29078386Y19812144D01*
X29060662Y19853839D01*
X29044212Y19895999D01*
X29028892Y19938568D01*
X29014556Y19981490D01*
X29001060Y20024710D01*
X28988258Y20068171D01*
X28976006Y20111819D01*
X28961105Y20168977D01*
X28947959Y20226359D01*
X28936797Y20283993D01*
X28927844Y20341903D01*
X28924268Y20370970D01*
X28921329Y20400117D01*
X28919057Y20429345D01*
X28917478Y20458659D01*
X28916623Y20488062D01*
X28916519Y20517557D01*
X28917194Y20547147D01*
X28918677Y20576836D01*
X28918754Y20578522D01*
X28918786Y20580211D01*
X28918784Y20581901D01*
X28918762Y20583593D01*
X28918703Y20586976D01*
X28918692Y20588667D01*
X28918708Y20590356D01*
X28920761Y20632555D01*
X28924917Y20673660D01*
X28931167Y20713673D01*
X28939504Y20752599D01*
X28949921Y20790443D01*
X28962410Y20827210D01*
X28976964Y20862902D01*
X28993574Y20897526D01*
X29012234Y20931085D01*
X29032936Y20963584D01*
X29055673Y20995026D01*
X29080437Y21025417D01*
X29107220Y21054761D01*
X29136015Y21083062D01*
X29166815Y21110325D01*
X29199612Y21136554D01*
X29280877Y21124385D01*
G37*
G36*
X35864780Y20697325D02*
G01*
X35855571Y20602393D01*
X35844258Y20508315D01*
X35830838Y20415069D01*
X35815311Y20322631D01*
X35797677Y20230979D01*
X35777933Y20140091D01*
X35756080Y20049943D01*
X35732115Y19960515D01*
X35706038Y19871783D01*
X35677849Y19783724D01*
X35647546Y19696316D01*
X35615127Y19609538D01*
X35580593Y19523365D01*
X35543942Y19437776D01*
X35505173Y19352748D01*
X35429516Y19323790D01*
X35393028Y19309737D01*
X35357009Y19295605D01*
X35280361Y19265804D01*
X35203370Y19237099D01*
X35126012Y19209533D01*
X35048261Y19183149D01*
X34970093Y19157992D01*
X34891484Y19134102D01*
X34812410Y19111525D01*
X34732845Y19090302D01*
X34663758Y19072908D01*
X34594557Y19056254D01*
X34455777Y19025036D01*
X34316428Y18996394D01*
X34176432Y18970071D01*
X34133112Y18963175D01*
X34089769Y18957804D01*
X34046413Y18953587D01*
X34003052Y18950151D01*
X33916352Y18944141D01*
X33873031Y18940824D01*
X33829741Y18936804D01*
X33793683Y18933742D01*
X33757496Y18931878D01*
X33721208Y18930961D01*
X33684847Y18930739D01*
X33539240Y18931751D01*
X33326530Y18931235D01*
X33113864Y18932973D01*
X32901260Y18938144D01*
X32794988Y18942386D01*
X32688739Y18947928D01*
X32682104Y18948462D01*
X32675484Y18949240D01*
X32668876Y18950198D01*
X32662275Y18951274D01*
X32649077Y18953521D01*
X32642472Y18954565D01*
X32635857Y18955472D01*
X32461546Y18976692D01*
X32452575Y18961380D01*
X32446984Y18951797D01*
X32423726Y18914513D01*
X32399039Y18879635D01*
X32372934Y18847154D01*
X32345422Y18817060D01*
X32316516Y18789343D01*
X32286227Y18763996D01*
X32254569Y18741007D01*
X32221551Y18720368D01*
X32187188Y18702070D01*
X32151490Y18686102D01*
X32114469Y18672457D01*
X32076137Y18661124D01*
X32036507Y18652094D01*
X31995590Y18645358D01*
X31953398Y18640907D01*
X31909944Y18638730D01*
X31889525Y18638690D01*
X31869286Y18639516D01*
X31849227Y18641181D01*
X31829346Y18643660D01*
X31809645Y18646926D01*
X31790121Y18650951D01*
X31770776Y18655710D01*
X31751608Y18661175D01*
X31732617Y18667321D01*
X31713803Y18674119D01*
X31695165Y18681545D01*
X31676704Y18689571D01*
X31658417Y18698170D01*
X31640306Y18707317D01*
X31622369Y18716983D01*
X31604607Y18727143D01*
X31582802Y18740565D01*
X31561840Y18754676D01*
X31541718Y18769479D01*
X31522433Y18784974D01*
X31503981Y18801161D01*
X31486359Y18818043D01*
X31469565Y18835620D01*
X31453594Y18853893D01*
X31438444Y18872863D01*
X31424111Y18892530D01*
X31410592Y18912897D01*
X31397883Y18933964D01*
X31385983Y18955732D01*
X31374887Y18978202D01*
X31364591Y19001375D01*
X31355094Y19025252D01*
X31349637Y19040768D01*
X31344873Y19056332D01*
X31340764Y19071941D01*
X31337271Y19087594D01*
X31334353Y19103286D01*
X31331973Y19119016D01*
X31330091Y19134780D01*
X31328667Y19150576D01*
X31327664Y19166401D01*
X31327040Y19182253D01*
X31326778Y19214024D01*
X31327568Y19245867D01*
X31329097Y19277760D01*
X31330921Y19300664D01*
X31333775Y19323132D01*
X31337644Y19345174D01*
X31342512Y19366801D01*
X31348367Y19388021D01*
X31355192Y19408844D01*
X31362974Y19429281D01*
X31371698Y19449341D01*
X31381348Y19469034D01*
X31391912Y19488369D01*
X31403374Y19507357D01*
X31415719Y19526007D01*
X31428933Y19544329D01*
X31443001Y19562333D01*
X31457909Y19580029D01*
X31473642Y19597426D01*
X31501010Y19580862D01*
X31514002Y19573050D01*
X31526861Y19565476D01*
X31619685Y19510739D01*
X31666337Y19483816D01*
X31689867Y19470739D01*
X31713589Y19458022D01*
X31794138Y19417505D01*
X31875774Y19379965D01*
X31958479Y19345360D01*
X32042241Y19313648D01*
X32127042Y19284786D01*
X32212869Y19258734D01*
X32299707Y19235449D01*
X32387540Y19214889D01*
X32460142Y19200077D01*
X32532940Y19187163D01*
X32605937Y19176123D01*
X32679134Y19166932D01*
X32752536Y19159565D01*
X32826145Y19153996D01*
X32899964Y19150200D01*
X32973995Y19148154D01*
X33026238Y19147954D01*
X33078387Y19148935D01*
X33130458Y19150974D01*
X33182470Y19153948D01*
X33234440Y19157734D01*
X33286386Y19162210D01*
X33390277Y19172737D01*
X33438673Y19178558D01*
X33486848Y19185350D01*
X33534832Y19193007D01*
X33582651Y19201423D01*
X33630334Y19210493D01*
X33677907Y19220108D01*
X33772838Y19240555D01*
X33829193Y19253657D01*
X33885219Y19267860D01*
X33940944Y19283100D01*
X33996393Y19299312D01*
X34051592Y19316428D01*
X34106566Y19334385D01*
X34161343Y19353116D01*
X34215947Y19372555D01*
X34264069Y19390488D01*
X34311830Y19409222D01*
X34359212Y19428758D01*
X34406197Y19449096D01*
X34452767Y19470236D01*
X34498903Y19492179D01*
X34544587Y19514923D01*
X34589801Y19538471D01*
X34632416Y19561669D01*
X34674538Y19585624D01*
X34716177Y19610313D01*
X34757343Y19635715D01*
X34798043Y19661808D01*
X34838289Y19688571D01*
X34917451Y19744015D01*
X34994902Y19801873D01*
X35070718Y19861971D01*
X35144971Y19924134D01*
X35217737Y19988188D01*
X35304973Y20069470D01*
X35389166Y20153394D01*
X35430093Y20196364D01*
X35470224Y20240014D01*
X35509549Y20284351D01*
X35548056Y20329383D01*
X35585733Y20375114D01*
X35622570Y20421554D01*
X35658553Y20468706D01*
X35693673Y20516580D01*
X35727918Y20565181D01*
X35761276Y20614515D01*
X35793735Y20664590D01*
X35825285Y20715412D01*
X35871884Y20793132D01*
X35864780Y20697325D01*
G37*
G36*
X45100284Y18830093D02*
G01*
X45047084Y18826667D01*
X44958776Y18824449D01*
X44725613Y18823450D01*
X44498353Y18826722D01*
X44417424Y18829842D01*
X44374555Y18833889D01*
X44374555Y20097484D01*
X44298313Y20097484D01*
X43946546Y20097831D01*
X43594779Y20097171D01*
X43551754Y20097344D01*
X43508830Y20098371D01*
X43466002Y20100304D01*
X43423268Y20103194D01*
X43380625Y20107091D01*
X43338069Y20112047D01*
X43295597Y20118112D01*
X43253206Y20125338D01*
X43194517Y20137115D01*
X43136541Y20150797D01*
X43107843Y20158428D01*
X43079350Y20166625D01*
X43051071Y20175418D01*
X43023015Y20184837D01*
X42995191Y20194912D01*
X42967608Y20205673D01*
X42940275Y20217149D01*
X42913202Y20229371D01*
X42886396Y20242367D01*
X42859867Y20256170D01*
X42833624Y20270807D01*
X42807676Y20286309D01*
X42784814Y20300949D01*
X42762636Y20316189D01*
X42741142Y20332032D01*
X42720330Y20348480D01*
X42700199Y20365536D01*
X42680749Y20383201D01*
X42661979Y20401479D01*
X42643887Y20420371D01*
X42626473Y20439880D01*
X42609735Y20460009D01*
X42593673Y20480759D01*
X42578286Y20502134D01*
X42563572Y20524136D01*
X42549530Y20546766D01*
X42536160Y20570028D01*
X42523461Y20593924D01*
X42509954Y20621431D01*
X42497362Y20649208D01*
X42485661Y20677242D01*
X42474828Y20705518D01*
X42464838Y20734023D01*
X42455667Y20762742D01*
X42447290Y20791662D01*
X42439685Y20820769D01*
X42432826Y20850049D01*
X42426689Y20879487D01*
X42421251Y20909071D01*
X42416487Y20938785D01*
X42408884Y20998549D01*
X42403687Y21058669D01*
X42399311Y21136019D01*
X42396949Y21213366D01*
X42397040Y21253346D01*
X43126242Y21253346D01*
X43126441Y21214769D01*
X43128033Y21176087D01*
X43131042Y21137807D01*
X43135494Y21100435D01*
X43141413Y21064478D01*
X43148826Y21030443D01*
X43157757Y20998835D01*
X43168231Y20970162D01*
X43180274Y20944931D01*
X43190196Y20927655D01*
X43200607Y20911046D01*
X43211512Y20895100D01*
X43222917Y20879815D01*
X43234828Y20865187D01*
X43247251Y20851214D01*
X43260190Y20837891D01*
X43273653Y20825217D01*
X43287645Y20813187D01*
X43302171Y20801798D01*
X43317238Y20791048D01*
X43332851Y20780934D01*
X43349015Y20771451D01*
X43365737Y20762598D01*
X43383023Y20754370D01*
X43400877Y20746765D01*
X43414210Y20741567D01*
X43427628Y20736670D01*
X43441131Y20732078D01*
X43454715Y20727796D01*
X43468381Y20723829D01*
X43482126Y20720182D01*
X43495950Y20716860D01*
X43509849Y20713867D01*
X43523824Y20711209D01*
X43537873Y20708890D01*
X43551994Y20706915D01*
X43566185Y20705289D01*
X43580445Y20704017D01*
X43594773Y20703103D01*
X43609168Y20702553D01*
X43623627Y20702371D01*
X44333966Y20702193D01*
X44338116Y20702265D01*
X44342341Y20702467D01*
X44346718Y20702777D01*
X44351325Y20703173D01*
X44361539Y20704137D01*
X44373604Y20705185D01*
X44373604Y21743183D01*
X44368185Y21744078D01*
X44362735Y21745083D01*
X44351766Y21747141D01*
X44346255Y21748053D01*
X44340733Y21748792D01*
X44337969Y21749074D01*
X44335204Y21749287D01*
X44332439Y21749421D01*
X44329674Y21749467D01*
X43977857Y21750464D01*
X43801971Y21750148D01*
X43626110Y21748241D01*
X43608548Y21747739D01*
X43591035Y21746812D01*
X43573574Y21745454D01*
X43556171Y21743657D01*
X43538832Y21741412D01*
X43521562Y21738713D01*
X43504365Y21735550D01*
X43487248Y21731917D01*
X43470215Y21727805D01*
X43453272Y21723207D01*
X43436423Y21718115D01*
X43419675Y21712521D01*
X43403032Y21706417D01*
X43386500Y21699796D01*
X43370084Y21692649D01*
X43353789Y21684969D01*
X43336969Y21676258D01*
X43320870Y21666965D01*
X43305476Y21657094D01*
X43290770Y21646650D01*
X43276734Y21635635D01*
X43263351Y21624054D01*
X43250605Y21611911D01*
X43238479Y21599208D01*
X43226955Y21585950D01*
X43216016Y21572140D01*
X43205646Y21557783D01*
X43195828Y21542881D01*
X43186543Y21527439D01*
X43177776Y21511460D01*
X43169510Y21494948D01*
X43161727Y21477907D01*
X43152882Y21454246D01*
X43145255Y21426934D01*
X43138869Y21396478D01*
X43133749Y21363385D01*
X43129921Y21328161D01*
X43127411Y21291312D01*
X43126242Y21253346D01*
X42397040Y21253346D01*
X42397125Y21290628D01*
X42398329Y21329203D01*
X42400365Y21367727D01*
X42403297Y21406190D01*
X42407193Y21444583D01*
X42412116Y21482894D01*
X42418134Y21521115D01*
X42425311Y21559234D01*
X42433713Y21597243D01*
X42443405Y21635131D01*
X42454454Y21672888D01*
X42464277Y21702977D01*
X42474861Y21732559D01*
X42486233Y21761623D01*
X42498416Y21790158D01*
X42511435Y21818153D01*
X42525316Y21845598D01*
X42540084Y21872481D01*
X42555762Y21898791D01*
X42572376Y21924518D01*
X42589951Y21949649D01*
X42608511Y21974175D01*
X42628082Y21998084D01*
X42648687Y22021365D01*
X42670353Y22044008D01*
X42693104Y22066000D01*
X42716964Y22087332D01*
X42755809Y22119261D01*
X42795531Y22149029D01*
X42836100Y22176659D01*
X42877489Y22202172D01*
X42919668Y22225590D01*
X42962608Y22246936D01*
X43006282Y22266231D01*
X43050659Y22283498D01*
X43095712Y22298758D01*
X43141412Y22312034D01*
X43187729Y22323348D01*
X43234636Y22332721D01*
X43282103Y22340176D01*
X43330102Y22345735D01*
X43378604Y22349420D01*
X43427580Y22351253D01*
X43836777Y22356158D01*
X44246047Y22357108D01*
X45064630Y22355606D01*
X45066969Y22355567D01*
X45069306Y22355454D01*
X45071637Y22355276D01*
X45073960Y22355040D01*
X45078573Y22354426D01*
X45083124Y22353675D01*
X45091954Y22352011D01*
X45096192Y22351223D01*
X45100284Y22350548D01*
X45100284Y21743183D01*
X45100284Y18830093D01*
G37*
G36*
X35527361Y22896269D02*
G01*
X35577928Y22894681D01*
X35628512Y22891399D01*
X35653811Y22888969D01*
X35679117Y22885931D01*
X35768976Y22873522D01*
X35813788Y22866773D01*
X35858476Y22859478D01*
X35903004Y22851501D01*
X35947337Y22842704D01*
X35991441Y22832951D01*
X36035282Y22822104D01*
X36120419Y22798801D01*
X36204815Y22773437D01*
X36288366Y22745784D01*
X36370969Y22715615D01*
X36452520Y22682704D01*
X36532915Y22646821D01*
X36572647Y22627695D01*
X36612052Y22607740D01*
X36651115Y22586930D01*
X36689825Y22565234D01*
X36733209Y22539706D01*
X36775829Y22513370D01*
X36817636Y22486171D01*
X36858582Y22458055D01*
X36898617Y22428967D01*
X36937692Y22398854D01*
X36975757Y22367660D01*
X37012764Y22335330D01*
X37048664Y22301812D01*
X37083407Y22267049D01*
X37116944Y22230988D01*
X37149225Y22193574D01*
X37180203Y22154752D01*
X37209827Y22114469D01*
X37238048Y22072670D01*
X37264818Y22029299D01*
X37280952Y22001104D01*
X37296238Y21972672D01*
X37310648Y21943993D01*
X37324155Y21915060D01*
X37336730Y21885862D01*
X37348345Y21856392D01*
X37358973Y21826641D01*
X37368585Y21796599D01*
X37377154Y21766258D01*
X37384650Y21735609D01*
X37391048Y21704644D01*
X37396317Y21673352D01*
X37400432Y21641726D01*
X37403362Y21609757D01*
X37405081Y21577436D01*
X37405561Y21544753D01*
X37405195Y21477414D01*
X37404705Y21443777D01*
X37403783Y21410152D01*
X37402257Y21376532D01*
X37399956Y21342908D01*
X37396710Y21309275D01*
X37392348Y21275624D01*
X37386832Y21240652D01*
X37380617Y21205879D01*
X37373675Y21171315D01*
X37365983Y21136971D01*
X37357515Y21102856D01*
X37348246Y21068981D01*
X37338150Y21035356D01*
X37327203Y21001991D01*
X37313159Y20962737D01*
X37298102Y20924039D01*
X37282052Y20885894D01*
X37265027Y20848298D01*
X37247047Y20811248D01*
X37228131Y20774738D01*
X37208300Y20738766D01*
X37187571Y20703327D01*
X37165966Y20668418D01*
X37143502Y20634035D01*
X37120200Y20600174D01*
X37096079Y20566831D01*
X37071158Y20534001D01*
X37045457Y20501683D01*
X37018995Y20469870D01*
X36991792Y20438561D01*
X36930317Y20371158D01*
X36867134Y20305503D01*
X36802285Y20241581D01*
X36735807Y20179379D01*
X36667741Y20118882D01*
X36598128Y20060077D01*
X36527006Y20002948D01*
X36454416Y19947482D01*
X36316658Y19845023D01*
X36247231Y19794557D01*
X36212248Y19769716D01*
X36177036Y19745211D01*
X36087023Y19684267D01*
X35995639Y19623813D01*
X35807412Y19500368D01*
X35808206Y19506843D01*
X35808816Y19512522D01*
X35809742Y19521893D01*
X35810190Y19525786D01*
X35810439Y19527578D01*
X35810715Y19529283D01*
X35811027Y19530915D01*
X35811382Y19532485D01*
X35811789Y19534006D01*
X35812257Y19535491D01*
X35897114Y19783075D01*
X35923842Y19866274D01*
X35947933Y19950084D01*
X35969636Y20034443D01*
X35989202Y20119286D01*
X36006881Y20204549D01*
X36022924Y20290169D01*
X36037581Y20376081D01*
X36051102Y20462222D01*
X36056226Y20497908D01*
X36060835Y20533705D01*
X36064923Y20569589D01*
X36068483Y20605542D01*
X36071508Y20641541D01*
X36073993Y20677567D01*
X36075930Y20713599D01*
X36077313Y20749616D01*
X36080794Y20859144D01*
X36082050Y20913929D01*
X36082497Y20968719D01*
X36081773Y21023504D01*
X36079515Y21078276D01*
X36075360Y21133028D01*
X36072457Y21160393D01*
X36068943Y21187751D01*
X36067800Y21195266D01*
X36066484Y21202602D01*
X36064975Y21209755D01*
X36063250Y21216723D01*
X36061291Y21223504D01*
X36059076Y21230094D01*
X36056584Y21236491D01*
X36053795Y21242693D01*
X36050689Y21248697D01*
X36047243Y21254500D01*
X36043438Y21260100D01*
X36039253Y21265495D01*
X36034667Y21270681D01*
X36032218Y21273195D01*
X36029660Y21275656D01*
X36026992Y21278063D01*
X36024211Y21280417D01*
X36021314Y21282717D01*
X36018298Y21284962D01*
X36000310Y21290378D01*
X35992858Y21292546D01*
X35986242Y21294373D01*
X35980315Y21295876D01*
X35974932Y21297069D01*
X35969948Y21297967D01*
X35965217Y21298586D01*
X35960593Y21298940D01*
X35955932Y21299045D01*
X35951088Y21298916D01*
X35945916Y21298568D01*
X35940269Y21298016D01*
X35934004Y21297275D01*
X35919034Y21295287D01*
X35910410Y21289508D01*
X35902222Y21283369D01*
X35894450Y21276887D01*
X35887079Y21270077D01*
X35880091Y21262956D01*
X35873468Y21255541D01*
X35867194Y21247848D01*
X35861250Y21239893D01*
X35855620Y21231692D01*
X35850287Y21223263D01*
X35845232Y21214621D01*
X35840439Y21205782D01*
X35835891Y21196764D01*
X35831570Y21187582D01*
X35827459Y21178253D01*
X35823540Y21168793D01*
X35799398Y21111342D01*
X35773625Y21054729D01*
X35746327Y20998916D01*
X35717610Y20943869D01*
X35687577Y20889552D01*
X35656335Y20835929D01*
X35623988Y20782964D01*
X35590642Y20730621D01*
X35548909Y20668326D01*
X35505469Y20607283D01*
X35460354Y20547515D01*
X35413597Y20489044D01*
X35365229Y20431892D01*
X35315281Y20376082D01*
X35263787Y20321635D01*
X35210778Y20268574D01*
X35174900Y20234259D01*
X35138432Y20200528D01*
X35101451Y20167319D01*
X35064034Y20134568D01*
X35026257Y20102212D01*
X34988199Y20070187D01*
X34911541Y20006879D01*
X34860926Y19966257D01*
X34809516Y19926724D01*
X34757252Y19888400D01*
X34704075Y19851408D01*
X34649927Y19815869D01*
X34594748Y19781905D01*
X34538480Y19749637D01*
X34481064Y19719187D01*
X34448711Y19703090D01*
X34416106Y19687484D01*
X34350335Y19657385D01*
X34217880Y19599103D01*
X34155024Y19572714D01*
X34091436Y19548537D01*
X34027205Y19526347D01*
X33962424Y19505920D01*
X33897185Y19487032D01*
X33831579Y19469460D01*
X33765698Y19452979D01*
X33699633Y19437366D01*
X33648178Y19426202D01*
X33596439Y19416247D01*
X33544473Y19407276D01*
X33492336Y19399066D01*
X33283197Y19369370D01*
X33275803Y19368425D01*
X33268362Y19367704D01*
X33253292Y19366842D01*
X33237894Y19366604D01*
X33222073Y19366812D01*
X33188790Y19367845D01*
X33171141Y19368313D01*
X33152693Y19368509D01*
X33215058Y19386270D01*
X33242900Y19394256D01*
X33269741Y19402136D01*
X33374352Y19435010D01*
X33477724Y19470750D01*
X33579837Y19509405D01*
X33680670Y19551023D01*
X33780202Y19595653D01*
X33878413Y19643343D01*
X33975283Y19694141D01*
X34070791Y19748096D01*
X34134389Y19786362D01*
X34196985Y19826061D01*
X34258552Y19867200D01*
X34319066Y19909785D01*
X34378500Y19953823D01*
X34436830Y19999320D01*
X34494029Y20046283D01*
X34550073Y20094719D01*
X34592361Y20133230D01*
X34633647Y20172783D01*
X34674003Y20213297D01*
X34713499Y20254692D01*
X34752206Y20296888D01*
X34790195Y20339805D01*
X34827536Y20383363D01*
X34864301Y20427481D01*
X34914975Y20490749D01*
X34963865Y20555157D01*
X35010991Y20620696D01*
X35056371Y20687357D01*
X35100024Y20755133D01*
X35141968Y20824014D01*
X35182222Y20893993D01*
X35220805Y20965059D01*
X35263948Y21048968D01*
X35304764Y21133673D01*
X35342563Y21219431D01*
X35360115Y21262783D01*
X35376653Y21306494D01*
X35392091Y21350596D01*
X35406343Y21395119D01*
X35419322Y21440095D01*
X35430942Y21485557D01*
X35441116Y21531537D01*
X35449758Y21578065D01*
X35456782Y21625175D01*
X35462100Y21672897D01*
X35466388Y21726975D01*
X35469211Y21780948D01*
X35470513Y21834817D01*
X35470240Y21888587D01*
X35468333Y21942260D01*
X35464739Y21995838D01*
X35459400Y22049324D01*
X35452260Y22102721D01*
X35446460Y22138181D01*
X35439843Y22173539D01*
X35432512Y22208797D01*
X35424569Y22243955D01*
X35416118Y22279016D01*
X35407261Y22313980D01*
X35388739Y22383625D01*
X35369865Y22448453D01*
X35348730Y22512431D01*
X35325352Y22575624D01*
X35299746Y22638100D01*
X35271929Y22699925D01*
X35241916Y22761166D01*
X35209725Y22821889D01*
X35175370Y22882160D01*
X35188119Y22884245D01*
X35200740Y22886572D01*
X35225658Y22891265D01*
X35237987Y22893292D01*
X35250249Y22894878D01*
X35256360Y22895452D01*
X35262460Y22895853D01*
X35268551Y22896058D01*
X35274635Y22896047D01*
X35325180Y22895538D01*
X35375721Y22895799D01*
X35476807Y22896657D01*
X35527361Y22896269D01*
G37*
G36*
X32703063Y22656050D02*
G01*
X32742608Y22654533D01*
X32782167Y22651679D01*
X32821734Y22647322D01*
X32841520Y22644527D01*
X32861305Y22641293D01*
X32884356Y22636978D01*
X32907181Y22632132D01*
X32929783Y22626758D01*
X32952165Y22620862D01*
X32974330Y22614447D01*
X32996280Y22607518D01*
X33018019Y22600081D01*
X33039548Y22592139D01*
X33060872Y22583697D01*
X33081992Y22574761D01*
X33102911Y22565334D01*
X33123632Y22555421D01*
X33144159Y22545027D01*
X33164493Y22534156D01*
X33184637Y22522813D01*
X33204595Y22511003D01*
X33212009Y22506385D01*
X33219348Y22501573D01*
X33226607Y22496575D01*
X33233780Y22491399D01*
X33240861Y22486054D01*
X33247845Y22480548D01*
X33254725Y22474890D01*
X33261496Y22469088D01*
X33268153Y22463150D01*
X33274690Y22457084D01*
X33281101Y22450899D01*
X33287380Y22444604D01*
X33293521Y22438206D01*
X33299520Y22431714D01*
X33305369Y22425137D01*
X33311064Y22418482D01*
X33334402Y22389310D01*
X33356046Y22359463D01*
X33376039Y22328967D01*
X33394425Y22297847D01*
X33411246Y22266130D01*
X33426547Y22233839D01*
X33440370Y22201000D01*
X33452758Y22167640D01*
X33463756Y22133782D01*
X33473406Y22099453D01*
X33481751Y22064678D01*
X33488835Y22029482D01*
X33494701Y21993891D01*
X33499393Y21957930D01*
X33502954Y21921624D01*
X33505426Y21884999D01*
X33508832Y21803298D01*
X33510276Y21721639D01*
X33509527Y21640056D01*
X33506357Y21558582D01*
X33500535Y21477251D01*
X33491833Y21396097D01*
X33480020Y21315153D01*
X33464867Y21234452D01*
X33439201Y21106361D01*
X33432504Y21074410D01*
X33425396Y21042574D01*
X33417728Y21010896D01*
X33409349Y20979419D01*
X33395414Y20931919D01*
X33380404Y20884902D01*
X33364353Y20838356D01*
X33347294Y20792268D01*
X33329261Y20746626D01*
X33310285Y20701419D01*
X33290400Y20656634D01*
X33269639Y20612259D01*
X33225623Y20524692D01*
X33178499Y20438619D01*
X33128534Y20353945D01*
X33075990Y20270573D01*
X33018125Y20183501D01*
X32958471Y20097789D01*
X32896980Y20013482D01*
X32833606Y19930628D01*
X32768300Y19849274D01*
X32701015Y19769467D01*
X32631704Y19691254D01*
X32560320Y19614683D01*
X32545479Y19598894D01*
X32530887Y19582884D01*
X32516499Y19566716D01*
X32502268Y19550449D01*
X32446033Y19485613D01*
X32478314Y19411152D01*
X32461514Y19413284D01*
X32444936Y19415765D01*
X32428564Y19418567D01*
X32412383Y19421663D01*
X32380530Y19428626D01*
X32349251Y19436435D01*
X32318420Y19444872D01*
X32287912Y19453718D01*
X32227361Y19471760D01*
X32184432Y19484948D01*
X32141926Y19499033D01*
X32099835Y19513991D01*
X32058149Y19529801D01*
X32016858Y19546440D01*
X31975952Y19563887D01*
X31935421Y19582119D01*
X31895256Y19601115D01*
X31815985Y19641306D01*
X31738060Y19684284D01*
X31661403Y19729871D01*
X31585937Y19777891D01*
X31531447Y19814639D01*
X31477870Y19852609D01*
X31425122Y19891679D01*
X31373117Y19931726D01*
X31321772Y19972627D01*
X31271002Y20014260D01*
X31220723Y20056503D01*
X31170851Y20099231D01*
X31063987Y20191986D01*
X30957543Y20285233D01*
X30851513Y20378952D01*
X30745891Y20473120D01*
X30634308Y20573492D01*
X30523133Y20674319D01*
X30301710Y20876981D01*
X30279566Y20896845D01*
X30257041Y20916085D01*
X30234141Y20934711D01*
X30210873Y20952737D01*
X30187242Y20970176D01*
X30163256Y20987041D01*
X30138921Y21003343D01*
X30114243Y21019095D01*
X30089228Y21034311D01*
X30063883Y21049003D01*
X30038214Y21063183D01*
X30012227Y21076865D01*
X29985929Y21090060D01*
X29959326Y21102781D01*
X29905230Y21126855D01*
X29851635Y21148848D01*
X29797624Y21169616D01*
X29743193Y21189254D01*
X29688341Y21207860D01*
X29633065Y21225528D01*
X29577362Y21242356D01*
X29521231Y21258439D01*
X29464668Y21273874D01*
X29464670Y21273874D01*
X29490334Y21283968D01*
X29516211Y21293219D01*
X29542301Y21301527D01*
X29568600Y21308790D01*
X29581828Y21311997D01*
X29595108Y21314905D01*
X29608440Y21317501D01*
X29621822Y21319772D01*
X29635256Y21321706D01*
X29648741Y21323290D01*
X29662277Y21324510D01*
X29675863Y21325355D01*
X29710279Y21326823D01*
X29744692Y21327818D01*
X29779107Y21328184D01*
X29813530Y21327765D01*
X29847965Y21326405D01*
X29882419Y21323950D01*
X29916897Y21320243D01*
X29951404Y21315128D01*
X30001923Y21306006D01*
X30052112Y21295801D01*
X30101941Y21284422D01*
X30151382Y21271773D01*
X30200407Y21257761D01*
X30248986Y21242292D01*
X30297091Y21225273D01*
X30344693Y21206611D01*
X30390376Y21187042D01*
X30435497Y21166294D01*
X30480082Y21144443D01*
X30524159Y21121562D01*
X30567755Y21097726D01*
X30610896Y21073010D01*
X30653610Y21047488D01*
X30695924Y21021235D01*
X30758929Y20980516D01*
X30820990Y20938559D01*
X30882152Y20895413D01*
X30942463Y20851126D01*
X31001969Y20805748D01*
X31060717Y20759326D01*
X31118753Y20711910D01*
X31176126Y20663548D01*
X31216195Y20628401D01*
X31255251Y20592392D01*
X31293308Y20555501D01*
X31330381Y20517710D01*
X31366486Y20479001D01*
X31401637Y20439355D01*
X31435849Y20398753D01*
X31469139Y20357177D01*
X31507892Y20306194D01*
X31545450Y20254409D01*
X31582055Y20201985D01*
X31617949Y20149084D01*
X31759241Y19935953D01*
X31809613Y19860554D01*
X31860927Y19783351D01*
X31884378Y19785267D01*
X31907644Y19786396D01*
X31930730Y19786724D01*
X31953640Y19786240D01*
X31976378Y19784932D01*
X31998948Y19782786D01*
X32021354Y19779791D01*
X32043600Y19775935D01*
X32065691Y19771205D01*
X32087629Y19765588D01*
X32109419Y19759073D01*
X32131066Y19751647D01*
X32152573Y19743298D01*
X32173944Y19734014D01*
X32195184Y19723782D01*
X32216296Y19712590D01*
X32226539Y19724421D01*
X32236695Y19735883D01*
X32256509Y19758120D01*
X32266045Y19769102D01*
X32275253Y19780132D01*
X32284074Y19791313D01*
X32288320Y19796994D01*
X32292446Y19802751D01*
X32316219Y19837959D01*
X32338658Y19873761D01*
X32359854Y19910115D01*
X32379896Y19946981D01*
X32398874Y19984321D01*
X32416877Y20022095D01*
X32433997Y20060262D01*
X32450322Y20098783D01*
X32480949Y20176729D01*
X32509477Y20255615D01*
X32563111Y20414934D01*
X32572256Y20444728D01*
X32580197Y20474738D01*
X32587112Y20504931D01*
X32593181Y20535273D01*
X32598582Y20565730D01*
X32603492Y20596269D01*
X32612559Y20657454D01*
X32615600Y20679892D01*
X32618210Y20702414D01*
X32620409Y20725002D01*
X32622220Y20747638D01*
X32623665Y20770305D01*
X32624765Y20792985D01*
X32625542Y20815660D01*
X32626019Y20838314D01*
X32625990Y20855875D01*
X32625430Y20873454D01*
X32624419Y20891042D01*
X32623037Y20908631D01*
X32621365Y20926212D01*
X32619483Y20943778D01*
X32615411Y20978831D01*
X32610572Y21020456D01*
X32605329Y21062064D01*
X32602331Y21082796D01*
X32598964Y21103447D01*
X32595138Y21123990D01*
X32590763Y21144400D01*
X32574406Y21214560D01*
X32557141Y21284546D01*
X32547923Y21319369D01*
X32538186Y21354023D01*
X32527830Y21388466D01*
X32516758Y21422655D01*
X32507034Y21450230D01*
X32496550Y21477596D01*
X32485369Y21504741D01*
X32473552Y21531656D01*
X32461162Y21558329D01*
X32448260Y21584750D01*
X32434910Y21610909D01*
X32421172Y21636793D01*
X32409678Y21656942D01*
X32397393Y21676390D01*
X32384363Y21695173D01*
X32370635Y21713326D01*
X32356255Y21730884D01*
X32341270Y21747885D01*
X32325726Y21764362D01*
X32309670Y21780353D01*
X32293147Y21795892D01*
X32276205Y21811015D01*
X32258890Y21825759D01*
X32241249Y21840158D01*
X32205173Y21868066D01*
X32168348Y21895025D01*
X32121125Y21927589D01*
X32072885Y21958419D01*
X32023718Y21987648D01*
X31973710Y22015408D01*
X31922949Y22041833D01*
X31871522Y22067057D01*
X31819518Y22091212D01*
X31767025Y22114432D01*
X31764843Y22115415D01*
X31762682Y22116464D01*
X31760535Y22117578D01*
X31758392Y22118753D01*
X31754085Y22121275D01*
X31749693Y22124008D01*
X31740378Y22130016D01*
X31735319Y22133246D01*
X31729900Y22136597D01*
X31733083Y22142501D01*
X31736043Y22148249D01*
X31741611Y22159210D01*
X31744380Y22164389D01*
X31745797Y22166897D01*
X31747247Y22169348D01*
X31748743Y22171739D01*
X31750293Y22174068D01*
X31751907Y22176334D01*
X31753596Y22178535D01*
X31774517Y22204211D01*
X31795846Y22229447D01*
X31817597Y22254222D01*
X31839784Y22278516D01*
X31862421Y22302308D01*
X31885522Y22325577D01*
X31909102Y22348304D01*
X31933174Y22370467D01*
X31957753Y22392045D01*
X31982852Y22413019D01*
X32008486Y22433368D01*
X32034669Y22453071D01*
X32061415Y22472108D01*
X32088738Y22490457D01*
X32116652Y22508099D01*
X32145171Y22525013D01*
X32168434Y22538019D01*
X32191937Y22550454D01*
X32215678Y22562297D01*
X32239655Y22573524D01*
X32263867Y22584113D01*
X32288312Y22594043D01*
X32312988Y22603290D01*
X32337893Y22611832D01*
X32363024Y22619647D01*
X32388381Y22626713D01*
X32413961Y22633006D01*
X32439763Y22638506D01*
X32465784Y22643189D01*
X32492022Y22647033D01*
X32518477Y22650015D01*
X32545145Y22652115D01*
X32584574Y22654264D01*
X32624041Y22655748D01*
X32663539Y22656399D01*
X32703063Y22656050D01*
G37*
G36*
X47185937Y22450190D02*
G01*
X47241368Y22447989D01*
X47296765Y22444258D01*
X47352119Y22439000D01*
X47407425Y22432217D01*
X47462674Y22423908D01*
X47532416Y22411187D01*
X47601228Y22395996D01*
X47635281Y22387432D01*
X47669097Y22378200D01*
X47702675Y22368284D01*
X47736012Y22357668D01*
X47769107Y22346333D01*
X47801958Y22334264D01*
X47834565Y22321443D01*
X47866925Y22307855D01*
X47899037Y22293482D01*
X47930898Y22278307D01*
X47962509Y22262315D01*
X47993866Y22245488D01*
X48028398Y22225824D01*
X48062237Y22205372D01*
X48095389Y22184138D01*
X48127863Y22162130D01*
X48159667Y22139356D01*
X48190807Y22115821D01*
X48221292Y22091534D01*
X48251130Y22066501D01*
X48280327Y22040729D01*
X48308893Y22014225D01*
X48336833Y21986998D01*
X48364157Y21959053D01*
X48390872Y21930397D01*
X48416985Y21901039D01*
X48442504Y21870984D01*
X48467437Y21840241D01*
X48489511Y21811788D01*
X48510917Y21782961D01*
X48531650Y21753762D01*
X48551709Y21724190D01*
X48571090Y21694245D01*
X48589793Y21663928D01*
X48607813Y21633239D01*
X48625149Y21602177D01*
X48641798Y21570744D01*
X48657757Y21538939D01*
X48673024Y21506762D01*
X48687596Y21474214D01*
X48701471Y21441295D01*
X48714647Y21408005D01*
X48727120Y21374344D01*
X48738889Y21340312D01*
X48753152Y21296509D01*
X48766709Y21252543D01*
X48779466Y21208373D01*
X48791329Y21163961D01*
X48802205Y21119266D01*
X48812000Y21074247D01*
X48820620Y21028866D01*
X48827972Y20983083D01*
X48843659Y20867905D01*
X48850381Y20810277D01*
X48856052Y20752600D01*
X48860448Y20694856D01*
X48863341Y20637029D01*
X48864506Y20579102D01*
X48863718Y20521057D01*
X48862061Y20480826D01*
X48859726Y20440613D01*
X48853522Y20360235D01*
X48838486Y20199619D01*
X48833932Y20157889D01*
X48828049Y20116412D01*
X48820943Y20075172D01*
X48812721Y20034153D01*
X48803492Y19993338D01*
X48793361Y19952712D01*
X48782437Y19912257D01*
X48770826Y19871957D01*
X48759593Y19835486D01*
X48747614Y19799392D01*
X48734885Y19763676D01*
X48721400Y19728341D01*
X48707155Y19693389D01*
X48692145Y19658825D01*
X48676363Y19624649D01*
X48659805Y19590865D01*
X48642465Y19557475D01*
X48624339Y19524481D01*
X48605421Y19491888D01*
X48585707Y19459696D01*
X48565190Y19427909D01*
X48543865Y19396529D01*
X48521729Y19365559D01*
X48498774Y19335001D01*
X48481770Y19313300D01*
X48464437Y19291938D01*
X48446775Y19270912D01*
X48428786Y19250221D01*
X48410473Y19229860D01*
X48391837Y19209828D01*
X48372880Y19190121D01*
X48353604Y19170736D01*
X48334010Y19151672D01*
X48314101Y19132924D01*
X48273345Y19096369D01*
X48231348Y19061049D01*
X48188127Y19026941D01*
X48161585Y19007139D01*
X48134694Y18988057D01*
X48107456Y18969689D01*
X48079870Y18952030D01*
X48051938Y18935073D01*
X48023660Y18918812D01*
X47995038Y18903241D01*
X47966072Y18888353D01*
X47936763Y18874141D01*
X47907112Y18860601D01*
X47877119Y18847725D01*
X47846786Y18835507D01*
X47816114Y18823941D01*
X47785103Y18813020D01*
X47753753Y18802739D01*
X47722067Y18793090D01*
X47677400Y18780654D01*
X47632538Y18769496D01*
X47587480Y18759668D01*
X47542225Y18751222D01*
X47496771Y18744210D01*
X47451115Y18738684D01*
X47405258Y18734694D01*
X47359197Y18732293D01*
X47269986Y18729835D01*
X47225368Y18729369D01*
X47180744Y18729694D01*
X47136114Y18731020D01*
X47091479Y18733559D01*
X47046838Y18737521D01*
X47002194Y18743118D01*
X46953865Y18750857D01*
X46906018Y18760011D01*
X46858663Y18770665D01*
X46811808Y18782904D01*
X46765464Y18796813D01*
X46719639Y18812477D01*
X46696925Y18820994D01*
X46674344Y18829981D01*
X46651897Y18839449D01*
X46629587Y18849409D01*
X46596720Y18865261D01*
X46564733Y18882215D01*
X46533587Y18900219D01*
X46503241Y18919222D01*
X46473656Y18939175D01*
X46444790Y18960027D01*
X46416604Y18981725D01*
X46389058Y19004221D01*
X46362111Y19027462D01*
X46335723Y19051397D01*
X46309854Y19075977D01*
X46284464Y19101151D01*
X46259512Y19126866D01*
X46234959Y19153074D01*
X46186887Y19206760D01*
X46175765Y19219410D01*
X46163825Y19232829D01*
X46134701Y19265473D01*
X46058645Y18829327D01*
X46013474Y18825919D01*
X45951469Y18823770D01*
X45878981Y18822813D01*
X45802365Y18822980D01*
X45727971Y18824205D01*
X45662152Y18826420D01*
X45611261Y18829559D01*
X45593398Y18831454D01*
X45581650Y18833554D01*
X45581650Y20713211D01*
X47036200Y20713211D01*
X47039437Y20657058D01*
X47041426Y20581058D01*
X47042243Y20492901D01*
X47041959Y20400272D01*
X47040649Y20310860D01*
X47038385Y20232351D01*
X47035242Y20172434D01*
X47033363Y20151850D01*
X47031292Y20138796D01*
X47030892Y20138691D01*
X47030492Y20138576D01*
X47029692Y20138329D01*
X47028093Y20137824D01*
X47027294Y20137601D01*
X47026895Y20137504D01*
X47026495Y20137420D01*
X47026096Y20137351D01*
X47025696Y20137299D01*
X47025297Y20137266D01*
X47024897Y20137254D01*
X46260499Y20135722D01*
X46257974Y20135682D01*
X46255447Y20135578D01*
X46252919Y20135417D01*
X46250392Y20135206D01*
X46247868Y20134952D01*
X46245347Y20134663D01*
X46240321Y20134008D01*
X46240138Y20133977D01*
X46239956Y20133938D01*
X46239774Y20133891D01*
X46239593Y20133835D01*
X46239413Y20133772D01*
X46239233Y20133701D01*
X46238876Y20133540D01*
X46238522Y20133354D01*
X46238170Y20133145D01*
X46237822Y20132918D01*
X46237477Y20132675D01*
X46237135Y20132418D01*
X46236797Y20132151D01*
X46236131Y20131598D01*
X46234849Y20130498D01*
X46234224Y20129943D01*
X46233591Y20129328D01*
X46232913Y20128624D01*
X46232154Y20127805D01*
X46230241Y20125706D01*
X46229013Y20124373D01*
X46227555Y20122812D01*
X46227721Y20117959D01*
X46227758Y20112825D01*
X46227814Y20101954D01*
X46228017Y20096335D01*
X46228204Y20093506D01*
X46228462Y20090674D01*
X46228803Y20087846D01*
X46229238Y20085029D01*
X46229780Y20082232D01*
X46230440Y20079461D01*
X46234376Y20064920D01*
X46238515Y20050433D01*
X46247199Y20021567D01*
X46256088Y19992755D01*
X46264775Y19963889D01*
X46276252Y19927385D01*
X46289062Y19891827D01*
X46303200Y19857218D01*
X46318660Y19823557D01*
X46335436Y19790844D01*
X46353523Y19759081D01*
X46372915Y19728266D01*
X46393607Y19698401D01*
X46415594Y19669486D01*
X46438869Y19641522D01*
X46463428Y19614508D01*
X46489264Y19588445D01*
X46516372Y19563333D01*
X46544748Y19539173D01*
X46574384Y19515965D01*
X46605276Y19493709D01*
X46630596Y19476871D01*
X46656300Y19461084D01*
X46682384Y19446349D01*
X46708840Y19432664D01*
X46735662Y19420028D01*
X46762845Y19408440D01*
X46790382Y19397898D01*
X46818267Y19388402D01*
X46846494Y19379951D01*
X46875057Y19372542D01*
X46903950Y19366176D01*
X46933167Y19360851D01*
X46962701Y19356565D01*
X46992546Y19353318D01*
X47022697Y19351108D01*
X47053147Y19349934D01*
X47110751Y19348406D01*
X47139621Y19347767D01*
X47168472Y19347509D01*
X47197255Y19347855D01*
X47225921Y19349029D01*
X47254423Y19351253D01*
X47268597Y19352828D01*
X47282711Y19354750D01*
X47307678Y19358848D01*
X47332427Y19363619D01*
X47356959Y19369055D01*
X47381275Y19375148D01*
X47405377Y19381889D01*
X47429265Y19389272D01*
X47452941Y19397287D01*
X47476406Y19405926D01*
X47499660Y19415182D01*
X47522706Y19425047D01*
X47545543Y19435512D01*
X47568173Y19446569D01*
X47590597Y19458210D01*
X47612817Y19470427D01*
X47634833Y19483212D01*
X47656646Y19496557D01*
X47689818Y19518256D01*
X47721694Y19540927D01*
X47752273Y19564578D01*
X47781551Y19589221D01*
X47809528Y19614866D01*
X47836199Y19641522D01*
X47861565Y19669199D01*
X47885621Y19697908D01*
X47908367Y19727659D01*
X47929800Y19758462D01*
X47949917Y19790326D01*
X47968718Y19823262D01*
X47986198Y19857280D01*
X48002358Y19892389D01*
X48017193Y19928601D01*
X48030703Y19965925D01*
X48046178Y20014164D01*
X48060005Y20062742D01*
X48072169Y20111630D01*
X48082657Y20160799D01*
X48091455Y20210222D01*
X48098549Y20259868D01*
X48103925Y20309708D01*
X48107570Y20359716D01*
X48111856Y20455770D01*
X48113698Y20551731D01*
X48112535Y20647520D01*
X48107810Y20743055D01*
X48103936Y20790703D01*
X48098962Y20838258D01*
X48092818Y20885709D01*
X48085433Y20933046D01*
X48076738Y20980260D01*
X48066662Y21027341D01*
X48055137Y21074278D01*
X48042091Y21121061D01*
X48029585Y21161216D01*
X48016015Y21200681D01*
X48001334Y21239427D01*
X47985494Y21277424D01*
X47968450Y21314643D01*
X47950154Y21351054D01*
X47930558Y21386627D01*
X47909616Y21421333D01*
X47887280Y21455141D01*
X47863504Y21488024D01*
X47838239Y21519950D01*
X47811440Y21550891D01*
X47783058Y21580817D01*
X47753047Y21609698D01*
X47721360Y21637504D01*
X47687949Y21664206D01*
X47663396Y21682346D01*
X47638474Y21699599D01*
X47613184Y21715953D01*
X47587526Y21731394D01*
X47561502Y21745909D01*
X47535111Y21759487D01*
X47508354Y21772113D01*
X47481232Y21783775D01*
X47453745Y21794461D01*
X47425893Y21804156D01*
X47397677Y21812849D01*
X47369098Y21820527D01*
X47340156Y21827176D01*
X47310851Y21832784D01*
X47281185Y21837337D01*
X47251157Y21840824D01*
X47191407Y21845439D01*
X47161556Y21846786D01*
X47131734Y21847450D01*
X47101950Y21847397D01*
X47072215Y21846595D01*
X47042536Y21845010D01*
X47012925Y21842609D01*
X46983390Y21839360D01*
X46953942Y21835229D01*
X46924589Y21830184D01*
X46895342Y21824192D01*
X46866209Y21817219D01*
X46837202Y21809232D01*
X46808328Y21800200D01*
X46779597Y21790087D01*
X46758515Y21782001D01*
X46737672Y21773510D01*
X46717087Y21764593D01*
X46696778Y21755227D01*
X46676763Y21745390D01*
X46657061Y21735059D01*
X46637690Y21724213D01*
X46618668Y21712829D01*
X46600013Y21700884D01*
X46581745Y21688357D01*
X46563881Y21675225D01*
X46546439Y21661465D01*
X46529438Y21647055D01*
X46512895Y21631974D01*
X46496831Y21616198D01*
X46481262Y21599705D01*
X46467501Y21584113D01*
X46454252Y21568202D01*
X46441517Y21551975D01*
X46429293Y21535438D01*
X46417581Y21518592D01*
X46406380Y21501442D01*
X46395690Y21483992D01*
X46385510Y21466244D01*
X46375840Y21448202D01*
X46366679Y21429871D01*
X46358027Y21411253D01*
X46349884Y21392352D01*
X46342249Y21373171D01*
X46335122Y21353715D01*
X46328501Y21333987D01*
X46322388Y21313991D01*
X46320478Y21307700D01*
X46318448Y21301434D01*
X46316321Y21295178D01*
X46314120Y21288915D01*
X46305046Y21263481D01*
X45589100Y21263481D01*
X45598473Y21325721D01*
X45603050Y21354450D01*
X45605543Y21368470D01*
X45608260Y21382357D01*
X45617675Y21424277D01*
X45628513Y21465726D01*
X45640771Y21506686D01*
X45654448Y21547141D01*
X45669540Y21587072D01*
X45686044Y21626463D01*
X45703960Y21665296D01*
X45723283Y21703553D01*
X45732076Y21719861D01*
X45741136Y21735994D01*
X45760026Y21767758D01*
X45779885Y21798896D01*
X45800648Y21829459D01*
X45822248Y21859496D01*
X45844618Y21889058D01*
X45867691Y21918194D01*
X45891402Y21946956D01*
X45910329Y21968958D01*
X45929687Y21990412D01*
X45949470Y22011326D01*
X45969670Y22031709D01*
X45990281Y22051571D01*
X46011296Y22070920D01*
X46032710Y22089766D01*
X46054516Y22108116D01*
X46076707Y22125981D01*
X46099276Y22143370D01*
X46122218Y22160290D01*
X46145526Y22176752D01*
X46169193Y22192764D01*
X46193213Y22208336D01*
X46217580Y22223475D01*
X46242286Y22238192D01*
X46287519Y22263415D01*
X46333308Y22286696D01*
X46379629Y22308105D01*
X46426459Y22327711D01*
X46473775Y22345583D01*
X46521551Y22361791D01*
X46569766Y22376405D01*
X46618395Y22389493D01*
X46667415Y22401124D01*
X46716801Y22411370D01*
X46766532Y22420297D01*
X46816582Y22427977D01*
X46866928Y22434479D01*
X46917547Y22439871D01*
X47019508Y22447605D01*
X47075000Y22450000D01*
X47130478Y22450861D01*
X47185937Y22450190D01*
G37*
D13*
%TO.C,GOLD_ORB_SM1*%
X22787275Y19081069D02*
X22871095Y18636445D01*
X23489667Y18381449D01*
X23860707Y18633754D01*
X23934144Y18683494D01*
X24031499Y18748782D01*
X24115787Y18804546D01*
X24182631Y18847922D01*
X24227654Y18876047D01*
X24246478Y18886058D01*
X24258039Y18878939D01*
X24292596Y18849106D01*
X24344894Y18800148D01*
X24410500Y18736560D01*
X24484983Y18662837D01*
X24563913Y18583475D01*
X24642856Y18502969D01*
X24717384Y18425815D01*
X24783063Y18356507D01*
X24835463Y18299543D01*
X24870153Y18259416D01*
X24882701Y18240623D01*
X24879782Y18232549D01*
X24859571Y18196531D01*
X24822663Y18137256D01*
X24772050Y18059370D01*
X24710725Y17967519D01*
X24641679Y17866350D01*
X24603787Y17811174D01*
X24538606Y17715116D01*
X24482723Y17631283D01*
X24439117Y17564223D01*
X24410769Y17518481D01*
X24400657Y17498604D01*
X24400823Y17497503D01*
X24409743Y17472306D01*
X24430206Y17420853D01*
X24459360Y17349865D01*
X24494353Y17266065D01*
X24532332Y17176172D01*
X24570445Y17086909D01*
X24605839Y17004997D01*
X24635662Y16937157D01*
X24657061Y16890110D01*
X24667184Y16870578D01*
X24673174Y16868845D01*
X24709566Y16861031D01*
X24774427Y16848085D01*
X24862565Y16831021D01*
X24968787Y16810849D01*
X25087902Y16788582D01*
X25150683Y16776777D01*
X25265912Y16754252D01*
X25366662Y16733450D01*
X25447426Y16715565D01*
X25502698Y16701792D01*
X25526971Y16693326D01*
X25531331Y16684934D01*
X25538563Y16643928D01*
X25544246Y16575632D01*
X25548382Y16486471D01*
X25550977Y16382872D01*
X25552036Y16271260D01*
X25551561Y16158062D01*
X25549559Y16049704D01*
X25546033Y15952611D01*
X25540987Y15873210D01*
X25534427Y15817928D01*
X25526356Y15793190D01*
X25521458Y15790400D01*
X25484930Y15778431D01*
X25421565Y15762595D01*
X25338686Y15744626D01*
X25243618Y15726259D01*
X25211542Y15720409D01*
X25063393Y15693202D01*
X24946961Y15671337D01*
X24858209Y15653907D01*
X24793103Y15640004D01*
X24747606Y15628723D01*
X24717682Y15619157D01*
X24699294Y15610399D01*
X24688407Y15601543D01*
X24687142Y15600057D01*
X24669338Y15569069D01*
X24642994Y15512366D01*
X24610661Y15436601D01*
X24574893Y15348426D01*
X24538244Y15254493D01*
X24503266Y15161453D01*
X24472513Y15075959D01*
X24448538Y15004664D01*
X24433895Y14954218D01*
X24431136Y14931274D01*
X24432981Y14928297D01*
X24452075Y14899507D01*
X24487984Y14846405D01*
X24537378Y14773883D01*
X24596927Y14686833D01*
X24663303Y14590146D01*
X24681520Y14563544D01*
X24745577Y14468125D01*
X24800937Y14382788D01*
X24844439Y14312595D01*
X24872924Y14262606D01*
X24883232Y14237884D01*
X24881011Y14231384D01*
X24857858Y14199356D01*
X24812177Y14147055D01*
X24747241Y14078001D01*
X24666319Y13995714D01*
X24572685Y13903714D01*
X24519165Y13852219D01*
X24434542Y13772017D01*
X24360475Y13703322D01*
X24300941Y13649748D01*
X24259917Y13614915D01*
X24241381Y13602437D01*
X24228646Y13607062D01*
X24189436Y13628943D01*
X24132495Y13664727D01*
X24065250Y13709883D01*
X24017438Y13742835D01*
X23921985Y13808273D01*
X23820125Y13877772D01*
X23727088Y13940925D01*
X23544832Y14064200D01*
X23391841Y13981480D01*
X23355817Y13962387D01*
X23290303Y13929728D01*
X23239640Y13907181D01*
X23212564Y13898774D01*
X23203703Y13909570D01*
X23181699Y13950677D01*
X23149199Y14018451D01*
X23108010Y14108591D01*
X23059942Y14216795D01*
X23006802Y14338763D01*
X22950399Y14470192D01*
X22892542Y14606782D01*
X22835038Y14744233D01*
X22779697Y14878242D01*
X22728326Y15004509D01*
X22682735Y15118732D01*
X22644732Y15216610D01*
X22616124Y15293843D01*
X22598721Y15346129D01*
X22594331Y15369167D01*
X22594628Y15369840D01*
X22615077Y15391137D01*
X22657850Y15424492D01*
X22714117Y15462989D01*
X22731877Y15474744D01*
X22867014Y15586265D01*
X22978856Y15719094D01*
X23064755Y15867702D01*
X23122062Y16026560D01*
X23148131Y16190140D01*
X23140313Y16352912D01*
X23108644Y16497685D01*
X23051782Y16643876D01*
X22968888Y16774297D01*
X22855131Y16898187D01*
X22810433Y16937765D01*
X22665935Y17035277D01*
X22509838Y17100950D01*
X22346667Y17135370D01*
X22180943Y17139126D01*
X22017192Y17112806D01*
X21859936Y17056997D01*
X21713698Y16972286D01*
X21583004Y16859263D01*
X21472374Y16718513D01*
X21451105Y16683658D01*
X21378810Y16524345D01*
X21340415Y16358448D01*
X21334914Y16190263D01*
X21361301Y16024087D01*
X21418570Y15864216D01*
X21505717Y15714947D01*
X21621736Y15580577D01*
X21765622Y15465401D01*
X21770294Y15462298D01*
X21825964Y15423067D01*
X21867689Y15389714D01*
X21886746Y15369167D01*
X21884342Y15353059D01*
X21869391Y15306156D01*
X21842881Y15233461D01*
X21806620Y15139275D01*
X21762416Y15027902D01*
X21712076Y14903642D01*
X21657407Y14770798D01*
X21600218Y14633673D01*
X21542316Y14496568D01*
X21485510Y14363785D01*
X21431606Y14239626D01*
X21382412Y14128394D01*
X21339737Y14034391D01*
X21305387Y13961918D01*
X21281171Y13915278D01*
X21268897Y13898774D01*
X21258689Y13901009D01*
X21218586Y13917074D01*
X21159318Y13945241D01*
X21089619Y13981480D01*
X20936629Y14064200D01*
X20754373Y13940925D01*
X20700527Y13904421D01*
X20600374Y13836216D01*
X20500525Y13767902D01*
X20416211Y13709883D01*
X20369679Y13678264D01*
X20309200Y13638980D01*
X20264357Y13612088D01*
X20242455Y13602117D01*
X20233045Y13606350D01*
X20199031Y13632279D01*
X20146595Y13677930D01*
X20080301Y13738814D01*
X20004713Y13810439D01*
X19924396Y13888317D01*
X19843913Y13967955D01*
X19767829Y14044865D01*
X19700707Y14114555D01*
X19647112Y14172536D01*
X19611608Y14214316D01*
X19598759Y14235407D01*
X19599500Y14239419D01*
X19614793Y14272080D01*
X19647462Y14328588D01*
X19694350Y14403837D01*
X19752301Y14492725D01*
X19818157Y14590146D01*
X19836627Y14617018D01*
X19901482Y14711577D01*
X19958609Y14795173D01*
X20004678Y14862916D01*
X20036359Y14909914D01*
X20050324Y14931274D01*
X20050668Y14932189D01*
X20046546Y14958322D01*
X20030807Y15011260D01*
X20006004Y15084353D01*
X19974689Y15170948D01*
X19939417Y15264392D01*
X19902740Y15358035D01*
X19867212Y15445223D01*
X19835386Y15519305D01*
X19809816Y15573629D01*
X19793053Y15601543D01*
X19791374Y15603276D01*
X19779372Y15612044D01*
X19759103Y15620885D01*
X19726529Y15630708D01*
X19677616Y15642417D01*
X19608327Y15656920D01*
X19514625Y15675124D01*
X19392476Y15697934D01*
X19237842Y15726259D01*
X19205770Y15732220D01*
X19113893Y15750648D01*
X19036607Y15768108D01*
X18981236Y15782867D01*
X18955105Y15793190D01*
X18950733Y15801803D01*
X18943445Y15843174D01*
X18937669Y15911759D01*
X18933410Y16001132D01*
X18930673Y16104865D01*
X18929462Y16216535D01*
X18929782Y16329713D01*
X18931636Y16437974D01*
X18935030Y16534892D01*
X18939967Y16614041D01*
X18946452Y16668994D01*
X18954489Y16693326D01*
X18962696Y16696921D01*
X19003519Y16708252D01*
X19072524Y16724278D01*
X19164203Y16743805D01*
X19273050Y16765638D01*
X19393558Y16788582D01*
X19459357Y16800841D01*
X19572135Y16822099D01*
X19669207Y16840713D01*
X19745382Y16855672D01*
X19795469Y16865964D01*
X19814276Y16870578D01*
X19814983Y16871529D01*
X19826961Y16895690D01*
X19849794Y16946306D01*
X19880630Y17016662D01*
X19916613Y17100042D01*
X19954891Y17189730D01*
X19992609Y17279011D01*
X20026913Y17361168D01*
X20054949Y17429487D01*
X20073864Y17477252D01*
X20080803Y17497746D01*
X20077742Y17504957D01*
X20057372Y17539272D01*
X20020422Y17597030D01*
X19969860Y17673701D01*
X19908657Y17764752D01*
X19839781Y17865650D01*
X19801994Y17920907D01*
X19736782Y18017785D01*
X19680871Y18102807D01*
X19637241Y18171338D01*
X19608877Y18218740D01*
X19598759Y18240377D01*
X19605790Y18252113D01*
X19635197Y18287182D01*
X19683441Y18340255D01*
X19746093Y18406836D01*
X19818725Y18482426D01*
X19896908Y18562528D01*
X19976214Y18642646D01*
X20052213Y18718282D01*
X20120478Y18784938D01*
X20176580Y18838118D01*
X20216090Y18873324D01*
X20234579Y18886058D01*
X20244843Y18881107D01*
X20282530Y18858143D01*
X20343348Y18819062D01*
X20422913Y18766728D01*
X20516843Y18704004D01*
X20620754Y18633754D01*
X20991794Y18381449D01*
X21301080Y18508947D01*
X21610365Y18636445D01*
X21694186Y19081069D01*
X21778006Y19525693D01*
X22703454Y19525693D01*
X22787275Y19081069D01*
G36*
X22787275Y19081069D02*
G01*
X22871095Y18636445D01*
X23489667Y18381449D01*
X23860707Y18633754D01*
X23934144Y18683494D01*
X24031499Y18748782D01*
X24115787Y18804546D01*
X24182631Y18847922D01*
X24227654Y18876047D01*
X24246478Y18886058D01*
X24258039Y18878939D01*
X24292596Y18849106D01*
X24344894Y18800148D01*
X24410500Y18736560D01*
X24484983Y18662837D01*
X24563913Y18583475D01*
X24642856Y18502969D01*
X24717384Y18425815D01*
X24783063Y18356507D01*
X24835463Y18299543D01*
X24870153Y18259416D01*
X24882701Y18240623D01*
X24879782Y18232549D01*
X24859571Y18196531D01*
X24822663Y18137256D01*
X24772050Y18059370D01*
X24710725Y17967519D01*
X24641679Y17866350D01*
X24603787Y17811174D01*
X24538606Y17715116D01*
X24482723Y17631283D01*
X24439117Y17564223D01*
X24410769Y17518481D01*
X24400657Y17498604D01*
X24400823Y17497503D01*
X24409743Y17472306D01*
X24430206Y17420853D01*
X24459360Y17349865D01*
X24494353Y17266065D01*
X24532332Y17176172D01*
X24570445Y17086909D01*
X24605839Y17004997D01*
X24635662Y16937157D01*
X24657061Y16890110D01*
X24667184Y16870578D01*
X24673174Y16868845D01*
X24709566Y16861031D01*
X24774427Y16848085D01*
X24862565Y16831021D01*
X24968787Y16810849D01*
X25087902Y16788582D01*
X25150683Y16776777D01*
X25265912Y16754252D01*
X25366662Y16733450D01*
X25447426Y16715565D01*
X25502698Y16701792D01*
X25526971Y16693326D01*
X25531331Y16684934D01*
X25538563Y16643928D01*
X25544246Y16575632D01*
X25548382Y16486471D01*
X25550977Y16382872D01*
X25552036Y16271260D01*
X25551561Y16158062D01*
X25549559Y16049704D01*
X25546033Y15952611D01*
X25540987Y15873210D01*
X25534427Y15817928D01*
X25526356Y15793190D01*
X25521458Y15790400D01*
X25484930Y15778431D01*
X25421565Y15762595D01*
X25338686Y15744626D01*
X25243618Y15726259D01*
X25211542Y15720409D01*
X25063393Y15693202D01*
X24946961Y15671337D01*
X24858209Y15653907D01*
X24793103Y15640004D01*
X24747606Y15628723D01*
X24717682Y15619157D01*
X24699294Y15610399D01*
X24688407Y15601543D01*
X24687142Y15600057D01*
X24669338Y15569069D01*
X24642994Y15512366D01*
X24610661Y15436601D01*
X24574893Y15348426D01*
X24538244Y15254493D01*
X24503266Y15161453D01*
X24472513Y15075959D01*
X24448538Y15004664D01*
X24433895Y14954218D01*
X24431136Y14931274D01*
X24432981Y14928297D01*
X24452075Y14899507D01*
X24487984Y14846405D01*
X24537378Y14773883D01*
X24596927Y14686833D01*
X24663303Y14590146D01*
X24681520Y14563544D01*
X24745577Y14468125D01*
X24800937Y14382788D01*
X24844439Y14312595D01*
X24872924Y14262606D01*
X24883232Y14237884D01*
X24881011Y14231384D01*
X24857858Y14199356D01*
X24812177Y14147055D01*
X24747241Y14078001D01*
X24666319Y13995714D01*
X24572685Y13903714D01*
X24519165Y13852219D01*
X24434542Y13772017D01*
X24360475Y13703322D01*
X24300941Y13649748D01*
X24259917Y13614915D01*
X24241381Y13602437D01*
X24228646Y13607062D01*
X24189436Y13628943D01*
X24132495Y13664727D01*
X24065250Y13709883D01*
X24017438Y13742835D01*
X23921985Y13808273D01*
X23820125Y13877772D01*
X23727088Y13940925D01*
X23544832Y14064200D01*
X23391841Y13981480D01*
X23355817Y13962387D01*
X23290303Y13929728D01*
X23239640Y13907181D01*
X23212564Y13898774D01*
X23203703Y13909570D01*
X23181699Y13950677D01*
X23149199Y14018451D01*
X23108010Y14108591D01*
X23059942Y14216795D01*
X23006802Y14338763D01*
X22950399Y14470192D01*
X22892542Y14606782D01*
X22835038Y14744233D01*
X22779697Y14878242D01*
X22728326Y15004509D01*
X22682735Y15118732D01*
X22644732Y15216610D01*
X22616124Y15293843D01*
X22598721Y15346129D01*
X22594331Y15369167D01*
X22594628Y15369840D01*
X22615077Y15391137D01*
X22657850Y15424492D01*
X22714117Y15462989D01*
X22731877Y15474744D01*
X22867014Y15586265D01*
X22978856Y15719094D01*
X23064755Y15867702D01*
X23122062Y16026560D01*
X23148131Y16190140D01*
X23140313Y16352912D01*
X23108644Y16497685D01*
X23051782Y16643876D01*
X22968888Y16774297D01*
X22855131Y16898187D01*
X22810433Y16937765D01*
X22665935Y17035277D01*
X22509838Y17100950D01*
X22346667Y17135370D01*
X22180943Y17139126D01*
X22017192Y17112806D01*
X21859936Y17056997D01*
X21713698Y16972286D01*
X21583004Y16859263D01*
X21472374Y16718513D01*
X21451105Y16683658D01*
X21378810Y16524345D01*
X21340415Y16358448D01*
X21334914Y16190263D01*
X21361301Y16024087D01*
X21418570Y15864216D01*
X21505717Y15714947D01*
X21621736Y15580577D01*
X21765622Y15465401D01*
X21770294Y15462298D01*
X21825964Y15423067D01*
X21867689Y15389714D01*
X21886746Y15369167D01*
X21884342Y15353059D01*
X21869391Y15306156D01*
X21842881Y15233461D01*
X21806620Y15139275D01*
X21762416Y15027902D01*
X21712076Y14903642D01*
X21657407Y14770798D01*
X21600218Y14633673D01*
X21542316Y14496568D01*
X21485510Y14363785D01*
X21431606Y14239626D01*
X21382412Y14128394D01*
X21339737Y14034391D01*
X21305387Y13961918D01*
X21281171Y13915278D01*
X21268897Y13898774D01*
X21258689Y13901009D01*
X21218586Y13917074D01*
X21159318Y13945241D01*
X21089619Y13981480D01*
X20936629Y14064200D01*
X20754373Y13940925D01*
X20700527Y13904421D01*
X20600374Y13836216D01*
X20500525Y13767902D01*
X20416211Y13709883D01*
X20369679Y13678264D01*
X20309200Y13638980D01*
X20264357Y13612088D01*
X20242455Y13602117D01*
X20233045Y13606350D01*
X20199031Y13632279D01*
X20146595Y13677930D01*
X20080301Y13738814D01*
X20004713Y13810439D01*
X19924396Y13888317D01*
X19843913Y13967955D01*
X19767829Y14044865D01*
X19700707Y14114555D01*
X19647112Y14172536D01*
X19611608Y14214316D01*
X19598759Y14235407D01*
X19599500Y14239419D01*
X19614793Y14272080D01*
X19647462Y14328588D01*
X19694350Y14403837D01*
X19752301Y14492725D01*
X19818157Y14590146D01*
X19836627Y14617018D01*
X19901482Y14711577D01*
X19958609Y14795173D01*
X20004678Y14862916D01*
X20036359Y14909914D01*
X20050324Y14931274D01*
X20050668Y14932189D01*
X20046546Y14958322D01*
X20030807Y15011260D01*
X20006004Y15084353D01*
X19974689Y15170948D01*
X19939417Y15264392D01*
X19902740Y15358035D01*
X19867212Y15445223D01*
X19835386Y15519305D01*
X19809816Y15573629D01*
X19793053Y15601543D01*
X19791374Y15603276D01*
X19779372Y15612044D01*
X19759103Y15620885D01*
X19726529Y15630708D01*
X19677616Y15642417D01*
X19608327Y15656920D01*
X19514625Y15675124D01*
X19392476Y15697934D01*
X19237842Y15726259D01*
X19205770Y15732220D01*
X19113893Y15750648D01*
X19036607Y15768108D01*
X18981236Y15782867D01*
X18955105Y15793190D01*
X18950733Y15801803D01*
X18943445Y15843174D01*
X18937669Y15911759D01*
X18933410Y16001132D01*
X18930673Y16104865D01*
X18929462Y16216535D01*
X18929782Y16329713D01*
X18931636Y16437974D01*
X18935030Y16534892D01*
X18939967Y16614041D01*
X18946452Y16668994D01*
X18954489Y16693326D01*
X18962696Y16696921D01*
X19003519Y16708252D01*
X19072524Y16724278D01*
X19164203Y16743805D01*
X19273050Y16765638D01*
X19393558Y16788582D01*
X19459357Y16800841D01*
X19572135Y16822099D01*
X19669207Y16840713D01*
X19745382Y16855672D01*
X19795469Y16865964D01*
X19814276Y16870578D01*
X19814983Y16871529D01*
X19826961Y16895690D01*
X19849794Y16946306D01*
X19880630Y17016662D01*
X19916613Y17100042D01*
X19954891Y17189730D01*
X19992609Y17279011D01*
X20026913Y17361168D01*
X20054949Y17429487D01*
X20073864Y17477252D01*
X20080803Y17497746D01*
X20077742Y17504957D01*
X20057372Y17539272D01*
X20020422Y17597030D01*
X19969860Y17673701D01*
X19908657Y17764752D01*
X19839781Y17865650D01*
X19801994Y17920907D01*
X19736782Y18017785D01*
X19680871Y18102807D01*
X19637241Y18171338D01*
X19608877Y18218740D01*
X19598759Y18240377D01*
X19605790Y18252113D01*
X19635197Y18287182D01*
X19683441Y18340255D01*
X19746093Y18406836D01*
X19818725Y18482426D01*
X19896908Y18562528D01*
X19976214Y18642646D01*
X20052213Y18718282D01*
X20120478Y18784938D01*
X20176580Y18838118D01*
X20216090Y18873324D01*
X20234579Y18886058D01*
X20244843Y18881107D01*
X20282530Y18858143D01*
X20343348Y18819062D01*
X20422913Y18766728D01*
X20516843Y18704004D01*
X20620754Y18633754D01*
X20991794Y18381449D01*
X21301080Y18508947D01*
X21610365Y18636445D01*
X21694186Y19081069D01*
X21778006Y19525693D01*
X22703454Y19525693D01*
X22787275Y19081069D01*
G37*
D12*
%TO.C,QR1*%
G36*
X37698892Y23571191D02*
G01*
X37698892Y23395291D01*
X37522992Y23395291D01*
X37347092Y23395291D01*
X37347092Y23571191D01*
X37347092Y23747092D01*
X37522992Y23747092D01*
X37698892Y23747092D01*
X37698892Y23571191D01*
G37*
G36*
X38754294Y33773407D02*
G01*
X38754294Y33245707D01*
X38226593Y33245707D01*
X37698892Y33245707D01*
X37698892Y33773407D01*
X37698892Y34301108D01*
X38226593Y34301108D01*
X38754294Y34301108D01*
X38754294Y33773407D01*
G37*
G36*
X38754294Y29200000D02*
G01*
X38754294Y29024100D01*
X38578394Y29024100D01*
X38402493Y29024100D01*
X38402493Y29200000D01*
X38402493Y29375901D01*
X38578394Y29375901D01*
X38754294Y29375901D01*
X38754294Y29200000D01*
G37*
G36*
X39457895Y28848200D02*
G01*
X39457895Y28672299D01*
X39281995Y28672299D01*
X39106094Y28672299D01*
X39106094Y28848200D01*
X39106094Y29024100D01*
X39281995Y29024100D01*
X39457895Y29024100D01*
X39457895Y28848200D01*
G37*
G36*
X39457895Y27440997D02*
G01*
X39457895Y27265097D01*
X39281995Y27265097D01*
X39106094Y27265097D01*
X39106094Y27440997D01*
X39106094Y27616898D01*
X39281995Y27616898D01*
X39457895Y27616898D01*
X39457895Y27440997D01*
G37*
G36*
X39457895Y25681995D02*
G01*
X39457895Y25506094D01*
X39281995Y25506094D01*
X39106094Y25506094D01*
X39106094Y25681995D01*
X39106094Y25857895D01*
X39281995Y25857895D01*
X39457895Y25857895D01*
X39457895Y25681995D01*
G37*
G36*
X40513297Y23571191D02*
G01*
X40513297Y23395291D01*
X40161496Y23395291D01*
X39809696Y23395291D01*
X39809696Y23571191D01*
X39809696Y23747092D01*
X40161496Y23747092D01*
X40513297Y23747092D01*
X40513297Y23571191D01*
G37*
G36*
X42272299Y31662604D02*
G01*
X42272299Y31486704D01*
X42096399Y31486704D01*
X41920499Y31486704D01*
X41920499Y31662604D01*
X41920499Y31838504D01*
X42096399Y31838504D01*
X42272299Y31838504D01*
X42272299Y31662604D01*
G37*
G36*
X43327701Y34828809D02*
G01*
X43327701Y34652909D01*
X43151801Y34652909D01*
X42975901Y34652909D01*
X42975901Y34828809D01*
X42975901Y35004709D01*
X43151801Y35004709D01*
X43327701Y35004709D01*
X43327701Y34828809D01*
G37*
G36*
X44383103Y33421607D02*
G01*
X44383103Y33245707D01*
X44207202Y33245707D01*
X44031302Y33245707D01*
X44031302Y33421607D01*
X44031302Y33597507D01*
X44207202Y33597507D01*
X44383103Y33597507D01*
X44383103Y33421607D01*
G37*
G36*
X45438504Y29551801D02*
G01*
X45438504Y29375901D01*
X45086704Y29375901D01*
X44734903Y29375901D01*
X44734903Y29551801D01*
X44734903Y29727701D01*
X45086704Y29727701D01*
X45438504Y29727701D01*
X45438504Y29551801D01*
G37*
G36*
X47901108Y33773407D02*
G01*
X47901108Y33245707D01*
X47373407Y33245707D01*
X46845707Y33245707D01*
X46845707Y33773407D01*
X46845707Y34301108D01*
X47373407Y34301108D01*
X47901108Y34301108D01*
X47901108Y33773407D01*
G37*
G36*
X47197507Y30959003D02*
G01*
X47197507Y30783103D01*
X47021607Y30783103D01*
X46845707Y30783103D01*
X46845707Y30959003D01*
X46845707Y31134903D01*
X47021607Y31134903D01*
X47197507Y31134903D01*
X47197507Y30959003D01*
G37*
G36*
X47901108Y24626593D02*
G01*
X47901108Y24098892D01*
X47373407Y24098892D01*
X46845707Y24098892D01*
X46845707Y24626593D01*
X46845707Y25154294D01*
X47373407Y25154294D01*
X47901108Y25154294D01*
X47901108Y24626593D01*
G37*
G36*
X38402493Y23747092D02*
G01*
X38402493Y23395291D01*
X38226593Y23395291D01*
X38050693Y23395291D01*
X38050693Y23571191D01*
X38050693Y23747092D01*
X37874792Y23747092D01*
X37698892Y23747092D01*
X37698892Y23922992D01*
X37698892Y24098892D01*
X38050693Y24098892D01*
X38402493Y24098892D01*
X38402493Y23747092D01*
G37*
G36*
X39281995Y23747092D02*
G01*
X39457895Y23747092D01*
X39457895Y23571191D01*
X39457895Y23395291D01*
X39281995Y23395291D01*
X39106094Y23395291D01*
X39106094Y23571191D01*
X39106094Y23747092D01*
X39281995Y23747092D01*
G37*
G36*
X39106094Y23922992D02*
G01*
X39106094Y23747092D01*
X38930194Y23747092D01*
X38754294Y23747092D01*
X38754294Y23922992D01*
X38754294Y24098892D01*
X38930194Y24098892D01*
X39106094Y24098892D01*
X39106094Y23922992D01*
G37*
G36*
X48428809Y30783103D02*
G01*
X48604709Y30783103D01*
X48604709Y30607202D01*
X48604709Y30431302D01*
X48428809Y30431302D01*
X48252909Y30431302D01*
X48252909Y30607202D01*
X48252909Y30783103D01*
X48428809Y30783103D01*
G37*
G36*
X48252909Y31134903D02*
G01*
X48252909Y30783103D01*
X47901108Y30783103D01*
X47549308Y30783103D01*
X47549308Y31134903D01*
X47549308Y31486704D01*
X47901108Y31486704D01*
X48252909Y31486704D01*
X48252909Y31134903D01*
G37*
G36*
X48252909Y27792798D02*
G01*
X48252909Y27616898D01*
X48428809Y27616898D01*
X48604709Y27616898D01*
X48604709Y26913297D01*
X48604709Y26209696D01*
X48428809Y26209696D01*
X48252909Y26209696D01*
X48252909Y26737396D01*
X48252909Y27265097D01*
X48077009Y27265097D01*
X47901108Y27265097D01*
X47901108Y27616898D01*
X47901108Y27968698D01*
X48077009Y27968698D01*
X48252909Y27968698D01*
X48252909Y27792798D01*
G37*
G36*
X39457895Y32542106D02*
G01*
X38226593Y32542106D01*
X36995291Y32542106D01*
X36995291Y33773407D01*
X36995291Y34652909D01*
X37347092Y34652909D01*
X37347092Y33773407D01*
X37347092Y32893906D01*
X38226593Y32893906D01*
X39106094Y32893906D01*
X39106094Y33773407D01*
X39106094Y34652909D01*
X38226593Y34652909D01*
X37347092Y34652909D01*
X36995291Y34652909D01*
X36995291Y35004709D01*
X38226593Y35004709D01*
X39457895Y35004709D01*
X39457895Y33773407D01*
X39457895Y32542106D01*
G37*
G36*
X48604709Y32542106D02*
G01*
X47373407Y32542106D01*
X46142106Y32542106D01*
X46142106Y33773407D01*
X46142106Y34652909D01*
X46493906Y34652909D01*
X46493906Y33773407D01*
X46493906Y32893906D01*
X47373407Y32893906D01*
X48252909Y32893906D01*
X48252909Y33773407D01*
X48252909Y34652909D01*
X47373407Y34652909D01*
X46493906Y34652909D01*
X46142106Y34652909D01*
X46142106Y35004709D01*
X47373407Y35004709D01*
X48604709Y35004709D01*
X48604709Y33773407D01*
X48604709Y32542106D01*
G37*
G36*
X48604709Y23395291D02*
G01*
X47373407Y23395291D01*
X46142106Y23395291D01*
X46142106Y24626593D01*
X46142106Y25506094D01*
X46493906Y25506094D01*
X46493906Y24626593D01*
X46493906Y23747092D01*
X47373407Y23747092D01*
X48252909Y23747092D01*
X48252909Y24626593D01*
X48252909Y25506094D01*
X47373407Y25506094D01*
X46493906Y25506094D01*
X46142106Y25506094D01*
X46142106Y25857895D01*
X47373407Y25857895D01*
X48604709Y25857895D01*
X48604709Y24626593D01*
X48604709Y23395291D01*
G37*
G36*
X40513297Y28144599D02*
G01*
X40513297Y27968698D01*
X40337396Y27968698D01*
X40161496Y27968698D01*
X40161496Y27440997D01*
X40161496Y26913297D01*
X39985596Y26913297D01*
X39809696Y26913297D01*
X39809696Y27265097D01*
X39809696Y27616898D01*
X39633795Y27616898D01*
X39457895Y27616898D01*
X39457895Y27968698D01*
X39457895Y28320499D01*
X39985596Y28320499D01*
X40513297Y28320499D01*
X40513297Y28144599D01*
G37*
G36*
X40689197Y27968698D02*
G01*
X40865097Y27968698D01*
X40865097Y27792798D01*
X40865097Y27616898D01*
X40689197Y27616898D01*
X40513297Y27616898D01*
X40513297Y27792798D01*
X40513297Y27968698D01*
X40689197Y27968698D01*
G37*
G36*
X40513297Y24274792D02*
G01*
X40513297Y24098892D01*
X40689197Y24098892D01*
X40865097Y24098892D01*
X40865097Y24274792D01*
X40865097Y24450693D01*
X41040997Y24450693D01*
X41216898Y24450693D01*
X41216898Y24274792D01*
X41216898Y24098892D01*
X41040997Y24098892D01*
X40865097Y24098892D01*
X40865097Y23922992D01*
X40865097Y23747092D01*
X40689197Y23747092D01*
X40513297Y23747092D01*
X40513297Y23922992D01*
X40513297Y24098892D01*
X40337396Y24098892D01*
X40161496Y24098892D01*
X40161496Y24274792D01*
X40161496Y24450693D01*
X40337396Y24450693D01*
X40513297Y24450693D01*
X40513297Y24274792D01*
G37*
G36*
X46493906Y32014405D02*
G01*
X46493906Y31838504D01*
X46669806Y31838504D01*
X46845707Y31838504D01*
X46845707Y32014405D01*
X46845707Y32190305D01*
X47373407Y32190305D01*
X47901108Y32190305D01*
X47901108Y32014405D01*
X47901108Y31838504D01*
X47373407Y31838504D01*
X46845707Y31838504D01*
X46845707Y31662604D01*
X46845707Y31486704D01*
X46669806Y31486704D01*
X46493906Y31486704D01*
X46493906Y31662604D01*
X46493906Y31838504D01*
X46318006Y31838504D01*
X46142106Y31838504D01*
X46142106Y32014405D01*
X46142106Y32190305D01*
X46318006Y32190305D01*
X46493906Y32190305D01*
X46493906Y32014405D01*
G37*
G36*
X44383103Y30079502D02*
G01*
X44383103Y29727701D01*
X44207202Y29727701D01*
X44031302Y29727701D01*
X44031302Y29551801D01*
X44031302Y29375901D01*
X43679502Y29375901D01*
X43327701Y29375901D01*
X43327701Y29200000D01*
X43327701Y29024100D01*
X43151801Y29024100D01*
X42975901Y29024100D01*
X42975901Y29200000D01*
X42975901Y29375901D01*
X42624100Y29375901D01*
X42272299Y29375901D01*
X42272299Y29551801D01*
X42272299Y29727701D01*
X42624100Y29727701D01*
X42975901Y29727701D01*
X42975901Y29551801D01*
X42975901Y29375901D01*
X43151801Y29375901D01*
X43327701Y29375901D01*
X43327701Y29727701D01*
X43327701Y30079502D01*
X43503601Y30079502D01*
X43679502Y30079502D01*
X43679502Y30255402D01*
X43679502Y30431302D01*
X44031302Y30431302D01*
X44383103Y30431302D01*
X44383103Y30079502D01*
G37*
G36*
X46493906Y27265097D02*
G01*
X46845707Y27265097D01*
X46845707Y27089197D01*
X46845707Y26913297D01*
X47373407Y26913297D01*
X47901108Y26913297D01*
X47901108Y26561496D01*
X47901108Y26209696D01*
X47725208Y26209696D01*
X47549308Y26209696D01*
X47549308Y26385596D01*
X47549308Y26561496D01*
X47021607Y26561496D01*
X46493906Y26561496D01*
X46493906Y26385596D01*
X46493906Y26209696D01*
X46318006Y26209696D01*
X46142106Y26209696D01*
X46142106Y26385596D01*
X46142106Y26561496D01*
X45966205Y26561496D01*
X45790305Y26561496D01*
X45790305Y26737396D01*
X45790305Y26913297D01*
X45966205Y26913297D01*
X46142106Y26913297D01*
X46142106Y26737396D01*
X46142106Y26561496D01*
X46318006Y26561496D01*
X46493906Y26561496D01*
X46493906Y26737396D01*
X46493906Y26913297D01*
X46318006Y26913297D01*
X46142106Y26913297D01*
X46142106Y27089197D01*
X46142106Y27265097D01*
X46493906Y27265097D01*
G37*
G36*
X45790305Y27968698D02*
G01*
X45790305Y27616898D01*
X45966205Y27616898D01*
X46142106Y27616898D01*
X46142106Y27792798D01*
X46142106Y27968698D01*
X46318006Y27968698D01*
X46493906Y27968698D01*
X46493906Y27792798D01*
X46493906Y27616898D01*
X46318006Y27616898D01*
X46142106Y27616898D01*
X46142106Y27440997D01*
X46142106Y27265097D01*
X45966205Y27265097D01*
X45790305Y27265097D01*
X45790305Y27440997D01*
X45790305Y27616898D01*
X45614405Y27616898D01*
X45438504Y27616898D01*
X45438504Y27968698D01*
X45438504Y28320499D01*
X45614405Y28320499D01*
X45790305Y28320499D01*
X45790305Y27968698D01*
G37*
G36*
X47549308Y30255402D02*
G01*
X47549308Y30079502D01*
X47725208Y30079502D01*
X47901108Y30079502D01*
X47901108Y30255402D01*
X47901108Y30431302D01*
X48077009Y30431302D01*
X48252909Y30431302D01*
X48252909Y30255402D01*
X48252909Y30079502D01*
X48077009Y30079502D01*
X47901108Y30079502D01*
X47901108Y29727701D01*
X47901108Y29375901D01*
X48077009Y29375901D01*
X48252909Y29375901D01*
X48252909Y29727701D01*
X48252909Y30079502D01*
X48428809Y30079502D01*
X48604709Y30079502D01*
X48604709Y29727701D01*
X48604709Y29375901D01*
X48428809Y29375901D01*
X48252909Y29375901D01*
X48252909Y29200000D01*
X48252909Y29024100D01*
X48428809Y29024100D01*
X48604709Y29024100D01*
X48604709Y28672299D01*
X48604709Y28320499D01*
X48428809Y28320499D01*
X48252909Y28320499D01*
X48252909Y28496399D01*
X48252909Y28672299D01*
X48077009Y28672299D01*
X47901108Y28672299D01*
X47901108Y29024100D01*
X47901108Y29375901D01*
X47725208Y29375901D01*
X47549308Y29375901D01*
X47549308Y29200000D01*
X47549308Y29024100D01*
X47373407Y29024100D01*
X47197507Y29024100D01*
X47197507Y28672299D01*
X47197507Y28320499D01*
X47373407Y28320499D01*
X47549308Y28320499D01*
X47549308Y28144599D01*
X47549308Y27968698D01*
X47021607Y27968698D01*
X46493906Y27968698D01*
X46493906Y28144599D01*
X46493906Y28320499D01*
X46318006Y28320499D01*
X46142106Y28320499D01*
X46142106Y28496399D01*
X46142106Y28672299D01*
X46318006Y28672299D01*
X46493906Y28672299D01*
X46493906Y28848200D01*
X46493906Y29024100D01*
X46318006Y29024100D01*
X46142106Y29024100D01*
X46142106Y28848200D01*
X46142106Y28672299D01*
X45614405Y28672299D01*
X45086704Y28672299D01*
X45086704Y28848200D01*
X45086704Y29024100D01*
X45262604Y29024100D01*
X45438504Y29024100D01*
X45438504Y29200000D01*
X45438504Y29375901D01*
X45614405Y29375901D01*
X45790305Y29375901D01*
X45790305Y29551801D01*
X45790305Y29727701D01*
X45614405Y29727701D01*
X45438504Y29727701D01*
X45438504Y29903601D01*
X45438504Y30079502D01*
X45966205Y30079502D01*
X46493906Y30079502D01*
X46493906Y29903601D01*
X46493906Y29727701D01*
X46318006Y29727701D01*
X46142106Y29727701D01*
X46142106Y29551801D01*
X46142106Y29375901D01*
X46318006Y29375901D01*
X46493906Y29375901D01*
X46493906Y29200000D01*
X46493906Y29024100D01*
X46669806Y29024100D01*
X46845707Y29024100D01*
X46845707Y29375901D01*
X46845707Y29727701D01*
X47021607Y29727701D01*
X47197507Y29727701D01*
X47197507Y30079502D01*
X47197507Y30431302D01*
X47373407Y30431302D01*
X47549308Y30431302D01*
X47549308Y30255402D01*
G37*
G36*
X41216898Y31662604D02*
G01*
X41216898Y31486704D01*
X41392798Y31486704D01*
X41568698Y31486704D01*
X41568698Y31310804D01*
X41568698Y31134903D01*
X41392798Y31134903D01*
X41216898Y31134903D01*
X41216898Y30783103D01*
X41216898Y30431302D01*
X41040997Y30431302D01*
X40865097Y30431302D01*
X40865097Y30607202D01*
X40865097Y30783103D01*
X40689197Y30783103D01*
X40513297Y30783103D01*
X40513297Y30607202D01*
X40513297Y30431302D01*
X40689197Y30431302D01*
X40865097Y30431302D01*
X40865097Y30079502D01*
X40865097Y29727701D01*
X41040997Y29727701D01*
X41216898Y29727701D01*
X41216898Y30079502D01*
X41216898Y30431302D01*
X41392798Y30431302D01*
X41568698Y30431302D01*
X41568698Y30607202D01*
X41568698Y30783103D01*
X41920499Y30783103D01*
X42272299Y30783103D01*
X42272299Y30255402D01*
X42272299Y29727701D01*
X42096399Y29727701D01*
X41920499Y29727701D01*
X41920499Y29903601D01*
X41920499Y30079502D01*
X41744599Y30079502D01*
X41568698Y30079502D01*
X41568698Y29903601D01*
X41568698Y29727701D01*
X41744599Y29727701D01*
X41920499Y29727701D01*
X41920499Y29200000D01*
X41920499Y28672299D01*
X41744599Y28672299D01*
X41568698Y28672299D01*
X41568698Y28496399D01*
X41568698Y28320499D01*
X41920499Y28320499D01*
X42272299Y28320499D01*
X42272299Y28144599D01*
X42272299Y27968698D01*
X42096399Y27968698D01*
X41920499Y27968698D01*
X41920499Y27616898D01*
X41920499Y27265097D01*
X41744599Y27265097D01*
X41568698Y27265097D01*
X41568698Y27616898D01*
X41568698Y27968698D01*
X41216898Y27968698D01*
X40865097Y27968698D01*
X40865097Y28144599D01*
X40865097Y28320499D01*
X41040997Y28320499D01*
X41216898Y28320499D01*
X41216898Y28496399D01*
X41216898Y28672299D01*
X41040997Y28672299D01*
X40865097Y28672299D01*
X40865097Y28848200D01*
X40865097Y29024100D01*
X41216898Y29024100D01*
X41568698Y29024100D01*
X41568698Y29200000D01*
X41568698Y29375901D01*
X41040997Y29375901D01*
X40513297Y29375901D01*
X40513297Y29024100D01*
X40513297Y28672299D01*
X40161496Y28672299D01*
X39809696Y28672299D01*
X39809696Y28848200D01*
X39809696Y29024100D01*
X39985596Y29024100D01*
X40161496Y29024100D01*
X40161496Y29375901D01*
X40161496Y29727701D01*
X40337396Y29727701D01*
X40513297Y29727701D01*
X40513297Y29903601D01*
X40513297Y30079502D01*
X40337396Y30079502D01*
X40161496Y30079502D01*
X40161496Y30255402D01*
X40161496Y30431302D01*
X39809696Y30431302D01*
X39457895Y30431302D01*
X39457895Y30079502D01*
X39457895Y29727701D01*
X39281995Y29727701D01*
X39106094Y29727701D01*
X39106094Y30079502D01*
X39106094Y30431302D01*
X38754294Y30431302D01*
X38402493Y30431302D01*
X38402493Y30607202D01*
X38402493Y30783103D01*
X38754294Y30783103D01*
X39106094Y30783103D01*
X39106094Y30607202D01*
X39106094Y30431302D01*
X39281995Y30431302D01*
X39457895Y30431302D01*
X39457895Y30607202D01*
X39457895Y30783103D01*
X39809696Y30783103D01*
X40161496Y30783103D01*
X40161496Y30959003D01*
X40161496Y31134903D01*
X39985596Y31134903D01*
X39809696Y31134903D01*
X39809696Y31310804D01*
X39809696Y31486704D01*
X39985596Y31486704D01*
X40161496Y31486704D01*
X40161496Y31310804D01*
X40161496Y31134903D01*
X40513297Y31134903D01*
X40865097Y31134903D01*
X40865097Y31486704D01*
X40865097Y31838504D01*
X41040997Y31838504D01*
X41216898Y31838504D01*
X41216898Y31662604D01*
G37*
G36*
X38050693Y31134903D02*
G01*
X38402493Y31134903D01*
X38402493Y30959003D01*
X38402493Y30783103D01*
X38050693Y30783103D01*
X37698892Y30783103D01*
X37698892Y30959003D01*
X37698892Y31134903D01*
X38050693Y31134903D01*
G37*
G36*
X37522992Y31486704D02*
G01*
X37698892Y31486704D01*
X37698892Y31310804D01*
X37698892Y31134903D01*
X37522992Y31134903D01*
X37347092Y31134903D01*
X37347092Y31310804D01*
X37347092Y31486704D01*
X37522992Y31486704D01*
G37*
G36*
X40337396Y32542106D02*
G01*
X40513297Y32542106D01*
X40513297Y32014405D01*
X40513297Y31486704D01*
X40337396Y31486704D01*
X40161496Y31486704D01*
X40161496Y31662604D01*
X40161496Y31838504D01*
X39985596Y31838504D01*
X39809696Y31838504D01*
X39809696Y31662604D01*
X39809696Y31486704D01*
X39633795Y31486704D01*
X39457895Y31486704D01*
X39457895Y31310804D01*
X39457895Y31134903D01*
X39106094Y31134903D01*
X38754294Y31134903D01*
X38754294Y31310804D01*
X38754294Y31486704D01*
X38930194Y31486704D01*
X39106094Y31486704D01*
X39106094Y31662604D01*
X39106094Y31838504D01*
X38930194Y31838504D01*
X38754294Y31838504D01*
X38754294Y32014405D01*
X38754294Y32190305D01*
X39457895Y32190305D01*
X40161496Y32190305D01*
X40161496Y32366205D01*
X40161496Y32542106D01*
X40337396Y32542106D01*
G37*
G36*
X38050693Y32014405D02*
G01*
X38050693Y31838504D01*
X37698892Y31838504D01*
X37347092Y31838504D01*
X37347092Y31662604D01*
X37347092Y31486704D01*
X37171191Y31486704D01*
X36995291Y31486704D01*
X36995291Y31838504D01*
X36995291Y32190305D01*
X37522992Y32190305D01*
X38050693Y32190305D01*
X38050693Y32014405D01*
G37*
G36*
X38226593Y31838504D02*
G01*
X38402493Y31838504D01*
X38402493Y31662604D01*
X38402493Y31486704D01*
X38226593Y31486704D01*
X38050693Y31486704D01*
X38050693Y31662604D01*
X38050693Y31838504D01*
X38226593Y31838504D01*
G37*
G36*
X40513297Y34828809D02*
G01*
X40513297Y34652909D01*
X40337396Y34652909D01*
X40161496Y34652909D01*
X40161496Y34477009D01*
X40161496Y34301108D01*
X40513297Y34301108D01*
X40865097Y34301108D01*
X40865097Y34652909D01*
X40865097Y35004709D01*
X41216898Y35004709D01*
X41568698Y35004709D01*
X41568698Y34828809D01*
X41568698Y34652909D01*
X41392798Y34652909D01*
X41216898Y34652909D01*
X41216898Y34301108D01*
X41216898Y33949308D01*
X41040997Y33949308D01*
X40865097Y33949308D01*
X40865097Y33597507D01*
X40865097Y33245707D01*
X41040997Y33245707D01*
X41216898Y33245707D01*
X41216898Y33597507D01*
X41216898Y33949308D01*
X41392798Y33949308D01*
X41568698Y33949308D01*
X41568698Y33597507D01*
X41568698Y33245707D01*
X41568698Y32542106D01*
X41392798Y32542106D01*
X41216898Y32542106D01*
X41216898Y32718006D01*
X41216898Y32893906D01*
X41040997Y32893906D01*
X40865097Y32893906D01*
X40865097Y32718006D01*
X40865097Y32542106D01*
X40689197Y32542106D01*
X40513297Y32542106D01*
X40513297Y32718006D01*
X40513297Y32893906D01*
X40337396Y32893906D01*
X40161496Y32893906D01*
X40161496Y32718006D01*
X40161496Y32542106D01*
X39985596Y32542106D01*
X39809696Y32542106D01*
X39809696Y32893906D01*
X39809696Y33245707D01*
X40161496Y33245707D01*
X40513297Y33245707D01*
X40513297Y33421607D01*
X40513297Y33597507D01*
X40161496Y33597507D01*
X39809696Y33597507D01*
X39809696Y34301108D01*
X39809696Y35004709D01*
X40161496Y35004709D01*
X40513297Y35004709D01*
X40513297Y34828809D01*
G37*
G36*
X45790305Y33949308D02*
G01*
X45614405Y33949308D01*
X45438504Y33949308D01*
X45438504Y34125208D01*
X45438504Y34301108D01*
X45262604Y34301108D01*
X45086704Y34301108D01*
X45086704Y33949308D01*
X45086704Y33597507D01*
X44910804Y33597507D01*
X44734903Y33597507D01*
X44734903Y33949308D01*
X44734903Y34301108D01*
X44383103Y34301108D01*
X44031302Y34301108D01*
X44031302Y33949308D01*
X44031302Y33773407D01*
X44031302Y33597507D01*
X43855402Y33597507D01*
X43679502Y33597507D01*
X43679502Y33245707D01*
X43679502Y33069806D01*
X43679502Y32542106D01*
X43855402Y32542106D01*
X44031302Y32542106D01*
X44031302Y32718006D01*
X44031302Y32893906D01*
X44207202Y32893906D01*
X44383103Y32893906D01*
X44383103Y32718006D01*
X44383103Y32542106D01*
X44559003Y32542106D01*
X44734903Y32542106D01*
X44734903Y32718006D01*
X44734903Y32893906D01*
X44910804Y32893906D01*
X45086704Y32893906D01*
X45086704Y32718006D01*
X45086704Y32542106D01*
X45262604Y32542106D01*
X45438504Y32542106D01*
X45438504Y32893906D01*
X45438504Y33245707D01*
X45614405Y33245707D01*
X45790305Y33245707D01*
X45790305Y32542106D01*
X45790305Y31838504D01*
X45438504Y31838504D01*
X45086704Y31838504D01*
X45086704Y32014405D01*
X45086704Y32190305D01*
X44910804Y32190305D01*
X44734903Y32190305D01*
X44734903Y31486704D01*
X44734903Y30783103D01*
X44910804Y30783103D01*
X45086704Y30783103D01*
X45086704Y31134903D01*
X45086704Y31486704D01*
X45262604Y31486704D01*
X45438504Y31486704D01*
X45438504Y31310804D01*
X45438504Y31134903D01*
X45790305Y31134903D01*
X46142106Y31134903D01*
X46142106Y31310804D01*
X46142106Y31486704D01*
X46318006Y31486704D01*
X46493906Y31486704D01*
X46493906Y31310804D01*
X46493906Y31134903D01*
X46318006Y31134903D01*
X46142106Y31134903D01*
X46142106Y30959003D01*
X46142106Y30783103D01*
X45966205Y30783103D01*
X45790305Y30783103D01*
X45790305Y30607202D01*
X45790305Y30431302D01*
X45614405Y30431302D01*
X45438504Y30431302D01*
X45438504Y30607202D01*
X45438504Y30783103D01*
X45262604Y30783103D01*
X45086704Y30783103D01*
X45086704Y30607202D01*
X45086704Y30431302D01*
X45262604Y30431302D01*
X45438504Y30431302D01*
X45438504Y30255402D01*
X45438504Y30079502D01*
X45086704Y30079502D01*
X44734903Y30079502D01*
X44734903Y30431302D01*
X44734903Y30783103D01*
X44559003Y30783103D01*
X44383103Y30783103D01*
X44383103Y31486704D01*
X44383103Y32190305D01*
X44207202Y32190305D01*
X44031302Y32190305D01*
X44031302Y31662604D01*
X44031302Y31134903D01*
X43855402Y31134903D01*
X43679502Y31134903D01*
X43679502Y30959003D01*
X43679502Y30783103D01*
X43503601Y30783103D01*
X43327701Y30783103D01*
X43327701Y30607202D01*
X43327701Y30431302D01*
X43151801Y30431302D01*
X42975901Y30431302D01*
X42975901Y30607202D01*
X42975901Y30783103D01*
X42624100Y30783103D01*
X42272299Y30783103D01*
X42272299Y30959003D01*
X42272299Y31134903D01*
X42800000Y31134903D01*
X43327701Y31134903D01*
X43327701Y31310804D01*
X43327701Y31486704D01*
X43503601Y31486704D01*
X43679502Y31486704D01*
X43679502Y31838504D01*
X43679502Y32190305D01*
X43503601Y32190305D01*
X43327701Y32190305D01*
X43327701Y31838504D01*
X43327701Y31486704D01*
X42975901Y31486704D01*
X42624100Y31486704D01*
X42624100Y31838504D01*
X42624100Y32190305D01*
X42272299Y32190305D01*
X41920499Y32190305D01*
X41920499Y32014405D01*
X41920499Y31838504D01*
X41568698Y31838504D01*
X41216898Y31838504D01*
X41216898Y32014405D01*
X41216898Y32190305D01*
X41040997Y32190305D01*
X40865097Y32190305D01*
X40865097Y32366205D01*
X40865097Y32542106D01*
X41040997Y32542106D01*
X41216898Y32542106D01*
X41216898Y32366205D01*
X41216898Y32190305D01*
X41568698Y32190305D01*
X41920499Y32190305D01*
X41920499Y32718006D01*
X41920499Y33245707D01*
X42096399Y33245707D01*
X42272299Y33245707D01*
X42272299Y32893906D01*
X42272299Y32542106D01*
X42448200Y32542106D01*
X42624100Y32542106D01*
X42624100Y32893906D01*
X42624100Y33245707D01*
X42800000Y33245707D01*
X42975901Y33245707D01*
X42975901Y32893906D01*
X42975901Y32542106D01*
X43151801Y32542106D01*
X43327701Y32542106D01*
X43327701Y32893906D01*
X43327701Y33245707D01*
X43151801Y33245707D01*
X42975901Y33245707D01*
X42975901Y33421607D01*
X42975901Y33597507D01*
X42800000Y33597507D01*
X42624100Y33597507D01*
X42624100Y33421607D01*
X42624100Y33245707D01*
X42448200Y33245707D01*
X42272299Y33245707D01*
X42272299Y33421607D01*
X42272299Y33597507D01*
X42096399Y33597507D01*
X41920499Y33597507D01*
X41920499Y33773407D01*
X41920499Y33949308D01*
X42096399Y33949308D01*
X42272299Y33949308D01*
X42272299Y33773407D01*
X42272299Y33597507D01*
X42448200Y33597507D01*
X42624100Y33597507D01*
X42624100Y33949308D01*
X42975901Y33949308D01*
X42975901Y33773407D01*
X42975901Y33597507D01*
X43151801Y33597507D01*
X43327701Y33597507D01*
X43327701Y33773407D01*
X43327701Y33949308D01*
X43151801Y33949308D01*
X42975901Y33949308D01*
X42624100Y33949308D01*
X42624100Y34301108D01*
X42272299Y34301108D01*
X41920499Y34301108D01*
X41920499Y34652909D01*
X41920499Y35004709D01*
X42096399Y35004709D01*
X42272299Y35004709D01*
X42272299Y34828809D01*
X42272299Y34652909D01*
X42448200Y34652909D01*
X42624100Y34652909D01*
X42624100Y34477009D01*
X42624100Y34301108D01*
X43327701Y34301108D01*
X44031302Y34301108D01*
X44031302Y34477009D01*
X44031302Y34652909D01*
X43855402Y34652909D01*
X43679502Y34652909D01*
X43679502Y34828809D01*
X43679502Y35004709D01*
X43855402Y35004709D01*
X44031302Y35004709D01*
X44031302Y34828809D01*
X44031302Y34652909D01*
X44383103Y34652909D01*
X44734903Y34652909D01*
X44734903Y34477009D01*
X44734903Y34301108D01*
X44910804Y34301108D01*
X45086704Y34301108D01*
X45086704Y34477009D01*
X45086704Y34652909D01*
X44910804Y34652909D01*
X44734903Y34652909D01*
X44734903Y34828809D01*
X44734903Y35004709D01*
X44910804Y35004709D01*
X45086704Y35004709D01*
X45086704Y34828809D01*
X45086704Y34652909D01*
X45262604Y34652909D01*
X45438504Y34652909D01*
X45438504Y34828809D01*
X45438504Y35004709D01*
X45614405Y35004709D01*
X45790305Y35004709D01*
X45790305Y34477009D01*
X45790305Y33949308D01*
G37*
G36*
X46669806Y30431302D02*
G01*
X46845707Y30431302D01*
X46845707Y30255402D01*
X46845707Y30079502D01*
X46669806Y30079502D01*
X46493906Y30079502D01*
X46493906Y30255402D01*
X46493906Y30431302D01*
X46669806Y30431302D01*
G37*
G36*
X46318006Y30783103D02*
G01*
X46493906Y30783103D01*
X46493906Y30607202D01*
X46493906Y30431302D01*
X46318006Y30431302D01*
X46142106Y30431302D01*
X46142106Y30607202D01*
X46142106Y30783103D01*
X46318006Y30783103D01*
G37*
G36*
X45262604Y33597507D02*
G01*
X45438504Y33597507D01*
X45438504Y33421607D01*
X45438504Y33245707D01*
X45262604Y33245707D01*
X45086704Y33245707D01*
X45086704Y33421607D01*
X45086704Y33597507D01*
X45262604Y33597507D01*
G37*
G36*
X43503601Y24450693D02*
G01*
X43679502Y24450693D01*
X43679502Y24274792D01*
X43679502Y24098892D01*
X43855402Y24098892D01*
X44031302Y24098892D01*
X44031302Y23922992D01*
X44031302Y23747092D01*
X44559003Y23747092D01*
X45086704Y23747092D01*
X45086704Y23922992D01*
X45086704Y24098892D01*
X45262604Y24098892D01*
X45438504Y24098892D01*
X45438504Y23922992D01*
X45438504Y23747092D01*
X45262604Y23747092D01*
X45086704Y23747092D01*
X45086704Y23571191D01*
X45086704Y23395291D01*
X44559003Y23395291D01*
X44031302Y23395291D01*
X44031302Y23571191D01*
X44031302Y23747092D01*
X43855402Y23747092D01*
X43679502Y23747092D01*
X43679502Y23571191D01*
X43679502Y23395291D01*
X43503601Y23395291D01*
X43327701Y23395291D01*
X43327701Y23747092D01*
X43327701Y24098892D01*
X43151801Y24098892D01*
X42975901Y24098892D01*
X42975901Y23922992D01*
X42975901Y23747092D01*
X42800000Y23747092D01*
X42624100Y23747092D01*
X42624100Y23571191D01*
X42624100Y23395291D01*
X42448200Y23395291D01*
X42272299Y23395291D01*
X42272299Y23571191D01*
X42272299Y23747092D01*
X42096399Y23747092D01*
X41920499Y23747092D01*
X41920499Y23571191D01*
X41920499Y23395291D01*
X41568698Y23395291D01*
X41216898Y23395291D01*
X41216898Y23571191D01*
X41216898Y23747092D01*
X41392798Y23747092D01*
X41568698Y23747092D01*
X41568698Y23922992D01*
X41568698Y24098892D01*
X41744599Y24098892D01*
X41920499Y24098892D01*
X41920499Y24626593D01*
X41920499Y24802493D01*
X42272299Y24802493D01*
X42272299Y24626593D01*
X42272299Y24450693D01*
X42448200Y24450693D01*
X42624100Y24450693D01*
X42624100Y24274792D01*
X42624100Y24098892D01*
X42800000Y24098892D01*
X42975901Y24098892D01*
X42975901Y24450693D01*
X42975901Y24802493D01*
X42624100Y24802493D01*
X42272299Y24802493D01*
X41920499Y24802493D01*
X41920499Y25154294D01*
X41744599Y25154294D01*
X41568698Y25154294D01*
X41568698Y24802493D01*
X41568698Y24450693D01*
X41392798Y24450693D01*
X41216898Y24450693D01*
X41216898Y24626593D01*
X41216898Y24802493D01*
X40865097Y24802493D01*
X40513297Y24802493D01*
X40513297Y24978394D01*
X40513297Y25154294D01*
X40337396Y25154294D01*
X40161496Y25154294D01*
X40161496Y24978394D01*
X40161496Y24802493D01*
X39985596Y24802493D01*
X39809696Y24802493D01*
X39809696Y24450693D01*
X39809696Y24098892D01*
X39457895Y24098892D01*
X39106094Y24098892D01*
X39106094Y24274792D01*
X39106094Y24450693D01*
X39281995Y24450693D01*
X39457895Y24450693D01*
X39457895Y24626593D01*
X39457895Y24802493D01*
X39106094Y24802493D01*
X38754294Y24802493D01*
X38754294Y24626593D01*
X38754294Y24450693D01*
X38402493Y24450693D01*
X38050693Y24450693D01*
X38050693Y24802493D01*
X38050693Y25154294D01*
X37874792Y25154294D01*
X37698892Y25154294D01*
X37698892Y24802493D01*
X37698892Y24450693D01*
X37522992Y24450693D01*
X37347092Y24450693D01*
X37347092Y24626593D01*
X37347092Y24802493D01*
X37171191Y24802493D01*
X36995291Y24802493D01*
X36995291Y25154294D01*
X36995291Y25506094D01*
X37171191Y25506094D01*
X37347092Y25506094D01*
X37347092Y25681995D01*
X37698892Y25681995D01*
X37698892Y25506094D01*
X37874792Y25506094D01*
X38050693Y25506094D01*
X38050693Y25681995D01*
X38050693Y25857895D01*
X37874792Y25857895D01*
X37698892Y25857895D01*
X37698892Y25681995D01*
X37347092Y25681995D01*
X37347092Y25857895D01*
X37522992Y25857895D01*
X37698892Y25857895D01*
X37698892Y26033795D01*
X37698892Y26209696D01*
X37522992Y26209696D01*
X37347092Y26209696D01*
X37347092Y26385596D01*
X37347092Y26561496D01*
X37522992Y26561496D01*
X37698892Y26561496D01*
X37698892Y26385596D01*
X37698892Y26209696D01*
X37874792Y26209696D01*
X38050693Y26209696D01*
X38754294Y26209696D01*
X38754294Y25681995D01*
X38754294Y25154294D01*
X39281995Y25154294D01*
X39809696Y25154294D01*
X39809696Y25681995D01*
X39809696Y26209696D01*
X40161496Y26209696D01*
X40161496Y26033795D01*
X40161496Y25857895D01*
X40513297Y25857895D01*
X40865097Y25857895D01*
X40865097Y25681995D01*
X40865097Y25506094D01*
X40689197Y25506094D01*
X40513297Y25506094D01*
X40513297Y25330194D01*
X40513297Y25154294D01*
X40865097Y25154294D01*
X41216898Y25154294D01*
X41216898Y25506094D01*
X41216898Y25857895D01*
X41392798Y25857895D01*
X41568698Y25857895D01*
X41568698Y26033795D01*
X41568698Y26209696D01*
X41744599Y26209696D01*
X41920499Y26209696D01*
X41920499Y25857895D01*
X41920499Y25506094D01*
X42096399Y25506094D01*
X42272299Y25506094D01*
X42272299Y26209696D01*
X42272299Y26913297D01*
X42096399Y26913297D01*
X41920499Y26913297D01*
X41920499Y26737396D01*
X41920499Y26561496D01*
X41744599Y26561496D01*
X41568698Y26561496D01*
X41568698Y26385596D01*
X41568698Y26209696D01*
X41392798Y26209696D01*
X41216898Y26209696D01*
X41216898Y26385596D01*
X41216898Y26561496D01*
X41040997Y26561496D01*
X40865097Y26561496D01*
X40865097Y26385596D01*
X40865097Y26209696D01*
X40513297Y26209696D01*
X40161496Y26209696D01*
X39809696Y26209696D01*
X39281995Y26209696D01*
X38754294Y26209696D01*
X38050693Y26209696D01*
X38050693Y26385596D01*
X38050693Y26561496D01*
X37874792Y26561496D01*
X37698892Y26561496D01*
X37698892Y27089197D01*
X37698892Y27616898D01*
X37874792Y27616898D01*
X38050693Y27616898D01*
X38050693Y27440997D01*
X38050693Y27265097D01*
X38402493Y27265097D01*
X38754294Y27265097D01*
X38754294Y27089197D01*
X38754294Y26913297D01*
X38578394Y26913297D01*
X38402493Y26913297D01*
X38402493Y26737396D01*
X38402493Y26561496D01*
X38578394Y26561496D01*
X38754294Y26561496D01*
X38754294Y26737396D01*
X38754294Y26913297D01*
X38930194Y26913297D01*
X39106094Y26913297D01*
X39106094Y26737396D01*
X39106094Y26561496D01*
X39809696Y26561496D01*
X40513297Y26561496D01*
X40513297Y26913297D01*
X40513297Y27265097D01*
X40689197Y27265097D01*
X40865097Y27265097D01*
X40865097Y27089197D01*
X40865097Y26913297D01*
X41392798Y26913297D01*
X41920499Y26913297D01*
X41920499Y27089197D01*
X41920499Y27265097D01*
X42448200Y27265097D01*
X42975901Y27265097D01*
X42975901Y27792798D01*
X42975901Y28320499D01*
X43327701Y28320499D01*
X43327701Y27968698D01*
X43503601Y27968698D01*
X43679502Y27968698D01*
X43679502Y28144599D01*
X43679502Y28320499D01*
X43855402Y28320499D01*
X44031302Y28320499D01*
X44031302Y28496399D01*
X44031302Y28672299D01*
X43679502Y28672299D01*
X43327701Y28672299D01*
X43327701Y28320499D01*
X42975901Y28320499D01*
X42800000Y28320499D01*
X42624100Y28320499D01*
X42624100Y28496399D01*
X42624100Y28672299D01*
X42448200Y28672299D01*
X42272299Y28672299D01*
X42272299Y28848200D01*
X42272299Y29024100D01*
X42624100Y29024100D01*
X42975901Y29024100D01*
X42975901Y28848200D01*
X42975901Y28672299D01*
X43151801Y28672299D01*
X43327701Y28672299D01*
X43327701Y28848200D01*
X43327701Y29024100D01*
X43679502Y29024100D01*
X44031302Y29024100D01*
X44031302Y29200000D01*
X44031302Y29375901D01*
X44383103Y29375901D01*
X44734903Y29375901D01*
X44734903Y29200000D01*
X44734903Y29024100D01*
X44559003Y29024100D01*
X44383103Y29024100D01*
X44383103Y28848200D01*
X44383103Y28672299D01*
X44559003Y28672299D01*
X44734903Y28672299D01*
X44734903Y28496399D01*
X44734903Y28320499D01*
X44910804Y28320499D01*
X45086704Y28320499D01*
X45086704Y28144599D01*
X45086704Y27968698D01*
X44559003Y27968698D01*
X44031302Y27968698D01*
X44031302Y27792798D01*
X44031302Y27616898D01*
X43679502Y27616898D01*
X43327701Y27616898D01*
X43327701Y27089197D01*
X43327701Y26561496D01*
X43151801Y26561496D01*
X42975901Y26561496D01*
X42975901Y26737396D01*
X42975901Y26913297D01*
X42800000Y26913297D01*
X42624100Y26913297D01*
X42624100Y26033795D01*
X42624100Y25154294D01*
X42800000Y25154294D01*
X42975901Y25154294D01*
X42975901Y25330194D01*
X42975901Y25506094D01*
X43151801Y25506094D01*
X43327701Y25506094D01*
X43327701Y25330194D01*
X43327701Y25154294D01*
X43503601Y25154294D01*
X43679502Y25154294D01*
X43679502Y24978394D01*
X43679502Y24802493D01*
X43855402Y24802493D01*
X44031302Y24802493D01*
X44031302Y24978394D01*
X44031302Y25154294D01*
X44207202Y25154294D01*
X44383103Y25154294D01*
X44383103Y25330194D01*
X44383103Y25506094D01*
X44734903Y25506094D01*
X45086704Y25506094D01*
X45086704Y25330194D01*
X45086704Y25154294D01*
X45438504Y25154294D01*
X45790305Y25154294D01*
X45790305Y24626593D01*
X45790305Y24098892D01*
X45614405Y24098892D01*
X45438504Y24098892D01*
X45438504Y24450693D01*
X45438504Y24802493D01*
X44910804Y24802493D01*
X44383103Y24802493D01*
X44383103Y24626593D01*
X44383103Y24450693D01*
X44734903Y24450693D01*
X45086704Y24450693D01*
X45086704Y24274792D01*
X45086704Y24098892D01*
X44559003Y24098892D01*
X44031302Y24098892D01*
X44031302Y24274792D01*
X44031302Y24450693D01*
X43855402Y24450693D01*
X43679502Y24450693D01*
X43679502Y24626593D01*
X43679502Y24802493D01*
X43503601Y24802493D01*
X43327701Y24802493D01*
X43327701Y24626593D01*
X43327701Y24450693D01*
X43503601Y24450693D01*
G37*
G36*
X44031302Y25857895D02*
G01*
X44383103Y25857895D01*
X44383103Y25681995D01*
X44383103Y25506094D01*
X44031302Y25506094D01*
X43679502Y25506094D01*
X43679502Y25681995D01*
X43679502Y25857895D01*
X44031302Y25857895D01*
G37*
G36*
X43679502Y26033795D02*
G01*
X43679502Y25857895D01*
X43503601Y25857895D01*
X43327701Y25857895D01*
X43327701Y26033795D01*
X43327701Y26209696D01*
X43503601Y26209696D01*
X43679502Y26209696D01*
X43679502Y26033795D01*
G37*
G36*
X37347092Y26033795D02*
G01*
X37347092Y25857895D01*
X37171191Y25857895D01*
X36995291Y25857895D01*
X36995291Y26033795D01*
X36995291Y26209696D01*
X37171191Y26209696D01*
X37347092Y26209696D01*
X37347092Y26033795D01*
G37*
G36*
X45262604Y26561496D02*
G01*
X45438504Y26561496D01*
X45438504Y26385596D01*
X45438504Y26209696D01*
X45614405Y26209696D01*
X45790305Y26209696D01*
X45790305Y26033795D01*
X45790305Y25857895D01*
X45438504Y25857895D01*
X45086704Y25857895D01*
X45086704Y26209696D01*
X45086704Y26561496D01*
X45262604Y26561496D01*
G37*
G36*
X45086704Y26737396D02*
G01*
X45086704Y26561496D01*
X44910804Y26561496D01*
X44734903Y26561496D01*
X44734903Y26385596D01*
X44734903Y26209696D01*
X44559003Y26209696D01*
X44383103Y26209696D01*
X44383103Y26385596D01*
X44383103Y26561496D01*
X44207202Y26561496D01*
X44031302Y26561496D01*
X44031302Y26385596D01*
X44031302Y26209696D01*
X43855402Y26209696D01*
X43679502Y26209696D01*
X43679502Y26561496D01*
X43679502Y26913297D01*
X43855402Y26913297D01*
X44031302Y26913297D01*
X44031302Y27265097D01*
X44383103Y27265097D01*
X44383103Y26913297D01*
X44383103Y26561496D01*
X44559003Y26561496D01*
X44734903Y26561496D01*
X44734903Y26913297D01*
X44734903Y27265097D01*
X44559003Y27265097D01*
X44383103Y27265097D01*
X44031302Y27265097D01*
X44031302Y27616898D01*
X44383103Y27616898D01*
X44734903Y27616898D01*
X44734903Y27440997D01*
X44734903Y27265097D01*
X44910804Y27265097D01*
X45086704Y27265097D01*
X45086704Y27440997D01*
X45086704Y27616898D01*
X45262604Y27616898D01*
X45438504Y27616898D01*
X45438504Y27265097D01*
X45438504Y26913297D01*
X45262604Y26913297D01*
X45086704Y26913297D01*
X45086704Y26737396D01*
G37*
G36*
X37698892Y28672299D02*
G01*
X38050693Y28672299D01*
X38050693Y28496399D01*
X38050693Y28320499D01*
X38226593Y28320499D01*
X38402493Y28320499D01*
X38402493Y28144599D01*
X38402493Y27968698D01*
X38578394Y27968698D01*
X38754294Y27968698D01*
X38754294Y28320499D01*
X38754294Y28672299D01*
X38930194Y28672299D01*
X39106094Y28672299D01*
X39106094Y28144599D01*
X39106094Y27616898D01*
X38578394Y27616898D01*
X38050693Y27616898D01*
X38050693Y27792798D01*
X38050693Y27968698D01*
X37874792Y27968698D01*
X37698892Y27968698D01*
X37698892Y27792798D01*
X37698892Y27616898D01*
X37522992Y27616898D01*
X37347092Y27616898D01*
X37347092Y27440997D01*
X37347092Y27265097D01*
X37171191Y27265097D01*
X36995291Y27265097D01*
X36995291Y27616898D01*
X36995291Y27968698D01*
X37171191Y27968698D01*
X37347092Y27968698D01*
X37347092Y28320499D01*
X37347092Y28672299D01*
X37698892Y28672299D01*
G37*
G36*
X37347092Y30255402D02*
G01*
X37347092Y30079502D01*
X37522992Y30079502D01*
X37698892Y30079502D01*
X37698892Y30255402D01*
X37698892Y30431302D01*
X37874792Y30431302D01*
X38050693Y30431302D01*
X38050693Y30255402D01*
X38050693Y30079502D01*
X38226593Y30079502D01*
X38402493Y30079502D01*
X38402493Y29727701D01*
X38402493Y29375901D01*
X38050693Y29375901D01*
X37698892Y29375901D01*
X37698892Y29200000D01*
X37698892Y29024100D01*
X37522992Y29024100D01*
X37347092Y29024100D01*
X37347092Y28848200D01*
X37347092Y28672299D01*
X37171191Y28672299D01*
X36995291Y28672299D01*
X36995291Y29200000D01*
X36995291Y29727701D01*
X37171191Y29727701D01*
X37347092Y29727701D01*
X37347092Y29903601D01*
X37347092Y30079502D01*
X37171191Y30079502D01*
X36995291Y30079502D01*
X36995291Y30255402D01*
X36995291Y30431302D01*
X37171191Y30431302D01*
X37347092Y30431302D01*
X37347092Y30255402D01*
G37*
G36*
X37698892Y30607202D02*
G01*
X37698892Y30431302D01*
X37522992Y30431302D01*
X37347092Y30431302D01*
X37347092Y30607202D01*
X37347092Y30783103D01*
X37522992Y30783103D01*
X37698892Y30783103D01*
X37698892Y30607202D01*
G37*
%TD*%
M02*
