%TF.GenerationSoftware,KiCad,Pcbnew,9.0.1*%
%TF.CreationDate,2025-04-18T13:59:42+02:00*%
%TF.ProjectId,GPXconn_v2_rev3,47505863-6f6e-46e5-9f76-325f72657633,rev?*%
%TF.SameCoordinates,Original*%
%TF.FileFunction,Copper,L2,Bot*%
%TF.FilePolarity,Positive*%
%FSLAX46Y46*%
G04 Gerber Fmt 4.6, Leading zero omitted, Abs format (unit mm)*
G04 Created by KiCad (PCBNEW 9.0.1) date 2025-04-18 13:59:42*
%MOMM*%
%LPD*%
G01*
G04 APERTURE LIST*
%TA.AperFunction,HeatsinkPad*%
%ADD10O,1.000000X2.100000*%
%TD*%
%TA.AperFunction,HeatsinkPad*%
%ADD11O,1.000000X1.800000*%
%TD*%
%TA.AperFunction,ComponentPad*%
%ADD12R,1.700000X1.700000*%
%TD*%
%TA.AperFunction,ComponentPad*%
%ADD13O,1.700000X1.700000*%
%TD*%
%TA.AperFunction,ComponentPad*%
%ADD14R,1.268000X1.268000*%
%TD*%
%TA.AperFunction,ComponentPad*%
%ADD15C,1.268000*%
%TD*%
%TA.AperFunction,ComponentPad*%
%ADD16C,1.700000*%
%TD*%
%TA.AperFunction,ComponentPad*%
%ADD17O,2.600000X3.000000*%
%TD*%
%TA.AperFunction,ComponentPad*%
%ADD18O,2.800000X2.400000*%
%TD*%
%TA.AperFunction,HeatsinkPad*%
%ADD19C,0.600000*%
%TD*%
%TA.AperFunction,ViaPad*%
%ADD20C,0.600000*%
%TD*%
%TA.AperFunction,Conductor*%
%ADD21C,0.250000*%
%TD*%
%TA.AperFunction,Conductor*%
%ADD22C,0.400000*%
%TD*%
%TA.AperFunction,Conductor*%
%ADD23C,0.500000*%
%TD*%
G04 APERTURE END LIST*
D10*
%TO.P,USB1,S1,SHIELD*%
%TO.N,GND*%
X42020000Y40445000D03*
D11*
X42020000Y44625000D03*
D10*
X33380000Y40445000D03*
D11*
X33380000Y44625000D03*
%TD*%
D12*
%TO.P,CONN3,1,Pin_1*%
%TO.N,+3V3*%
X44600000Y13200000D03*
D13*
%TO.P,CONN3,2,Pin_2*%
%TO.N,/RXD*%
X47140000Y13200000D03*
%TO.P,CONN3,3,Pin_3*%
%TO.N,GND*%
X49680000Y13200000D03*
%TO.P,CONN3,4,Pin_4*%
%TO.N,/TXD*%
X52220000Y13200000D03*
%TO.P,CONN3,5,Pin_5*%
%TO.N,/GPIO0*%
X54760000Y13200000D03*
%TO.P,CONN3,6,Pin_6*%
%TO.N,/_RST*%
X57300000Y13200000D03*
%TD*%
D14*
%TO.P,CONN1,1,1*%
%TO.N,P1_VIN*%
X17890000Y23875000D03*
D15*
%TO.P,CONN1,2,2*%
%TO.N,/P1_REQ*%
X15350000Y22605000D03*
%TO.P,CONN1,3,3*%
%TO.N,GND*%
X17890000Y21335000D03*
%TO.P,CONN1,4,4*%
%TO.N,unconnected-(CONN1-Pad4)*%
X15350000Y20065000D03*
%TO.P,CONN1,5,5*%
%TO.N,/P1_DATA*%
X17890000Y18795000D03*
%TO.P,CONN1,6,6*%
%TO.N,GND*%
X15350000Y17525000D03*
%TD*%
D12*
%TO.P,C1,1*%
%TO.N,/+5V_CAP*%
X20000000Y8500000D03*
D16*
%TO.P,C1,2*%
%TO.N,GND*%
X32000000Y8500000D03*
%TD*%
D17*
%TO.P,SW1,1,A*%
%TO.N,+3V3*%
X21000000Y31800000D03*
%TO.P,SW1,2,B*%
%TO.N,Net-(SW1-B)*%
X25700000Y31800000D03*
%TO.P,SW1,3,C*%
%TO.N,GND*%
X30400000Y31800000D03*
D18*
%TO.P,SW1,4*%
%TO.N,N/C*%
X23350000Y44500000D03*
%TO.P,SW1,5*%
X28050000Y44500000D03*
%TD*%
D19*
%TO.P,U1,39,GND*%
%TO.N,GND*%
X51530000Y27900000D03*
X50130000Y27900000D03*
X52230000Y27200000D03*
X50830000Y27200000D03*
X49430000Y27200000D03*
X51530000Y26525000D03*
X50130000Y26525000D03*
X52230000Y25800000D03*
X50830000Y25800000D03*
X49430000Y25800000D03*
X51530000Y25100000D03*
X50130000Y25100000D03*
%TD*%
D20*
%TO.N,/GPIO0*%
X47900000Y14900000D03*
%TO.N,/_RST*%
X56000000Y32400000D03*
%TO.N,P1_VIN*%
X27775000Y18825000D03*
X21325000Y16475000D03*
X29300000Y28400000D03*
%TO.N,+5V*%
X40100000Y14875000D03*
X36200000Y8200000D03*
%TO.N,/PG*%
X39300000Y11700000D03*
X49900000Y35300000D03*
%TO.N,+3V3*%
X34700000Y17850000D03*
X56900000Y38500000D03*
%TO.N,/P1_REQ*%
X30600000Y14200000D03*
%TO.N,GND*%
X54500000Y32350000D03*
X7600000Y29450000D03*
X58550000Y14950000D03*
X19450000Y25400000D03*
X47800000Y38250000D03*
X49800000Y37750000D03*
X52900000Y32400000D03*
X35700000Y10200000D03*
X53250000Y35000000D03*
X52300000Y23050000D03*
X28050000Y9900000D03*
X24400000Y15450000D03*
X56650000Y26100000D03*
X45250000Y28450000D03*
X19600000Y19500000D03*
X12500000Y11900000D03*
X29900000Y23300000D03*
X54600000Y24700000D03*
X52050000Y30700000D03*
X54450000Y30650000D03*
X13750000Y15100000D03*
X37850000Y28850000D03*
X24100000Y23600000D03*
X46550000Y38800000D03*
X42750000Y13950000D03*
X25150000Y18400000D03*
X17500000Y12400000D03*
X34800000Y23950000D03*
X22550000Y28400000D03*
X57950000Y17850000D03*
X47900000Y39950000D03*
X21400000Y24300000D03*
X40600000Y10600000D03*
X33350000Y25500000D03*
X27800000Y21100000D03*
X19850000Y26950000D03*
X22600000Y26800000D03*
X23750000Y18500000D03*
X54450000Y27950000D03*
X20100000Y38550000D03*
X30050000Y34250000D03*
X29450000Y16550000D03*
X28100000Y24050000D03*
X47300000Y27500000D03*
X31450000Y38500000D03*
X20450000Y35900000D03*
X53500000Y12300000D03*
X36350000Y11800000D03*
X6700000Y23550000D03*
X24350000Y30200000D03*
X45250000Y22800000D03*
X28700000Y7200000D03*
X37350000Y26900000D03*
X42450000Y27700000D03*
X27400000Y16550000D03*
X41650000Y6950000D03*
X37800000Y21550000D03*
X58150000Y38650000D03*
X42150000Y22750000D03*
X42800000Y30050000D03*
X19800000Y16400000D03*
X31700000Y13000000D03*
X33350000Y28800000D03*
X22950000Y21450000D03*
X36500000Y30300000D03*
X49550000Y36050000D03*
X11750000Y20550000D03*
X34800000Y26700000D03*
X27400000Y15050000D03*
X23400000Y38500000D03*
X45550000Y25500000D03*
X39000000Y9600000D03*
X24150000Y33250000D03*
X26750000Y38450000D03*
X57000000Y6500000D03*
X52350000Y10700000D03*
X34900000Y6700000D03*
X30850000Y15600000D03*
X52200000Y6250000D03*
X57850000Y30850000D03*
X6300000Y18100000D03*
X20000000Y12000000D03*
X37850000Y43300000D03*
X56150000Y14950000D03*
X56100000Y12300000D03*
X52600000Y18150000D03*
X38900000Y10600000D03*
X26000000Y22950000D03*
X43550000Y19300000D03*
X58000000Y26100000D03*
X22000000Y6850000D03*
X42100000Y20300000D03*
X41100000Y38200000D03*
X58500000Y34950000D03*
X11450000Y37400000D03*
X22850000Y24800000D03*
X37700000Y22700000D03*
X19300000Y34550000D03*
X22700000Y23100000D03*
X57800000Y34950000D03*
X29050000Y25450000D03*
X25200000Y11000000D03*
X9000000Y33150000D03*
X11050000Y35550000D03*
X33350000Y23000000D03*
X35000000Y30150000D03*
X30950000Y25600000D03*
X25700000Y34950000D03*
X32000000Y34200000D03*
X18250000Y8400000D03*
X23050000Y13100000D03*
X44550000Y11100000D03*
X47700000Y44000000D03*
X57050000Y32400000D03*
X58400000Y32400000D03*
X58050000Y21600000D03*
X48200000Y35650000D03*
X26000000Y26000000D03*
X56650000Y21600000D03*
X57050000Y11300000D03*
X19450000Y24500000D03*
X11650000Y6350000D03*
X50650000Y20650000D03*
X32150000Y11150000D03*
X23100000Y19750000D03*
X34900000Y8250000D03*
X32150000Y30150000D03*
X28700000Y18450000D03*
X47250000Y21150000D03*
X49300000Y31050000D03*
X48500000Y22750000D03*
X26200000Y8500000D03*
X57150000Y39300000D03*
X49800000Y23450000D03*
X49650000Y17950000D03*
X42950000Y26000000D03*
X27850000Y30150000D03*
X18650000Y17350000D03*
X19200000Y30450000D03*
X56550000Y30050000D03*
X54500000Y19600000D03*
X28400000Y13200000D03*
X56600000Y17800000D03*
X37000000Y10600000D03*
X46750000Y6200000D03*
X36100000Y28750000D03*
X24500000Y35950000D03*
%TO.N,/P1_DATA*%
X25042852Y14714296D03*
X20050000Y26100000D03*
%TO.N,/JACK_SW*%
X35900000Y34900000D03*
X12900000Y37000000D03*
%TO.N,/IO13_BLU*%
X39500000Y29600000D03*
X46900000Y35800000D03*
%TO.N,/ISENSE*%
X37600000Y36500000D03*
X37600000Y34100000D03*
%TD*%
D21*
%TO.N,/GPIO0*%
X54750000Y13200000D02*
X54760000Y13200000D01*
X53050000Y14900000D02*
X54750000Y13200000D01*
X47900000Y14900000D02*
X53050000Y14900000D01*
%TO.N,/_RST*%
X57300000Y30300000D02*
X56000000Y31600000D01*
X56000000Y31600000D02*
X56000000Y32400000D01*
X57300000Y13200000D02*
X57300000Y30300000D01*
D22*
%TO.N,P1_VIN*%
X17890000Y23875000D02*
X17890000Y26590000D01*
D21*
X25150000Y16200000D02*
X21600000Y16200000D01*
D22*
X19000000Y27700000D02*
X28600000Y27700000D01*
D21*
X21600000Y16200000D02*
X21325000Y16475000D01*
D22*
X29300000Y28400000D02*
X28600000Y27700000D01*
X17890000Y26590000D02*
X19000000Y27700000D01*
D21*
X27775000Y18825000D02*
X25150000Y16200000D01*
%TO.N,+5V*%
X34600000Y9800000D02*
X36200000Y8200000D01*
X34600000Y12600000D02*
X34600000Y9800000D01*
X36875000Y14875000D02*
X34600000Y12600000D01*
X40100000Y14875000D02*
X36875000Y14875000D01*
%TO.N,/PG*%
X39300000Y17300000D02*
X40150000Y16450000D01*
X40150000Y16450000D02*
X42400000Y16450000D01*
X44050000Y14800000D02*
X45300000Y14800000D01*
X42400000Y16450000D02*
X44050000Y14800000D01*
X41200000Y35000000D02*
X40500000Y34300000D01*
X49900000Y35300000D02*
X49600000Y35000000D01*
X49600000Y35000000D02*
X41200000Y35000000D01*
X40500000Y34300000D02*
X40500000Y29200000D01*
X39300000Y28000000D02*
X39300000Y17300000D01*
X45300000Y14800000D02*
X45900000Y14200000D01*
X40500000Y29200000D02*
X39300000Y28000000D01*
X45450000Y11700000D02*
X39300000Y11700000D01*
X45900000Y12150000D02*
X45450000Y11700000D01*
X45900000Y14200000D02*
X45900000Y12150000D01*
D23*
%TO.N,+3V3*%
X40200000Y36800000D02*
X55200000Y36800000D01*
X38600000Y16600000D02*
X38600000Y17100000D01*
D21*
X23400000Y29500000D02*
X38600000Y29500000D01*
D23*
X38600000Y29800000D02*
X38600000Y35200000D01*
D21*
X35450000Y17100000D02*
X38600000Y17100000D01*
D23*
X44600000Y13300000D02*
X44500000Y13300000D01*
D21*
X21100000Y31800000D02*
X23400000Y29500000D01*
X34700000Y17850000D02*
X35450000Y17100000D01*
D23*
X38600000Y29500000D02*
X38600000Y29800000D01*
X42000000Y15800000D02*
X39400000Y15800000D01*
X38600000Y35200000D02*
X40200000Y36800000D01*
D21*
X21000000Y31800000D02*
X21100000Y31800000D01*
D23*
X44500000Y13300000D02*
X42000000Y15800000D01*
X38600000Y17100000D02*
X38600000Y29500000D01*
X55200000Y36800000D02*
X56900000Y38500000D01*
X39400000Y15800000D02*
X38600000Y16600000D01*
D21*
%TO.N,/P1_REQ*%
X16800000Y15800000D02*
X16800000Y20500000D01*
X18900000Y13700000D02*
X16800000Y15800000D01*
X24800000Y13700000D02*
X18900000Y13700000D01*
X30600000Y14200000D02*
X25300000Y14200000D01*
X16800000Y20500000D02*
X15350000Y21950000D01*
X25300000Y14200000D02*
X24800000Y13700000D01*
X15350000Y21950000D02*
X15350000Y22605000D01*
%TO.N,/P1_DATA*%
X17890000Y16010000D02*
X17890000Y18795000D01*
X19300000Y20205000D02*
X17890000Y18795000D01*
X20050000Y20950000D02*
X19300000Y20200000D01*
X20050000Y26100000D02*
X20050000Y20950000D01*
X19500000Y14400000D02*
X17890000Y16010000D01*
X25042852Y14714296D02*
X24714296Y14714296D01*
X24400000Y14400000D02*
X19500000Y14400000D01*
X24714296Y14714296D02*
X24400000Y14400000D01*
%TO.N,/JACK_SW*%
X35900000Y34900000D02*
X35850000Y34900000D01*
X33750000Y37000000D02*
X12900000Y37000000D01*
X35850000Y34900000D02*
X33750000Y37000000D01*
%TO.N,/IO13_BLU*%
X39400000Y34800000D02*
X39400000Y29700000D01*
X46900000Y35800000D02*
X46700000Y36000000D01*
X40600000Y36000000D02*
X39400000Y34800000D01*
X46700000Y36000000D02*
X40600000Y36000000D01*
X39400000Y29700000D02*
X39500000Y29600000D01*
%TO.N,/ISENSE*%
X37600000Y34100000D02*
X37600000Y36500000D01*
%TD*%
%TA.AperFunction,Conductor*%
%TO.N,GND*%
G36*
X22678813Y45979815D02*
G01*
X22724568Y45927011D01*
X22734512Y45857853D01*
X22705487Y45794297D01*
X22650093Y45757569D01*
X22631588Y45751557D01*
X22442184Y45655051D01*
X22442181Y45655049D01*
X22442179Y45655048D01*
X22270213Y45530109D01*
X22119890Y45379786D01*
X21994951Y45207820D01*
X21921924Y45064496D01*
X21898443Y45018412D01*
X21832754Y44816243D01*
X21832753Y44816239D01*
X21799500Y44606286D01*
X21799500Y44393713D01*
X21832753Y44183760D01*
X21898444Y43981585D01*
X21994951Y43792179D01*
X22119890Y43620213D01*
X22270213Y43469890D01*
X22442179Y43344951D01*
X22631585Y43248444D01*
X22833760Y43182753D01*
X22833759Y43182753D01*
X23004202Y43155757D01*
X23043713Y43149500D01*
X23043714Y43149500D01*
X23656286Y43149500D01*
X23656287Y43149500D01*
X23719644Y43159534D01*
X23866239Y43182753D01*
X23866241Y43182753D01*
X23866243Y43182754D01*
X24068412Y43248443D01*
X24257816Y43344949D01*
X24257820Y43344951D01*
X24429786Y43469890D01*
X24580109Y43620213D01*
X24705048Y43792179D01*
X24714456Y43810643D01*
X24801557Y43981588D01*
X24867246Y44183757D01*
X24900500Y44393713D01*
X24900500Y44606287D01*
X24867246Y44816243D01*
X24801557Y45018412D01*
X24705051Y45207816D01*
X24634766Y45304556D01*
X24580109Y45379786D01*
X24580106Y45379788D01*
X24580104Y45379792D01*
X24429792Y45530104D01*
X24429788Y45530106D01*
X24429786Y45530109D01*
X24257820Y45655048D01*
X24257816Y45655051D01*
X24068412Y45751557D01*
X24049907Y45757569D01*
X23992232Y45797006D01*
X23965034Y45861365D01*
X23976949Y45930211D01*
X24024193Y45981687D01*
X24088226Y45999500D01*
X27311774Y45999500D01*
X27378813Y45979815D01*
X27424568Y45927011D01*
X27434512Y45857853D01*
X27405487Y45794297D01*
X27350093Y45757569D01*
X27331588Y45751557D01*
X27142184Y45655051D01*
X27142181Y45655049D01*
X27142179Y45655048D01*
X26970213Y45530109D01*
X26819890Y45379786D01*
X26694951Y45207820D01*
X26621924Y45064496D01*
X26598443Y45018412D01*
X26532754Y44816243D01*
X26532753Y44816239D01*
X26499500Y44606286D01*
X26499500Y44393713D01*
X26532753Y44183760D01*
X26598444Y43981585D01*
X26694951Y43792179D01*
X26819890Y43620213D01*
X26970213Y43469890D01*
X27142179Y43344951D01*
X27331585Y43248444D01*
X27533760Y43182753D01*
X27533759Y43182753D01*
X27704202Y43155757D01*
X27743713Y43149500D01*
X27743714Y43149500D01*
X28356286Y43149500D01*
X28356287Y43149500D01*
X28419644Y43159534D01*
X28566239Y43182753D01*
X28566241Y43182753D01*
X28566243Y43182754D01*
X28768412Y43248443D01*
X28957816Y43344949D01*
X28957820Y43344951D01*
X29129786Y43469890D01*
X29280109Y43620213D01*
X29405048Y43792179D01*
X29414456Y43810643D01*
X29501557Y43981588D01*
X29567246Y44183757D01*
X29600500Y44393713D01*
X29600500Y44606287D01*
X29567246Y44816243D01*
X29501557Y45018412D01*
X29465579Y45089023D01*
X32730000Y45089023D01*
X32730000Y44775000D01*
X33080000Y44775000D01*
X33080000Y44475000D01*
X32730000Y44475000D01*
X32730000Y44160976D01*
X32754977Y44035409D01*
X32754979Y44035401D01*
X32803978Y43917108D01*
X32803978Y43917107D01*
X32875110Y43810650D01*
X32875116Y43810643D01*
X32965643Y43720116D01*
X32965650Y43720110D01*
X33072108Y43648978D01*
X33190400Y43599979D01*
X33190406Y43599977D01*
X33229999Y43592101D01*
X33230000Y43592102D01*
X33230000Y43965191D01*
X33264204Y43945444D01*
X33340504Y43925000D01*
X33419496Y43925000D01*
X33495796Y43945444D01*
X33530000Y43965191D01*
X33530000Y43592101D01*
X33569593Y43599977D01*
X33569599Y43599979D01*
X33687891Y43648978D01*
X33687892Y43648978D01*
X33794349Y43720110D01*
X33794356Y43720116D01*
X33884883Y43810643D01*
X33884889Y43810650D01*
X33956021Y43917107D01*
X33956021Y43917108D01*
X34005020Y44035401D01*
X34005022Y44035409D01*
X34029999Y44160976D01*
X34030000Y44160980D01*
X34030000Y44475000D01*
X33680000Y44475000D01*
X33680000Y44775000D01*
X34030000Y44775000D01*
X34030000Y45089020D01*
X34029999Y45089023D01*
X41370000Y45089023D01*
X41370000Y44775000D01*
X41720000Y44775000D01*
X41720000Y44475000D01*
X41370000Y44475000D01*
X41370000Y44160976D01*
X41394977Y44035409D01*
X41394979Y44035401D01*
X41443978Y43917108D01*
X41443978Y43917107D01*
X41515110Y43810650D01*
X41515116Y43810643D01*
X41605643Y43720116D01*
X41605650Y43720110D01*
X41712108Y43648978D01*
X41830400Y43599979D01*
X41830406Y43599977D01*
X41869999Y43592101D01*
X41870000Y43592102D01*
X41870000Y43965191D01*
X41904204Y43945444D01*
X41980504Y43925000D01*
X42059496Y43925000D01*
X42135796Y43945444D01*
X42170000Y43965191D01*
X42170000Y43592101D01*
X42209593Y43599977D01*
X42209599Y43599979D01*
X42327891Y43648978D01*
X42327892Y43648978D01*
X42434349Y43720110D01*
X42434356Y43720116D01*
X42524883Y43810643D01*
X42524889Y43810650D01*
X42596021Y43917107D01*
X42596021Y43917108D01*
X42645020Y44035401D01*
X42645022Y44035409D01*
X42669999Y44160976D01*
X42670000Y44160980D01*
X42670000Y44475000D01*
X42320000Y44475000D01*
X42320000Y44775000D01*
X42670000Y44775000D01*
X42670000Y45089020D01*
X42669999Y45089023D01*
X42645022Y45214590D01*
X42645020Y45214598D01*
X42596021Y45332891D01*
X42596021Y45332892D01*
X42524889Y45439349D01*
X42524883Y45439356D01*
X42434356Y45529883D01*
X42434349Y45529889D01*
X42327891Y45601021D01*
X42209600Y45650019D01*
X42209597Y45650020D01*
X42170000Y45657895D01*
X42170000Y45284808D01*
X42135796Y45304556D01*
X42059496Y45325000D01*
X41980504Y45325000D01*
X41904204Y45304556D01*
X41870000Y45284808D01*
X41870000Y45657896D01*
X41830402Y45650020D01*
X41830399Y45650019D01*
X41712108Y45601021D01*
X41712107Y45601021D01*
X41605650Y45529889D01*
X41605643Y45529883D01*
X41515116Y45439356D01*
X41515110Y45439349D01*
X41443978Y45332892D01*
X41443978Y45332891D01*
X41394979Y45214598D01*
X41394977Y45214590D01*
X41370000Y45089023D01*
X34029999Y45089023D01*
X34005022Y45214590D01*
X34005020Y45214598D01*
X33956021Y45332891D01*
X33956021Y45332892D01*
X33884889Y45439349D01*
X33884883Y45439356D01*
X33794356Y45529883D01*
X33794349Y45529889D01*
X33687891Y45601021D01*
X33569600Y45650019D01*
X33569597Y45650020D01*
X33530000Y45657895D01*
X33530000Y45284808D01*
X33495796Y45304556D01*
X33419496Y45325000D01*
X33340504Y45325000D01*
X33264204Y45304556D01*
X33230000Y45284808D01*
X33230000Y45657896D01*
X33190402Y45650020D01*
X33190399Y45650019D01*
X33072108Y45601021D01*
X33072107Y45601021D01*
X32965650Y45529889D01*
X32965643Y45529883D01*
X32875116Y45439356D01*
X32875110Y45439349D01*
X32803978Y45332892D01*
X32803978Y45332891D01*
X32754979Y45214598D01*
X32754977Y45214590D01*
X32730000Y45089023D01*
X29465579Y45089023D01*
X29405051Y45207816D01*
X29333672Y45306061D01*
X29280109Y45379786D01*
X29280106Y45379788D01*
X29280104Y45379792D01*
X29129792Y45530104D01*
X29129788Y45530106D01*
X29129786Y45530109D01*
X28957820Y45655048D01*
X28957816Y45655051D01*
X28768412Y45751557D01*
X28749907Y45757569D01*
X28692232Y45797006D01*
X28665034Y45861365D01*
X28676949Y45930211D01*
X28724193Y45981687D01*
X28788226Y45999500D01*
X57552405Y45999500D01*
X57595572Y45999500D01*
X57604418Y45999184D01*
X57833017Y45982834D01*
X57850529Y45980316D01*
X58070137Y45932543D01*
X58087112Y45927559D01*
X58297688Y45849019D01*
X58313782Y45841669D01*
X58511036Y45733959D01*
X58525919Y45724394D01*
X58705836Y45589710D01*
X58719207Y45578124D01*
X58878124Y45419207D01*
X58889710Y45405836D01*
X59024394Y45225919D01*
X59033959Y45211036D01*
X59141669Y45013782D01*
X59149019Y44997688D01*
X59227559Y44787112D01*
X59232543Y44770137D01*
X59280316Y44550529D01*
X59282834Y44533017D01*
X59299184Y44304418D01*
X59299500Y44295572D01*
X59299500Y5804427D01*
X59299184Y5795581D01*
X59282834Y5566982D01*
X59280316Y5549470D01*
X59232543Y5329862D01*
X59227559Y5312887D01*
X59149019Y5102311D01*
X59141669Y5086217D01*
X59033959Y4888963D01*
X59024394Y4874080D01*
X58889710Y4694163D01*
X58878124Y4680792D01*
X58719207Y4521875D01*
X58705836Y4510289D01*
X58525919Y4375605D01*
X58511037Y4366040D01*
X58313777Y4258327D01*
X58297694Y4250983D01*
X58087103Y4172437D01*
X58070144Y4167458D01*
X57855449Y4120753D01*
X57850529Y4119683D01*
X57833020Y4117165D01*
X57625227Y4102304D01*
X57604418Y4100816D01*
X57595572Y4100500D01*
X10306093Y4100500D01*
X10293940Y4101097D01*
X10275730Y4102890D01*
X10175682Y4112744D01*
X10151856Y4117483D01*
X10043990Y4150203D01*
X10021549Y4159499D01*
X9922144Y4212632D01*
X9901940Y4226133D01*
X9871664Y4250980D01*
X9814814Y4297635D01*
X9797635Y4314814D01*
X9726131Y4401942D01*
X9712632Y4422144D01*
X9659499Y4521549D01*
X9650203Y4543990D01*
X9617483Y4651856D01*
X9612744Y4675680D01*
X9601096Y4793939D01*
X9600500Y4806092D01*
X9600500Y6472967D01*
X9600500Y6472972D01*
X9564339Y6817020D01*
X9492413Y7155404D01*
X9385510Y7484416D01*
X9244802Y7800452D01*
X9071831Y8100048D01*
X8868490Y8379922D01*
X8637008Y8637008D01*
X8379922Y8868490D01*
X8100048Y9071831D01*
X8100047Y9071832D01*
X8056283Y9097099D01*
X7877300Y9200434D01*
X12754924Y9200434D01*
X12754924Y8899565D01*
X12794193Y8601294D01*
X12872061Y8310688D01*
X12987187Y8032747D01*
X12987194Y8032732D01*
X13137619Y7772188D01*
X13320766Y7533506D01*
X13320772Y7533499D01*
X13533499Y7320772D01*
X13533506Y7320766D01*
X13772188Y7137619D01*
X14032732Y6987194D01*
X14032747Y6987187D01*
X14310688Y6872061D01*
X14601294Y6794193D01*
X14899565Y6754924D01*
X14899573Y6754924D01*
X15200434Y6754924D01*
X15498705Y6794193D01*
X15789311Y6872061D01*
X16067252Y6987187D01*
X16067267Y6987194D01*
X16327811Y7137619D01*
X16566493Y7320766D01*
X16566500Y7320772D01*
X16779227Y7533499D01*
X16779233Y7533506D01*
X16857248Y7635177D01*
X18999499Y7635177D01*
X19008231Y7591282D01*
X19008234Y7591275D01*
X19041495Y7541496D01*
X19041496Y7541495D01*
X19091275Y7508234D01*
X19091282Y7508231D01*
X19135178Y7499500D01*
X19135180Y7499500D01*
X20864822Y7499500D01*
X20908717Y7508231D01*
X20908724Y7508234D01*
X20958503Y7541495D01*
X20958504Y7541496D01*
X20991765Y7591275D01*
X20991767Y7591278D01*
X20996249Y7613809D01*
X21000500Y7635177D01*
X21000500Y8598495D01*
X31000000Y8598495D01*
X31000000Y8401504D01*
X31038427Y8208318D01*
X31038429Y8208310D01*
X31113809Y8026325D01*
X31113813Y8026318D01*
X31194071Y7906203D01*
X31194071Y7906202D01*
X31629534Y8341665D01*
X31679920Y8254394D01*
X31754394Y8179920D01*
X31841665Y8129533D01*
X31406202Y7694071D01*
X31526318Y7613813D01*
X31526325Y7613809D01*
X31708310Y7538429D01*
X31708318Y7538427D01*
X31901504Y7500000D01*
X32098495Y7500000D01*
X32291681Y7538427D01*
X32291693Y7538430D01*
X32473676Y7613809D01*
X32473679Y7613811D01*
X32593795Y7694069D01*
X32593795Y7694071D01*
X32158334Y8129533D01*
X32245606Y8179920D01*
X32320080Y8254394D01*
X32370465Y8341665D01*
X32805927Y7906203D01*
X32805928Y7906203D01*
X32886185Y8026316D01*
X32886192Y8026328D01*
X32961569Y8208306D01*
X32961572Y8208318D01*
X32999999Y8401504D01*
X33000000Y8401508D01*
X33000000Y8598492D01*
X32999999Y8598495D01*
X32961572Y8791681D01*
X32961569Y8791693D01*
X32886191Y8973673D01*
X32886190Y8973675D01*
X32805928Y9093796D01*
X32370466Y8658334D01*
X32320080Y8745606D01*
X32245606Y8820080D01*
X32158334Y8870465D01*
X32593796Y9305928D01*
X32473675Y9386190D01*
X32473673Y9386191D01*
X32291693Y9461569D01*
X32291681Y9461572D01*
X32098495Y9499999D01*
X32098492Y9500000D01*
X31901508Y9500000D01*
X31901504Y9499999D01*
X31708318Y9461572D01*
X31708306Y9461569D01*
X31526328Y9386192D01*
X31526316Y9386185D01*
X31406203Y9305928D01*
X31406203Y9305927D01*
X31841665Y8870465D01*
X31754394Y8820080D01*
X31679920Y8745606D01*
X31629533Y8658333D01*
X31194071Y9093795D01*
X31194069Y9093795D01*
X31113811Y8973679D01*
X31113809Y8973676D01*
X31038430Y8791693D01*
X31038427Y8791681D01*
X31000000Y8598495D01*
X21000500Y8598495D01*
X21000500Y9364822D01*
X20991768Y9408717D01*
X20991767Y9408717D01*
X20991767Y9408722D01*
X20958504Y9458504D01*
X20908722Y9491767D01*
X20908717Y9491768D01*
X20864822Y9500500D01*
X20864820Y9500500D01*
X19135180Y9500500D01*
X19135178Y9500500D01*
X19091282Y9491768D01*
X19091281Y9491767D01*
X19091278Y9491767D01*
X19091275Y9491765D01*
X19041496Y9458504D01*
X19041495Y9458503D01*
X19008234Y9408724D01*
X19008231Y9408717D01*
X18999500Y9364822D01*
X18999500Y7635177D01*
X18999499Y7635177D01*
X16857248Y7635177D01*
X16962380Y7772188D01*
X17112805Y8032732D01*
X17112812Y8032747D01*
X17173773Y8179920D01*
X17227939Y8310689D01*
X17305806Y8601292D01*
X17345076Y8899573D01*
X17345076Y9200427D01*
X17320619Y9386190D01*
X17311099Y9458504D01*
X17305806Y9498708D01*
X17227939Y9789311D01*
X17112807Y10067264D01*
X16962380Y10327812D01*
X16779232Y10566495D01*
X16566495Y10779232D01*
X16327812Y10962380D01*
X16067264Y11112807D01*
X15789311Y11227939D01*
X15498708Y11305806D01*
X15200427Y11345076D01*
X14899573Y11345076D01*
X14601292Y11305806D01*
X14310689Y11227939D01*
X14152529Y11162426D01*
X14032747Y11112812D01*
X14032732Y11112805D01*
X13772188Y10962380D01*
X13533506Y10779233D01*
X13533499Y10779227D01*
X13320772Y10566500D01*
X13320766Y10566493D01*
X13137619Y10327811D01*
X12987194Y10067267D01*
X12987187Y10067252D01*
X12872061Y9789311D01*
X12794193Y9498705D01*
X12754924Y9200434D01*
X7877300Y9200434D01*
X7800459Y9244798D01*
X7800458Y9244798D01*
X7800452Y9244802D01*
X7484416Y9385510D01*
X7155404Y9492413D01*
X6817020Y9564339D01*
X6472972Y9600500D01*
X6472967Y9600500D01*
X4806093Y9600500D01*
X4793940Y9601097D01*
X4775730Y9602890D01*
X4675682Y9612744D01*
X4651856Y9617483D01*
X4543990Y9650203D01*
X4521549Y9659499D01*
X4422144Y9712632D01*
X4401940Y9726133D01*
X4314814Y9797635D01*
X4297635Y9814814D01*
X4226131Y9901942D01*
X4212632Y9922144D01*
X4159499Y10021549D01*
X4150203Y10043990D01*
X4117483Y10151856D01*
X4112744Y10175680D01*
X4101096Y10293939D01*
X4100500Y10306092D01*
X4100500Y15746211D01*
X7074500Y15746211D01*
X7074500Y15493788D01*
X7107446Y15243548D01*
X7172773Y14999741D01*
X7269363Y14766552D01*
X7269372Y14766535D01*
X7395566Y14547958D01*
X7395568Y14547954D01*
X7549227Y14347705D01*
X7727705Y14169227D01*
X7927954Y14015568D01*
X7927958Y14015566D01*
X8146535Y13889372D01*
X8146552Y13889363D01*
X8379741Y13792773D01*
X8623548Y13727446D01*
X8873788Y13694500D01*
X8873796Y13694500D01*
X9126211Y13694500D01*
X9345171Y13723327D01*
X9376452Y13727446D01*
X9465690Y13751357D01*
X9620258Y13792773D01*
X9853447Y13889363D01*
X9853464Y13889372D01*
X10072041Y14015566D01*
X10072045Y14015568D01*
X10272294Y14169227D01*
X10272303Y14169235D01*
X10450765Y14347697D01*
X10450772Y14347705D01*
X10455455Y14353807D01*
X10509700Y14424500D01*
X10604431Y14547954D01*
X10604433Y14547958D01*
X10730627Y14766535D01*
X10730636Y14766552D01*
X10805735Y14947856D01*
X10827226Y14999740D01*
X10892554Y15243548D01*
X10925500Y15493796D01*
X10925500Y15746204D01*
X10892554Y15996452D01*
X10827226Y16240260D01*
X10730633Y16473454D01*
X10604433Y16692041D01*
X10604430Y16692047D01*
X10486662Y16845523D01*
X10470609Y16866443D01*
X10450773Y16892294D01*
X10450768Y16892298D01*
X10450765Y16892303D01*
X10272303Y17070765D01*
X10272298Y17070768D01*
X10272294Y17070773D01*
X10072046Y17224430D01*
X10072045Y17224431D01*
X10072041Y17224433D01*
X9853464Y17350627D01*
X9853454Y17350633D01*
X9620260Y17447226D01*
X9618192Y17447780D01*
X14565999Y17447780D01*
X14596127Y17296321D01*
X14596129Y17296315D01*
X14655226Y17153642D01*
X14699799Y17086930D01*
X14994902Y17382033D01*
X14995896Y17378325D01*
X15045924Y17291675D01*
X15116675Y17220924D01*
X15203325Y17170896D01*
X15207033Y17169902D01*
X14911930Y16874799D01*
X14978642Y16830226D01*
X15121315Y16771129D01*
X15121321Y16771127D01*
X15272781Y16741000D01*
X15427219Y16741000D01*
X15578678Y16771127D01*
X15578684Y16771129D01*
X15721361Y16830228D01*
X15788067Y16874799D01*
X15788068Y16874800D01*
X15492966Y17169902D01*
X15496675Y17170896D01*
X15583325Y17220924D01*
X15654076Y17291675D01*
X15704104Y17378325D01*
X15705097Y17382032D01*
X16000199Y17086930D01*
X16000199Y17086931D01*
X16044771Y17153638D01*
X16103870Y17296315D01*
X16103872Y17296321D01*
X16134000Y17447780D01*
X16134000Y17602219D01*
X16103872Y17753678D01*
X16103870Y17753684D01*
X16044772Y17896360D01*
X16044770Y17896363D01*
X16000199Y17963067D01*
X15705097Y17667965D01*
X15704104Y17671675D01*
X15654076Y17758325D01*
X15583325Y17829076D01*
X15496675Y17879104D01*
X15492966Y17880097D01*
X15788067Y18175199D01*
X15721363Y18219770D01*
X15721360Y18219772D01*
X15578684Y18278870D01*
X15578678Y18278872D01*
X15427219Y18309000D01*
X15272781Y18309000D01*
X15121321Y18278872D01*
X15121315Y18278870D01*
X14978638Y18219771D01*
X14911931Y18175199D01*
X14911930Y18175199D01*
X15207033Y17880097D01*
X15203325Y17879104D01*
X15116675Y17829076D01*
X15045924Y17758325D01*
X14995896Y17671675D01*
X14994902Y17667965D01*
X14699800Y17963068D01*
X14699799Y17963067D01*
X14655228Y17896361D01*
X14596129Y17753684D01*
X14596127Y17753678D01*
X14566000Y17602219D01*
X14566000Y17447780D01*
X14565999Y17447780D01*
X9618192Y17447780D01*
X9376452Y17512554D01*
X9126204Y17545500D01*
X8873796Y17545500D01*
X8623548Y17512554D01*
X8379740Y17447226D01*
X8299804Y17414115D01*
X8146552Y17350636D01*
X8146535Y17350627D01*
X7927958Y17224433D01*
X7927954Y17224431D01*
X7727705Y17070772D01*
X7727697Y17070765D01*
X7549235Y16892303D01*
X7549227Y16892294D01*
X7395570Y16692047D01*
X7395566Y16692041D01*
X7269372Y16473464D01*
X7269363Y16473447D01*
X7172773Y16240258D01*
X7154807Y16173207D01*
X7114962Y16024500D01*
X7107446Y15996451D01*
X7074500Y15746211D01*
X4100500Y15746211D01*
X4100500Y19987730D01*
X14565499Y19987730D01*
X14595646Y19836175D01*
X14595649Y19836165D01*
X14654783Y19693401D01*
X14654785Y19693398D01*
X14740635Y19564914D01*
X14740641Y19564906D01*
X14849906Y19455641D01*
X14849914Y19455635D01*
X14978398Y19369785D01*
X14978401Y19369783D01*
X15121165Y19310649D01*
X15121175Y19310646D01*
X15272731Y19280500D01*
X15272733Y19280500D01*
X15427269Y19280500D01*
X15578824Y19310646D01*
X15578834Y19310649D01*
X15721598Y19369783D01*
X15721601Y19369785D01*
X15850085Y19455635D01*
X15850093Y19455641D01*
X15959358Y19564906D01*
X15959364Y19564914D01*
X16045214Y19693398D01*
X16045216Y19693401D01*
X16104350Y19836165D01*
X16104353Y19836175D01*
X16134500Y19987730D01*
X16134500Y20142269D01*
X16104353Y20293824D01*
X16104352Y20293830D01*
X16064927Y20389010D01*
X16045216Y20436598D01*
X16045214Y20436601D01*
X16041713Y20441840D01*
X15966237Y20554800D01*
X15959363Y20565088D01*
X15850093Y20674358D01*
X15850090Y20674361D01*
X15721600Y20760215D01*
X15578830Y20819352D01*
X15529233Y20829217D01*
X15427269Y20849500D01*
X15427267Y20849500D01*
X15272733Y20849500D01*
X15272731Y20849500D01*
X15121175Y20819353D01*
X15121170Y20819352D01*
X15121165Y20819350D01*
X14978401Y20760216D01*
X14978398Y20760214D01*
X14849914Y20674364D01*
X14849906Y20674358D01*
X14740641Y20565093D01*
X14740637Y20565088D01*
X14654785Y20436601D01*
X14654783Y20436598D01*
X14595649Y20293834D01*
X14595646Y20293824D01*
X14565500Y20142269D01*
X14565500Y19987730D01*
X14565499Y19987730D01*
X4100500Y19987730D01*
X4100500Y22527730D01*
X14565499Y22527730D01*
X14595646Y22376175D01*
X14595649Y22376165D01*
X14654783Y22233401D01*
X14654785Y22233398D01*
X14740635Y22104914D01*
X14740641Y22104906D01*
X14849906Y21995641D01*
X14849910Y21995638D01*
X14978393Y21909788D01*
X14978400Y21909785D01*
X15039659Y21884410D01*
X15094062Y21840568D01*
X15106765Y21817305D01*
X15116443Y21793940D01*
X15116444Y21793939D01*
X16488181Y20422203D01*
X16521666Y20360880D01*
X16524500Y20334522D01*
X16524500Y15745199D01*
X16565834Y15645413D01*
X16565843Y15645391D01*
X16566442Y15643942D01*
X18743939Y13466443D01*
X18773599Y13454158D01*
X18845198Y13424500D01*
X18845200Y13424500D01*
X24854800Y13424500D01*
X24956058Y13466443D01*
X25033557Y13543942D01*
X25189615Y13700000D01*
X25377797Y13888181D01*
X25439120Y13921666D01*
X25465478Y13924500D01*
X30187036Y13924500D01*
X30254075Y13904815D01*
X30274717Y13888181D01*
X30323384Y13839513D01*
X30323387Y13839511D01*
X30426114Y13780201D01*
X30540691Y13749500D01*
X30540694Y13749500D01*
X30659306Y13749500D01*
X30659309Y13749500D01*
X30773886Y13780201D01*
X30876613Y13839511D01*
X30960489Y13923387D01*
X31019799Y14026114D01*
X31050500Y14140691D01*
X31050500Y14259309D01*
X31019799Y14373886D01*
X30960489Y14476613D01*
X30876613Y14560489D01*
X30773886Y14619799D01*
X30659309Y14650500D01*
X30540691Y14650500D01*
X30426114Y14619799D01*
X30323387Y14560489D01*
X30323384Y14560486D01*
X30274717Y14511819D01*
X30213394Y14478334D01*
X30187036Y14475500D01*
X25606858Y14475500D01*
X25539819Y14495185D01*
X25494064Y14547989D01*
X25484120Y14617147D01*
X25487080Y14631580D01*
X25493352Y14654987D01*
X25493352Y14773605D01*
X25462651Y14888182D01*
X25403341Y14990909D01*
X25319465Y15074785D01*
X25216738Y15134095D01*
X25102161Y15164796D01*
X24983543Y15164796D01*
X24868966Y15134095D01*
X24766239Y15074785D01*
X24766236Y15074782D01*
X24713249Y15021795D01*
X24669382Y14997841D01*
X24670779Y14994470D01*
X24558240Y14947856D01*
X24558238Y14947854D01*
X24426076Y14815691D01*
X24322204Y14711819D01*
X24260881Y14678334D01*
X24234523Y14675500D01*
X19665477Y14675500D01*
X19598438Y14695185D01*
X19577796Y14711819D01*
X18201819Y16087796D01*
X18168334Y16149119D01*
X18165500Y16175477D01*
X18165500Y16534309D01*
X20874500Y16534309D01*
X20874500Y16415691D01*
X20905201Y16301114D01*
X20905202Y16301112D01*
X20964511Y16198387D01*
X20964513Y16198384D01*
X21048384Y16114513D01*
X21048387Y16114511D01*
X21151114Y16055201D01*
X21265691Y16024500D01*
X21265694Y16024500D01*
X21334521Y16024500D01*
X21401560Y16004815D01*
X21422202Y15988181D01*
X21443942Y15966441D01*
X21545196Y15924501D01*
X21545198Y15924500D01*
X21545200Y15924500D01*
X21545202Y15924500D01*
X25204800Y15924500D01*
X25306058Y15966443D01*
X25383557Y16043942D01*
X27677797Y18338181D01*
X27739120Y18371666D01*
X27765478Y18374500D01*
X27834306Y18374500D01*
X27834309Y18374500D01*
X27948886Y18405201D01*
X28051613Y18464511D01*
X28135489Y18548387D01*
X28194799Y18651114D01*
X28225500Y18765691D01*
X28225500Y18884309D01*
X28194799Y18998886D01*
X28135489Y19101613D01*
X28051613Y19185489D01*
X27948886Y19244799D01*
X27834309Y19275500D01*
X27715691Y19275500D01*
X27601114Y19244799D01*
X27498387Y19185489D01*
X27414511Y19101613D01*
X27355201Y18998886D01*
X27324500Y18884309D01*
X27324500Y18884306D01*
X27324500Y18815477D01*
X27304815Y18748438D01*
X27288185Y18727801D01*
X26162604Y17602219D01*
X25072204Y16511819D01*
X25010881Y16478334D01*
X24984523Y16475500D01*
X21886406Y16475500D01*
X21819367Y16495185D01*
X21773612Y16547989D01*
X21766633Y16567399D01*
X21744799Y16648886D01*
X21685489Y16751613D01*
X21601613Y16835489D01*
X21498886Y16894799D01*
X21384309Y16925500D01*
X21265691Y16925500D01*
X21151114Y16894799D01*
X21048387Y16835489D01*
X20964511Y16751613D01*
X20905201Y16648886D01*
X20874500Y16534309D01*
X18165500Y16534309D01*
X18165500Y17977124D01*
X18185185Y18044163D01*
X18237989Y18089918D01*
X18242045Y18091684D01*
X18261594Y18099782D01*
X18261606Y18099788D01*
X18390089Y18185638D01*
X18390093Y18185641D01*
X18499358Y18294906D01*
X18499364Y18294914D01*
X18585214Y18423398D01*
X18585216Y18423401D01*
X18644350Y18566165D01*
X18644353Y18566175D01*
X18674500Y18717730D01*
X18674500Y18872269D01*
X18644353Y19023825D01*
X18644352Y19023825D01*
X18644352Y19023830D01*
X18636253Y19043380D01*
X18628782Y19112848D01*
X18660055Y19175328D01*
X18663132Y19178517D01*
X19033966Y19549350D01*
X19432354Y19947738D01*
X19451143Y19963159D01*
X19456061Y19966445D01*
X20283557Y20793941D01*
X20306570Y20849500D01*
X20325500Y20895200D01*
X20325500Y25687036D01*
X20345185Y25754075D01*
X20361819Y25774717D01*
X20410486Y25823384D01*
X20410489Y25823387D01*
X20469799Y25926114D01*
X20500500Y26040691D01*
X20500500Y26159309D01*
X20469799Y26273886D01*
X20410489Y26376613D01*
X20326613Y26460489D01*
X20223886Y26519799D01*
X20109309Y26550500D01*
X19990691Y26550500D01*
X19876114Y26519799D01*
X19773387Y26460489D01*
X19689511Y26376613D01*
X19630201Y26273886D01*
X19599500Y26159309D01*
X19599500Y26040691D01*
X19630201Y25926114D01*
X19630202Y25926112D01*
X19689511Y25823387D01*
X19689513Y25823384D01*
X19738181Y25774717D01*
X19771666Y25713394D01*
X19774500Y25687036D01*
X19774500Y21115477D01*
X19754815Y21048438D01*
X19738181Y21027796D01*
X19167645Y20457261D01*
X19148856Y20441840D01*
X19143946Y20438559D01*
X19143941Y20438557D01*
X18693115Y19987730D01*
X18273517Y19568132D01*
X18212194Y19534647D01*
X18142503Y19539631D01*
X18138394Y19541247D01*
X18118830Y19549352D01*
X18118825Y19549353D01*
X17967269Y19579500D01*
X17967267Y19579500D01*
X17812733Y19579500D01*
X17812731Y19579500D01*
X17661175Y19549353D01*
X17661170Y19549352D01*
X17661165Y19549350D01*
X17518401Y19490216D01*
X17518398Y19490214D01*
X17389914Y19404364D01*
X17389906Y19404358D01*
X17287181Y19301633D01*
X17225858Y19268148D01*
X17156166Y19273132D01*
X17100233Y19315004D01*
X17075816Y19380468D01*
X17075500Y19389314D01*
X17075500Y20554797D01*
X17075500Y20554800D01*
X17071238Y20565090D01*
X17033558Y20656058D01*
X16431834Y21257780D01*
X17105999Y21257780D01*
X17136127Y21106321D01*
X17136129Y21106315D01*
X17195226Y20963642D01*
X17239799Y20896930D01*
X17534902Y21192033D01*
X17535896Y21188325D01*
X17585924Y21101675D01*
X17656675Y21030924D01*
X17743325Y20980896D01*
X17747033Y20979902D01*
X17451930Y20684799D01*
X17518642Y20640226D01*
X17661315Y20581129D01*
X17661321Y20581127D01*
X17812781Y20551000D01*
X17967219Y20551000D01*
X18118678Y20581127D01*
X18118684Y20581129D01*
X18261361Y20640228D01*
X18328067Y20684799D01*
X18328068Y20684800D01*
X18032966Y20979902D01*
X18036675Y20980896D01*
X18123325Y21030924D01*
X18194076Y21101675D01*
X18244104Y21188325D01*
X18245097Y21192032D01*
X18540199Y20896930D01*
X18540199Y20896931D01*
X18584771Y20963638D01*
X18643870Y21106315D01*
X18643872Y21106321D01*
X18674000Y21257780D01*
X18674000Y21412219D01*
X18643872Y21563678D01*
X18643870Y21563684D01*
X18584772Y21706360D01*
X18584770Y21706363D01*
X18540199Y21773067D01*
X18245097Y21477965D01*
X18244104Y21481675D01*
X18194076Y21568325D01*
X18123325Y21639076D01*
X18036675Y21689104D01*
X18032966Y21690097D01*
X18328067Y21985199D01*
X18261363Y22029770D01*
X18261360Y22029772D01*
X18118684Y22088870D01*
X18118678Y22088872D01*
X17967219Y22119000D01*
X17812781Y22119000D01*
X17661321Y22088872D01*
X17661315Y22088870D01*
X17518638Y22029771D01*
X17451931Y21985199D01*
X17451930Y21985199D01*
X17747033Y21690097D01*
X17743325Y21689104D01*
X17656675Y21639076D01*
X17585924Y21568325D01*
X17535896Y21481675D01*
X17534902Y21477965D01*
X17239800Y21773068D01*
X17239799Y21773067D01*
X17195228Y21706361D01*
X17136129Y21563684D01*
X17136127Y21563678D01*
X17106000Y21412219D01*
X17106000Y21257780D01*
X17105999Y21257780D01*
X16431834Y21257780D01*
X15859713Y21829900D01*
X15855375Y21837845D01*
X15848128Y21843271D01*
X15838893Y21868030D01*
X15826229Y21891223D01*
X15826874Y21900252D01*
X15823711Y21908735D01*
X15829327Y21934555D01*
X15831213Y21960914D01*
X15837031Y21969967D01*
X15838563Y21977008D01*
X15859714Y22005262D01*
X15959358Y22104906D01*
X15959364Y22104914D01*
X16045214Y22233398D01*
X16045216Y22233401D01*
X16104350Y22376165D01*
X16104353Y22376175D01*
X16134500Y22527730D01*
X16134500Y22682269D01*
X16104353Y22833824D01*
X16104352Y22833830D01*
X16045215Y22976600D01*
X15959361Y23105090D01*
X15850090Y23214361D01*
X15832406Y23226177D01*
X17105499Y23226177D01*
X17114231Y23182282D01*
X17114234Y23182275D01*
X17147495Y23132496D01*
X17147496Y23132495D01*
X17197275Y23099234D01*
X17197282Y23099231D01*
X17241178Y23090500D01*
X17241180Y23090500D01*
X18538822Y23090500D01*
X18582717Y23099231D01*
X18582724Y23099234D01*
X18632503Y23132495D01*
X18632504Y23132496D01*
X18665765Y23182275D01*
X18665767Y23182278D01*
X18665768Y23182282D01*
X18674500Y23226177D01*
X18674500Y24523822D01*
X18665768Y24567717D01*
X18665767Y24567717D01*
X18665767Y24567722D01*
X18632504Y24617504D01*
X18582722Y24650767D01*
X18582717Y24650768D01*
X18538822Y24659500D01*
X18538820Y24659500D01*
X18364500Y24659500D01*
X18297461Y24679185D01*
X18251706Y24731989D01*
X18240500Y24783500D01*
X18240500Y26393456D01*
X18260185Y26460495D01*
X18276819Y26481137D01*
X19108863Y27313181D01*
X19170186Y27346666D01*
X19196544Y27349500D01*
X28646143Y27349500D01*
X28646144Y27349500D01*
X28735288Y27373386D01*
X28754419Y27384431D01*
X28815208Y27419527D01*
X28815213Y27419531D01*
X29316517Y27920835D01*
X29372102Y27952927D01*
X29473886Y27980201D01*
X29576613Y28039511D01*
X29660489Y28123387D01*
X29719799Y28226114D01*
X29750500Y28340691D01*
X29750500Y28459309D01*
X29719799Y28573886D01*
X29660489Y28676613D01*
X29576613Y28760489D01*
X29473886Y28819799D01*
X29359309Y28850500D01*
X29240691Y28850500D01*
X29126114Y28819799D01*
X29023387Y28760489D01*
X28939511Y28676613D01*
X28880201Y28573886D01*
X28852927Y28472102D01*
X28820835Y28416517D01*
X28491137Y28086819D01*
X28429814Y28053334D01*
X28403456Y28050500D01*
X18953856Y28050500D01*
X18879891Y28030681D01*
X18865383Y28026794D01*
X18865384Y28026794D01*
X18865380Y28026793D01*
X18864712Y28026614D01*
X18864709Y28026612D01*
X18864708Y28026612D01*
X18784791Y27980472D01*
X18784786Y27980468D01*
X17609531Y26805213D01*
X17609527Y26805208D01*
X17563387Y26725290D01*
X17563386Y26725287D01*
X17539500Y26636143D01*
X17539500Y24783500D01*
X17519815Y24716461D01*
X17467011Y24670706D01*
X17415500Y24659500D01*
X17241178Y24659500D01*
X17197282Y24650768D01*
X17197281Y24650767D01*
X17197278Y24650767D01*
X17197275Y24650765D01*
X17147496Y24617504D01*
X17147495Y24617503D01*
X17114234Y24567724D01*
X17114231Y24567717D01*
X17105500Y24523822D01*
X17105500Y23226177D01*
X17105499Y23226177D01*
X15832406Y23226177D01*
X15721600Y23300215D01*
X15578830Y23359352D01*
X15529233Y23369217D01*
X15427269Y23389500D01*
X15427267Y23389500D01*
X15272733Y23389500D01*
X15272731Y23389500D01*
X15121175Y23359353D01*
X15121170Y23359352D01*
X15121165Y23359350D01*
X14978401Y23300216D01*
X14978398Y23300214D01*
X14849914Y23214364D01*
X14849906Y23214358D01*
X14740641Y23105093D01*
X14740635Y23105085D01*
X14654785Y22976601D01*
X14654783Y22976598D01*
X14595649Y22833834D01*
X14595646Y22833824D01*
X14565500Y22682269D01*
X14565500Y22527730D01*
X14565499Y22527730D01*
X4100500Y22527730D01*
X4100500Y25906211D01*
X7074500Y25906211D01*
X7074500Y25653788D01*
X7107446Y25403548D01*
X7172773Y25159741D01*
X7269363Y24926552D01*
X7269372Y24926535D01*
X7395566Y24707958D01*
X7395568Y24707954D01*
X7549227Y24507705D01*
X7727705Y24329227D01*
X7927954Y24175568D01*
X7927958Y24175566D01*
X8146535Y24049372D01*
X8146552Y24049363D01*
X8379741Y23952773D01*
X8623548Y23887446D01*
X8873788Y23854500D01*
X8873796Y23854500D01*
X9126211Y23854500D01*
X9345171Y23883327D01*
X9376452Y23887446D01*
X9465690Y23911357D01*
X9620258Y23952773D01*
X9853447Y24049363D01*
X9853464Y24049372D01*
X10072041Y24175566D01*
X10072045Y24175568D01*
X10272294Y24329227D01*
X10272303Y24329235D01*
X10450765Y24507697D01*
X10450772Y24507705D01*
X10525736Y24605399D01*
X10604431Y24707954D01*
X10604433Y24707958D01*
X10730627Y24926535D01*
X10730636Y24926552D01*
X10827226Y25159741D01*
X10892554Y25403548D01*
X10925500Y25653796D01*
X10925500Y25906204D01*
X10892554Y26156452D01*
X10827226Y26400260D01*
X10730633Y26633454D01*
X10604430Y26852046D01*
X10450773Y27052294D01*
X10450768Y27052298D01*
X10450765Y27052303D01*
X10272303Y27230765D01*
X10272298Y27230768D01*
X10272294Y27230773D01*
X10086439Y27373386D01*
X10072045Y27384431D01*
X10072041Y27384433D01*
X9853464Y27510627D01*
X9853454Y27510633D01*
X9620260Y27607226D01*
X9376452Y27672554D01*
X9126204Y27705500D01*
X8873796Y27705500D01*
X8623548Y27672554D01*
X8379740Y27607226D01*
X8275758Y27564154D01*
X8146552Y27510636D01*
X8146535Y27510627D01*
X7927958Y27384433D01*
X7927954Y27384431D01*
X7727705Y27230772D01*
X7727697Y27230765D01*
X7549235Y27052303D01*
X7549227Y27052294D01*
X7395568Y26852045D01*
X7395566Y26852041D01*
X7269372Y26633464D01*
X7269363Y26633447D01*
X7172773Y26400258D01*
X7107446Y26156451D01*
X7074500Y25906211D01*
X4100500Y25906211D01*
X4100500Y32114162D01*
X19549500Y32114162D01*
X19549500Y31485837D01*
X19585215Y31260339D01*
X19655770Y31043196D01*
X19759421Y30839771D01*
X19893622Y30655061D01*
X20055061Y30493622D01*
X20239771Y30359421D01*
X20443196Y30255770D01*
X20660339Y30185215D01*
X20885838Y30149500D01*
X20885843Y30149500D01*
X21114162Y30149500D01*
X21339660Y30185215D01*
X21556803Y30255770D01*
X21760228Y30359421D01*
X21900858Y30461595D01*
X21966665Y30485075D01*
X22034719Y30469250D01*
X22061425Y30448958D01*
X23243941Y29266442D01*
X23267345Y29256749D01*
X23272050Y29254800D01*
X23308625Y29239650D01*
X23345199Y29224500D01*
X23345200Y29224500D01*
X38075500Y29224500D01*
X38142539Y29204815D01*
X38188294Y29152011D01*
X38199500Y29100500D01*
X38199500Y17499500D01*
X38179815Y17432461D01*
X38127011Y17386706D01*
X38075500Y17375500D01*
X35615478Y17375500D01*
X35548439Y17395185D01*
X35527797Y17411819D01*
X35186819Y17752796D01*
X35153334Y17814119D01*
X35150500Y17840477D01*
X35150500Y17909306D01*
X35150500Y17909309D01*
X35119799Y18023886D01*
X35060489Y18126613D01*
X34976613Y18210489D01*
X34873886Y18269799D01*
X34759309Y18300500D01*
X34640691Y18300500D01*
X34526114Y18269799D01*
X34423387Y18210489D01*
X34339511Y18126613D01*
X34280201Y18023886D01*
X34249500Y17909309D01*
X34249500Y17790691D01*
X34280201Y17676114D01*
X34280202Y17676112D01*
X34339511Y17573387D01*
X34339513Y17573384D01*
X34423384Y17489513D01*
X34423387Y17489511D01*
X34522199Y17432461D01*
X34526114Y17430201D01*
X34640691Y17399500D01*
X34640694Y17399500D01*
X34709521Y17399500D01*
X34776560Y17379815D01*
X34797202Y17363181D01*
X35293939Y16866444D01*
X35293942Y16866442D01*
X35323599Y16854158D01*
X35395198Y16824500D01*
X35395200Y16824500D01*
X38075500Y16824500D01*
X38142539Y16804815D01*
X38188294Y16752011D01*
X38199500Y16700500D01*
X38199500Y16547273D01*
X38226793Y16445410D01*
X38279520Y16354087D01*
X38279522Y16354084D01*
X39154084Y15479522D01*
X39154087Y15479520D01*
X39245410Y15426793D01*
X39347273Y15399500D01*
X39452727Y15399500D01*
X39688036Y15399500D01*
X39709281Y15393261D01*
X39731370Y15391682D01*
X39742153Y15383609D01*
X39755075Y15379815D01*
X39769574Y15363081D01*
X39787303Y15349810D01*
X39792010Y15337189D01*
X39800830Y15327011D01*
X39803981Y15305093D01*
X39811720Y15284346D01*
X39808857Y15271185D01*
X39810774Y15257853D01*
X39801574Y15237709D01*
X39796868Y15216073D01*
X39783599Y15198347D01*
X39781749Y15194297D01*
X39775717Y15187819D01*
X39774717Y15186819D01*
X39713394Y15153334D01*
X39687036Y15150500D01*
X36929800Y15150500D01*
X36820200Y15150500D01*
X36718942Y15108557D01*
X34443942Y12833557D01*
X34366443Y12756058D01*
X34343223Y12700000D01*
X34324500Y12654800D01*
X34324500Y9745199D01*
X34362382Y9653747D01*
X34362381Y9653746D01*
X34366442Y9643943D01*
X34366444Y9643940D01*
X35713181Y8297202D01*
X35746666Y8235879D01*
X35749500Y8209521D01*
X35749500Y8140691D01*
X35780147Y8026316D01*
X35780202Y8026112D01*
X35839511Y7923387D01*
X35839513Y7923384D01*
X35923384Y7839513D01*
X35923387Y7839511D01*
X35991038Y7800452D01*
X36026114Y7780201D01*
X36140691Y7749500D01*
X36140694Y7749500D01*
X36259306Y7749500D01*
X36259309Y7749500D01*
X36373886Y7780201D01*
X36476613Y7839511D01*
X36560489Y7923387D01*
X36619799Y8026114D01*
X36650500Y8140691D01*
X36650500Y8259309D01*
X36619799Y8373886D01*
X36560489Y8476613D01*
X36476613Y8560489D01*
X36373886Y8619799D01*
X36259309Y8650500D01*
X36190477Y8650500D01*
X36123438Y8670185D01*
X36102796Y8686819D01*
X35589181Y9200434D01*
X52754924Y9200434D01*
X52754924Y8899565D01*
X52794193Y8601294D01*
X52872061Y8310688D01*
X52987187Y8032747D01*
X52987194Y8032732D01*
X53137619Y7772188D01*
X53320766Y7533506D01*
X53320772Y7533499D01*
X53533499Y7320772D01*
X53533506Y7320766D01*
X53772188Y7137619D01*
X54032732Y6987194D01*
X54032747Y6987187D01*
X54310688Y6872061D01*
X54601294Y6794193D01*
X54899565Y6754924D01*
X54899573Y6754924D01*
X55200434Y6754924D01*
X55498705Y6794193D01*
X55789311Y6872061D01*
X56067252Y6987187D01*
X56067267Y6987194D01*
X56327811Y7137619D01*
X56566493Y7320766D01*
X56566500Y7320772D01*
X56779227Y7533499D01*
X56779233Y7533506D01*
X56962380Y7772188D01*
X57112805Y8032732D01*
X57112812Y8032747D01*
X57173773Y8179920D01*
X57227939Y8310689D01*
X57305806Y8601292D01*
X57345076Y8899573D01*
X57345076Y9200427D01*
X57305806Y9498708D01*
X57227939Y9789311D01*
X57112807Y10067264D01*
X56962380Y10327812D01*
X56779232Y10566495D01*
X56566495Y10779232D01*
X56327812Y10962380D01*
X56067264Y11112807D01*
X55789311Y11227939D01*
X55498708Y11305806D01*
X55200427Y11345076D01*
X54899573Y11345076D01*
X54601292Y11305806D01*
X54310689Y11227939D01*
X54152529Y11162426D01*
X54032747Y11112812D01*
X54032732Y11112805D01*
X53772188Y10962380D01*
X53533506Y10779233D01*
X53533499Y10779227D01*
X53320772Y10566500D01*
X53320766Y10566493D01*
X53137619Y10327811D01*
X52987194Y10067267D01*
X52987187Y10067252D01*
X52872061Y9789311D01*
X52794193Y9498705D01*
X52754924Y9200434D01*
X35589181Y9200434D01*
X34911819Y9877796D01*
X34878334Y9939119D01*
X34875500Y9965477D01*
X34875500Y12434523D01*
X34895185Y12501562D01*
X34911819Y12522204D01*
X36952796Y14563181D01*
X37014119Y14596666D01*
X37040477Y14599500D01*
X39687036Y14599500D01*
X39754075Y14579815D01*
X39774717Y14563181D01*
X39823384Y14514513D01*
X39823387Y14514511D01*
X39889027Y14476613D01*
X39926114Y14455201D01*
X40040691Y14424500D01*
X40040694Y14424500D01*
X40159306Y14424500D01*
X40159309Y14424500D01*
X40273886Y14455201D01*
X40376613Y14514511D01*
X40460489Y14598387D01*
X40519799Y14701114D01*
X40550500Y14815691D01*
X40550500Y14934309D01*
X40519799Y15048886D01*
X40460489Y15151613D01*
X40424283Y15187819D01*
X40390798Y15249142D01*
X40395782Y15318834D01*
X40437654Y15374767D01*
X40503118Y15399184D01*
X40511964Y15399500D01*
X41782745Y15399500D01*
X41849784Y15379815D01*
X41870426Y15363181D01*
X43563181Y13670426D01*
X43596666Y13609103D01*
X43599500Y13582745D01*
X43599500Y12335177D01*
X43599499Y12335177D01*
X43608231Y12291282D01*
X43608234Y12291275D01*
X43641495Y12241496D01*
X43641496Y12241495D01*
X43699705Y12202602D01*
X43744511Y12148990D01*
X43753218Y12079665D01*
X43723064Y12016638D01*
X43663621Y11979918D01*
X43630815Y11975500D01*
X39712964Y11975500D01*
X39645925Y11995185D01*
X39625283Y12011819D01*
X39620464Y12016638D01*
X39576613Y12060489D01*
X39473886Y12119799D01*
X39359309Y12150500D01*
X39240691Y12150500D01*
X39126114Y12119799D01*
X39023387Y12060489D01*
X38939511Y11976613D01*
X38880201Y11873886D01*
X38849500Y11759309D01*
X38849500Y11640691D01*
X38875424Y11543942D01*
X38880202Y11526112D01*
X38939511Y11423387D01*
X38939513Y11423384D01*
X39023384Y11339513D01*
X39023387Y11339511D01*
X39126114Y11280201D01*
X39240691Y11249500D01*
X39240694Y11249500D01*
X39359306Y11249500D01*
X39359309Y11249500D01*
X39473886Y11280201D01*
X39576613Y11339511D01*
X39625283Y11388181D01*
X39686606Y11421666D01*
X39712964Y11424500D01*
X45504800Y11424500D01*
X45606058Y11466443D01*
X45683557Y11543942D01*
X46133557Y11993941D01*
X46161122Y12060489D01*
X46161123Y12060490D01*
X46175498Y12095195D01*
X46175500Y12095201D01*
X46175500Y12450216D01*
X46195185Y12517255D01*
X46247989Y12563010D01*
X46317147Y12572954D01*
X46380703Y12543929D01*
X46387181Y12537897D01*
X46502214Y12422863D01*
X46502218Y12422860D01*
X46666079Y12313371D01*
X46666092Y12313364D01*
X46848160Y12237950D01*
X46848170Y12237947D01*
X47041457Y12199500D01*
X47041459Y12199500D01*
X47238543Y12199500D01*
X47431829Y12237947D01*
X47431839Y12237950D01*
X47613907Y12313364D01*
X47613920Y12313371D01*
X47777781Y12422860D01*
X47777785Y12422863D01*
X47917136Y12562214D01*
X47917139Y12562218D01*
X48026628Y12726079D01*
X48026635Y12726092D01*
X48102049Y12908160D01*
X48102052Y12908170D01*
X48139315Y13095499D01*
X48139315Y13095501D01*
X48140500Y13101459D01*
X48140500Y13298541D01*
X48130264Y13350000D01*
X48690245Y13350000D01*
X49202555Y13350000D01*
X49180000Y13265826D01*
X49180000Y13134174D01*
X49202555Y13050000D01*
X48690246Y13050000D01*
X48690245Y13049999D01*
X48718427Y12908319D01*
X48718430Y12908307D01*
X48793807Y12726328D01*
X48793814Y12726315D01*
X48903248Y12562537D01*
X48903251Y12562533D01*
X49042533Y12423251D01*
X49042537Y12423248D01*
X49206315Y12313814D01*
X49206328Y12313807D01*
X49388306Y12238430D01*
X49388318Y12238427D01*
X49529999Y12210244D01*
X49530000Y12210245D01*
X49530000Y12722554D01*
X49614174Y12700000D01*
X49745826Y12700000D01*
X49830000Y12722554D01*
X49830000Y12210244D01*
X49971681Y12238427D01*
X49971693Y12238430D01*
X50153671Y12313807D01*
X50153684Y12313814D01*
X50317462Y12423248D01*
X50317466Y12423251D01*
X50456748Y12562533D01*
X50456751Y12562537D01*
X50566185Y12726315D01*
X50566192Y12726328D01*
X50641569Y12908307D01*
X50641572Y12908319D01*
X50669754Y13049999D01*
X50669754Y13050000D01*
X50157445Y13050000D01*
X50171233Y13101456D01*
X51219499Y13101456D01*
X51257947Y12908170D01*
X51257950Y12908160D01*
X51333364Y12726092D01*
X51333371Y12726079D01*
X51442860Y12562218D01*
X51442863Y12562214D01*
X51582214Y12422863D01*
X51582218Y12422860D01*
X51746079Y12313371D01*
X51746092Y12313364D01*
X51928160Y12237950D01*
X51928170Y12237947D01*
X52121457Y12199500D01*
X52121459Y12199500D01*
X52318543Y12199500D01*
X52511829Y12237947D01*
X52511839Y12237950D01*
X52693907Y12313364D01*
X52693920Y12313371D01*
X52857781Y12422860D01*
X52857785Y12422863D01*
X52997136Y12562214D01*
X52997139Y12562218D01*
X53106628Y12726079D01*
X53106635Y12726092D01*
X53182049Y12908160D01*
X53182052Y12908170D01*
X53220500Y13101456D01*
X53220500Y13298543D01*
X53194632Y13428582D01*
X53182051Y13491835D01*
X53106632Y13673914D01*
X52997139Y13837782D01*
X52857782Y13977139D01*
X52693914Y14086632D01*
X52511835Y14162051D01*
X52448582Y14174632D01*
X52318543Y14200500D01*
X52318541Y14200500D01*
X52121459Y14200500D01*
X52121457Y14200500D01*
X51928170Y14162052D01*
X51928165Y14162051D01*
X51928163Y14162050D01*
X51928160Y14162049D01*
X51746092Y14086635D01*
X51746079Y14086628D01*
X51582218Y13977139D01*
X51582214Y13977136D01*
X51442863Y13837785D01*
X51442860Y13837781D01*
X51333371Y13673920D01*
X51333364Y13673907D01*
X51257950Y13491839D01*
X51257947Y13491829D01*
X51219500Y13298543D01*
X51219500Y13101456D01*
X51219499Y13101456D01*
X50171233Y13101456D01*
X50180000Y13134174D01*
X50180000Y13265826D01*
X50157445Y13350000D01*
X50669754Y13350000D01*
X50641572Y13491680D01*
X50641569Y13491692D01*
X50566192Y13673671D01*
X50566185Y13673684D01*
X50456751Y13837462D01*
X50456748Y13837466D01*
X50317466Y13976748D01*
X50317462Y13976751D01*
X50153684Y14086185D01*
X50153671Y14086192D01*
X49971692Y14161569D01*
X49971680Y14161572D01*
X49830000Y14189754D01*
X49830000Y13677445D01*
X49745826Y13700000D01*
X49614174Y13700000D01*
X49530000Y13677445D01*
X49530000Y14189754D01*
X49529999Y14189754D01*
X49388319Y14161572D01*
X49388307Y14161569D01*
X49206328Y14086192D01*
X49206315Y14086185D01*
X49042537Y13976751D01*
X49042533Y13976748D01*
X48903251Y13837466D01*
X48903248Y13837462D01*
X48793814Y13673684D01*
X48793807Y13673671D01*
X48718430Y13491692D01*
X48718427Y13491680D01*
X48690245Y13350000D01*
X48130264Y13350000D01*
X48102051Y13491835D01*
X48026632Y13673914D01*
X47917139Y13837782D01*
X47777782Y13977139D01*
X47613914Y14086632D01*
X47431835Y14162051D01*
X47368582Y14174632D01*
X47238543Y14200500D01*
X47238541Y14200500D01*
X47041459Y14200500D01*
X47041457Y14200500D01*
X46848170Y14162052D01*
X46848165Y14162051D01*
X46848163Y14162050D01*
X46848160Y14162049D01*
X46666092Y14086635D01*
X46666079Y14086628D01*
X46502218Y13977139D01*
X46502214Y13977136D01*
X46387181Y13862103D01*
X46325858Y13828618D01*
X46256166Y13833602D01*
X46200233Y13875474D01*
X46175816Y13940938D01*
X46175500Y13949784D01*
X46175500Y14254799D01*
X46159056Y14294497D01*
X46145842Y14326396D01*
X46145842Y14326399D01*
X46137017Y14347705D01*
X46133557Y14356059D01*
X45530306Y14959309D01*
X47449500Y14959309D01*
X47449500Y14840691D01*
X47480201Y14726114D01*
X47480202Y14726112D01*
X47539511Y14623387D01*
X47539513Y14623384D01*
X47623384Y14539513D01*
X47623387Y14539511D01*
X47671350Y14511819D01*
X47726114Y14480201D01*
X47840691Y14449500D01*
X47840694Y14449500D01*
X47959306Y14449500D01*
X47959309Y14449500D01*
X48073886Y14480201D01*
X48176613Y14539511D01*
X48225283Y14588181D01*
X48286606Y14621666D01*
X48312964Y14624500D01*
X52884523Y14624500D01*
X52951562Y14604815D01*
X52972204Y14588181D01*
X53818618Y13741765D01*
X53852103Y13680442D01*
X53847119Y13610750D01*
X53845498Y13606632D01*
X53797950Y13491839D01*
X53797947Y13491829D01*
X53759500Y13298543D01*
X53759500Y13101456D01*
X53759499Y13101456D01*
X53797947Y12908170D01*
X53797950Y12908160D01*
X53873364Y12726092D01*
X53873371Y12726079D01*
X53982860Y12562218D01*
X53982863Y12562214D01*
X54122214Y12422863D01*
X54122218Y12422860D01*
X54286079Y12313371D01*
X54286092Y12313364D01*
X54468160Y12237950D01*
X54468170Y12237947D01*
X54661457Y12199500D01*
X54661459Y12199500D01*
X54858543Y12199500D01*
X55051829Y12237947D01*
X55051839Y12237950D01*
X55233907Y12313364D01*
X55233920Y12313371D01*
X55397781Y12422860D01*
X55397785Y12422863D01*
X55537136Y12562214D01*
X55537139Y12562218D01*
X55646628Y12726079D01*
X55646635Y12726092D01*
X55722049Y12908160D01*
X55722052Y12908170D01*
X55760500Y13101456D01*
X55760500Y13298543D01*
X55734632Y13428582D01*
X55722051Y13491835D01*
X55646632Y13673914D01*
X55537139Y13837782D01*
X55397782Y13977139D01*
X55233914Y14086632D01*
X55051835Y14162051D01*
X54988582Y14174632D01*
X54858543Y14200500D01*
X54858541Y14200500D01*
X54661459Y14200500D01*
X54661457Y14200500D01*
X54468170Y14162052D01*
X54468165Y14162051D01*
X54339222Y14108641D01*
X54269757Y14101173D01*
X54207277Y14132448D01*
X54204120Y14135494D01*
X53206058Y15133557D01*
X53176228Y15145913D01*
X53104800Y15175500D01*
X53104799Y15175500D01*
X48312964Y15175500D01*
X48245925Y15195185D01*
X48225283Y15211819D01*
X48201613Y15235489D01*
X48176613Y15260489D01*
X48073886Y15319799D01*
X47959309Y15350500D01*
X47840691Y15350500D01*
X47726114Y15319799D01*
X47623387Y15260489D01*
X47539511Y15176613D01*
X47480201Y15073886D01*
X47449500Y14959309D01*
X45530306Y14959309D01*
X45456058Y15033557D01*
X45453119Y15034774D01*
X45453114Y15034778D01*
X45453114Y15034776D01*
X45354800Y15075500D01*
X45354799Y15075500D01*
X44215478Y15075500D01*
X44148439Y15095185D01*
X44127797Y15111819D01*
X43745814Y15493802D01*
X42556058Y16683557D01*
X42550052Y16686044D01*
X42535563Y16692047D01*
X42535563Y16692046D01*
X42454800Y16725500D01*
X42454799Y16725500D01*
X40315478Y16725500D01*
X40248439Y16745185D01*
X40227797Y16761819D01*
X39611819Y17377796D01*
X39578334Y17439119D01*
X39575500Y17465477D01*
X39575500Y27834522D01*
X39595185Y27901561D01*
X39611819Y27922203D01*
X40733557Y29043941D01*
X40756984Y29100500D01*
X40767875Y29126793D01*
X40775500Y29145200D01*
X40775500Y32459309D01*
X55549500Y32459309D01*
X55549500Y32340691D01*
X55557732Y32309970D01*
X55580202Y32226112D01*
X55639511Y32123387D01*
X55639513Y32123384D01*
X55688181Y32074717D01*
X55721666Y32013394D01*
X55724500Y31987036D01*
X55724500Y31545200D01*
X55745882Y31493580D01*
X55766443Y31443942D01*
X55766444Y31443940D01*
X56988181Y30222203D01*
X57021666Y30160880D01*
X57024500Y30134522D01*
X57024500Y14251671D01*
X57004815Y14184632D01*
X56952011Y14138877D01*
X56947959Y14137113D01*
X56930595Y14129920D01*
X56826091Y14086635D01*
X56826079Y14086628D01*
X56662218Y13977139D01*
X56662214Y13977136D01*
X56522863Y13837785D01*
X56522860Y13837781D01*
X56413371Y13673920D01*
X56413364Y13673907D01*
X56337950Y13491839D01*
X56337947Y13491829D01*
X56299500Y13298543D01*
X56299500Y13101456D01*
X56299499Y13101456D01*
X56337947Y12908170D01*
X56337950Y12908160D01*
X56413364Y12726092D01*
X56413371Y12726079D01*
X56522860Y12562218D01*
X56522863Y12562214D01*
X56662214Y12422863D01*
X56662218Y12422860D01*
X56826079Y12313371D01*
X56826092Y12313364D01*
X57008160Y12237950D01*
X57008170Y12237947D01*
X57201457Y12199500D01*
X57201459Y12199500D01*
X57398543Y12199500D01*
X57591829Y12237947D01*
X57591839Y12237950D01*
X57773907Y12313364D01*
X57773920Y12313371D01*
X57937781Y12422860D01*
X57937785Y12422863D01*
X58077136Y12562214D01*
X58077139Y12562218D01*
X58186628Y12726079D01*
X58186635Y12726092D01*
X58262049Y12908160D01*
X58262052Y12908170D01*
X58300500Y13101456D01*
X58300500Y13298543D01*
X58274632Y13428582D01*
X58262051Y13491835D01*
X58186632Y13673914D01*
X58077139Y13837782D01*
X57937782Y13977139D01*
X57773914Y14086632D01*
X57773911Y14086633D01*
X57773908Y14086635D01*
X57679213Y14125858D01*
X57652047Y14137110D01*
X57597644Y14180950D01*
X57575579Y14247244D01*
X57575500Y14251671D01*
X57575500Y30354797D01*
X57575500Y30354800D01*
X57573586Y30359421D01*
X57533558Y30456058D01*
X56311818Y31677796D01*
X56297115Y31704723D01*
X56280523Y31730542D01*
X56279631Y31736742D01*
X56278334Y31739119D01*
X56275500Y31765477D01*
X56275500Y31987036D01*
X56295185Y32054075D01*
X56311819Y32074717D01*
X56360486Y32123384D01*
X56360489Y32123387D01*
X56419799Y32226114D01*
X56450500Y32340691D01*
X56450500Y32459309D01*
X56419799Y32573886D01*
X56360489Y32676613D01*
X56276613Y32760489D01*
X56173886Y32819799D01*
X56059309Y32850500D01*
X55940691Y32850500D01*
X55826114Y32819799D01*
X55723387Y32760489D01*
X55639511Y32676613D01*
X55580201Y32573886D01*
X55549500Y32459309D01*
X40775500Y32459309D01*
X40775500Y34134522D01*
X40795185Y34201561D01*
X40811819Y34222203D01*
X41277797Y34688181D01*
X41339120Y34721666D01*
X41365478Y34724500D01*
X49654800Y34724500D01*
X49756058Y34766443D01*
X49802796Y34813181D01*
X49864119Y34846666D01*
X49890477Y34849500D01*
X49959306Y34849500D01*
X49959309Y34849500D01*
X50073886Y34880201D01*
X50176613Y34939511D01*
X50260489Y35023387D01*
X50319799Y35126114D01*
X50350500Y35240691D01*
X50350500Y35359309D01*
X50319799Y35473886D01*
X50260489Y35576613D01*
X50176613Y35660489D01*
X50073886Y35719799D01*
X49959309Y35750500D01*
X49840691Y35750500D01*
X49726114Y35719799D01*
X49623387Y35660489D01*
X49539511Y35576613D01*
X49480201Y35473886D01*
X49451670Y35367406D01*
X49415305Y35307746D01*
X49352458Y35277217D01*
X49331895Y35275500D01*
X47311964Y35275500D01*
X47244925Y35295185D01*
X47199170Y35347989D01*
X47189226Y35417147D01*
X47218251Y35480703D01*
X47224283Y35487181D01*
X47260486Y35523384D01*
X47260489Y35523387D01*
X47319799Y35626114D01*
X47350500Y35740691D01*
X47350500Y35859309D01*
X47319799Y35973886D01*
X47260489Y36076613D01*
X47176613Y36160489D01*
X47163408Y36168113D01*
X47115192Y36218680D01*
X47101970Y36287288D01*
X47127938Y36352152D01*
X47184852Y36392680D01*
X47225408Y36399500D01*
X55252726Y36399500D01*
X55252727Y36399500D01*
X55303657Y36413146D01*
X55354589Y36426793D01*
X55400250Y36453156D01*
X55445913Y36479520D01*
X57013109Y38046716D01*
X57068691Y38078808D01*
X57073881Y38080198D01*
X57073885Y38080200D01*
X57117302Y38105267D01*
X57176613Y38139511D01*
X57260489Y38223387D01*
X57319799Y38326114D01*
X57350500Y38440691D01*
X57350500Y38559309D01*
X57319799Y38673886D01*
X57260489Y38776613D01*
X57176613Y38860489D01*
X57073886Y38919799D01*
X56959309Y38950500D01*
X56840691Y38950500D01*
X56726114Y38919799D01*
X56623387Y38860489D01*
X56539511Y38776613D01*
X56526989Y38754924D01*
X56480200Y38673885D01*
X56480198Y38673881D01*
X56478808Y38668691D01*
X56446716Y38613109D01*
X55070426Y37236819D01*
X55009103Y37203334D01*
X54982745Y37200500D01*
X40260339Y37200500D01*
X40260323Y37200501D01*
X40252727Y37200501D01*
X40147273Y37200501D01*
X40047947Y37173886D01*
X40047946Y37173886D01*
X40045413Y37173207D01*
X39954087Y37120480D01*
X39892916Y37059309D01*
X39875189Y37041582D01*
X39875179Y37041571D01*
X38279520Y35445913D01*
X38226793Y35354588D01*
X38208613Y35286737D01*
X38201581Y35260492D01*
X38201580Y35260488D01*
X38199500Y35252727D01*
X38199500Y34425408D01*
X38179815Y34358369D01*
X38127011Y34312614D01*
X38057853Y34302670D01*
X37994297Y34331695D01*
X37981857Y34344124D01*
X37974061Y34353104D01*
X37960489Y34376613D01*
X37908717Y34428384D01*
X37905857Y34431680D01*
X37893060Y34459636D01*
X37878334Y34486606D01*
X37877602Y34493406D01*
X37876777Y34495211D01*
X37877137Y34497733D01*
X37875500Y34512964D01*
X37875500Y36087036D01*
X37895185Y36154075D01*
X37911819Y36174717D01*
X37960486Y36223384D01*
X37960489Y36223387D01*
X38019799Y36326114D01*
X38050500Y36440691D01*
X38050500Y36559309D01*
X38019799Y36673886D01*
X37960489Y36776613D01*
X37876613Y36860489D01*
X37773886Y36919799D01*
X37659309Y36950500D01*
X37540691Y36950500D01*
X37426114Y36919799D01*
X37323387Y36860489D01*
X37239511Y36776613D01*
X37180201Y36673886D01*
X37149500Y36559309D01*
X37149500Y36440691D01*
X37180201Y36326114D01*
X37180202Y36326112D01*
X37239511Y36223387D01*
X37239513Y36223384D01*
X37288181Y36174717D01*
X37321666Y36113394D01*
X37324500Y36087036D01*
X37324500Y34512964D01*
X37304815Y34445925D01*
X37288181Y34425283D01*
X37239511Y34376613D01*
X37180201Y34273886D01*
X37149500Y34159309D01*
X37149500Y34040691D01*
X37167393Y33973914D01*
X37180202Y33926112D01*
X37239511Y33823387D01*
X37239513Y33823384D01*
X37323384Y33739513D01*
X37323387Y33739511D01*
X37426114Y33680201D01*
X37540691Y33649500D01*
X37540694Y33649500D01*
X37659306Y33649500D01*
X37659309Y33649500D01*
X37773886Y33680201D01*
X37876613Y33739511D01*
X37960489Y33823387D01*
X37968114Y33836594D01*
X38018683Y33884808D01*
X38087290Y33898029D01*
X38152154Y33872060D01*
X38192681Y33815144D01*
X38199500Y33774591D01*
X38199500Y29899500D01*
X38179815Y29832461D01*
X38127011Y29786706D01*
X38075500Y29775500D01*
X23565478Y29775500D01*
X23498439Y29795185D01*
X23477797Y29811819D01*
X23255978Y30033638D01*
X22373971Y30915643D01*
X22340488Y30976964D01*
X22343723Y31041641D01*
X22344228Y31043196D01*
X22344231Y31043201D01*
X22414784Y31260340D01*
X22414802Y31260455D01*
X22450500Y31485837D01*
X22450500Y32114162D01*
X24249500Y32114162D01*
X24249500Y31485837D01*
X24285215Y31260339D01*
X24355770Y31043196D01*
X24459421Y30839771D01*
X24593622Y30655061D01*
X24755061Y30493622D01*
X24939771Y30359421D01*
X25143196Y30255770D01*
X25360339Y30185215D01*
X25585838Y30149500D01*
X25585843Y30149500D01*
X25814162Y30149500D01*
X26039660Y30185215D01*
X26256803Y30255770D01*
X26460228Y30359421D01*
X26611393Y30469250D01*
X26644937Y30493621D01*
X26806379Y30655063D01*
X26940579Y30839772D01*
X27022219Y31000000D01*
X27044229Y31043196D01*
X27114784Y31260339D01*
X27150500Y31485837D01*
X27150500Y32114116D01*
X28950000Y32114116D01*
X28950000Y31950000D01*
X29614164Y31950000D01*
X29600000Y31878793D01*
X29600000Y31721207D01*
X29614164Y31650000D01*
X28950000Y31650000D01*
X28950000Y31485883D01*
X28985704Y31260455D01*
X29056230Y31043395D01*
X29159849Y30840033D01*
X29294004Y30655385D01*
X29455385Y30494004D01*
X29640033Y30359849D01*
X29843395Y30256230D01*
X30060455Y30185704D01*
X30250000Y30155682D01*
X30250000Y31014163D01*
X30321207Y31000000D01*
X30478793Y31000000D01*
X30550000Y31014163D01*
X30550000Y30155682D01*
X30739544Y30185704D01*
X30956604Y30256230D01*
X31159966Y30359849D01*
X31344614Y30494004D01*
X31505995Y30655385D01*
X31640150Y30840033D01*
X31743769Y31043395D01*
X31814295Y31260455D01*
X31850000Y31485883D01*
X31850000Y31650000D01*
X31185836Y31650000D01*
X31200000Y31721207D01*
X31200000Y31878793D01*
X31185836Y31950000D01*
X31850000Y31950000D01*
X31850000Y32114116D01*
X31814295Y32339544D01*
X31743769Y32556604D01*
X31640150Y32759966D01*
X31505995Y32944614D01*
X31344614Y33105995D01*
X31159966Y33240150D01*
X30956604Y33343769D01*
X30739544Y33414295D01*
X30550000Y33444315D01*
X30550000Y32585836D01*
X30478793Y32600000D01*
X30321207Y32600000D01*
X30250000Y32585836D01*
X30250000Y33444316D01*
X30060455Y33414295D01*
X29843395Y33343769D01*
X29640033Y33240150D01*
X29455385Y33105995D01*
X29294004Y32944614D01*
X29159849Y32759966D01*
X29056230Y32556604D01*
X28985704Y32339544D01*
X28950000Y32114116D01*
X27150500Y32114116D01*
X27150500Y32114162D01*
X27114784Y32339660D01*
X27114448Y32340693D01*
X27044231Y32556799D01*
X26940579Y32760228D01*
X26806379Y32944937D01*
X26644937Y33106379D01*
X26460228Y33240579D01*
X26256799Y33344231D01*
X26039660Y33414784D01*
X25814162Y33450500D01*
X25814157Y33450500D01*
X25585843Y33450500D01*
X25585838Y33450500D01*
X25360339Y33414784D01*
X25259592Y33382049D01*
X25143201Y33344231D01*
X25143198Y33344229D01*
X25143196Y33344229D01*
X25035884Y33289550D01*
X24939772Y33240579D01*
X24755063Y33106379D01*
X24593621Y32944937D01*
X24533522Y32862218D01*
X24459421Y32760228D01*
X24355770Y32556803D01*
X24285215Y32339660D01*
X24249500Y32114162D01*
X22450500Y32114162D01*
X22414784Y32339660D01*
X22414448Y32340693D01*
X22344231Y32556799D01*
X22240579Y32760228D01*
X22106379Y32944937D01*
X21944937Y33106379D01*
X21760228Y33240579D01*
X21556799Y33344231D01*
X21339660Y33414784D01*
X21114162Y33450500D01*
X21114157Y33450500D01*
X20885843Y33450500D01*
X20885838Y33450500D01*
X20660339Y33414784D01*
X20559592Y33382049D01*
X20443201Y33344231D01*
X20443198Y33344229D01*
X20443196Y33344229D01*
X20335884Y33289550D01*
X20239772Y33240579D01*
X20055063Y33106379D01*
X19893621Y32944937D01*
X19833522Y32862218D01*
X19759421Y32760228D01*
X19655770Y32556803D01*
X19585215Y32339660D01*
X19549500Y32114162D01*
X4100500Y32114162D01*
X4100500Y33401456D01*
X5149499Y33401456D01*
X5187947Y33208170D01*
X5187950Y33208160D01*
X5263364Y33026092D01*
X5263371Y33026079D01*
X5372860Y32862218D01*
X5372863Y32862214D01*
X5512214Y32722863D01*
X5512218Y32722860D01*
X5676079Y32613371D01*
X5676092Y32613364D01*
X5858160Y32537950D01*
X5858170Y32537947D01*
X6051457Y32499500D01*
X6051459Y32499500D01*
X6248543Y32499500D01*
X6441829Y32537947D01*
X6441839Y32537950D01*
X6623907Y32613364D01*
X6623920Y32613371D01*
X6787781Y32722860D01*
X6787785Y32722863D01*
X6927136Y32862214D01*
X6927139Y32862218D01*
X7036628Y33026079D01*
X7036635Y33026092D01*
X7112049Y33208160D01*
X7112052Y33208170D01*
X7150500Y33401456D01*
X11149499Y33401456D01*
X11187947Y33208170D01*
X11187950Y33208160D01*
X11263364Y33026092D01*
X11263371Y33026079D01*
X11372860Y32862218D01*
X11372863Y32862214D01*
X11512214Y32722863D01*
X11512218Y32722860D01*
X11676079Y32613371D01*
X11676092Y32613364D01*
X11858160Y32537950D01*
X11858170Y32537947D01*
X12051457Y32499500D01*
X12051459Y32499500D01*
X12248543Y32499500D01*
X12441829Y32537947D01*
X12441839Y32537950D01*
X12623907Y32613364D01*
X12623920Y32613371D01*
X12787781Y32722860D01*
X12787785Y32722863D01*
X12927136Y32862214D01*
X12927139Y32862218D01*
X13036628Y33026079D01*
X13036635Y33026092D01*
X13112049Y33208160D01*
X13112052Y33208170D01*
X13150500Y33401456D01*
X13150500Y33598543D01*
X13112052Y33791829D01*
X13112051Y33791835D01*
X13036632Y33973914D01*
X12927139Y34137782D01*
X12787782Y34277139D01*
X12623914Y34386632D01*
X12441835Y34462051D01*
X12350585Y34480202D01*
X12248543Y34500500D01*
X12248541Y34500500D01*
X12051459Y34500500D01*
X12051457Y34500500D01*
X11858170Y34462052D01*
X11858165Y34462051D01*
X11858160Y34462049D01*
X11676092Y34386635D01*
X11676079Y34386628D01*
X11512218Y34277139D01*
X11512214Y34277136D01*
X11372863Y34137785D01*
X11372860Y34137781D01*
X11263371Y33973920D01*
X11263364Y33973907D01*
X11187950Y33791839D01*
X11187947Y33791829D01*
X11149500Y33598543D01*
X11149500Y33401456D01*
X11149499Y33401456D01*
X7150500Y33401456D01*
X7150500Y33598543D01*
X7112052Y33791829D01*
X7112051Y33791835D01*
X7036632Y33973914D01*
X6927139Y34137782D01*
X6787782Y34277139D01*
X6623914Y34386632D01*
X6441835Y34462051D01*
X6350585Y34480202D01*
X6248543Y34500500D01*
X6248541Y34500500D01*
X6051459Y34500500D01*
X6051457Y34500500D01*
X5858170Y34462052D01*
X5858165Y34462051D01*
X5858160Y34462049D01*
X5676092Y34386635D01*
X5676079Y34386628D01*
X5512218Y34277139D01*
X5512214Y34277136D01*
X5372863Y34137785D01*
X5372860Y34137781D01*
X5263371Y33973920D01*
X5263364Y33973907D01*
X5187950Y33791839D01*
X5187947Y33791829D01*
X5149500Y33598543D01*
X5149500Y33401456D01*
X5149499Y33401456D01*
X4100500Y33401456D01*
X4100500Y37059309D01*
X12449500Y37059309D01*
X12449500Y36940691D01*
X12470991Y36860486D01*
X12480202Y36826112D01*
X12539511Y36723387D01*
X12539513Y36723384D01*
X12623384Y36639513D01*
X12623387Y36639511D01*
X12726114Y36580201D01*
X12840691Y36549500D01*
X12840694Y36549500D01*
X12959306Y36549500D01*
X12959309Y36549500D01*
X13073886Y36580201D01*
X13176613Y36639511D01*
X13225283Y36688181D01*
X13286606Y36721666D01*
X13312964Y36724500D01*
X33584523Y36724500D01*
X33651562Y36704815D01*
X33672204Y36688181D01*
X35413181Y34947203D01*
X35446666Y34885880D01*
X35449500Y34859522D01*
X35449500Y34840691D01*
X35469395Y34766444D01*
X35480202Y34726112D01*
X35539511Y34623387D01*
X35539513Y34623384D01*
X35623384Y34539513D01*
X35623387Y34539511D01*
X35726114Y34480201D01*
X35840691Y34449500D01*
X35840694Y34449500D01*
X35959306Y34449500D01*
X35959309Y34449500D01*
X36073886Y34480201D01*
X36176613Y34539511D01*
X36260489Y34623387D01*
X36319799Y34726114D01*
X36350500Y34840691D01*
X36350500Y34959309D01*
X36319799Y35073886D01*
X36260489Y35176613D01*
X36176613Y35260489D01*
X36073886Y35319799D01*
X35959309Y35350500D01*
X35840691Y35350500D01*
X35840477Y35350500D01*
X35773438Y35370185D01*
X35752796Y35386819D01*
X34852327Y36287288D01*
X33906058Y37233557D01*
X33876228Y37245913D01*
X33804800Y37275500D01*
X33804799Y37275500D01*
X13312964Y37275500D01*
X13245925Y37295185D01*
X13225283Y37311819D01*
X13176613Y37360489D01*
X13073886Y37419799D01*
X12959309Y37450500D01*
X12840691Y37450500D01*
X12726114Y37419799D01*
X12623387Y37360489D01*
X12539511Y37276613D01*
X12480201Y37173886D01*
X12449500Y37059309D01*
X4100500Y37059309D01*
X4100500Y39793907D01*
X4101097Y39806061D01*
X4103551Y39830980D01*
X4112744Y39924317D01*
X4117483Y39948145D01*
X4150202Y40056005D01*
X4159501Y40078453D01*
X4212630Y40177850D01*
X4226133Y40198059D01*
X4297630Y40285179D01*
X4314820Y40302369D01*
X4401940Y40373866D01*
X4422150Y40387370D01*
X4462090Y40408719D01*
X4521541Y40440496D01*
X4543997Y40449798D01*
X4651848Y40482514D01*
X4675688Y40487256D01*
X4743081Y40493893D01*
X4793939Y40498903D01*
X4806093Y40499500D01*
X6472967Y40499500D01*
X6472972Y40499500D01*
X6817020Y40535661D01*
X6863647Y40545571D01*
X7155399Y40607585D01*
X7155400Y40607586D01*
X7155401Y40607586D01*
X7155404Y40607587D01*
X7410780Y40690564D01*
X7484408Y40714487D01*
X7484411Y40714488D01*
X7484416Y40714490D01*
X7800452Y40855198D01*
X7800459Y40855201D01*
X8100046Y41028167D01*
X8100047Y41028167D01*
X8337150Y41200434D01*
X12754924Y41200434D01*
X12754924Y40899565D01*
X12794193Y40601294D01*
X12872061Y40310688D01*
X12987187Y40032747D01*
X12987194Y40032732D01*
X13137619Y39772188D01*
X13320766Y39533506D01*
X13320772Y39533499D01*
X13533499Y39320772D01*
X13533506Y39320766D01*
X13772188Y39137619D01*
X14032732Y38987194D01*
X14032747Y38987187D01*
X14310688Y38872061D01*
X14601294Y38794193D01*
X14899565Y38754924D01*
X14899573Y38754924D01*
X15200434Y38754924D01*
X15498705Y38794193D01*
X15789311Y38872061D01*
X16067252Y38987187D01*
X16067267Y38987194D01*
X16327811Y39137619D01*
X16566493Y39320766D01*
X16566500Y39320772D01*
X16779227Y39533499D01*
X16779233Y39533506D01*
X16962380Y39772188D01*
X17112805Y40032732D01*
X17112812Y40032747D01*
X17221440Y40295000D01*
X17227939Y40310689D01*
X17305806Y40601292D01*
X17345076Y40899573D01*
X17345076Y41059023D01*
X32730000Y41059023D01*
X32730000Y40595000D01*
X33080000Y40595000D01*
X33080000Y40295000D01*
X32730000Y40295000D01*
X32730000Y39830976D01*
X32754977Y39705409D01*
X32754979Y39705401D01*
X32803978Y39587108D01*
X32803978Y39587107D01*
X32875110Y39480650D01*
X32875116Y39480643D01*
X32965643Y39390116D01*
X32965650Y39390110D01*
X33072108Y39318978D01*
X33190400Y39269979D01*
X33190406Y39269977D01*
X33229999Y39262101D01*
X33230000Y39262102D01*
X33230000Y39635191D01*
X33264204Y39615444D01*
X33340504Y39595000D01*
X33419496Y39595000D01*
X33495796Y39615444D01*
X33530000Y39635191D01*
X33530000Y39262101D01*
X33569593Y39269977D01*
X33569599Y39269979D01*
X33687891Y39318978D01*
X33687892Y39318978D01*
X33794349Y39390110D01*
X33794356Y39390116D01*
X33884883Y39480643D01*
X33884889Y39480650D01*
X33956021Y39587107D01*
X33956021Y39587108D01*
X34005020Y39705401D01*
X34005022Y39705409D01*
X34029999Y39830976D01*
X34030000Y39830980D01*
X34030000Y40295000D01*
X33680000Y40295000D01*
X33680000Y40595000D01*
X34030000Y40595000D01*
X34030000Y40690564D01*
X34049685Y40757603D01*
X34102489Y40803358D01*
X34171647Y40813302D01*
X34235203Y40784277D01*
X34270007Y40730119D01*
X34270611Y40730369D01*
X34271995Y40727026D01*
X34272977Y40725499D01*
X34273713Y40722878D01*
X34273718Y40722865D01*
X34349485Y40591635D01*
X34349487Y40591632D01*
X34456632Y40484487D01*
X34456635Y40484485D01*
X34587863Y40408719D01*
X34734234Y40369500D01*
X34885765Y40369500D01*
X34885766Y40369500D01*
X34958950Y40389109D01*
X35032136Y40408719D01*
X35110129Y40453749D01*
X35163365Y40484485D01*
X35270515Y40591635D01*
X35346281Y40722865D01*
X35385500Y40869234D01*
X35385500Y41020765D01*
X40014500Y41020765D01*
X40014500Y40869234D01*
X40053719Y40722863D01*
X40129485Y40591635D01*
X40129487Y40591632D01*
X40236632Y40484487D01*
X40236635Y40484485D01*
X40367863Y40408719D01*
X40514234Y40369500D01*
X40665765Y40369500D01*
X40665766Y40369500D01*
X40738950Y40389109D01*
X40812136Y40408719D01*
X40877147Y40446254D01*
X40943365Y40484485D01*
X41050515Y40591635D01*
X41126281Y40722865D01*
X41129389Y40730369D01*
X41130615Y40729861D01*
X41162591Y40782319D01*
X41225438Y40812847D01*
X41294814Y40804552D01*
X41348691Y40760066D01*
X41369965Y40693514D01*
X41370000Y40690564D01*
X41370000Y40595000D01*
X41720000Y40595000D01*
X41720000Y40295000D01*
X41370000Y40295000D01*
X41370000Y39830976D01*
X41394977Y39705409D01*
X41394979Y39705401D01*
X41443978Y39587108D01*
X41443978Y39587107D01*
X41515110Y39480650D01*
X41515116Y39480643D01*
X41605643Y39390116D01*
X41605650Y39390110D01*
X41712108Y39318978D01*
X41830400Y39269979D01*
X41830406Y39269977D01*
X41869999Y39262101D01*
X41870000Y39262102D01*
X41870000Y39635191D01*
X41904204Y39615444D01*
X41980504Y39595000D01*
X42059496Y39595000D01*
X42135796Y39615444D01*
X42170000Y39635191D01*
X42170000Y39262101D01*
X42209593Y39269977D01*
X42209599Y39269979D01*
X42327891Y39318978D01*
X42327892Y39318978D01*
X42434349Y39390110D01*
X42434356Y39390116D01*
X42524883Y39480643D01*
X42524889Y39480650D01*
X42596021Y39587107D01*
X42596021Y39587108D01*
X42645020Y39705401D01*
X42645022Y39705409D01*
X42669999Y39830976D01*
X42670000Y39830980D01*
X42670000Y40295000D01*
X42320000Y40295000D01*
X42320000Y40595000D01*
X42670000Y40595000D01*
X42670000Y41059020D01*
X42669999Y41059022D01*
X42645877Y41180295D01*
X42645877Y41180296D01*
X42645876Y41180300D01*
X42645022Y41184593D01*
X42645020Y41184598D01*
X42638460Y41200434D01*
X52754924Y41200434D01*
X52754924Y40899565D01*
X52794193Y40601294D01*
X52872061Y40310688D01*
X52987187Y40032747D01*
X52987194Y40032732D01*
X53137619Y39772188D01*
X53320766Y39533506D01*
X53320772Y39533499D01*
X53533499Y39320772D01*
X53533506Y39320766D01*
X53772188Y39137619D01*
X54032732Y38987194D01*
X54032747Y38987187D01*
X54310688Y38872061D01*
X54601294Y38794193D01*
X54899565Y38754924D01*
X54899573Y38754924D01*
X55200434Y38754924D01*
X55498705Y38794193D01*
X55789311Y38872061D01*
X56067252Y38987187D01*
X56067267Y38987194D01*
X56327811Y39137619D01*
X56566493Y39320766D01*
X56566500Y39320772D01*
X56779227Y39533499D01*
X56779233Y39533506D01*
X56962380Y39772188D01*
X57112805Y40032732D01*
X57112812Y40032747D01*
X57221440Y40295000D01*
X57227939Y40310689D01*
X57305806Y40601292D01*
X57345076Y40899573D01*
X57345076Y41200427D01*
X57305806Y41498708D01*
X57227939Y41789311D01*
X57112807Y42067264D01*
X56962380Y42327812D01*
X56779232Y42566495D01*
X56566495Y42779232D01*
X56327812Y42962380D01*
X56067264Y43112807D01*
X55789311Y43227939D01*
X55498708Y43305806D01*
X55200427Y43345076D01*
X54899573Y43345076D01*
X54899565Y43345075D01*
X54898608Y43344949D01*
X54601292Y43305806D01*
X54310689Y43227939D01*
X54152529Y43162426D01*
X54032747Y43112812D01*
X54032732Y43112805D01*
X53772188Y42962380D01*
X53533506Y42779233D01*
X53533499Y42779227D01*
X53320772Y42566500D01*
X53320766Y42566493D01*
X53137619Y42327811D01*
X52987194Y42067267D01*
X52987187Y42067252D01*
X52872061Y41789311D01*
X52794193Y41498705D01*
X52754924Y41200434D01*
X42638460Y41200434D01*
X42596021Y41302891D01*
X42596021Y41302892D01*
X42524889Y41409349D01*
X42524883Y41409356D01*
X42434356Y41499883D01*
X42434349Y41499889D01*
X42327891Y41571021D01*
X42209600Y41620019D01*
X42209597Y41620020D01*
X42170000Y41627895D01*
X42170000Y41254808D01*
X42135796Y41274556D01*
X42059496Y41295000D01*
X41980504Y41295000D01*
X41904204Y41274556D01*
X41870000Y41254808D01*
X41870000Y41627896D01*
X41830402Y41620020D01*
X41830399Y41620019D01*
X41712108Y41571021D01*
X41712107Y41571021D01*
X41605650Y41499889D01*
X41605643Y41499883D01*
X41515116Y41409356D01*
X41515110Y41409349D01*
X41443978Y41302892D01*
X41443978Y41302891D01*
X41394979Y41184598D01*
X41394977Y41184592D01*
X41382252Y41120620D01*
X41349866Y41058709D01*
X41289150Y41024135D01*
X41219381Y41027876D01*
X41162709Y41068743D01*
X41140862Y41112716D01*
X41126281Y41167135D01*
X41050515Y41298365D01*
X40943365Y41405515D01*
X40812135Y41481281D01*
X40665766Y41520500D01*
X40514234Y41520500D01*
X40367865Y41481281D01*
X40236635Y41405515D01*
X40129485Y41298365D01*
X40115739Y41274556D01*
X40053719Y41167136D01*
X40039139Y41112721D01*
X40014973Y41022529D01*
X40014500Y41020765D01*
X35385500Y41020765D01*
X35385500Y41020766D01*
X35346281Y41167135D01*
X35270515Y41298365D01*
X35163365Y41405515D01*
X35032135Y41481281D01*
X34885766Y41520500D01*
X34734234Y41520500D01*
X34587865Y41481281D01*
X34456635Y41405515D01*
X34349485Y41298365D01*
X34335739Y41274556D01*
X34273719Y41167136D01*
X34268965Y41149395D01*
X34259138Y41112717D01*
X34222774Y41053059D01*
X34159928Y41022529D01*
X34090552Y41030823D01*
X34036674Y41075308D01*
X34017747Y41120621D01*
X34005022Y41184590D01*
X34005020Y41184598D01*
X33956021Y41302891D01*
X33956021Y41302892D01*
X33884889Y41409349D01*
X33884883Y41409356D01*
X33794356Y41499883D01*
X33794349Y41499889D01*
X33687891Y41571021D01*
X33569600Y41620019D01*
X33569597Y41620020D01*
X33530000Y41627895D01*
X33530000Y41254808D01*
X33495796Y41274556D01*
X33419496Y41295000D01*
X33340504Y41295000D01*
X33264204Y41274556D01*
X33230000Y41254808D01*
X33230000Y41627896D01*
X33190402Y41620020D01*
X33190399Y41620019D01*
X33072108Y41571021D01*
X33072107Y41571021D01*
X32965650Y41499889D01*
X32965643Y41499883D01*
X32875116Y41409356D01*
X32875110Y41409349D01*
X32803978Y41302892D01*
X32803978Y41302891D01*
X32754979Y41184598D01*
X32754977Y41184590D01*
X32730000Y41059023D01*
X17345076Y41059023D01*
X17345076Y41200427D01*
X17305806Y41498708D01*
X17227939Y41789311D01*
X17112807Y42067264D01*
X16962380Y42327812D01*
X16779232Y42566495D01*
X16566495Y42779232D01*
X16327812Y42962380D01*
X16067264Y43112807D01*
X15789311Y43227939D01*
X15498708Y43305806D01*
X15200427Y43345076D01*
X14899573Y43345076D01*
X14899565Y43345075D01*
X14898608Y43344949D01*
X14601292Y43305806D01*
X14310689Y43227939D01*
X14152529Y43162426D01*
X14032747Y43112812D01*
X14032732Y43112805D01*
X13772188Y42962380D01*
X13533506Y42779233D01*
X13533499Y42779227D01*
X13320772Y42566500D01*
X13320766Y42566493D01*
X13137619Y42327811D01*
X12987194Y42067267D01*
X12987187Y42067252D01*
X12872061Y41789311D01*
X12794193Y41498705D01*
X12754924Y41200434D01*
X8337150Y41200434D01*
X8379930Y41231516D01*
X8452243Y41296628D01*
X8452246Y41296631D01*
X8637008Y41462992D01*
X8653476Y41481281D01*
X8868483Y41720069D01*
X9071832Y41999952D01*
X9071832Y41999953D01*
X9244798Y42299540D01*
X9244801Y42299547D01*
X9244802Y42299548D01*
X9385510Y42615584D01*
X9492413Y42944596D01*
X9564339Y43282980D01*
X9600500Y43627028D01*
X9600500Y43800000D01*
X9600500Y43847595D01*
X9600500Y45293907D01*
X9601097Y45306061D01*
X9602962Y45325000D01*
X9612744Y45424317D01*
X9617483Y45448145D01*
X9650202Y45556005D01*
X9659501Y45578453D01*
X9712630Y45677850D01*
X9726133Y45698059D01*
X9797630Y45785179D01*
X9814820Y45802369D01*
X9901940Y45873866D01*
X9922150Y45887370D01*
X10001292Y45929673D01*
X10021541Y45940496D01*
X10043997Y45949798D01*
X10151848Y45982514D01*
X10175688Y45987256D01*
X10243081Y45993893D01*
X10293939Y45998903D01*
X10306093Y45999500D01*
X10347595Y45999500D01*
X22611774Y45999500D01*
X22678813Y45979815D01*
G37*
%TD.AperFunction*%
%TD*%
M02*
