%TF.GenerationSoftware,KiCad,Pcbnew,9.0.1*%
%TF.CreationDate,2025-04-18T13:59:42+02:00*%
%TF.ProjectId,GPXconn_v2_rev3,47505863-6f6e-46e5-9f76-325f72657633,rev?*%
%TF.SameCoordinates,Original*%
%TF.FileFunction,Legend,Top*%
%TF.FilePolarity,Positive*%
%FSLAX46Y46*%
G04 Gerber Fmt 4.6, Leading zero omitted, Abs format (unit mm)*
G04 Created by KiCad (PCBNEW 9.0.1) date 2025-04-18 13:59:42*
%MOMM*%
%LPD*%
G01*
G04 APERTURE LIST*
%ADD10C,0.100000*%
%ADD11C,0.150000*%
%ADD12C,0.120000*%
%ADD13C,0.127000*%
%ADD14C,0.200000*%
%ADD15C,0.000100*%
%ADD16C,0.500000*%
%ADD17C,0.000000*%
G04 APERTURE END LIST*
D10*
X9900000Y38150000D02*
X12950000Y38150000D01*
X12950000Y45650000D02*
X9900000Y45650000D01*
X12950000Y38150000D02*
X12950000Y45650000D01*
X27500000Y29150000D02*
X27850000Y29500000D01*
X35500000Y29500000D02*
X32650000Y29500000D01*
X42400000Y11900000D02*
X42700000Y11600000D01*
X15300000Y38350000D02*
X15000000Y38650000D01*
X9900000Y45650000D02*
X9900000Y38150000D01*
X29650000Y18500000D02*
X29650000Y22750000D01*
X28900000Y13550000D02*
X28900000Y18050000D01*
X42650000Y11600000D02*
X42650000Y8600000D01*
X39100000Y4850000D02*
X36950000Y4850000D01*
X25900000Y18050000D02*
X25900000Y13550000D01*
X36950000Y9050000D02*
X36950000Y6600000D01*
X15000000Y38650000D02*
X12950000Y38650000D01*
X25900000Y13550000D02*
X28900000Y13550000D01*
X27850000Y29500000D02*
X32650000Y29500000D01*
X24500000Y28950000D02*
X24500000Y21450000D01*
X27500000Y21450000D02*
X27500000Y28950000D01*
X51750000Y11600000D02*
X42650000Y11600000D01*
X32600000Y22750000D02*
X32600000Y18500000D01*
X42400000Y11900000D02*
X42400000Y14900000D01*
X33400000Y11900000D02*
X42400000Y11900000D01*
X29650000Y22750000D02*
X32600000Y22750000D01*
X32650000Y36700000D02*
X35500000Y36700000D01*
X15600000Y28000000D02*
X18800000Y28000000D01*
X27500000Y28950000D02*
X24500000Y28950000D01*
X18850000Y45850000D02*
X15900000Y45850000D01*
X28900000Y18050000D02*
X29350000Y18500000D01*
X42650000Y8600000D02*
X51750000Y8600000D01*
X15889311Y43100000D02*
X15889311Y45850000D01*
X17850000Y43100000D02*
X18450000Y42500000D01*
X24500000Y21450000D02*
X27500000Y21450000D01*
X15300000Y35550000D02*
X15300000Y38350000D01*
X39100000Y6400000D02*
X39100000Y4850000D01*
X32650000Y29500000D02*
X32650000Y36700000D01*
X51750000Y8600000D02*
X51750000Y11600000D01*
X18800000Y35550000D02*
X18800000Y35600000D01*
X18450000Y42500000D02*
X18450000Y38600000D01*
X32600000Y18500000D02*
X29700000Y18500000D01*
X18800000Y28000000D02*
X18800000Y38600000D01*
X18850000Y43100000D02*
X15889311Y43100000D01*
X53150000Y36800000D02*
X53550000Y36400000D01*
X35500000Y36700000D02*
X35500000Y29500000D01*
X27500000Y29000000D02*
X27500000Y29150000D01*
X28900000Y18050000D02*
X25900000Y18050000D01*
X15600000Y35550000D02*
X18800000Y35550000D01*
X18800000Y38600000D02*
X15600000Y38600000D01*
X53150000Y37900000D02*
X53150000Y36800000D01*
X15600000Y38600000D02*
X15600000Y28000000D01*
X37300000Y9400000D02*
X36950000Y9050000D01*
X18850000Y45850000D02*
X18850000Y43100000D01*
X15600000Y35250000D02*
X15300000Y35550000D01*
X29350000Y18500000D02*
X29700000Y18500000D01*
X33400000Y14900000D02*
X33400000Y11900000D01*
X36950000Y6400000D02*
X39100000Y6400000D01*
X36950000Y4850000D02*
X36950000Y6600000D01*
X42400000Y14900000D02*
X33400000Y14900000D01*
D11*
X42059580Y8233333D02*
X42107200Y8185714D01*
X42107200Y8185714D02*
X42154819Y8042857D01*
X42154819Y8042857D02*
X42154819Y7947619D01*
X42154819Y7947619D02*
X42107200Y7804762D01*
X42107200Y7804762D02*
X42011961Y7709524D01*
X42011961Y7709524D02*
X41916723Y7661905D01*
X41916723Y7661905D02*
X41726247Y7614286D01*
X41726247Y7614286D02*
X41583390Y7614286D01*
X41583390Y7614286D02*
X41392914Y7661905D01*
X41392914Y7661905D02*
X41297676Y7709524D01*
X41297676Y7709524D02*
X41202438Y7804762D01*
X41202438Y7804762D02*
X41154819Y7947619D01*
X41154819Y7947619D02*
X41154819Y8042857D01*
X41154819Y8042857D02*
X41202438Y8185714D01*
X41202438Y8185714D02*
X41250057Y8233333D01*
X41154819Y8566667D02*
X41154819Y9185714D01*
X41154819Y9185714D02*
X41535771Y8852381D01*
X41535771Y8852381D02*
X41535771Y8995238D01*
X41535771Y8995238D02*
X41583390Y9090476D01*
X41583390Y9090476D02*
X41631009Y9138095D01*
X41631009Y9138095D02*
X41726247Y9185714D01*
X41726247Y9185714D02*
X41964342Y9185714D01*
X41964342Y9185714D02*
X42059580Y9138095D01*
X42059580Y9138095D02*
X42107200Y9090476D01*
X42107200Y9090476D02*
X42154819Y8995238D01*
X42154819Y8995238D02*
X42154819Y8709524D01*
X42154819Y8709524D02*
X42107200Y8614286D01*
X42107200Y8614286D02*
X42059580Y8566667D01*
X40033333Y5445180D02*
X39557143Y5445180D01*
X39557143Y5445180D02*
X39557143Y6445180D01*
X40890476Y5445180D02*
X40319048Y5445180D01*
X40604762Y5445180D02*
X40604762Y6445180D01*
X40604762Y6445180D02*
X40509524Y6302323D01*
X40509524Y6302323D02*
X40414286Y6207085D01*
X40414286Y6207085D02*
X40319048Y6159466D01*
X30270112Y19268990D02*
X29936779Y19268990D01*
X29936779Y18745180D02*
X29936779Y19745180D01*
X29936779Y19745180D02*
X30412969Y19745180D01*
X31317731Y18745180D02*
X30746303Y18745180D01*
X31032017Y18745180D02*
X31032017Y19745180D01*
X31032017Y19745180D02*
X30936779Y19602323D01*
X30936779Y19602323D02*
X30841541Y19507085D01*
X30841541Y19507085D02*
X30746303Y19459466D01*
X37238095Y6145180D02*
X37238095Y5335657D01*
X37238095Y5335657D02*
X37285714Y5240419D01*
X37285714Y5240419D02*
X37333333Y5192800D01*
X37333333Y5192800D02*
X37428571Y5145180D01*
X37428571Y5145180D02*
X37619047Y5145180D01*
X37619047Y5145180D02*
X37714285Y5192800D01*
X37714285Y5192800D02*
X37761904Y5240419D01*
X37761904Y5240419D02*
X37809523Y5335657D01*
X37809523Y5335657D02*
X37809523Y6145180D01*
X38238095Y6049942D02*
X38285714Y6097561D01*
X38285714Y6097561D02*
X38380952Y6145180D01*
X38380952Y6145180D02*
X38619047Y6145180D01*
X38619047Y6145180D02*
X38714285Y6097561D01*
X38714285Y6097561D02*
X38761904Y6049942D01*
X38761904Y6049942D02*
X38809523Y5954704D01*
X38809523Y5954704D02*
X38809523Y5859466D01*
X38809523Y5859466D02*
X38761904Y5716609D01*
X38761904Y5716609D02*
X38190476Y5145180D01*
X38190476Y5145180D02*
X38809523Y5145180D01*
X24638095Y21195180D02*
X24638095Y20385657D01*
X24638095Y20385657D02*
X24685714Y20290419D01*
X24685714Y20290419D02*
X24733333Y20242800D01*
X24733333Y20242800D02*
X24828571Y20195180D01*
X24828571Y20195180D02*
X25019047Y20195180D01*
X25019047Y20195180D02*
X25114285Y20242800D01*
X25114285Y20242800D02*
X25161904Y20290419D01*
X25161904Y20290419D02*
X25209523Y20385657D01*
X25209523Y20385657D02*
X25209523Y21195180D01*
X25590476Y21195180D02*
X26209523Y21195180D01*
X26209523Y21195180D02*
X25876190Y20814228D01*
X25876190Y20814228D02*
X26019047Y20814228D01*
X26019047Y20814228D02*
X26114285Y20766609D01*
X26114285Y20766609D02*
X26161904Y20718990D01*
X26161904Y20718990D02*
X26209523Y20623752D01*
X26209523Y20623752D02*
X26209523Y20385657D01*
X26209523Y20385657D02*
X26161904Y20290419D01*
X26161904Y20290419D02*
X26114285Y20242800D01*
X26114285Y20242800D02*
X26019047Y20195180D01*
X26019047Y20195180D02*
X25733333Y20195180D01*
X25733333Y20195180D02*
X25638095Y20242800D01*
X25638095Y20242800D02*
X25590476Y20290419D01*
X30508207Y20145180D02*
X30174874Y20621371D01*
X29936779Y20145180D02*
X29936779Y21145180D01*
X29936779Y21145180D02*
X30317731Y21145180D01*
X30317731Y21145180D02*
X30412969Y21097561D01*
X30412969Y21097561D02*
X30460588Y21049942D01*
X30460588Y21049942D02*
X30508207Y20954704D01*
X30508207Y20954704D02*
X30508207Y20811847D01*
X30508207Y20811847D02*
X30460588Y20716609D01*
X30460588Y20716609D02*
X30412969Y20668990D01*
X30412969Y20668990D02*
X30317731Y20621371D01*
X30317731Y20621371D02*
X29936779Y20621371D01*
X30889160Y21049942D02*
X30936779Y21097561D01*
X30936779Y21097561D02*
X31032017Y21145180D01*
X31032017Y21145180D02*
X31270112Y21145180D01*
X31270112Y21145180D02*
X31365350Y21097561D01*
X31365350Y21097561D02*
X31412969Y21049942D01*
X31412969Y21049942D02*
X31460588Y20954704D01*
X31460588Y20954704D02*
X31460588Y20859466D01*
X31460588Y20859466D02*
X31412969Y20716609D01*
X31412969Y20716609D02*
X30841541Y20145180D01*
X30841541Y20145180D02*
X31460588Y20145180D01*
X32079636Y21145180D02*
X32174874Y21145180D01*
X32174874Y21145180D02*
X32270112Y21097561D01*
X32270112Y21097561D02*
X32317731Y21049942D01*
X32317731Y21049942D02*
X32365350Y20954704D01*
X32365350Y20954704D02*
X32412969Y20764228D01*
X32412969Y20764228D02*
X32412969Y20526133D01*
X32412969Y20526133D02*
X32365350Y20335657D01*
X32365350Y20335657D02*
X32317731Y20240419D01*
X32317731Y20240419D02*
X32270112Y20192800D01*
X32270112Y20192800D02*
X32174874Y20145180D01*
X32174874Y20145180D02*
X32079636Y20145180D01*
X32079636Y20145180D02*
X31984398Y20192800D01*
X31984398Y20192800D02*
X31936779Y20240419D01*
X31936779Y20240419D02*
X31889160Y20335657D01*
X31889160Y20335657D02*
X31841541Y20526133D01*
X31841541Y20526133D02*
X31841541Y20764228D01*
X31841541Y20764228D02*
X31889160Y20954704D01*
X31889160Y20954704D02*
X31936779Y21049942D01*
X31936779Y21049942D02*
X31984398Y21097561D01*
X31984398Y21097561D02*
X32079636Y21145180D01*
X28759580Y19433333D02*
X28807200Y19385714D01*
X28807200Y19385714D02*
X28854819Y19242857D01*
X28854819Y19242857D02*
X28854819Y19147619D01*
X28854819Y19147619D02*
X28807200Y19004762D01*
X28807200Y19004762D02*
X28711961Y18909524D01*
X28711961Y18909524D02*
X28616723Y18861905D01*
X28616723Y18861905D02*
X28426247Y18814286D01*
X28426247Y18814286D02*
X28283390Y18814286D01*
X28283390Y18814286D02*
X28092914Y18861905D01*
X28092914Y18861905D02*
X27997676Y18909524D01*
X27997676Y18909524D02*
X27902438Y19004762D01*
X27902438Y19004762D02*
X27854819Y19147619D01*
X27854819Y19147619D02*
X27854819Y19242857D01*
X27854819Y19242857D02*
X27902438Y19385714D01*
X27902438Y19385714D02*
X27950057Y19433333D01*
X27854819Y20338095D02*
X27854819Y19861905D01*
X27854819Y19861905D02*
X28331009Y19814286D01*
X28331009Y19814286D02*
X28283390Y19861905D01*
X28283390Y19861905D02*
X28235771Y19957143D01*
X28235771Y19957143D02*
X28235771Y20195238D01*
X28235771Y20195238D02*
X28283390Y20290476D01*
X28283390Y20290476D02*
X28331009Y20338095D01*
X28331009Y20338095D02*
X28426247Y20385714D01*
X28426247Y20385714D02*
X28664342Y20385714D01*
X28664342Y20385714D02*
X28759580Y20338095D01*
X28759580Y20338095D02*
X28807200Y20290476D01*
X28807200Y20290476D02*
X28854819Y20195238D01*
X28854819Y20195238D02*
X28854819Y19957143D01*
X28854819Y19957143D02*
X28807200Y19861905D01*
X28807200Y19861905D02*
X28759580Y19814286D01*
X20333333Y21745180D02*
X20000000Y22221371D01*
X19761905Y21745180D02*
X19761905Y22745180D01*
X19761905Y22745180D02*
X20142857Y22745180D01*
X20142857Y22745180D02*
X20238095Y22697561D01*
X20238095Y22697561D02*
X20285714Y22649942D01*
X20285714Y22649942D02*
X20333333Y22554704D01*
X20333333Y22554704D02*
X20333333Y22411847D01*
X20333333Y22411847D02*
X20285714Y22316609D01*
X20285714Y22316609D02*
X20238095Y22268990D01*
X20238095Y22268990D02*
X20142857Y22221371D01*
X20142857Y22221371D02*
X19761905Y22221371D01*
X20666667Y22745180D02*
X21285714Y22745180D01*
X21285714Y22745180D02*
X20952381Y22364228D01*
X20952381Y22364228D02*
X21095238Y22364228D01*
X21095238Y22364228D02*
X21190476Y22316609D01*
X21190476Y22316609D02*
X21238095Y22268990D01*
X21238095Y22268990D02*
X21285714Y22173752D01*
X21285714Y22173752D02*
X21285714Y21935657D01*
X21285714Y21935657D02*
X21238095Y21840419D01*
X21238095Y21840419D02*
X21190476Y21792800D01*
X21190476Y21792800D02*
X21095238Y21745180D01*
X21095238Y21745180D02*
X20809524Y21745180D01*
X20809524Y21745180D02*
X20714286Y21792800D01*
X20714286Y21792800D02*
X20666667Y21840419D01*
X20057142Y5540419D02*
X20009523Y5492800D01*
X20009523Y5492800D02*
X19866666Y5445180D01*
X19866666Y5445180D02*
X19771428Y5445180D01*
X19771428Y5445180D02*
X19628571Y5492800D01*
X19628571Y5492800D02*
X19533333Y5588038D01*
X19533333Y5588038D02*
X19485714Y5683276D01*
X19485714Y5683276D02*
X19438095Y5873752D01*
X19438095Y5873752D02*
X19438095Y6016609D01*
X19438095Y6016609D02*
X19485714Y6207085D01*
X19485714Y6207085D02*
X19533333Y6302323D01*
X19533333Y6302323D02*
X19628571Y6397561D01*
X19628571Y6397561D02*
X19771428Y6445180D01*
X19771428Y6445180D02*
X19866666Y6445180D01*
X19866666Y6445180D02*
X20009523Y6397561D01*
X20009523Y6397561D02*
X20057142Y6349942D01*
X21009523Y5445180D02*
X20438095Y5445180D01*
X20723809Y5445180D02*
X20723809Y6445180D01*
X20723809Y6445180D02*
X20628571Y6302323D01*
X20628571Y6302323D02*
X20533333Y6207085D01*
X20533333Y6207085D02*
X20438095Y6159466D01*
X21390476Y6349942D02*
X21438095Y6397561D01*
X21438095Y6397561D02*
X21533333Y6445180D01*
X21533333Y6445180D02*
X21771428Y6445180D01*
X21771428Y6445180D02*
X21866666Y6397561D01*
X21866666Y6397561D02*
X21914285Y6349942D01*
X21914285Y6349942D02*
X21961904Y6254704D01*
X21961904Y6254704D02*
X21961904Y6159466D01*
X21961904Y6159466D02*
X21914285Y6016609D01*
X21914285Y6016609D02*
X21342857Y5445180D01*
X21342857Y5445180D02*
X21961904Y5445180D01*
X33508207Y32645180D02*
X33174874Y33121371D01*
X32936779Y32645180D02*
X32936779Y33645180D01*
X32936779Y33645180D02*
X33317731Y33645180D01*
X33317731Y33645180D02*
X33412969Y33597561D01*
X33412969Y33597561D02*
X33460588Y33549942D01*
X33460588Y33549942D02*
X33508207Y33454704D01*
X33508207Y33454704D02*
X33508207Y33311847D01*
X33508207Y33311847D02*
X33460588Y33216609D01*
X33460588Y33216609D02*
X33412969Y33168990D01*
X33412969Y33168990D02*
X33317731Y33121371D01*
X33317731Y33121371D02*
X32936779Y33121371D01*
X34365350Y33311847D02*
X34365350Y32645180D01*
X34127255Y33692800D02*
X33889160Y32978514D01*
X33889160Y32978514D02*
X34508207Y32978514D01*
X51454819Y9508207D02*
X50978628Y9174874D01*
X51454819Y8936779D02*
X50454819Y8936779D01*
X50454819Y8936779D02*
X50454819Y9317731D01*
X50454819Y9317731D02*
X50502438Y9412969D01*
X50502438Y9412969D02*
X50550057Y9460588D01*
X50550057Y9460588D02*
X50645295Y9508207D01*
X50645295Y9508207D02*
X50788152Y9508207D01*
X50788152Y9508207D02*
X50883390Y9460588D01*
X50883390Y9460588D02*
X50931009Y9412969D01*
X50931009Y9412969D02*
X50978628Y9317731D01*
X50978628Y9317731D02*
X50978628Y8936779D01*
X50454819Y9841541D02*
X50454819Y10508207D01*
X50454819Y10508207D02*
X51454819Y10079636D01*
X33270112Y35968990D02*
X32936779Y35968990D01*
X32936779Y35445180D02*
X32936779Y36445180D01*
X32936779Y36445180D02*
X33412969Y36445180D01*
X34127255Y35968990D02*
X34270112Y35921371D01*
X34270112Y35921371D02*
X34317731Y35873752D01*
X34317731Y35873752D02*
X34365350Y35778514D01*
X34365350Y35778514D02*
X34365350Y35635657D01*
X34365350Y35635657D02*
X34317731Y35540419D01*
X34317731Y35540419D02*
X34270112Y35492800D01*
X34270112Y35492800D02*
X34174874Y35445180D01*
X34174874Y35445180D02*
X33793922Y35445180D01*
X33793922Y35445180D02*
X33793922Y36445180D01*
X33793922Y36445180D02*
X34127255Y36445180D01*
X34127255Y36445180D02*
X34222493Y36397561D01*
X34222493Y36397561D02*
X34270112Y36349942D01*
X34270112Y36349942D02*
X34317731Y36254704D01*
X34317731Y36254704D02*
X34317731Y36159466D01*
X34317731Y36159466D02*
X34270112Y36064228D01*
X34270112Y36064228D02*
X34222493Y36016609D01*
X34222493Y36016609D02*
X34127255Y35968990D01*
X34127255Y35968990D02*
X33793922Y35968990D01*
X35317731Y35445180D02*
X34746303Y35445180D01*
X35032017Y35445180D02*
X35032017Y36445180D01*
X35032017Y36445180D02*
X34936779Y36302323D01*
X34936779Y36302323D02*
X34841541Y36207085D01*
X34841541Y36207085D02*
X34746303Y36159466D01*
X54833333Y38240419D02*
X54785714Y38192800D01*
X54785714Y38192800D02*
X54642857Y38145180D01*
X54642857Y38145180D02*
X54547619Y38145180D01*
X54547619Y38145180D02*
X54404762Y38192800D01*
X54404762Y38192800D02*
X54309524Y38288038D01*
X54309524Y38288038D02*
X54261905Y38383276D01*
X54261905Y38383276D02*
X54214286Y38573752D01*
X54214286Y38573752D02*
X54214286Y38716609D01*
X54214286Y38716609D02*
X54261905Y38907085D01*
X54261905Y38907085D02*
X54309524Y39002323D01*
X54309524Y39002323D02*
X54404762Y39097561D01*
X54404762Y39097561D02*
X54547619Y39145180D01*
X54547619Y39145180D02*
X54642857Y39145180D01*
X54642857Y39145180D02*
X54785714Y39097561D01*
X54785714Y39097561D02*
X54833333Y39049942D01*
X55404762Y38716609D02*
X55309524Y38764228D01*
X55309524Y38764228D02*
X55261905Y38811847D01*
X55261905Y38811847D02*
X55214286Y38907085D01*
X55214286Y38907085D02*
X55214286Y38954704D01*
X55214286Y38954704D02*
X55261905Y39049942D01*
X55261905Y39049942D02*
X55309524Y39097561D01*
X55309524Y39097561D02*
X55404762Y39145180D01*
X55404762Y39145180D02*
X55595238Y39145180D01*
X55595238Y39145180D02*
X55690476Y39097561D01*
X55690476Y39097561D02*
X55738095Y39049942D01*
X55738095Y39049942D02*
X55785714Y38954704D01*
X55785714Y38954704D02*
X55785714Y38907085D01*
X55785714Y38907085D02*
X55738095Y38811847D01*
X55738095Y38811847D02*
X55690476Y38764228D01*
X55690476Y38764228D02*
X55595238Y38716609D01*
X55595238Y38716609D02*
X55404762Y38716609D01*
X55404762Y38716609D02*
X55309524Y38668990D01*
X55309524Y38668990D02*
X55261905Y38621371D01*
X55261905Y38621371D02*
X55214286Y38526133D01*
X55214286Y38526133D02*
X55214286Y38335657D01*
X55214286Y38335657D02*
X55261905Y38240419D01*
X55261905Y38240419D02*
X55309524Y38192800D01*
X55309524Y38192800D02*
X55404762Y38145180D01*
X55404762Y38145180D02*
X55595238Y38145180D01*
X55595238Y38145180D02*
X55690476Y38192800D01*
X55690476Y38192800D02*
X55738095Y38240419D01*
X55738095Y38240419D02*
X55785714Y38335657D01*
X55785714Y38335657D02*
X55785714Y38526133D01*
X55785714Y38526133D02*
X55738095Y38621371D01*
X55738095Y38621371D02*
X55690476Y38668990D01*
X55690476Y38668990D02*
X55595238Y38716609D01*
X49854819Y9406077D02*
X49378628Y9072744D01*
X49854819Y8834649D02*
X48854819Y8834649D01*
X48854819Y8834649D02*
X48854819Y9215601D01*
X48854819Y9215601D02*
X48902438Y9310839D01*
X48902438Y9310839D02*
X48950057Y9358458D01*
X48950057Y9358458D02*
X49045295Y9406077D01*
X49045295Y9406077D02*
X49188152Y9406077D01*
X49188152Y9406077D02*
X49283390Y9358458D01*
X49283390Y9358458D02*
X49331009Y9310839D01*
X49331009Y9310839D02*
X49378628Y9215601D01*
X49378628Y9215601D02*
X49378628Y8834649D01*
X49854819Y10358458D02*
X49854819Y9787030D01*
X49854819Y10072744D02*
X48854819Y10072744D01*
X48854819Y10072744D02*
X48997676Y9977506D01*
X48997676Y9977506D02*
X49092914Y9882268D01*
X49092914Y9882268D02*
X49140533Y9787030D01*
X48854819Y10977506D02*
X48854819Y11072744D01*
X48854819Y11072744D02*
X48902438Y11167982D01*
X48902438Y11167982D02*
X48950057Y11215601D01*
X48950057Y11215601D02*
X49045295Y11263220D01*
X49045295Y11263220D02*
X49235771Y11310839D01*
X49235771Y11310839D02*
X49473866Y11310839D01*
X49473866Y11310839D02*
X49664342Y11263220D01*
X49664342Y11263220D02*
X49759580Y11215601D01*
X49759580Y11215601D02*
X49807200Y11167982D01*
X49807200Y11167982D02*
X49854819Y11072744D01*
X49854819Y11072744D02*
X49854819Y10977506D01*
X49854819Y10977506D02*
X49807200Y10882268D01*
X49807200Y10882268D02*
X49759580Y10834649D01*
X49759580Y10834649D02*
X49664342Y10787030D01*
X49664342Y10787030D02*
X49473866Y10739411D01*
X49473866Y10739411D02*
X49235771Y10739411D01*
X49235771Y10739411D02*
X49045295Y10787030D01*
X49045295Y10787030D02*
X48950057Y10834649D01*
X48950057Y10834649D02*
X48902438Y10882268D01*
X48902438Y10882268D02*
X48854819Y10977506D01*
X10758207Y42990419D02*
X10710588Y42942800D01*
X10710588Y42942800D02*
X10567731Y42895180D01*
X10567731Y42895180D02*
X10472493Y42895180D01*
X10472493Y42895180D02*
X10329636Y42942800D01*
X10329636Y42942800D02*
X10234398Y43038038D01*
X10234398Y43038038D02*
X10186779Y43133276D01*
X10186779Y43133276D02*
X10139160Y43323752D01*
X10139160Y43323752D02*
X10139160Y43466609D01*
X10139160Y43466609D02*
X10186779Y43657085D01*
X10186779Y43657085D02*
X10234398Y43752323D01*
X10234398Y43752323D02*
X10329636Y43847561D01*
X10329636Y43847561D02*
X10472493Y43895180D01*
X10472493Y43895180D02*
X10567731Y43895180D01*
X10567731Y43895180D02*
X10710588Y43847561D01*
X10710588Y43847561D02*
X10758207Y43799942D01*
X11710588Y42895180D02*
X11139160Y42895180D01*
X11424874Y42895180D02*
X11424874Y43895180D01*
X11424874Y43895180D02*
X11329636Y43752323D01*
X11329636Y43752323D02*
X11234398Y43657085D01*
X11234398Y43657085D02*
X11139160Y43609466D01*
X12329636Y43895180D02*
X12424874Y43895180D01*
X12424874Y43895180D02*
X12520112Y43847561D01*
X12520112Y43847561D02*
X12567731Y43799942D01*
X12567731Y43799942D02*
X12615350Y43704704D01*
X12615350Y43704704D02*
X12662969Y43514228D01*
X12662969Y43514228D02*
X12662969Y43276133D01*
X12662969Y43276133D02*
X12615350Y43085657D01*
X12615350Y43085657D02*
X12567731Y42990419D01*
X12567731Y42990419D02*
X12520112Y42942800D01*
X12520112Y42942800D02*
X12424874Y42895180D01*
X12424874Y42895180D02*
X12329636Y42895180D01*
X12329636Y42895180D02*
X12234398Y42942800D01*
X12234398Y42942800D02*
X12186779Y42990419D01*
X12186779Y42990419D02*
X12139160Y43085657D01*
X12139160Y43085657D02*
X12091541Y43276133D01*
X12091541Y43276133D02*
X12091541Y43514228D01*
X12091541Y43514228D02*
X12139160Y43704704D01*
X12139160Y43704704D02*
X12186779Y43799942D01*
X12186779Y43799942D02*
X12234398Y43847561D01*
X12234398Y43847561D02*
X12329636Y43895180D01*
X20254819Y15066666D02*
X20969104Y15066666D01*
X20969104Y15066666D02*
X21111961Y15019047D01*
X21111961Y15019047D02*
X21207200Y14923809D01*
X21207200Y14923809D02*
X21254819Y14780952D01*
X21254819Y14780952D02*
X21254819Y14685714D01*
X20254819Y15733333D02*
X20254819Y15828571D01*
X20254819Y15828571D02*
X20302438Y15923809D01*
X20302438Y15923809D02*
X20350057Y15971428D01*
X20350057Y15971428D02*
X20445295Y16019047D01*
X20445295Y16019047D02*
X20635771Y16066666D01*
X20635771Y16066666D02*
X20873866Y16066666D01*
X20873866Y16066666D02*
X21064342Y16019047D01*
X21064342Y16019047D02*
X21159580Y15971428D01*
X21159580Y15971428D02*
X21207200Y15923809D01*
X21207200Y15923809D02*
X21254819Y15828571D01*
X21254819Y15828571D02*
X21254819Y15733333D01*
X21254819Y15733333D02*
X21207200Y15638095D01*
X21207200Y15638095D02*
X21159580Y15590476D01*
X21159580Y15590476D02*
X21064342Y15542857D01*
X21064342Y15542857D02*
X20873866Y15495238D01*
X20873866Y15495238D02*
X20635771Y15495238D01*
X20635771Y15495238D02*
X20445295Y15542857D01*
X20445295Y15542857D02*
X20350057Y15590476D01*
X20350057Y15590476D02*
X20302438Y15638095D01*
X20302438Y15638095D02*
X20254819Y15733333D01*
X37308207Y15240419D02*
X37260588Y15192800D01*
X37260588Y15192800D02*
X37117731Y15145180D01*
X37117731Y15145180D02*
X37022493Y15145180D01*
X37022493Y15145180D02*
X36879636Y15192800D01*
X36879636Y15192800D02*
X36784398Y15288038D01*
X36784398Y15288038D02*
X36736779Y15383276D01*
X36736779Y15383276D02*
X36689160Y15573752D01*
X36689160Y15573752D02*
X36689160Y15716609D01*
X36689160Y15716609D02*
X36736779Y15907085D01*
X36736779Y15907085D02*
X36784398Y16002323D01*
X36784398Y16002323D02*
X36879636Y16097561D01*
X36879636Y16097561D02*
X37022493Y16145180D01*
X37022493Y16145180D02*
X37117731Y16145180D01*
X37117731Y16145180D02*
X37260588Y16097561D01*
X37260588Y16097561D02*
X37308207Y16049942D01*
X38260588Y15145180D02*
X37689160Y15145180D01*
X37974874Y15145180D02*
X37974874Y16145180D01*
X37974874Y16145180D02*
X37879636Y16002323D01*
X37879636Y16002323D02*
X37784398Y15907085D01*
X37784398Y15907085D02*
X37689160Y15859466D01*
X39212969Y15145180D02*
X38641541Y15145180D01*
X38927255Y15145180D02*
X38927255Y16145180D01*
X38927255Y16145180D02*
X38832017Y16002323D01*
X38832017Y16002323D02*
X38736779Y15907085D01*
X38736779Y15907085D02*
X38641541Y15859466D01*
X43954819Y9508207D02*
X43478628Y9174874D01*
X43954819Y8936779D02*
X42954819Y8936779D01*
X42954819Y8936779D02*
X42954819Y9317731D01*
X42954819Y9317731D02*
X43002438Y9412969D01*
X43002438Y9412969D02*
X43050057Y9460588D01*
X43050057Y9460588D02*
X43145295Y9508207D01*
X43145295Y9508207D02*
X43288152Y9508207D01*
X43288152Y9508207D02*
X43383390Y9460588D01*
X43383390Y9460588D02*
X43431009Y9412969D01*
X43431009Y9412969D02*
X43478628Y9317731D01*
X43478628Y9317731D02*
X43478628Y8936779D01*
X43954819Y9984398D02*
X43954819Y10174874D01*
X43954819Y10174874D02*
X43907200Y10270112D01*
X43907200Y10270112D02*
X43859580Y10317731D01*
X43859580Y10317731D02*
X43716723Y10412969D01*
X43716723Y10412969D02*
X43526247Y10460588D01*
X43526247Y10460588D02*
X43145295Y10460588D01*
X43145295Y10460588D02*
X43050057Y10412969D01*
X43050057Y10412969D02*
X43002438Y10365350D01*
X43002438Y10365350D02*
X42954819Y10270112D01*
X42954819Y10270112D02*
X42954819Y10079636D01*
X42954819Y10079636D02*
X43002438Y9984398D01*
X43002438Y9984398D02*
X43050057Y9936779D01*
X43050057Y9936779D02*
X43145295Y9889160D01*
X43145295Y9889160D02*
X43383390Y9889160D01*
X43383390Y9889160D02*
X43478628Y9936779D01*
X43478628Y9936779D02*
X43526247Y9984398D01*
X43526247Y9984398D02*
X43573866Y10079636D01*
X43573866Y10079636D02*
X43573866Y10270112D01*
X43573866Y10270112D02*
X43526247Y10365350D01*
X43526247Y10365350D02*
X43478628Y10412969D01*
X43478628Y10412969D02*
X43383390Y10460588D01*
X58008207Y38240419D02*
X57960588Y38192800D01*
X57960588Y38192800D02*
X57817731Y38145180D01*
X57817731Y38145180D02*
X57722493Y38145180D01*
X57722493Y38145180D02*
X57579636Y38192800D01*
X57579636Y38192800D02*
X57484398Y38288038D01*
X57484398Y38288038D02*
X57436779Y38383276D01*
X57436779Y38383276D02*
X57389160Y38573752D01*
X57389160Y38573752D02*
X57389160Y38716609D01*
X57389160Y38716609D02*
X57436779Y38907085D01*
X57436779Y38907085D02*
X57484398Y39002323D01*
X57484398Y39002323D02*
X57579636Y39097561D01*
X57579636Y39097561D02*
X57722493Y39145180D01*
X57722493Y39145180D02*
X57817731Y39145180D01*
X57817731Y39145180D02*
X57960588Y39097561D01*
X57960588Y39097561D02*
X58008207Y39049942D01*
X58341541Y39145180D02*
X59008207Y39145180D01*
X59008207Y39145180D02*
X58579636Y38145180D01*
X48454819Y9508207D02*
X47978628Y9174874D01*
X48454819Y8936779D02*
X47454819Y8936779D01*
X47454819Y8936779D02*
X47454819Y9317731D01*
X47454819Y9317731D02*
X47502438Y9412969D01*
X47502438Y9412969D02*
X47550057Y9460588D01*
X47550057Y9460588D02*
X47645295Y9508207D01*
X47645295Y9508207D02*
X47788152Y9508207D01*
X47788152Y9508207D02*
X47883390Y9460588D01*
X47883390Y9460588D02*
X47931009Y9412969D01*
X47931009Y9412969D02*
X47978628Y9317731D01*
X47978628Y9317731D02*
X47978628Y8936779D01*
X48454819Y10460588D02*
X48454819Y9889160D01*
X48454819Y10174874D02*
X47454819Y10174874D01*
X47454819Y10174874D02*
X47597676Y10079636D01*
X47597676Y10079636D02*
X47692914Y9984398D01*
X47692914Y9984398D02*
X47740533Y9889160D01*
X48454819Y11412969D02*
X48454819Y10841541D01*
X48454819Y11127255D02*
X47454819Y11127255D01*
X47454819Y11127255D02*
X47597676Y11032017D01*
X47597676Y11032017D02*
X47692914Y10936779D01*
X47692914Y10936779D02*
X47740533Y10841541D01*
X47654819Y35706077D02*
X47178628Y35372744D01*
X47654819Y35134649D02*
X46654819Y35134649D01*
X46654819Y35134649D02*
X46654819Y35515601D01*
X46654819Y35515601D02*
X46702438Y35610839D01*
X46702438Y35610839D02*
X46750057Y35658458D01*
X46750057Y35658458D02*
X46845295Y35706077D01*
X46845295Y35706077D02*
X46988152Y35706077D01*
X46988152Y35706077D02*
X47083390Y35658458D01*
X47083390Y35658458D02*
X47131009Y35610839D01*
X47131009Y35610839D02*
X47178628Y35515601D01*
X47178628Y35515601D02*
X47178628Y35134649D01*
X47654819Y36658458D02*
X47654819Y36087030D01*
X47654819Y36372744D02*
X46654819Y36372744D01*
X46654819Y36372744D02*
X46797676Y36277506D01*
X46797676Y36277506D02*
X46892914Y36182268D01*
X46892914Y36182268D02*
X46940533Y36087030D01*
X46750057Y37039411D02*
X46702438Y37087030D01*
X46702438Y37087030D02*
X46654819Y37182268D01*
X46654819Y37182268D02*
X46654819Y37420363D01*
X46654819Y37420363D02*
X46702438Y37515601D01*
X46702438Y37515601D02*
X46750057Y37563220D01*
X46750057Y37563220D02*
X46845295Y37610839D01*
X46845295Y37610839D02*
X46940533Y37610839D01*
X46940533Y37610839D02*
X47083390Y37563220D01*
X47083390Y37563220D02*
X47654819Y36991792D01*
X47654819Y36991792D02*
X47654819Y37610839D01*
X51557142Y38145180D02*
X51223809Y38621371D01*
X50985714Y38145180D02*
X50985714Y39145180D01*
X50985714Y39145180D02*
X51366666Y39145180D01*
X51366666Y39145180D02*
X51461904Y39097561D01*
X51461904Y39097561D02*
X51509523Y39049942D01*
X51509523Y39049942D02*
X51557142Y38954704D01*
X51557142Y38954704D02*
X51557142Y38811847D01*
X51557142Y38811847D02*
X51509523Y38716609D01*
X51509523Y38716609D02*
X51461904Y38668990D01*
X51461904Y38668990D02*
X51366666Y38621371D01*
X51366666Y38621371D02*
X50985714Y38621371D01*
X52509523Y38145180D02*
X51938095Y38145180D01*
X52223809Y38145180D02*
X52223809Y39145180D01*
X52223809Y39145180D02*
X52128571Y39002323D01*
X52128571Y39002323D02*
X52033333Y38907085D01*
X52033333Y38907085D02*
X51938095Y38859466D01*
X52985714Y38145180D02*
X53176190Y38145180D01*
X53176190Y38145180D02*
X53271428Y38192800D01*
X53271428Y38192800D02*
X53319047Y38240419D01*
X53319047Y38240419D02*
X53414285Y38383276D01*
X53414285Y38383276D02*
X53461904Y38573752D01*
X53461904Y38573752D02*
X53461904Y38954704D01*
X53461904Y38954704D02*
X53414285Y39049942D01*
X53414285Y39049942D02*
X53366666Y39097561D01*
X53366666Y39097561D02*
X53271428Y39145180D01*
X53271428Y39145180D02*
X53080952Y39145180D01*
X53080952Y39145180D02*
X52985714Y39097561D01*
X52985714Y39097561D02*
X52938095Y39049942D01*
X52938095Y39049942D02*
X52890476Y38954704D01*
X52890476Y38954704D02*
X52890476Y38716609D01*
X52890476Y38716609D02*
X52938095Y38621371D01*
X52938095Y38621371D02*
X52985714Y38573752D01*
X52985714Y38573752D02*
X53080952Y38526133D01*
X53080952Y38526133D02*
X53271428Y38526133D01*
X53271428Y38526133D02*
X53366666Y38573752D01*
X53366666Y38573752D02*
X53414285Y38621371D01*
X53414285Y38621371D02*
X53461904Y38716609D01*
X7311904Y28040419D02*
X7264285Y27992800D01*
X7264285Y27992800D02*
X7121428Y27945180D01*
X7121428Y27945180D02*
X7026190Y27945180D01*
X7026190Y27945180D02*
X6883333Y27992800D01*
X6883333Y27992800D02*
X6788095Y28088038D01*
X6788095Y28088038D02*
X6740476Y28183276D01*
X6740476Y28183276D02*
X6692857Y28373752D01*
X6692857Y28373752D02*
X6692857Y28516609D01*
X6692857Y28516609D02*
X6740476Y28707085D01*
X6740476Y28707085D02*
X6788095Y28802323D01*
X6788095Y28802323D02*
X6883333Y28897561D01*
X6883333Y28897561D02*
X7026190Y28945180D01*
X7026190Y28945180D02*
X7121428Y28945180D01*
X7121428Y28945180D02*
X7264285Y28897561D01*
X7264285Y28897561D02*
X7311904Y28849942D01*
X7930952Y28945180D02*
X8121428Y28945180D01*
X8121428Y28945180D02*
X8216666Y28897561D01*
X8216666Y28897561D02*
X8311904Y28802323D01*
X8311904Y28802323D02*
X8359523Y28611847D01*
X8359523Y28611847D02*
X8359523Y28278514D01*
X8359523Y28278514D02*
X8311904Y28088038D01*
X8311904Y28088038D02*
X8216666Y27992800D01*
X8216666Y27992800D02*
X8121428Y27945180D01*
X8121428Y27945180D02*
X7930952Y27945180D01*
X7930952Y27945180D02*
X7835714Y27992800D01*
X7835714Y27992800D02*
X7740476Y28088038D01*
X7740476Y28088038D02*
X7692857Y28278514D01*
X7692857Y28278514D02*
X7692857Y28611847D01*
X7692857Y28611847D02*
X7740476Y28802323D01*
X7740476Y28802323D02*
X7835714Y28897561D01*
X7835714Y28897561D02*
X7930952Y28945180D01*
X8788095Y27945180D02*
X8788095Y28945180D01*
X8788095Y28945180D02*
X9359523Y27945180D01*
X9359523Y27945180D02*
X9359523Y28945180D01*
X9835714Y27945180D02*
X9835714Y28945180D01*
X9835714Y28945180D02*
X10407142Y27945180D01*
X10407142Y27945180D02*
X10407142Y28945180D01*
X10835714Y28849942D02*
X10883333Y28897561D01*
X10883333Y28897561D02*
X10978571Y28945180D01*
X10978571Y28945180D02*
X11216666Y28945180D01*
X11216666Y28945180D02*
X11311904Y28897561D01*
X11311904Y28897561D02*
X11359523Y28849942D01*
X11359523Y28849942D02*
X11407142Y28754704D01*
X11407142Y28754704D02*
X11407142Y28659466D01*
X11407142Y28659466D02*
X11359523Y28516609D01*
X11359523Y28516609D02*
X10788095Y27945180D01*
X10788095Y27945180D02*
X11407142Y27945180D01*
X21054819Y17757142D02*
X20578628Y17423809D01*
X21054819Y17185714D02*
X20054819Y17185714D01*
X20054819Y17185714D02*
X20054819Y17566666D01*
X20054819Y17566666D02*
X20102438Y17661904D01*
X20102438Y17661904D02*
X20150057Y17709523D01*
X20150057Y17709523D02*
X20245295Y17757142D01*
X20245295Y17757142D02*
X20388152Y17757142D01*
X20388152Y17757142D02*
X20483390Y17709523D01*
X20483390Y17709523D02*
X20531009Y17661904D01*
X20531009Y17661904D02*
X20578628Y17566666D01*
X20578628Y17566666D02*
X20578628Y17185714D01*
X21007200Y18138095D02*
X21054819Y18280952D01*
X21054819Y18280952D02*
X21054819Y18519047D01*
X21054819Y18519047D02*
X21007200Y18614285D01*
X21007200Y18614285D02*
X20959580Y18661904D01*
X20959580Y18661904D02*
X20864342Y18709523D01*
X20864342Y18709523D02*
X20769104Y18709523D01*
X20769104Y18709523D02*
X20673866Y18661904D01*
X20673866Y18661904D02*
X20626247Y18614285D01*
X20626247Y18614285D02*
X20578628Y18519047D01*
X20578628Y18519047D02*
X20531009Y18328571D01*
X20531009Y18328571D02*
X20483390Y18233333D01*
X20483390Y18233333D02*
X20435771Y18185714D01*
X20435771Y18185714D02*
X20340533Y18138095D01*
X20340533Y18138095D02*
X20245295Y18138095D01*
X20245295Y18138095D02*
X20150057Y18185714D01*
X20150057Y18185714D02*
X20102438Y18233333D01*
X20102438Y18233333D02*
X20054819Y18328571D01*
X20054819Y18328571D02*
X20054819Y18566666D01*
X20054819Y18566666D02*
X20102438Y18709523D01*
X20054819Y19328571D02*
X20054819Y19423809D01*
X20054819Y19423809D02*
X20102438Y19519047D01*
X20102438Y19519047D02*
X20150057Y19566666D01*
X20150057Y19566666D02*
X20245295Y19614285D01*
X20245295Y19614285D02*
X20435771Y19661904D01*
X20435771Y19661904D02*
X20673866Y19661904D01*
X20673866Y19661904D02*
X20864342Y19614285D01*
X20864342Y19614285D02*
X20959580Y19566666D01*
X20959580Y19566666D02*
X21007200Y19519047D01*
X21007200Y19519047D02*
X21054819Y19423809D01*
X21054819Y19423809D02*
X21054819Y19328571D01*
X21054819Y19328571D02*
X21007200Y19233333D01*
X21007200Y19233333D02*
X20959580Y19185714D01*
X20959580Y19185714D02*
X20864342Y19138095D01*
X20864342Y19138095D02*
X20673866Y19090476D01*
X20673866Y19090476D02*
X20435771Y19090476D01*
X20435771Y19090476D02*
X20245295Y19138095D01*
X20245295Y19138095D02*
X20150057Y19185714D01*
X20150057Y19185714D02*
X20102438Y19233333D01*
X20102438Y19233333D02*
X20054819Y19328571D01*
X16708207Y43345180D02*
X16374874Y43821371D01*
X16136779Y43345180D02*
X16136779Y44345180D01*
X16136779Y44345180D02*
X16517731Y44345180D01*
X16517731Y44345180D02*
X16612969Y44297561D01*
X16612969Y44297561D02*
X16660588Y44249942D01*
X16660588Y44249942D02*
X16708207Y44154704D01*
X16708207Y44154704D02*
X16708207Y44011847D01*
X16708207Y44011847D02*
X16660588Y43916609D01*
X16660588Y43916609D02*
X16612969Y43868990D01*
X16612969Y43868990D02*
X16517731Y43821371D01*
X16517731Y43821371D02*
X16136779Y43821371D01*
X17089160Y44249942D02*
X17136779Y44297561D01*
X17136779Y44297561D02*
X17232017Y44345180D01*
X17232017Y44345180D02*
X17470112Y44345180D01*
X17470112Y44345180D02*
X17565350Y44297561D01*
X17565350Y44297561D02*
X17612969Y44249942D01*
X17612969Y44249942D02*
X17660588Y44154704D01*
X17660588Y44154704D02*
X17660588Y44059466D01*
X17660588Y44059466D02*
X17612969Y43916609D01*
X17612969Y43916609D02*
X17041541Y43345180D01*
X17041541Y43345180D02*
X17660588Y43345180D01*
X18565350Y44345180D02*
X18089160Y44345180D01*
X18089160Y44345180D02*
X18041541Y43868990D01*
X18041541Y43868990D02*
X18089160Y43916609D01*
X18089160Y43916609D02*
X18184398Y43964228D01*
X18184398Y43964228D02*
X18422493Y43964228D01*
X18422493Y43964228D02*
X18517731Y43916609D01*
X18517731Y43916609D02*
X18565350Y43868990D01*
X18565350Y43868990D02*
X18612969Y43773752D01*
X18612969Y43773752D02*
X18612969Y43535657D01*
X18612969Y43535657D02*
X18565350Y43440419D01*
X18565350Y43440419D02*
X18517731Y43392800D01*
X18517731Y43392800D02*
X18422493Y43345180D01*
X18422493Y43345180D02*
X18184398Y43345180D01*
X18184398Y43345180D02*
X18089160Y43392800D01*
X18089160Y43392800D02*
X18041541Y43440419D01*
X10758207Y38395180D02*
X10424874Y38871371D01*
X10186779Y38395180D02*
X10186779Y39395180D01*
X10186779Y39395180D02*
X10567731Y39395180D01*
X10567731Y39395180D02*
X10662969Y39347561D01*
X10662969Y39347561D02*
X10710588Y39299942D01*
X10710588Y39299942D02*
X10758207Y39204704D01*
X10758207Y39204704D02*
X10758207Y39061847D01*
X10758207Y39061847D02*
X10710588Y38966609D01*
X10710588Y38966609D02*
X10662969Y38918990D01*
X10662969Y38918990D02*
X10567731Y38871371D01*
X10567731Y38871371D02*
X10186779Y38871371D01*
X11710588Y38395180D02*
X11139160Y38395180D01*
X11424874Y38395180D02*
X11424874Y39395180D01*
X11424874Y39395180D02*
X11329636Y39252323D01*
X11329636Y39252323D02*
X11234398Y39157085D01*
X11234398Y39157085D02*
X11139160Y39109466D01*
X12615350Y39395180D02*
X12139160Y39395180D01*
X12139160Y39395180D02*
X12091541Y38918990D01*
X12091541Y38918990D02*
X12139160Y38966609D01*
X12139160Y38966609D02*
X12234398Y39014228D01*
X12234398Y39014228D02*
X12472493Y39014228D01*
X12472493Y39014228D02*
X12567731Y38966609D01*
X12567731Y38966609D02*
X12615350Y38918990D01*
X12615350Y38918990D02*
X12662969Y38823752D01*
X12662969Y38823752D02*
X12662969Y38585657D01*
X12662969Y38585657D02*
X12615350Y38490419D01*
X12615350Y38490419D02*
X12567731Y38442800D01*
X12567731Y38442800D02*
X12472493Y38395180D01*
X12472493Y38395180D02*
X12234398Y38395180D01*
X12234398Y38395180D02*
X12139160Y38442800D01*
X12139160Y38442800D02*
X12091541Y38490419D01*
X33508207Y29745180D02*
X33174874Y30221371D01*
X32936779Y29745180D02*
X32936779Y30745180D01*
X32936779Y30745180D02*
X33317731Y30745180D01*
X33317731Y30745180D02*
X33412969Y30697561D01*
X33412969Y30697561D02*
X33460588Y30649942D01*
X33460588Y30649942D02*
X33508207Y30554704D01*
X33508207Y30554704D02*
X33508207Y30411847D01*
X33508207Y30411847D02*
X33460588Y30316609D01*
X33460588Y30316609D02*
X33412969Y30268990D01*
X33412969Y30268990D02*
X33317731Y30221371D01*
X33317731Y30221371D02*
X32936779Y30221371D01*
X34412969Y30745180D02*
X33936779Y30745180D01*
X33936779Y30745180D02*
X33889160Y30268990D01*
X33889160Y30268990D02*
X33936779Y30316609D01*
X33936779Y30316609D02*
X34032017Y30364228D01*
X34032017Y30364228D02*
X34270112Y30364228D01*
X34270112Y30364228D02*
X34365350Y30316609D01*
X34365350Y30316609D02*
X34412969Y30268990D01*
X34412969Y30268990D02*
X34460588Y30173752D01*
X34460588Y30173752D02*
X34460588Y29935657D01*
X34460588Y29935657D02*
X34412969Y29840419D01*
X34412969Y29840419D02*
X34365350Y29792800D01*
X34365350Y29792800D02*
X34270112Y29745180D01*
X34270112Y29745180D02*
X34032017Y29745180D01*
X34032017Y29745180D02*
X33936779Y29792800D01*
X33936779Y29792800D02*
X33889160Y29840419D01*
X10758207Y41490419D02*
X10710588Y41442800D01*
X10710588Y41442800D02*
X10567731Y41395180D01*
X10567731Y41395180D02*
X10472493Y41395180D01*
X10472493Y41395180D02*
X10329636Y41442800D01*
X10329636Y41442800D02*
X10234398Y41538038D01*
X10234398Y41538038D02*
X10186779Y41633276D01*
X10186779Y41633276D02*
X10139160Y41823752D01*
X10139160Y41823752D02*
X10139160Y41966609D01*
X10139160Y41966609D02*
X10186779Y42157085D01*
X10186779Y42157085D02*
X10234398Y42252323D01*
X10234398Y42252323D02*
X10329636Y42347561D01*
X10329636Y42347561D02*
X10472493Y42395180D01*
X10472493Y42395180D02*
X10567731Y42395180D01*
X10567731Y42395180D02*
X10710588Y42347561D01*
X10710588Y42347561D02*
X10758207Y42299942D01*
X11234398Y41395180D02*
X11424874Y41395180D01*
X11424874Y41395180D02*
X11520112Y41442800D01*
X11520112Y41442800D02*
X11567731Y41490419D01*
X11567731Y41490419D02*
X11662969Y41633276D01*
X11662969Y41633276D02*
X11710588Y41823752D01*
X11710588Y41823752D02*
X11710588Y42204704D01*
X11710588Y42204704D02*
X11662969Y42299942D01*
X11662969Y42299942D02*
X11615350Y42347561D01*
X11615350Y42347561D02*
X11520112Y42395180D01*
X11520112Y42395180D02*
X11329636Y42395180D01*
X11329636Y42395180D02*
X11234398Y42347561D01*
X11234398Y42347561D02*
X11186779Y42299942D01*
X11186779Y42299942D02*
X11139160Y42204704D01*
X11139160Y42204704D02*
X11139160Y41966609D01*
X11139160Y41966609D02*
X11186779Y41871371D01*
X11186779Y41871371D02*
X11234398Y41823752D01*
X11234398Y41823752D02*
X11329636Y41776133D01*
X11329636Y41776133D02*
X11520112Y41776133D01*
X11520112Y41776133D02*
X11615350Y41823752D01*
X11615350Y41823752D02*
X11662969Y41871371D01*
X11662969Y41871371D02*
X11710588Y41966609D01*
X16708207Y44645180D02*
X16374874Y45121371D01*
X16136779Y44645180D02*
X16136779Y45645180D01*
X16136779Y45645180D02*
X16517731Y45645180D01*
X16517731Y45645180D02*
X16612969Y45597561D01*
X16612969Y45597561D02*
X16660588Y45549942D01*
X16660588Y45549942D02*
X16708207Y45454704D01*
X16708207Y45454704D02*
X16708207Y45311847D01*
X16708207Y45311847D02*
X16660588Y45216609D01*
X16660588Y45216609D02*
X16612969Y45168990D01*
X16612969Y45168990D02*
X16517731Y45121371D01*
X16517731Y45121371D02*
X16136779Y45121371D01*
X17089160Y45549942D02*
X17136779Y45597561D01*
X17136779Y45597561D02*
X17232017Y45645180D01*
X17232017Y45645180D02*
X17470112Y45645180D01*
X17470112Y45645180D02*
X17565350Y45597561D01*
X17565350Y45597561D02*
X17612969Y45549942D01*
X17612969Y45549942D02*
X17660588Y45454704D01*
X17660588Y45454704D02*
X17660588Y45359466D01*
X17660588Y45359466D02*
X17612969Y45216609D01*
X17612969Y45216609D02*
X17041541Y44645180D01*
X17041541Y44645180D02*
X17660588Y44645180D01*
X18517731Y45311847D02*
X18517731Y44645180D01*
X18279636Y45692800D02*
X18041541Y44978514D01*
X18041541Y44978514D02*
X18660588Y44978514D01*
X33508207Y34045180D02*
X33174874Y34521371D01*
X32936779Y34045180D02*
X32936779Y35045180D01*
X32936779Y35045180D02*
X33317731Y35045180D01*
X33317731Y35045180D02*
X33412969Y34997561D01*
X33412969Y34997561D02*
X33460588Y34949942D01*
X33460588Y34949942D02*
X33508207Y34854704D01*
X33508207Y34854704D02*
X33508207Y34711847D01*
X33508207Y34711847D02*
X33460588Y34616609D01*
X33460588Y34616609D02*
X33412969Y34568990D01*
X33412969Y34568990D02*
X33317731Y34521371D01*
X33317731Y34521371D02*
X32936779Y34521371D01*
X34365350Y35045180D02*
X34174874Y35045180D01*
X34174874Y35045180D02*
X34079636Y34997561D01*
X34079636Y34997561D02*
X34032017Y34949942D01*
X34032017Y34949942D02*
X33936779Y34807085D01*
X33936779Y34807085D02*
X33889160Y34616609D01*
X33889160Y34616609D02*
X33889160Y34235657D01*
X33889160Y34235657D02*
X33936779Y34140419D01*
X33936779Y34140419D02*
X33984398Y34092800D01*
X33984398Y34092800D02*
X34079636Y34045180D01*
X34079636Y34045180D02*
X34270112Y34045180D01*
X34270112Y34045180D02*
X34365350Y34092800D01*
X34365350Y34092800D02*
X34412969Y34140419D01*
X34412969Y34140419D02*
X34460588Y34235657D01*
X34460588Y34235657D02*
X34460588Y34473752D01*
X34460588Y34473752D02*
X34412969Y34568990D01*
X34412969Y34568990D02*
X34365350Y34616609D01*
X34365350Y34616609D02*
X34270112Y34664228D01*
X34270112Y34664228D02*
X34079636Y34664228D01*
X34079636Y34664228D02*
X33984398Y34616609D01*
X33984398Y34616609D02*
X33936779Y34568990D01*
X33936779Y34568990D02*
X33889160Y34473752D01*
X58008207Y39640419D02*
X57960588Y39592800D01*
X57960588Y39592800D02*
X57817731Y39545180D01*
X57817731Y39545180D02*
X57722493Y39545180D01*
X57722493Y39545180D02*
X57579636Y39592800D01*
X57579636Y39592800D02*
X57484398Y39688038D01*
X57484398Y39688038D02*
X57436779Y39783276D01*
X57436779Y39783276D02*
X57389160Y39973752D01*
X57389160Y39973752D02*
X57389160Y40116609D01*
X57389160Y40116609D02*
X57436779Y40307085D01*
X57436779Y40307085D02*
X57484398Y40402323D01*
X57484398Y40402323D02*
X57579636Y40497561D01*
X57579636Y40497561D02*
X57722493Y40545180D01*
X57722493Y40545180D02*
X57817731Y40545180D01*
X57817731Y40545180D02*
X57960588Y40497561D01*
X57960588Y40497561D02*
X58008207Y40449942D01*
X58865350Y40545180D02*
X58674874Y40545180D01*
X58674874Y40545180D02*
X58579636Y40497561D01*
X58579636Y40497561D02*
X58532017Y40449942D01*
X58532017Y40449942D02*
X58436779Y40307085D01*
X58436779Y40307085D02*
X58389160Y40116609D01*
X58389160Y40116609D02*
X58389160Y39735657D01*
X58389160Y39735657D02*
X58436779Y39640419D01*
X58436779Y39640419D02*
X58484398Y39592800D01*
X58484398Y39592800D02*
X58579636Y39545180D01*
X58579636Y39545180D02*
X58770112Y39545180D01*
X58770112Y39545180D02*
X58865350Y39592800D01*
X58865350Y39592800D02*
X58912969Y39640419D01*
X58912969Y39640419D02*
X58960588Y39735657D01*
X58960588Y39735657D02*
X58960588Y39973752D01*
X58960588Y39973752D02*
X58912969Y40068990D01*
X58912969Y40068990D02*
X58865350Y40116609D01*
X58865350Y40116609D02*
X58770112Y40164228D01*
X58770112Y40164228D02*
X58579636Y40164228D01*
X58579636Y40164228D02*
X58484398Y40116609D01*
X58484398Y40116609D02*
X58436779Y40068990D01*
X58436779Y40068990D02*
X58389160Y39973752D01*
X37308207Y19945180D02*
X36974874Y20421371D01*
X36736779Y19945180D02*
X36736779Y20945180D01*
X36736779Y20945180D02*
X37117731Y20945180D01*
X37117731Y20945180D02*
X37212969Y20897561D01*
X37212969Y20897561D02*
X37260588Y20849942D01*
X37260588Y20849942D02*
X37308207Y20754704D01*
X37308207Y20754704D02*
X37308207Y20611847D01*
X37308207Y20611847D02*
X37260588Y20516609D01*
X37260588Y20516609D02*
X37212969Y20468990D01*
X37212969Y20468990D02*
X37117731Y20421371D01*
X37117731Y20421371D02*
X36736779Y20421371D01*
X37689160Y20849942D02*
X37736779Y20897561D01*
X37736779Y20897561D02*
X37832017Y20945180D01*
X37832017Y20945180D02*
X38070112Y20945180D01*
X38070112Y20945180D02*
X38165350Y20897561D01*
X38165350Y20897561D02*
X38212969Y20849942D01*
X38212969Y20849942D02*
X38260588Y20754704D01*
X38260588Y20754704D02*
X38260588Y20659466D01*
X38260588Y20659466D02*
X38212969Y20516609D01*
X38212969Y20516609D02*
X37641541Y19945180D01*
X37641541Y19945180D02*
X38260588Y19945180D01*
X38593922Y20945180D02*
X39260588Y20945180D01*
X39260588Y20945180D02*
X38832017Y19945180D01*
X31136779Y27945180D02*
X31136779Y28945180D01*
X31136779Y28945180D02*
X31374874Y28945180D01*
X31374874Y28945180D02*
X31517731Y28897561D01*
X31517731Y28897561D02*
X31612969Y28802323D01*
X31612969Y28802323D02*
X31660588Y28707085D01*
X31660588Y28707085D02*
X31708207Y28516609D01*
X31708207Y28516609D02*
X31708207Y28373752D01*
X31708207Y28373752D02*
X31660588Y28183276D01*
X31660588Y28183276D02*
X31612969Y28088038D01*
X31612969Y28088038D02*
X31517731Y27992800D01*
X31517731Y27992800D02*
X31374874Y27945180D01*
X31374874Y27945180D02*
X31136779Y27945180D01*
X32660588Y27945180D02*
X32089160Y27945180D01*
X32374874Y27945180D02*
X32374874Y28945180D01*
X32374874Y28945180D02*
X32279636Y28802323D01*
X32279636Y28802323D02*
X32184398Y28707085D01*
X32184398Y28707085D02*
X32089160Y28659466D01*
X10808207Y44395180D02*
X10474874Y44871371D01*
X10236779Y44395180D02*
X10236779Y45395180D01*
X10236779Y45395180D02*
X10617731Y45395180D01*
X10617731Y45395180D02*
X10712969Y45347561D01*
X10712969Y45347561D02*
X10760588Y45299942D01*
X10760588Y45299942D02*
X10808207Y45204704D01*
X10808207Y45204704D02*
X10808207Y45061847D01*
X10808207Y45061847D02*
X10760588Y44966609D01*
X10760588Y44966609D02*
X10712969Y44918990D01*
X10712969Y44918990D02*
X10617731Y44871371D01*
X10617731Y44871371D02*
X10236779Y44871371D01*
X11760588Y44395180D02*
X11189160Y44395180D01*
X11474874Y44395180D02*
X11474874Y45395180D01*
X11474874Y45395180D02*
X11379636Y45252323D01*
X11379636Y45252323D02*
X11284398Y45157085D01*
X11284398Y45157085D02*
X11189160Y45109466D01*
X12093922Y45395180D02*
X12760588Y45395180D01*
X12760588Y45395180D02*
X12332017Y44395180D01*
X37308207Y16645180D02*
X36974874Y17121371D01*
X36736779Y16645180D02*
X36736779Y17645180D01*
X36736779Y17645180D02*
X37117731Y17645180D01*
X37117731Y17645180D02*
X37212969Y17597561D01*
X37212969Y17597561D02*
X37260588Y17549942D01*
X37260588Y17549942D02*
X37308207Y17454704D01*
X37308207Y17454704D02*
X37308207Y17311847D01*
X37308207Y17311847D02*
X37260588Y17216609D01*
X37260588Y17216609D02*
X37212969Y17168990D01*
X37212969Y17168990D02*
X37117731Y17121371D01*
X37117731Y17121371D02*
X36736779Y17121371D01*
X38260588Y16645180D02*
X37689160Y16645180D01*
X37974874Y16645180D02*
X37974874Y17645180D01*
X37974874Y17645180D02*
X37879636Y17502323D01*
X37879636Y17502323D02*
X37784398Y17407085D01*
X37784398Y17407085D02*
X37689160Y17359466D01*
X38832017Y17216609D02*
X38736779Y17264228D01*
X38736779Y17264228D02*
X38689160Y17311847D01*
X38689160Y17311847D02*
X38641541Y17407085D01*
X38641541Y17407085D02*
X38641541Y17454704D01*
X38641541Y17454704D02*
X38689160Y17549942D01*
X38689160Y17549942D02*
X38736779Y17597561D01*
X38736779Y17597561D02*
X38832017Y17645180D01*
X38832017Y17645180D02*
X39022493Y17645180D01*
X39022493Y17645180D02*
X39117731Y17597561D01*
X39117731Y17597561D02*
X39165350Y17549942D01*
X39165350Y17549942D02*
X39212969Y17454704D01*
X39212969Y17454704D02*
X39212969Y17407085D01*
X39212969Y17407085D02*
X39165350Y17311847D01*
X39165350Y17311847D02*
X39117731Y17264228D01*
X39117731Y17264228D02*
X39022493Y17216609D01*
X39022493Y17216609D02*
X38832017Y17216609D01*
X38832017Y17216609D02*
X38736779Y17168990D01*
X38736779Y17168990D02*
X38689160Y17121371D01*
X38689160Y17121371D02*
X38641541Y17026133D01*
X38641541Y17026133D02*
X38641541Y16835657D01*
X38641541Y16835657D02*
X38689160Y16740419D01*
X38689160Y16740419D02*
X38736779Y16692800D01*
X38736779Y16692800D02*
X38832017Y16645180D01*
X38832017Y16645180D02*
X39022493Y16645180D01*
X39022493Y16645180D02*
X39117731Y16692800D01*
X39117731Y16692800D02*
X39165350Y16740419D01*
X39165350Y16740419D02*
X39212969Y16835657D01*
X39212969Y16835657D02*
X39212969Y17026133D01*
X39212969Y17026133D02*
X39165350Y17121371D01*
X39165350Y17121371D02*
X39117731Y17168990D01*
X39117731Y17168990D02*
X39022493Y17216609D01*
X41754819Y35706077D02*
X41278628Y35372744D01*
X41754819Y35134649D02*
X40754819Y35134649D01*
X40754819Y35134649D02*
X40754819Y35515601D01*
X40754819Y35515601D02*
X40802438Y35610839D01*
X40802438Y35610839D02*
X40850057Y35658458D01*
X40850057Y35658458D02*
X40945295Y35706077D01*
X40945295Y35706077D02*
X41088152Y35706077D01*
X41088152Y35706077D02*
X41183390Y35658458D01*
X41183390Y35658458D02*
X41231009Y35610839D01*
X41231009Y35610839D02*
X41278628Y35515601D01*
X41278628Y35515601D02*
X41278628Y35134649D01*
X41754819Y36658458D02*
X41754819Y36087030D01*
X41754819Y36372744D02*
X40754819Y36372744D01*
X40754819Y36372744D02*
X40897676Y36277506D01*
X40897676Y36277506D02*
X40992914Y36182268D01*
X40992914Y36182268D02*
X41040533Y36087030D01*
X41088152Y37515601D02*
X41754819Y37515601D01*
X40707200Y37277506D02*
X41421485Y37039411D01*
X41421485Y37039411D02*
X41421485Y37658458D01*
X20333333Y20245180D02*
X20000000Y20721371D01*
X19761905Y20245180D02*
X19761905Y21245180D01*
X19761905Y21245180D02*
X20142857Y21245180D01*
X20142857Y21245180D02*
X20238095Y21197561D01*
X20238095Y21197561D02*
X20285714Y21149942D01*
X20285714Y21149942D02*
X20333333Y21054704D01*
X20333333Y21054704D02*
X20333333Y20911847D01*
X20333333Y20911847D02*
X20285714Y20816609D01*
X20285714Y20816609D02*
X20238095Y20768990D01*
X20238095Y20768990D02*
X20142857Y20721371D01*
X20142857Y20721371D02*
X19761905Y20721371D01*
X21285714Y20245180D02*
X20714286Y20245180D01*
X21000000Y20245180D02*
X21000000Y21245180D01*
X21000000Y21245180D02*
X20904762Y21102323D01*
X20904762Y21102323D02*
X20809524Y21007085D01*
X20809524Y21007085D02*
X20714286Y20959466D01*
X31603445Y23649942D02*
X31508207Y23697561D01*
X31508207Y23697561D02*
X31412969Y23792800D01*
X31412969Y23792800D02*
X31270112Y23935657D01*
X31270112Y23935657D02*
X31174874Y23983276D01*
X31174874Y23983276D02*
X31079636Y23983276D01*
X31127255Y23745180D02*
X31032017Y23792800D01*
X31032017Y23792800D02*
X30936779Y23888038D01*
X30936779Y23888038D02*
X30889160Y24078514D01*
X30889160Y24078514D02*
X30889160Y24411847D01*
X30889160Y24411847D02*
X30936779Y24602323D01*
X30936779Y24602323D02*
X31032017Y24697561D01*
X31032017Y24697561D02*
X31127255Y24745180D01*
X31127255Y24745180D02*
X31317731Y24745180D01*
X31317731Y24745180D02*
X31412969Y24697561D01*
X31412969Y24697561D02*
X31508207Y24602323D01*
X31508207Y24602323D02*
X31555826Y24411847D01*
X31555826Y24411847D02*
X31555826Y24078514D01*
X31555826Y24078514D02*
X31508207Y23888038D01*
X31508207Y23888038D02*
X31412969Y23792800D01*
X31412969Y23792800D02*
X31317731Y23745180D01*
X31317731Y23745180D02*
X31127255Y23745180D01*
X31889160Y24745180D02*
X32508207Y24745180D01*
X32508207Y24745180D02*
X32174874Y24364228D01*
X32174874Y24364228D02*
X32317731Y24364228D01*
X32317731Y24364228D02*
X32412969Y24316609D01*
X32412969Y24316609D02*
X32460588Y24268990D01*
X32460588Y24268990D02*
X32508207Y24173752D01*
X32508207Y24173752D02*
X32508207Y23935657D01*
X32508207Y23935657D02*
X32460588Y23840419D01*
X32460588Y23840419D02*
X32412969Y23792800D01*
X32412969Y23792800D02*
X32317731Y23745180D01*
X32317731Y23745180D02*
X32032017Y23745180D01*
X32032017Y23745180D02*
X31936779Y23792800D01*
X31936779Y23792800D02*
X31889160Y23840419D01*
X31208207Y26245180D02*
X30874874Y26721371D01*
X30636779Y26245180D02*
X30636779Y27245180D01*
X30636779Y27245180D02*
X31017731Y27245180D01*
X31017731Y27245180D02*
X31112969Y27197561D01*
X31112969Y27197561D02*
X31160588Y27149942D01*
X31160588Y27149942D02*
X31208207Y27054704D01*
X31208207Y27054704D02*
X31208207Y26911847D01*
X31208207Y26911847D02*
X31160588Y26816609D01*
X31160588Y26816609D02*
X31112969Y26768990D01*
X31112969Y26768990D02*
X31017731Y26721371D01*
X31017731Y26721371D02*
X30636779Y26721371D01*
X31589160Y27149942D02*
X31636779Y27197561D01*
X31636779Y27197561D02*
X31732017Y27245180D01*
X31732017Y27245180D02*
X31970112Y27245180D01*
X31970112Y27245180D02*
X32065350Y27197561D01*
X32065350Y27197561D02*
X32112969Y27149942D01*
X32112969Y27149942D02*
X32160588Y27054704D01*
X32160588Y27054704D02*
X32160588Y26959466D01*
X32160588Y26959466D02*
X32112969Y26816609D01*
X32112969Y26816609D02*
X31541541Y26245180D01*
X31541541Y26245180D02*
X32160588Y26245180D01*
X33017731Y27245180D02*
X32827255Y27245180D01*
X32827255Y27245180D02*
X32732017Y27197561D01*
X32732017Y27197561D02*
X32684398Y27149942D01*
X32684398Y27149942D02*
X32589160Y27007085D01*
X32589160Y27007085D02*
X32541541Y26816609D01*
X32541541Y26816609D02*
X32541541Y26435657D01*
X32541541Y26435657D02*
X32589160Y26340419D01*
X32589160Y26340419D02*
X32636779Y26292800D01*
X32636779Y26292800D02*
X32732017Y26245180D01*
X32732017Y26245180D02*
X32922493Y26245180D01*
X32922493Y26245180D02*
X33017731Y26292800D01*
X33017731Y26292800D02*
X33065350Y26340419D01*
X33065350Y26340419D02*
X33112969Y26435657D01*
X33112969Y26435657D02*
X33112969Y26673752D01*
X33112969Y26673752D02*
X33065350Y26768990D01*
X33065350Y26768990D02*
X33017731Y26816609D01*
X33017731Y26816609D02*
X32922493Y26864228D01*
X32922493Y26864228D02*
X32732017Y26864228D01*
X32732017Y26864228D02*
X32636779Y26816609D01*
X32636779Y26816609D02*
X32589160Y26768990D01*
X32589160Y26768990D02*
X32541541Y26673752D01*
X58659580Y7161904D02*
X58707200Y7114285D01*
X58707200Y7114285D02*
X58754819Y6971428D01*
X58754819Y6971428D02*
X58754819Y6876190D01*
X58754819Y6876190D02*
X58707200Y6733333D01*
X58707200Y6733333D02*
X58611961Y6638095D01*
X58611961Y6638095D02*
X58516723Y6590476D01*
X58516723Y6590476D02*
X58326247Y6542857D01*
X58326247Y6542857D02*
X58183390Y6542857D01*
X58183390Y6542857D02*
X57992914Y6590476D01*
X57992914Y6590476D02*
X57897676Y6638095D01*
X57897676Y6638095D02*
X57802438Y6733333D01*
X57802438Y6733333D02*
X57754819Y6876190D01*
X57754819Y6876190D02*
X57754819Y6971428D01*
X57754819Y6971428D02*
X57802438Y7114285D01*
X57802438Y7114285D02*
X57850057Y7161904D01*
X57754819Y7780952D02*
X57754819Y7971428D01*
X57754819Y7971428D02*
X57802438Y8066666D01*
X57802438Y8066666D02*
X57897676Y8161904D01*
X57897676Y8161904D02*
X58088152Y8209523D01*
X58088152Y8209523D02*
X58421485Y8209523D01*
X58421485Y8209523D02*
X58611961Y8161904D01*
X58611961Y8161904D02*
X58707200Y8066666D01*
X58707200Y8066666D02*
X58754819Y7971428D01*
X58754819Y7971428D02*
X58754819Y7780952D01*
X58754819Y7780952D02*
X58707200Y7685714D01*
X58707200Y7685714D02*
X58611961Y7590476D01*
X58611961Y7590476D02*
X58421485Y7542857D01*
X58421485Y7542857D02*
X58088152Y7542857D01*
X58088152Y7542857D02*
X57897676Y7590476D01*
X57897676Y7590476D02*
X57802438Y7685714D01*
X57802438Y7685714D02*
X57754819Y7780952D01*
X58754819Y8638095D02*
X57754819Y8638095D01*
X57754819Y8638095D02*
X58754819Y9209523D01*
X58754819Y9209523D02*
X57754819Y9209523D01*
X58754819Y9685714D02*
X57754819Y9685714D01*
X57754819Y9685714D02*
X58754819Y10257142D01*
X58754819Y10257142D02*
X57754819Y10257142D01*
X57754819Y10638095D02*
X57754819Y11257142D01*
X57754819Y11257142D02*
X58135771Y10923809D01*
X58135771Y10923809D02*
X58135771Y11066666D01*
X58135771Y11066666D02*
X58183390Y11161904D01*
X58183390Y11161904D02*
X58231009Y11209523D01*
X58231009Y11209523D02*
X58326247Y11257142D01*
X58326247Y11257142D02*
X58564342Y11257142D01*
X58564342Y11257142D02*
X58659580Y11209523D01*
X58659580Y11209523D02*
X58707200Y11161904D01*
X58707200Y11161904D02*
X58754819Y11066666D01*
X58754819Y11066666D02*
X58754819Y10780952D01*
X58754819Y10780952D02*
X58707200Y10685714D01*
X58707200Y10685714D02*
X58659580Y10638095D01*
X20304761Y13149942D02*
X20209523Y13197561D01*
X20209523Y13197561D02*
X20114285Y13292800D01*
X20114285Y13292800D02*
X19971428Y13435657D01*
X19971428Y13435657D02*
X19876190Y13483276D01*
X19876190Y13483276D02*
X19780952Y13483276D01*
X19828571Y13245180D02*
X19733333Y13292800D01*
X19733333Y13292800D02*
X19638095Y13388038D01*
X19638095Y13388038D02*
X19590476Y13578514D01*
X19590476Y13578514D02*
X19590476Y13911847D01*
X19590476Y13911847D02*
X19638095Y14102323D01*
X19638095Y14102323D02*
X19733333Y14197561D01*
X19733333Y14197561D02*
X19828571Y14245180D01*
X19828571Y14245180D02*
X20019047Y14245180D01*
X20019047Y14245180D02*
X20114285Y14197561D01*
X20114285Y14197561D02*
X20209523Y14102323D01*
X20209523Y14102323D02*
X20257142Y13911847D01*
X20257142Y13911847D02*
X20257142Y13578514D01*
X20257142Y13578514D02*
X20209523Y13388038D01*
X20209523Y13388038D02*
X20114285Y13292800D01*
X20114285Y13292800D02*
X20019047Y13245180D01*
X20019047Y13245180D02*
X19828571Y13245180D01*
X20638095Y14149942D02*
X20685714Y14197561D01*
X20685714Y14197561D02*
X20780952Y14245180D01*
X20780952Y14245180D02*
X21019047Y14245180D01*
X21019047Y14245180D02*
X21114285Y14197561D01*
X21114285Y14197561D02*
X21161904Y14149942D01*
X21161904Y14149942D02*
X21209523Y14054704D01*
X21209523Y14054704D02*
X21209523Y13959466D01*
X21209523Y13959466D02*
X21161904Y13816609D01*
X21161904Y13816609D02*
X20590476Y13245180D01*
X20590476Y13245180D02*
X21209523Y13245180D01*
X46954819Y9458458D02*
X46478628Y9125125D01*
X46954819Y8887030D02*
X45954819Y8887030D01*
X45954819Y8887030D02*
X45954819Y9267982D01*
X45954819Y9267982D02*
X46002438Y9363220D01*
X46002438Y9363220D02*
X46050057Y9410839D01*
X46050057Y9410839D02*
X46145295Y9458458D01*
X46145295Y9458458D02*
X46288152Y9458458D01*
X46288152Y9458458D02*
X46383390Y9410839D01*
X46383390Y9410839D02*
X46431009Y9363220D01*
X46431009Y9363220D02*
X46478628Y9267982D01*
X46478628Y9267982D02*
X46478628Y8887030D01*
X46383390Y10029887D02*
X46335771Y9934649D01*
X46335771Y9934649D02*
X46288152Y9887030D01*
X46288152Y9887030D02*
X46192914Y9839411D01*
X46192914Y9839411D02*
X46145295Y9839411D01*
X46145295Y9839411D02*
X46050057Y9887030D01*
X46050057Y9887030D02*
X46002438Y9934649D01*
X46002438Y9934649D02*
X45954819Y10029887D01*
X45954819Y10029887D02*
X45954819Y10220363D01*
X45954819Y10220363D02*
X46002438Y10315601D01*
X46002438Y10315601D02*
X46050057Y10363220D01*
X46050057Y10363220D02*
X46145295Y10410839D01*
X46145295Y10410839D02*
X46192914Y10410839D01*
X46192914Y10410839D02*
X46288152Y10363220D01*
X46288152Y10363220D02*
X46335771Y10315601D01*
X46335771Y10315601D02*
X46383390Y10220363D01*
X46383390Y10220363D02*
X46383390Y10029887D01*
X46383390Y10029887D02*
X46431009Y9934649D01*
X46431009Y9934649D02*
X46478628Y9887030D01*
X46478628Y9887030D02*
X46573866Y9839411D01*
X46573866Y9839411D02*
X46764342Y9839411D01*
X46764342Y9839411D02*
X46859580Y9887030D01*
X46859580Y9887030D02*
X46907200Y9934649D01*
X46907200Y9934649D02*
X46954819Y10029887D01*
X46954819Y10029887D02*
X46954819Y10220363D01*
X46954819Y10220363D02*
X46907200Y10315601D01*
X46907200Y10315601D02*
X46859580Y10363220D01*
X46859580Y10363220D02*
X46764342Y10410839D01*
X46764342Y10410839D02*
X46573866Y10410839D01*
X46573866Y10410839D02*
X46478628Y10363220D01*
X46478628Y10363220D02*
X46431009Y10315601D01*
X46431009Y10315601D02*
X46383390Y10220363D01*
X45359580Y9458458D02*
X45407200Y9410839D01*
X45407200Y9410839D02*
X45454819Y9267982D01*
X45454819Y9267982D02*
X45454819Y9172744D01*
X45454819Y9172744D02*
X45407200Y9029887D01*
X45407200Y9029887D02*
X45311961Y8934649D01*
X45311961Y8934649D02*
X45216723Y8887030D01*
X45216723Y8887030D02*
X45026247Y8839411D01*
X45026247Y8839411D02*
X44883390Y8839411D01*
X44883390Y8839411D02*
X44692914Y8887030D01*
X44692914Y8887030D02*
X44597676Y8934649D01*
X44597676Y8934649D02*
X44502438Y9029887D01*
X44502438Y9029887D02*
X44454819Y9172744D01*
X44454819Y9172744D02*
X44454819Y9267982D01*
X44454819Y9267982D02*
X44502438Y9410839D01*
X44502438Y9410839D02*
X44550057Y9458458D01*
X44788152Y10315601D02*
X45454819Y10315601D01*
X44407200Y10077506D02*
X45121485Y9839411D01*
X45121485Y9839411D02*
X45121485Y10458458D01*
X33508207Y31245180D02*
X33174874Y31721371D01*
X32936779Y31245180D02*
X32936779Y32245180D01*
X32936779Y32245180D02*
X33317731Y32245180D01*
X33317731Y32245180D02*
X33412969Y32197561D01*
X33412969Y32197561D02*
X33460588Y32149942D01*
X33460588Y32149942D02*
X33508207Y32054704D01*
X33508207Y32054704D02*
X33508207Y31911847D01*
X33508207Y31911847D02*
X33460588Y31816609D01*
X33460588Y31816609D02*
X33412969Y31768990D01*
X33412969Y31768990D02*
X33317731Y31721371D01*
X33317731Y31721371D02*
X32936779Y31721371D01*
X33889160Y32149942D02*
X33936779Y32197561D01*
X33936779Y32197561D02*
X34032017Y32245180D01*
X34032017Y32245180D02*
X34270112Y32245180D01*
X34270112Y32245180D02*
X34365350Y32197561D01*
X34365350Y32197561D02*
X34412969Y32149942D01*
X34412969Y32149942D02*
X34460588Y32054704D01*
X34460588Y32054704D02*
X34460588Y31959466D01*
X34460588Y31959466D02*
X34412969Y31816609D01*
X34412969Y31816609D02*
X33841541Y31245180D01*
X33841541Y31245180D02*
X34460588Y31245180D01*
X32454761Y17099942D02*
X32359523Y17147561D01*
X32359523Y17147561D02*
X32264285Y17242800D01*
X32264285Y17242800D02*
X32121428Y17385657D01*
X32121428Y17385657D02*
X32026190Y17433276D01*
X32026190Y17433276D02*
X31930952Y17433276D01*
X31978571Y17195180D02*
X31883333Y17242800D01*
X31883333Y17242800D02*
X31788095Y17338038D01*
X31788095Y17338038D02*
X31740476Y17528514D01*
X31740476Y17528514D02*
X31740476Y17861847D01*
X31740476Y17861847D02*
X31788095Y18052323D01*
X31788095Y18052323D02*
X31883333Y18147561D01*
X31883333Y18147561D02*
X31978571Y18195180D01*
X31978571Y18195180D02*
X32169047Y18195180D01*
X32169047Y18195180D02*
X32264285Y18147561D01*
X32264285Y18147561D02*
X32359523Y18052323D01*
X32359523Y18052323D02*
X32407142Y17861847D01*
X32407142Y17861847D02*
X32407142Y17528514D01*
X32407142Y17528514D02*
X32359523Y17338038D01*
X32359523Y17338038D02*
X32264285Y17242800D01*
X32264285Y17242800D02*
X32169047Y17195180D01*
X32169047Y17195180D02*
X31978571Y17195180D01*
X33359523Y17195180D02*
X32788095Y17195180D01*
X33073809Y17195180D02*
X33073809Y18195180D01*
X33073809Y18195180D02*
X32978571Y18052323D01*
X32978571Y18052323D02*
X32883333Y17957085D01*
X32883333Y17957085D02*
X32788095Y17909466D01*
X5561904Y12540419D02*
X5514285Y12492800D01*
X5514285Y12492800D02*
X5371428Y12445180D01*
X5371428Y12445180D02*
X5276190Y12445180D01*
X5276190Y12445180D02*
X5133333Y12492800D01*
X5133333Y12492800D02*
X5038095Y12588038D01*
X5038095Y12588038D02*
X4990476Y12683276D01*
X4990476Y12683276D02*
X4942857Y12873752D01*
X4942857Y12873752D02*
X4942857Y13016609D01*
X4942857Y13016609D02*
X4990476Y13207085D01*
X4990476Y13207085D02*
X5038095Y13302323D01*
X5038095Y13302323D02*
X5133333Y13397561D01*
X5133333Y13397561D02*
X5276190Y13445180D01*
X5276190Y13445180D02*
X5371428Y13445180D01*
X5371428Y13445180D02*
X5514285Y13397561D01*
X5514285Y13397561D02*
X5561904Y13349942D01*
X6180952Y13445180D02*
X6371428Y13445180D01*
X6371428Y13445180D02*
X6466666Y13397561D01*
X6466666Y13397561D02*
X6561904Y13302323D01*
X6561904Y13302323D02*
X6609523Y13111847D01*
X6609523Y13111847D02*
X6609523Y12778514D01*
X6609523Y12778514D02*
X6561904Y12588038D01*
X6561904Y12588038D02*
X6466666Y12492800D01*
X6466666Y12492800D02*
X6371428Y12445180D01*
X6371428Y12445180D02*
X6180952Y12445180D01*
X6180952Y12445180D02*
X6085714Y12492800D01*
X6085714Y12492800D02*
X5990476Y12588038D01*
X5990476Y12588038D02*
X5942857Y12778514D01*
X5942857Y12778514D02*
X5942857Y13111847D01*
X5942857Y13111847D02*
X5990476Y13302323D01*
X5990476Y13302323D02*
X6085714Y13397561D01*
X6085714Y13397561D02*
X6180952Y13445180D01*
X7038095Y12445180D02*
X7038095Y13445180D01*
X7038095Y13445180D02*
X7609523Y12445180D01*
X7609523Y12445180D02*
X7609523Y13445180D01*
X8085714Y12445180D02*
X8085714Y13445180D01*
X8085714Y13445180D02*
X8657142Y12445180D01*
X8657142Y12445180D02*
X8657142Y13445180D01*
X9657142Y12445180D02*
X9085714Y12445180D01*
X9371428Y12445180D02*
X9371428Y13445180D01*
X9371428Y13445180D02*
X9276190Y13302323D01*
X9276190Y13302323D02*
X9180952Y13207085D01*
X9180952Y13207085D02*
X9085714Y13159466D01*
X51454819Y35857142D02*
X50978628Y35523809D01*
X51454819Y35285714D02*
X50454819Y35285714D01*
X50454819Y35285714D02*
X50454819Y35666666D01*
X50454819Y35666666D02*
X50502438Y35761904D01*
X50502438Y35761904D02*
X50550057Y35809523D01*
X50550057Y35809523D02*
X50645295Y35857142D01*
X50645295Y35857142D02*
X50788152Y35857142D01*
X50788152Y35857142D02*
X50883390Y35809523D01*
X50883390Y35809523D02*
X50931009Y35761904D01*
X50931009Y35761904D02*
X50978628Y35666666D01*
X50978628Y35666666D02*
X50978628Y35285714D01*
X50550057Y36238095D02*
X50502438Y36285714D01*
X50502438Y36285714D02*
X50454819Y36380952D01*
X50454819Y36380952D02*
X50454819Y36619047D01*
X50454819Y36619047D02*
X50502438Y36714285D01*
X50502438Y36714285D02*
X50550057Y36761904D01*
X50550057Y36761904D02*
X50645295Y36809523D01*
X50645295Y36809523D02*
X50740533Y36809523D01*
X50740533Y36809523D02*
X50883390Y36761904D01*
X50883390Y36761904D02*
X51454819Y36190476D01*
X51454819Y36190476D02*
X51454819Y36809523D01*
X50454819Y37142857D02*
X50454819Y37761904D01*
X50454819Y37761904D02*
X50835771Y37428571D01*
X50835771Y37428571D02*
X50835771Y37571428D01*
X50835771Y37571428D02*
X50883390Y37666666D01*
X50883390Y37666666D02*
X50931009Y37714285D01*
X50931009Y37714285D02*
X51026247Y37761904D01*
X51026247Y37761904D02*
X51264342Y37761904D01*
X51264342Y37761904D02*
X51359580Y37714285D01*
X51359580Y37714285D02*
X51407200Y37666666D01*
X51407200Y37666666D02*
X51454819Y37571428D01*
X51454819Y37571428D02*
X51454819Y37285714D01*
X51454819Y37285714D02*
X51407200Y37190476D01*
X51407200Y37190476D02*
X51359580Y37142857D01*
X19754819Y23638095D02*
X20564342Y23638095D01*
X20564342Y23638095D02*
X20659580Y23685714D01*
X20659580Y23685714D02*
X20707200Y23733333D01*
X20707200Y23733333D02*
X20754819Y23828571D01*
X20754819Y23828571D02*
X20754819Y24019047D01*
X20754819Y24019047D02*
X20707200Y24114285D01*
X20707200Y24114285D02*
X20659580Y24161904D01*
X20659580Y24161904D02*
X20564342Y24209523D01*
X20564342Y24209523D02*
X19754819Y24209523D01*
X20088152Y25114285D02*
X20754819Y25114285D01*
X19707200Y24876190D02*
X20421485Y24638095D01*
X20421485Y24638095D02*
X20421485Y25257142D01*
X30508207Y21545180D02*
X30174874Y22021371D01*
X29936779Y21545180D02*
X29936779Y22545180D01*
X29936779Y22545180D02*
X30317731Y22545180D01*
X30317731Y22545180D02*
X30412969Y22497561D01*
X30412969Y22497561D02*
X30460588Y22449942D01*
X30460588Y22449942D02*
X30508207Y22354704D01*
X30508207Y22354704D02*
X30508207Y22211847D01*
X30508207Y22211847D02*
X30460588Y22116609D01*
X30460588Y22116609D02*
X30412969Y22068990D01*
X30412969Y22068990D02*
X30317731Y22021371D01*
X30317731Y22021371D02*
X29936779Y22021371D01*
X30889160Y22449942D02*
X30936779Y22497561D01*
X30936779Y22497561D02*
X31032017Y22545180D01*
X31032017Y22545180D02*
X31270112Y22545180D01*
X31270112Y22545180D02*
X31365350Y22497561D01*
X31365350Y22497561D02*
X31412969Y22449942D01*
X31412969Y22449942D02*
X31460588Y22354704D01*
X31460588Y22354704D02*
X31460588Y22259466D01*
X31460588Y22259466D02*
X31412969Y22116609D01*
X31412969Y22116609D02*
X30841541Y21545180D01*
X30841541Y21545180D02*
X31460588Y21545180D01*
X32412969Y21545180D02*
X31841541Y21545180D01*
X32127255Y21545180D02*
X32127255Y22545180D01*
X32127255Y22545180D02*
X32032017Y22402323D01*
X32032017Y22402323D02*
X31936779Y22307085D01*
X31936779Y22307085D02*
X31841541Y22259466D01*
X10758207Y39895180D02*
X10424874Y40371371D01*
X10186779Y39895180D02*
X10186779Y40895180D01*
X10186779Y40895180D02*
X10567731Y40895180D01*
X10567731Y40895180D02*
X10662969Y40847561D01*
X10662969Y40847561D02*
X10710588Y40799942D01*
X10710588Y40799942D02*
X10758207Y40704704D01*
X10758207Y40704704D02*
X10758207Y40561847D01*
X10758207Y40561847D02*
X10710588Y40466609D01*
X10710588Y40466609D02*
X10662969Y40418990D01*
X10662969Y40418990D02*
X10567731Y40371371D01*
X10567731Y40371371D02*
X10186779Y40371371D01*
X11710588Y39895180D02*
X11139160Y39895180D01*
X11424874Y39895180D02*
X11424874Y40895180D01*
X11424874Y40895180D02*
X11329636Y40752323D01*
X11329636Y40752323D02*
X11234398Y40657085D01*
X11234398Y40657085D02*
X11139160Y40609466D01*
X12567731Y40895180D02*
X12377255Y40895180D01*
X12377255Y40895180D02*
X12282017Y40847561D01*
X12282017Y40847561D02*
X12234398Y40799942D01*
X12234398Y40799942D02*
X12139160Y40657085D01*
X12139160Y40657085D02*
X12091541Y40466609D01*
X12091541Y40466609D02*
X12091541Y40085657D01*
X12091541Y40085657D02*
X12139160Y39990419D01*
X12139160Y39990419D02*
X12186779Y39942800D01*
X12186779Y39942800D02*
X12282017Y39895180D01*
X12282017Y39895180D02*
X12472493Y39895180D01*
X12472493Y39895180D02*
X12567731Y39942800D01*
X12567731Y39942800D02*
X12615350Y39990419D01*
X12615350Y39990419D02*
X12662969Y40085657D01*
X12662969Y40085657D02*
X12662969Y40323752D01*
X12662969Y40323752D02*
X12615350Y40418990D01*
X12615350Y40418990D02*
X12567731Y40466609D01*
X12567731Y40466609D02*
X12472493Y40514228D01*
X12472493Y40514228D02*
X12282017Y40514228D01*
X12282017Y40514228D02*
X12186779Y40466609D01*
X12186779Y40466609D02*
X12139160Y40418990D01*
X12139160Y40418990D02*
X12091541Y40323752D01*
X43557142Y37945180D02*
X43223809Y38421371D01*
X42985714Y37945180D02*
X42985714Y38945180D01*
X42985714Y38945180D02*
X43366666Y38945180D01*
X43366666Y38945180D02*
X43461904Y38897561D01*
X43461904Y38897561D02*
X43509523Y38849942D01*
X43509523Y38849942D02*
X43557142Y38754704D01*
X43557142Y38754704D02*
X43557142Y38611847D01*
X43557142Y38611847D02*
X43509523Y38516609D01*
X43509523Y38516609D02*
X43461904Y38468990D01*
X43461904Y38468990D02*
X43366666Y38421371D01*
X43366666Y38421371D02*
X42985714Y38421371D01*
X44509523Y37945180D02*
X43938095Y37945180D01*
X44223809Y37945180D02*
X44223809Y38945180D01*
X44223809Y38945180D02*
X44128571Y38802323D01*
X44128571Y38802323D02*
X44033333Y38707085D01*
X44033333Y38707085D02*
X43938095Y38659466D01*
X44842857Y38945180D02*
X45461904Y38945180D01*
X45461904Y38945180D02*
X45128571Y38564228D01*
X45128571Y38564228D02*
X45271428Y38564228D01*
X45271428Y38564228D02*
X45366666Y38516609D01*
X45366666Y38516609D02*
X45414285Y38468990D01*
X45414285Y38468990D02*
X45461904Y38373752D01*
X45461904Y38373752D02*
X45461904Y38135657D01*
X45461904Y38135657D02*
X45414285Y38040419D01*
X45414285Y38040419D02*
X45366666Y37992800D01*
X45366666Y37992800D02*
X45271428Y37945180D01*
X45271428Y37945180D02*
X44985714Y37945180D01*
X44985714Y37945180D02*
X44890476Y37992800D01*
X44890476Y37992800D02*
X44842857Y38040419D01*
X17233333Y4940419D02*
X17185714Y4892800D01*
X17185714Y4892800D02*
X17042857Y4845180D01*
X17042857Y4845180D02*
X16947619Y4845180D01*
X16947619Y4845180D02*
X16804762Y4892800D01*
X16804762Y4892800D02*
X16709524Y4988038D01*
X16709524Y4988038D02*
X16661905Y5083276D01*
X16661905Y5083276D02*
X16614286Y5273752D01*
X16614286Y5273752D02*
X16614286Y5416609D01*
X16614286Y5416609D02*
X16661905Y5607085D01*
X16661905Y5607085D02*
X16709524Y5702323D01*
X16709524Y5702323D02*
X16804762Y5797561D01*
X16804762Y5797561D02*
X16947619Y5845180D01*
X16947619Y5845180D02*
X17042857Y5845180D01*
X17042857Y5845180D02*
X17185714Y5797561D01*
X17185714Y5797561D02*
X17233333Y5749942D01*
X18185714Y4845180D02*
X17614286Y4845180D01*
X17900000Y4845180D02*
X17900000Y5845180D01*
X17900000Y5845180D02*
X17804762Y5702323D01*
X17804762Y5702323D02*
X17709524Y5607085D01*
X17709524Y5607085D02*
X17614286Y5559466D01*
X37308207Y18145180D02*
X36974874Y18621371D01*
X36736779Y18145180D02*
X36736779Y19145180D01*
X36736779Y19145180D02*
X37117731Y19145180D01*
X37117731Y19145180D02*
X37212969Y19097561D01*
X37212969Y19097561D02*
X37260588Y19049942D01*
X37260588Y19049942D02*
X37308207Y18954704D01*
X37308207Y18954704D02*
X37308207Y18811847D01*
X37308207Y18811847D02*
X37260588Y18716609D01*
X37260588Y18716609D02*
X37212969Y18668990D01*
X37212969Y18668990D02*
X37117731Y18621371D01*
X37117731Y18621371D02*
X36736779Y18621371D01*
X37689160Y19049942D02*
X37736779Y19097561D01*
X37736779Y19097561D02*
X37832017Y19145180D01*
X37832017Y19145180D02*
X38070112Y19145180D01*
X38070112Y19145180D02*
X38165350Y19097561D01*
X38165350Y19097561D02*
X38212969Y19049942D01*
X38212969Y19049942D02*
X38260588Y18954704D01*
X38260588Y18954704D02*
X38260588Y18859466D01*
X38260588Y18859466D02*
X38212969Y18716609D01*
X38212969Y18716609D02*
X37641541Y18145180D01*
X37641541Y18145180D02*
X38260588Y18145180D01*
X38641541Y19049942D02*
X38689160Y19097561D01*
X38689160Y19097561D02*
X38784398Y19145180D01*
X38784398Y19145180D02*
X39022493Y19145180D01*
X39022493Y19145180D02*
X39117731Y19097561D01*
X39117731Y19097561D02*
X39165350Y19049942D01*
X39165350Y19049942D02*
X39212969Y18954704D01*
X39212969Y18954704D02*
X39212969Y18859466D01*
X39212969Y18859466D02*
X39165350Y18716609D01*
X39165350Y18716609D02*
X38593922Y18145180D01*
X38593922Y18145180D02*
X39212969Y18145180D01*
X26816667Y33742800D02*
X26959524Y33695180D01*
X26959524Y33695180D02*
X27197619Y33695180D01*
X27197619Y33695180D02*
X27292857Y33742800D01*
X27292857Y33742800D02*
X27340476Y33790419D01*
X27340476Y33790419D02*
X27388095Y33885657D01*
X27388095Y33885657D02*
X27388095Y33980895D01*
X27388095Y33980895D02*
X27340476Y34076133D01*
X27340476Y34076133D02*
X27292857Y34123752D01*
X27292857Y34123752D02*
X27197619Y34171371D01*
X27197619Y34171371D02*
X27007143Y34218990D01*
X27007143Y34218990D02*
X26911905Y34266609D01*
X26911905Y34266609D02*
X26864286Y34314228D01*
X26864286Y34314228D02*
X26816667Y34409466D01*
X26816667Y34409466D02*
X26816667Y34504704D01*
X26816667Y34504704D02*
X26864286Y34599942D01*
X26864286Y34599942D02*
X26911905Y34647561D01*
X26911905Y34647561D02*
X27007143Y34695180D01*
X27007143Y34695180D02*
X27245238Y34695180D01*
X27245238Y34695180D02*
X27388095Y34647561D01*
X27721429Y34695180D02*
X27959524Y33695180D01*
X27959524Y33695180D02*
X28150000Y34409466D01*
X28150000Y34409466D02*
X28340476Y33695180D01*
X28340476Y33695180D02*
X28578572Y34695180D01*
X29483333Y33695180D02*
X28911905Y33695180D01*
X29197619Y33695180D02*
X29197619Y34695180D01*
X29197619Y34695180D02*
X29102381Y34552323D01*
X29102381Y34552323D02*
X29007143Y34457085D01*
X29007143Y34457085D02*
X28911905Y34409466D01*
X52304819Y42030952D02*
X52304819Y41554762D01*
X52304819Y41554762D02*
X51304819Y41554762D01*
X51781009Y42364286D02*
X51781009Y42697619D01*
X52304819Y42840476D02*
X52304819Y42364286D01*
X52304819Y42364286D02*
X51304819Y42364286D01*
X51304819Y42364286D02*
X51304819Y42840476D01*
X52304819Y43269048D02*
X51304819Y43269048D01*
X51304819Y43269048D02*
X51304819Y43507143D01*
X51304819Y43507143D02*
X51352438Y43650000D01*
X51352438Y43650000D02*
X51447676Y43745238D01*
X51447676Y43745238D02*
X51542914Y43792857D01*
X51542914Y43792857D02*
X51733390Y43840476D01*
X51733390Y43840476D02*
X51876247Y43840476D01*
X51876247Y43840476D02*
X52066723Y43792857D01*
X52066723Y43792857D02*
X52161961Y43745238D01*
X52161961Y43745238D02*
X52257200Y43650000D01*
X52257200Y43650000D02*
X52304819Y43507143D01*
X52304819Y43507143D02*
X52304819Y43269048D01*
X52304819Y44792857D02*
X52304819Y44221429D01*
X52304819Y44507143D02*
X51304819Y44507143D01*
X51304819Y44507143D02*
X51447676Y44411905D01*
X51447676Y44411905D02*
X51542914Y44316667D01*
X51542914Y44316667D02*
X51590533Y44221429D01*
X22238095Y30345180D02*
X22238095Y29535657D01*
X22238095Y29535657D02*
X22285714Y29440419D01*
X22285714Y29440419D02*
X22333333Y29392800D01*
X22333333Y29392800D02*
X22428571Y29345180D01*
X22428571Y29345180D02*
X22619047Y29345180D01*
X22619047Y29345180D02*
X22714285Y29392800D01*
X22714285Y29392800D02*
X22761904Y29440419D01*
X22761904Y29440419D02*
X22809523Y29535657D01*
X22809523Y29535657D02*
X22809523Y30345180D01*
X23761904Y30345180D02*
X23285714Y30345180D01*
X23285714Y30345180D02*
X23238095Y29868990D01*
X23238095Y29868990D02*
X23285714Y29916609D01*
X23285714Y29916609D02*
X23380952Y29964228D01*
X23380952Y29964228D02*
X23619047Y29964228D01*
X23619047Y29964228D02*
X23714285Y29916609D01*
X23714285Y29916609D02*
X23761904Y29868990D01*
X23761904Y29868990D02*
X23809523Y29773752D01*
X23809523Y29773752D02*
X23809523Y29535657D01*
X23809523Y29535657D02*
X23761904Y29440419D01*
X23761904Y29440419D02*
X23714285Y29392800D01*
X23714285Y29392800D02*
X23619047Y29345180D01*
X23619047Y29345180D02*
X23380952Y29345180D01*
X23380952Y29345180D02*
X23285714Y29392800D01*
X23285714Y29392800D02*
X23238095Y29440419D01*
X38554819Y32138095D02*
X39364342Y32138095D01*
X39364342Y32138095D02*
X39459580Y32185714D01*
X39459580Y32185714D02*
X39507200Y32233333D01*
X39507200Y32233333D02*
X39554819Y32328571D01*
X39554819Y32328571D02*
X39554819Y32519047D01*
X39554819Y32519047D02*
X39507200Y32614285D01*
X39507200Y32614285D02*
X39459580Y32661904D01*
X39459580Y32661904D02*
X39364342Y32709523D01*
X39364342Y32709523D02*
X38554819Y32709523D01*
X39554819Y33709523D02*
X39554819Y33138095D01*
X39554819Y33423809D02*
X38554819Y33423809D01*
X38554819Y33423809D02*
X38697676Y33328571D01*
X38697676Y33328571D02*
X38792914Y33233333D01*
X38792914Y33233333D02*
X38840533Y33138095D01*
X31861905Y15045180D02*
X31861905Y16045180D01*
X31861905Y16045180D02*
X32100000Y16045180D01*
X32100000Y16045180D02*
X32242857Y15997561D01*
X32242857Y15997561D02*
X32338095Y15902323D01*
X32338095Y15902323D02*
X32385714Y15807085D01*
X32385714Y15807085D02*
X32433333Y15616609D01*
X32433333Y15616609D02*
X32433333Y15473752D01*
X32433333Y15473752D02*
X32385714Y15283276D01*
X32385714Y15283276D02*
X32338095Y15188038D01*
X32338095Y15188038D02*
X32242857Y15092800D01*
X32242857Y15092800D02*
X32100000Y15045180D01*
X32100000Y15045180D02*
X31861905Y15045180D01*
X32766667Y16045180D02*
X33385714Y16045180D01*
X33385714Y16045180D02*
X33052381Y15664228D01*
X33052381Y15664228D02*
X33195238Y15664228D01*
X33195238Y15664228D02*
X33290476Y15616609D01*
X33290476Y15616609D02*
X33338095Y15568990D01*
X33338095Y15568990D02*
X33385714Y15473752D01*
X33385714Y15473752D02*
X33385714Y15235657D01*
X33385714Y15235657D02*
X33338095Y15140419D01*
X33338095Y15140419D02*
X33290476Y15092800D01*
X33290476Y15092800D02*
X33195238Y15045180D01*
X33195238Y15045180D02*
X32909524Y15045180D01*
X32909524Y15045180D02*
X32814286Y15092800D01*
X32814286Y15092800D02*
X32766667Y15140419D01*
X36359580Y7033333D02*
X36407200Y6985714D01*
X36407200Y6985714D02*
X36454819Y6842857D01*
X36454819Y6842857D02*
X36454819Y6747619D01*
X36454819Y6747619D02*
X36407200Y6604762D01*
X36407200Y6604762D02*
X36311961Y6509524D01*
X36311961Y6509524D02*
X36216723Y6461905D01*
X36216723Y6461905D02*
X36026247Y6414286D01*
X36026247Y6414286D02*
X35883390Y6414286D01*
X35883390Y6414286D02*
X35692914Y6461905D01*
X35692914Y6461905D02*
X35597676Y6509524D01*
X35597676Y6509524D02*
X35502438Y6604762D01*
X35502438Y6604762D02*
X35454819Y6747619D01*
X35454819Y6747619D02*
X35454819Y6842857D01*
X35454819Y6842857D02*
X35502438Y6985714D01*
X35502438Y6985714D02*
X35550057Y7033333D01*
X35550057Y7414286D02*
X35502438Y7461905D01*
X35502438Y7461905D02*
X35454819Y7557143D01*
X35454819Y7557143D02*
X35454819Y7795238D01*
X35454819Y7795238D02*
X35502438Y7890476D01*
X35502438Y7890476D02*
X35550057Y7938095D01*
X35550057Y7938095D02*
X35645295Y7985714D01*
X35645295Y7985714D02*
X35740533Y7985714D01*
X35740533Y7985714D02*
X35883390Y7938095D01*
X35883390Y7938095D02*
X36454819Y7366667D01*
X36454819Y7366667D02*
X36454819Y7985714D01*
D12*
%TO.C,C3*%
X40438748Y11135000D02*
X40961252Y11135000D01*
X40438748Y9665000D02*
X40961252Y9665000D01*
%TO.C,L1*%
X38738748Y9110000D02*
X39261252Y9110000D01*
X38738748Y6890000D02*
X39261252Y6890000D01*
%TO.C,F1*%
X27237221Y14810000D02*
X27562779Y14810000D01*
X27237221Y13790000D02*
X27562779Y13790000D01*
%TO.C,U2*%
X37065000Y10600000D02*
X37065000Y11200000D01*
X37065000Y10600000D02*
X37065000Y10000000D01*
X38935000Y10600000D02*
X38935000Y11200000D01*
X38935000Y10600000D02*
X38935000Y10000000D01*
X37190000Y9600000D02*
X36860000Y9360000D01*
X36860000Y9840000D01*
X37190000Y9600000D01*
G36*
X37190000Y9600000D02*
G01*
X36860000Y9360000D01*
X36860000Y9840000D01*
X37190000Y9600000D01*
G37*
%TO.C,U3*%
X23340000Y19050000D02*
X23340000Y17650000D01*
X25660000Y19060000D02*
X25660000Y17650000D01*
X25940000Y19190000D02*
X25610000Y19430000D01*
X25940000Y19670000D01*
X25940000Y19190000D01*
G36*
X25940000Y19190000D02*
G01*
X25610000Y19430000D01*
X25940000Y19670000D01*
X25940000Y19190000D01*
G37*
%TO.C,R20*%
X27637258Y16322500D02*
X27162742Y16322500D01*
X27637258Y15277500D02*
X27162742Y15277500D01*
%TO.C,C5*%
X26390000Y19459420D02*
X26390000Y19740580D01*
X27410000Y19459420D02*
X27410000Y19740580D01*
%TO.C,R3*%
X22762742Y22722500D02*
X23237258Y22722500D01*
X22762742Y21677500D02*
X23237258Y21677500D01*
%TO.C,C12*%
X22340000Y10845563D02*
X22340000Y9560000D01*
X22340000Y10845563D02*
X23404437Y11910000D01*
X22340000Y6154437D02*
X22340000Y7440000D01*
X22340000Y6154437D02*
X23404437Y5090000D01*
X23404437Y11910000D02*
X29160000Y11910000D01*
X23404437Y5090000D02*
X29160000Y5090000D01*
X29160000Y11910000D02*
X29160000Y9560000D01*
X29160000Y5090000D02*
X29160000Y7440000D01*
%TO.C,R4*%
X25762742Y25722500D02*
X26237258Y25722500D01*
X25762742Y24677500D02*
X26237258Y24677500D01*
%TO.C,R7*%
X41077500Y13062742D02*
X41077500Y13537258D01*
X42122500Y13062742D02*
X42122500Y13537258D01*
%TO.C,FB1*%
X26237258Y28722500D02*
X25762742Y28722500D01*
X26237258Y27677500D02*
X25762742Y27677500D01*
%TO.C,C8*%
X54559420Y37810000D02*
X54840580Y37810000D01*
X54559420Y36790000D02*
X54840580Y36790000D01*
%TO.C,R10*%
X39577500Y13537258D02*
X39577500Y13062742D01*
X40622500Y13537258D02*
X40622500Y13062742D01*
%TO.C,C10*%
X17340580Y33810000D02*
X17059420Y33810000D01*
X17340580Y32790000D02*
X17059420Y32790000D01*
%TO.C,J0*%
X21677500Y15637258D02*
X21677500Y15162742D01*
X22722500Y15637258D02*
X22722500Y15162742D01*
%TO.C,C11*%
X35040580Y16110000D02*
X34759420Y16110000D01*
X35040580Y15090000D02*
X34759420Y15090000D01*
%TO.C,R9*%
X33577500Y13062742D02*
X33577500Y13537258D01*
X34622500Y13062742D02*
X34622500Y13537258D01*
%TO.C,C7*%
X57840580Y36310000D02*
X57559420Y36310000D01*
X57840580Y35290000D02*
X57559420Y35290000D01*
%TO.C,R11*%
X38077500Y13062742D02*
X38077500Y13537258D01*
X39122500Y13062742D02*
X39122500Y13537258D01*
%TO.C,R12*%
X45177500Y36162742D02*
X45177500Y36637258D01*
X46222500Y36162742D02*
X46222500Y36637258D01*
%TO.C,R19*%
X54937258Y36322500D02*
X54462742Y36322500D01*
X54937258Y35277500D02*
X54462742Y35277500D01*
D13*
%TO.C,CONN2*%
X3650000Y36500000D02*
X7300000Y36500000D01*
X3650000Y30500000D02*
X3650000Y36500000D01*
X4400000Y30500000D02*
X3650000Y30500000D01*
X9600000Y36500000D02*
X12950000Y36500000D01*
X11150000Y30500000D02*
X6850000Y30500000D01*
X15150000Y35200000D02*
X15150000Y30500000D01*
X15150000Y30500000D02*
X13650000Y30500000D01*
D14*
X5050000Y32131000D02*
G75*
G02*
X4850000Y32131000I-100000J0D01*
G01*
X4850000Y32131000D02*
G75*
G02*
X5050000Y32131000I100000J0D01*
G01*
D12*
%TO.C,USB1*%
X33030000Y43450000D02*
X33030000Y41750000D01*
X42370000Y43450000D02*
X42370000Y41750000D01*
%TO.C,RS0*%
X21677500Y18637258D02*
X21677500Y18162742D01*
X22722500Y18637258D02*
X22722500Y18162742D01*
%TO.C,R25*%
X17437258Y36822500D02*
X16962742Y36822500D01*
X17437258Y35777500D02*
X16962742Y35777500D01*
%TO.C,R15*%
X16962742Y29322500D02*
X17437258Y29322500D01*
X16962742Y28277500D02*
X17437258Y28277500D01*
%TO.C,R5*%
X25762742Y22722500D02*
X26237258Y22722500D01*
X25762742Y21677500D02*
X26237258Y21677500D01*
%TO.C,C9*%
X17340580Y32310000D02*
X17059420Y32310000D01*
X17340580Y31290000D02*
X17059420Y31290000D01*
%TO.C,R24*%
X17437258Y38322500D02*
X16962742Y38322500D01*
X17437258Y37277500D02*
X16962742Y37277500D01*
%TO.C,R6*%
X26237258Y27222500D02*
X25762742Y27222500D01*
X26237258Y26177500D02*
X25762742Y26177500D01*
%TO.C,C6*%
X57840580Y37810000D02*
X57559420Y37810000D01*
X57840580Y36790000D02*
X57559420Y36790000D01*
%TO.C,R27*%
X34662742Y20922500D02*
X35137258Y20922500D01*
X34662742Y19877500D02*
X35137258Y19877500D01*
%TO.C,D1*%
X30710000Y29250000D02*
X28050000Y29250000D01*
X30710000Y27550000D02*
X28050000Y27550000D01*
X30710000Y27550000D02*
X30710000Y29250000D01*
%TO.C,R17*%
X17437258Y35322500D02*
X16962742Y35322500D01*
X17437258Y34277500D02*
X16962742Y34277500D01*
%TO.C,R18*%
X35137258Y17622500D02*
X34662742Y17622500D01*
X35137258Y16577500D02*
X34662742Y16577500D01*
%TO.C,R14*%
X42177500Y36162742D02*
X42177500Y36637258D01*
X43222500Y36162742D02*
X43222500Y36637258D01*
%TO.C,R1*%
X22762742Y21222500D02*
X23237258Y21222500D01*
X22762742Y20177500D02*
X23237258Y20177500D01*
D10*
%TO.C,Q3*%
X27550000Y23550000D02*
X27550000Y24850000D01*
X30450000Y24850000D02*
X30450000Y23550000D01*
D12*
%TO.C,R26*%
X29237258Y27222500D02*
X28762742Y27222500D01*
X29237258Y26177500D02*
X28762742Y26177500D01*
%TO.C,CONN3*%
X43270000Y11870000D02*
X43270000Y13200000D01*
X44600000Y11870000D02*
X43270000Y11870000D01*
X45870000Y14530000D02*
X58630000Y14530000D01*
X45870000Y11870000D02*
X45870000Y14530000D01*
X45870000Y11870000D02*
X58630000Y11870000D01*
X58630000Y11870000D02*
X58630000Y14530000D01*
D10*
%TO.C,Q2*%
X22950000Y14250000D02*
X22950000Y15550000D01*
X25850000Y15550000D02*
X25850000Y14250000D01*
D12*
%TO.C,R8*%
X36577500Y13537258D02*
X36577500Y13062742D01*
X37622500Y13537258D02*
X37622500Y13062742D01*
%TO.C,C4*%
X35090000Y13440580D02*
X35090000Y13159420D01*
X36110000Y13440580D02*
X36110000Y13159420D01*
%TO.C,R2*%
X25762742Y24222500D02*
X26237258Y24222500D01*
X25762742Y23177500D02*
X26237258Y23177500D01*
D10*
%TO.C,Q1*%
X30050000Y18050000D02*
X31350000Y18050000D01*
X31350000Y15150000D02*
X30050000Y15150000D01*
D13*
%TO.C,CONN1*%
X1120000Y27300000D02*
X1120000Y14100000D01*
X1120000Y27300000D02*
X7005000Y27300000D01*
X1120000Y14100000D02*
X7005000Y14100000D01*
X10995000Y14100000D02*
X19120000Y14100000D01*
X19120000Y27300000D02*
X10995000Y27300000D01*
X19120000Y14100000D02*
X19120000Y27300000D01*
D14*
X18390000Y26450000D02*
G75*
G02*
X18190000Y26450000I-100000J0D01*
G01*
X18190000Y26450000D02*
G75*
G02*
X18390000Y26450000I100000J0D01*
G01*
D12*
%TO.C,R23*%
X51877500Y36737258D02*
X51877500Y36262742D01*
X52922500Y36737258D02*
X52922500Y36262742D01*
D10*
%TO.C,U4*%
X22150000Y25850000D02*
X23450000Y25850000D01*
X23450000Y22950000D02*
X22150000Y22950000D01*
D12*
%TO.C,R21*%
X27162742Y17822500D02*
X27637258Y17822500D01*
X27162742Y16777500D02*
X27637258Y16777500D01*
%TO.C,R16*%
X17437258Y30822500D02*
X16962742Y30822500D01*
X17437258Y29777500D02*
X16962742Y29777500D01*
%TO.C,R13*%
X43677500Y36162742D02*
X43677500Y36637258D01*
X44722500Y36162742D02*
X44722500Y36637258D01*
%TO.C,C1*%
X20250000Y10450000D02*
X21250000Y10450000D01*
X20750000Y10950000D02*
X20750000Y9950000D01*
D10*
X21800000Y12800000D02*
X30200000Y12800000D01*
X21800000Y4200000D02*
X30200000Y4200000D01*
X30000000Y4200000D02*
X30000000Y12800000D01*
X30100000Y12800000D02*
X30100000Y4200000D01*
X30200000Y4300000D02*
X30800000Y4300000D01*
X30200000Y4200000D02*
X30200000Y12800000D01*
X34400000Y7900000D02*
X34400000Y9100000D01*
X21800000Y4200000D02*
G75*
G02*
X21800000Y12800000I0J4300000D01*
G01*
X30200000Y12800000D02*
G75*
G02*
X30200000Y4200000I0J-4300000D01*
G01*
D15*
X33000000Y8500000D02*
G75*
G02*
X31000000Y8500000I-1000000J0D01*
G01*
X31000000Y8500000D02*
G75*
G02*
X33000000Y8500000I1000000J0D01*
G01*
D16*
X33250000Y8500000D02*
G75*
G02*
X30750000Y8500000I-1250000J0D01*
G01*
X30750000Y8500000D02*
G75*
G02*
X33250000Y8500000I1250000J0D01*
G01*
D17*
G36*
X31000000Y4300000D02*
G01*
X30200000Y4300000D01*
X30200000Y7500000D01*
X34200000Y7500000D01*
X31000000Y4300000D01*
G37*
G36*
X31000000Y7500000D02*
G01*
X30200000Y7500000D01*
X30200000Y9500000D01*
X31000000Y9500000D01*
X31000000Y7500000D01*
G37*
G36*
X34400000Y7500000D02*
G01*
X33000000Y7500000D01*
X33000000Y9500000D01*
X34400000Y9500000D01*
X34400000Y7500000D01*
G37*
G36*
X31176683Y12676683D02*
G01*
X31800000Y12500000D01*
X32300000Y12200000D01*
X32700000Y12000000D01*
X33226772Y11526772D01*
X33700000Y11000000D01*
X33723870Y10923870D01*
X33779763Y10820237D01*
X33900000Y10700000D01*
X34000000Y10500000D01*
X34100000Y10300000D01*
X34100000Y10200000D01*
X34200000Y10100000D01*
X34232148Y9932148D01*
X34300000Y9800000D01*
X34400000Y9500000D01*
X30200000Y9500000D01*
X30200000Y12800000D01*
X30700000Y12800000D01*
X31176683Y12676683D01*
G37*
G36*
X34353394Y7346606D02*
G01*
X34300000Y7200000D01*
X34300000Y7100000D01*
X34200000Y6900000D01*
X34100000Y6800000D01*
X34100000Y6600000D01*
X33900000Y6400000D01*
X33900000Y6200000D01*
X33800000Y6200000D01*
X33800000Y6100000D01*
X33700000Y6000000D01*
X33400000Y5600000D01*
X33300000Y5500000D01*
X33000000Y5200000D01*
X32900000Y5200000D01*
X32600000Y4900000D01*
X32500000Y4900000D01*
X32400000Y4800000D01*
X32300000Y4800000D01*
X32100000Y4600000D01*
X31900000Y4600000D01*
X31800000Y4500000D01*
X31700000Y4500000D01*
X31600000Y4400000D01*
X31422951Y4377049D01*
X31300000Y4300000D01*
X31000000Y4300000D01*
X31000000Y4500000D01*
X34000000Y7500000D01*
X34400000Y7500000D01*
X34353394Y7346606D01*
G37*
D12*
%TO.C,R22*%
X34662742Y19122500D02*
X35137258Y19122500D01*
X34662742Y18077500D02*
X35137258Y18077500D01*
D10*
%TO.C,SW1*%
X19300000Y44275000D02*
X21175000Y44275000D01*
X19300000Y35275000D02*
X19300000Y44275000D01*
X21175000Y44800000D02*
X21175000Y44275000D01*
X30200000Y44800000D02*
X21175000Y44800000D01*
X30200000Y44800000D02*
X30200000Y44275000D01*
X32075000Y44275000D02*
X30200000Y44275000D01*
X32100000Y44225000D02*
X32100000Y35275000D01*
X32100000Y35275000D02*
X19300000Y35275000D01*
D12*
%TO.C,LED1*%
X43900000Y44750000D02*
X43900000Y39250000D01*
X43900000Y44750000D02*
X50900000Y44750000D01*
X43900000Y39250000D02*
X50450000Y39250000D01*
X50450000Y39250000D02*
X50900000Y39700000D01*
X50900000Y39700000D02*
X50900000Y44750000D01*
%TO.C,U5*%
X21850000Y29025000D02*
X23350000Y29025000D01*
X23350000Y26175000D02*
X21850000Y26175000D01*
X24140000Y25620000D02*
X23660000Y25620000D01*
X23900000Y25950000D01*
X24140000Y25620000D01*
G36*
X24140000Y25620000D02*
G01*
X23660000Y25620000D01*
X23900000Y25950000D01*
X24140000Y25620000D01*
G37*
%TO.C,U1*%
X40420000Y34120000D02*
X40420000Y33120000D01*
X40420000Y15880000D02*
X40420000Y16880000D01*
X41200000Y34120000D02*
X40420000Y34120000D01*
X41200000Y15880000D02*
X40420000Y15880000D01*
X66160000Y34120000D02*
X60000000Y34120000D01*
X66160000Y34120000D02*
X66160000Y15880000D01*
X66160000Y15880000D02*
X59745000Y15880000D01*
X59475000Y34725000D02*
X58975000Y34725000D01*
X58975000Y35225000D01*
X59475000Y34725000D01*
G36*
X59475000Y34725000D02*
G01*
X58975000Y34725000D01*
X58975000Y35225000D01*
X59475000Y34725000D01*
G37*
%TO.C,D3*%
X32110000Y15050000D02*
X29450000Y15050000D01*
X32110000Y13350000D02*
X29450000Y13350000D01*
X32110000Y13350000D02*
X32110000Y15050000D01*
%TO.C,C2*%
X35265000Y10361252D02*
X35265000Y9838748D01*
X36735000Y10361252D02*
X36735000Y9838748D01*
%TD*%
M02*
