ISO-10303-21;
HEADER;
FILE_DESCRIPTION((''),'2;1');
FILE_NAME('51513530625F_SW0001','2022-02-10T11:13:45',('ldichoso'),(''),
'CREO PARAMETRIC BY PTC INC, 2021304','CREO PARAMETRIC BY PTC INC, 2021304','');
FILE_SCHEMA(('CONFIG_CONTROL_DESIGN'));
ENDSEC;
DATA;
#1=CARTESIAN_POINT('',(0.E0,0.E0,0.E0));
#2=DIRECTION('',(0.E0,1.E0,0.E0));
#3=DIRECTION('',(1.E0,0.E0,0.E0));
#4=AXIS2_PLACEMENT_3D('',#1,#2,#3);
#6=CARTESIAN_POINT('',(0.E0,0.E0,0.E0));
#7=DIRECTION('',(0.E0,1.E0,0.E0));
#8=DIRECTION('',(-1.E0,0.E0,0.E0));
#9=AXIS2_PLACEMENT_3D('',#6,#7,#8);
#11=DIRECTION('',(-7.548312052475E-1,0.E0,-6.559190892058E-1));
#12=VECTOR('',#11,2.619366376942E-3);
#13=CARTESIAN_POINT('',(-7.537611478409E-2,0.E0,9.718092408260E-3));
#14=LINE('',#13,#12);
#15=CARTESIAN_POINT('',(-7.040160403494E-2,0.E0,0.E0));
#16=DIRECTION('',(0.E0,-1.E0,0.E0));
#17=DIRECTION('',(-6.559190892058E-1,0.E0,7.548312052475E-1));
#18=AXIS2_PLACEMENT_3D('',#15,#16,#17);
#20=DIRECTION('',(7.548312052475E-1,0.E0,-6.559190892058E-1));
#21=VECTOR('',#20,2.619366376942E-3);
#22=CARTESIAN_POINT('',(-7.735329426338E-2,0.E0,-8.E-3));
#23=LINE('',#22,#21);
#24=CARTESIAN_POINT('',(0.E0,0.E0,0.E0));
#25=DIRECTION('',(0.E0,1.E0,0.E0));
#26=DIRECTION('',(-1.278696369508E-1,0.E0,-9.917909840012E-1));
#27=AXIS2_PLACEMENT_3D('',#24,#25,#26);
#29=DIRECTION('',(6.559190892058E-1,0.E0,-7.548312052475E-1));
#30=VECTOR('',#29,2.619366376942E-3);
#31=CARTESIAN_POINT('',(-9.718092408260E-3,0.E0,-7.537611478409E-2));
#32=LINE('',#31,#30);
#33=CARTESIAN_POINT('',(0.E0,0.E0,-7.040160403494E-2));
#34=DIRECTION('',(0.E0,-1.E0,0.E0));
#35=DIRECTION('',(-7.548312052475E-1,0.E0,-6.559190892058E-1));
#36=AXIS2_PLACEMENT_3D('',#33,#34,#35);
#38=DIRECTION('',(6.559190892058E-1,0.E0,7.548312052475E-1));
#39=VECTOR('',#38,2.619366376942E-3);
#40=CARTESIAN_POINT('',(8.E-3,0.E0,-7.735329426338E-2));
#41=LINE('',#40,#39);
#42=CARTESIAN_POINT('',(0.E0,0.E0,0.E0));
#43=DIRECTION('',(0.E0,1.E0,0.E0));
#44=DIRECTION('',(9.917909840012E-1,0.E0,-1.278696369508E-1));
#45=AXIS2_PLACEMENT_3D('',#42,#43,#44);
#47=DIRECTION('',(7.548312052475E-1,0.E0,6.559190892058E-1));
#48=VECTOR('',#47,2.619366376942E-3);
#49=CARTESIAN_POINT('',(7.537611478409E-2,0.E0,-9.718092408260E-3));
#50=LINE('',#49,#48);
#51=CARTESIAN_POINT('',(7.040160403494E-2,0.E0,0.E0));
#52=DIRECTION('',(0.E0,-1.E0,0.E0));
#53=DIRECTION('',(6.559190892058E-1,0.E0,-7.548312052475E-1));
#54=AXIS2_PLACEMENT_3D('',#51,#52,#53);
#56=DIRECTION('',(-7.548312052475E-1,0.E0,6.559190892058E-1));
#57=VECTOR('',#56,2.619366376942E-3);
#58=CARTESIAN_POINT('',(7.735329426338E-2,0.E0,8.E-3));
#59=LINE('',#58,#57);
#60=CARTESIAN_POINT('',(0.E0,0.E0,0.E0));
#61=DIRECTION('',(0.E0,1.E0,0.E0));
#62=DIRECTION('',(1.278696369508E-1,0.E0,9.917909840012E-1));
#63=AXIS2_PLACEMENT_3D('',#60,#61,#62);
#65=DIRECTION('',(-6.559190892058E-1,0.E0,7.548312052475E-1));
#66=VECTOR('',#65,2.619366376942E-3);
#67=CARTESIAN_POINT('',(9.718092408260E-3,0.E0,7.537611478409E-2));
#68=LINE('',#67,#66);
#69=CARTESIAN_POINT('',(0.E0,0.E0,7.040160403494E-2));
#70=DIRECTION('',(0.E0,-1.E0,0.E0));
#71=DIRECTION('',(7.548312052475E-1,0.E0,6.559190892058E-1));
#72=AXIS2_PLACEMENT_3D('',#69,#70,#71);
#74=DIRECTION('',(-6.559190892058E-1,0.E0,-7.548312052475E-1));
#75=VECTOR('',#74,2.619366376942E-3);
#76=CARTESIAN_POINT('',(-8.E-3,0.E0,7.735329426338E-2));
#77=LINE('',#76,#75);
#78=CARTESIAN_POINT('',(0.E0,0.E0,0.E0));
#79=DIRECTION('',(0.E0,1.E0,0.E0));
#80=DIRECTION('',(-9.917909840012E-1,0.E0,1.278696369508E-1));
#81=AXIS2_PLACEMENT_3D('',#78,#79,#80);
#83=CARTESIAN_POINT('',(0.E0,3.E-2,0.E0));
#84=DIRECTION('',(0.E0,1.E0,0.E0));
#85=DIRECTION('',(1.E0,0.E0,0.E0));
#86=AXIS2_PLACEMENT_3D('',#83,#84,#85);
#88=DIRECTION('',(0.E0,1.E0,0.E0));
#89=VECTOR('',#88,3.E-2);
#90=CARTESIAN_POINT('',(9.85E-2,0.E0,0.E0));
#91=LINE('',#90,#89);
#92=CARTESIAN_POINT('',(0.E0,-1.296124031008E-2,0.E0));
#93=DIRECTION('',(0.E0,0.E0,-1.E0));
#94=DIRECTION('',(-9.166095581605E-1,3.997835888188E-1,0.E0));
#95=AXIS2_PLACEMENT_3D('',#92,#93,#94);
#97=CARTESIAN_POINT('',(0.E0,-1.296124031008E-2,0.E0));
#98=DIRECTION('',(0.E0,0.E0,1.E0));
#99=DIRECTION('',(9.166095581605E-1,3.997835888188E-1,0.E0));
#100=AXIS2_PLACEMENT_3D('',#97,#98,#99);
#102=CARTESIAN_POINT('',(0.E0,3.E-2,0.E0));
#103=DIRECTION('',(0.E0,1.E0,0.E0));
#104=DIRECTION('',(-1.E0,0.E0,0.E0));
#105=AXIS2_PLACEMENT_3D('',#102,#103,#104);
#107=DIRECTION('',(0.E0,1.E0,0.E0));
#108=VECTOR('',#107,3.E-2);
#109=CARTESIAN_POINT('',(-9.85E-2,0.E0,0.E0));
#110=LINE('',#109,#108);
#111=CARTESIAN_POINT('',(-7.735329426338E-2,-8.851917316756E-2,8.E-3));
#112=CARTESIAN_POINT('',(-7.679498656630E-2,-9.047570369903E-2,
8.485147770288E-3));
#113=CARTESIAN_POINT('',(-7.567817429049E-2,-9.434593846242E-2,
9.455614393379E-3));
#114=CARTESIAN_POINT('',(-7.455957680850E-2,-9.812984300854E-2,
1.042763229152E-2));
#115=CARTESIAN_POINT('',(-7.399943549214E-2,-1.E-1,1.091437340596E-2));
#117=DIRECTION('',(0.E0,-1.E0,0.E0));
#118=VECTOR('',#117,8.851917316756E-2);
#119=CARTESIAN_POINT('',(-7.735329426338E-2,0.E0,8.E-3));
#120=LINE('',#119,#118);
#121=CARTESIAN_POINT('',(7.735329426338E-2,-8.851917316756E-2,8.E-3));
#122=CARTESIAN_POINT('',(7.760895869806E-2,-8.762322407916E-2,
7.777837505962E-3));
#123=CARTESIAN_POINT('',(7.809845789239E-2,-8.591581927496E-2,
7.309432048097E-3));
#124=CARTESIAN_POINT('',(7.876331359738E-2,-8.361523987512E-2,
6.538863021992E-3));
#125=CARTESIAN_POINT('',(7.936045699135E-2,-8.156359060053E-2,
5.694672440935E-3));
#126=CARTESIAN_POINT('',(7.988742707007E-2,-7.976434207713E-2,
4.768769562325E-3));
#127=CARTESIAN_POINT('',(8.033891888222E-2,-7.823110953050E-2,
3.743609097985E-3));
#128=CARTESIAN_POINT('',(8.070140621978E-2,-7.700565443985E-2,
2.602563393473E-3));
#129=CARTESIAN_POINT('',(8.094670178275E-2,-7.617922466845E-2,
1.309432019555E-3));
#130=CARTESIAN_POINT('',(8.102673359112E-2,-7.591010339601E-2,
-1.022627237309E-6));
#131=CARTESIAN_POINT('',(8.094636348526E-2,-7.618036298393E-2,
-1.312178013340E-3));
#132=CARTESIAN_POINT('',(8.070091785843E-2,-7.700730242005E-2,
-2.604344259844E-3));
#133=CARTESIAN_POINT('',(8.033839406770E-2,-7.823288806510E-2,
-3.744970285266E-3));
#134=CARTESIAN_POINT('',(7.988698979185E-2,-7.976583179982E-2,
-4.769601395755E-3));
#135=CARTESIAN_POINT('',(7.936012313612E-2,-8.156473489760E-2,
-5.695181765694E-3));
#136=CARTESIAN_POINT('',(7.876309295756E-2,-8.361600159540E-2,
-6.539133019338E-3));
#137=CARTESIAN_POINT('',(7.809834665528E-2,-8.591620676004E-2,
-7.309541333432E-3));
#138=CARTESIAN_POINT('',(7.760892184489E-2,-8.762335322721E-2,
-7.777869529941E-3));
#139=CARTESIAN_POINT('',(7.735329426338E-2,-8.851917316756E-2,-8.E-3));
#141=CARTESIAN_POINT('',(-7.735329426338E-2,-8.851917316756E-2,-8.E-3));
#142=CARTESIAN_POINT('',(-7.760895869806E-2,-8.762322407916E-2,
-7.777837505962E-3));
#143=CARTESIAN_POINT('',(-7.809845789239E-2,-8.591581927496E-2,
-7.309432048097E-3));
#144=CARTESIAN_POINT('',(-7.876331359738E-2,-8.361523987512E-2,
-6.538863021992E-3));
#145=CARTESIAN_POINT('',(-7.936045699135E-2,-8.156359060053E-2,
-5.694672440935E-3));
#146=CARTESIAN_POINT('',(-7.988742707007E-2,-7.976434207713E-2,
-4.768769562325E-3));
#147=CARTESIAN_POINT('',(-8.033891888222E-2,-7.823110953050E-2,
-3.743609097985E-3));
#148=CARTESIAN_POINT('',(-8.070140621978E-2,-7.700565443985E-2,
-2.602563393473E-3));
#149=CARTESIAN_POINT('',(-8.094670178275E-2,-7.617922466845E-2,
-1.309432019555E-3));
#150=CARTESIAN_POINT('',(-8.102673359112E-2,-7.591010339601E-2,
1.022627237293E-6));
#151=CARTESIAN_POINT('',(-8.094636348526E-2,-7.618036298393E-2,
1.312178013340E-3));
#152=CARTESIAN_POINT('',(-8.070091785843E-2,-7.700730242005E-2,
2.604344259844E-3));
#153=CARTESIAN_POINT('',(-8.033839406770E-2,-7.823288806510E-2,
3.744970285266E-3));
#154=CARTESIAN_POINT('',(-7.988698979185E-2,-7.976583179982E-2,
4.769601395755E-3));
#155=CARTESIAN_POINT('',(-7.936012313612E-2,-8.156473489760E-2,
5.695181765694E-3));
#156=CARTESIAN_POINT('',(-7.876309295756E-2,-8.361600159540E-2,
6.539133019338E-3));
#157=CARTESIAN_POINT('',(-7.809834665528E-2,-8.591620676004E-2,
7.309541333432E-3));
#158=CARTESIAN_POINT('',(-7.760892184489E-2,-8.762335322721E-2,
7.777869529941E-3));
#159=CARTESIAN_POINT('',(-7.735329426338E-2,-8.851917316756E-2,8.E-3));
#161=CARTESIAN_POINT('',(8.E-3,-8.851917316756E-2,7.735329426338E-2));
#162=CARTESIAN_POINT('',(8.485147770288E-3,-9.047570369903E-2,
7.679498656630E-2));
#163=CARTESIAN_POINT('',(9.455614393379E-3,-9.434593846242E-2,
7.567817429049E-2));
#164=CARTESIAN_POINT('',(1.042763229152E-2,-9.812984300854E-2,
7.455957680850E-2));
#165=CARTESIAN_POINT('',(1.091437340596E-2,-1.E-1,7.399943549214E-2));
#167=DIRECTION('',(0.E0,-1.E0,0.E0));
#168=VECTOR('',#167,8.851917316756E-2);
#169=CARTESIAN_POINT('',(8.E-3,0.E0,7.735329426338E-2));
#170=LINE('',#169,#168);
#171=CARTESIAN_POINT('',(8.E-3,-8.851917316756E-2,7.735329426338E-2));
#172=CARTESIAN_POINT('',(7.777869529941E-3,-8.762335322721E-2,
7.760892184489E-2));
#173=CARTESIAN_POINT('',(7.309541333432E-3,-8.591620676004E-2,
7.809834665528E-2));
#174=CARTESIAN_POINT('',(6.539133019338E-3,-8.361600159540E-2,
7.876309295756E-2));
#175=CARTESIAN_POINT('',(5.695181765694E-3,-8.156473489760E-2,
7.936012313612E-2));
#176=CARTESIAN_POINT('',(4.769601395755E-3,-7.976583179982E-2,
7.988698979185E-2));
#177=CARTESIAN_POINT('',(3.744970285266E-3,-7.823288806510E-2,
8.033839406770E-2));
#178=CARTESIAN_POINT('',(2.604344259844E-3,-7.700730242005E-2,
8.070091785843E-2));
#179=CARTESIAN_POINT('',(1.312178013340E-3,-7.618036298393E-2,
8.094636348526E-2));
#180=CARTESIAN_POINT('',(1.022627237312E-6,-7.591010339601E-2,
8.102673359112E-2));
#181=CARTESIAN_POINT('',(-1.309432019555E-3,-7.617922466845E-2,
8.094670178275E-2));
#182=CARTESIAN_POINT('',(-2.602563393473E-3,-7.700565443985E-2,
8.070140621978E-2));
#183=CARTESIAN_POINT('',(-3.743609097985E-3,-7.823110953050E-2,
8.033891888222E-2));
#184=CARTESIAN_POINT('',(-4.768769562325E-3,-7.976434207713E-2,
7.988742707007E-2));
#185=CARTESIAN_POINT('',(-5.694672440935E-3,-8.156359060053E-2,
7.936045699135E-2));
#186=CARTESIAN_POINT('',(-6.538863021992E-3,-8.361523987512E-2,
7.876331359738E-2));
#187=CARTESIAN_POINT('',(-7.309432048097E-3,-8.591581927496E-2,
7.809845789239E-2));
#188=CARTESIAN_POINT('',(-7.777837505962E-3,-8.762322407916E-2,
7.760895869806E-2));
#189=CARTESIAN_POINT('',(-8.E-3,-8.851917316756E-2,7.735329426338E-2));
#191=DIRECTION('',(0.E0,-1.E0,0.E0));
#192=VECTOR('',#191,8.851917316756E-2);
#193=CARTESIAN_POINT('',(-8.E-3,0.E0,7.735329426338E-2));
#194=LINE('',#193,#192);
#195=CARTESIAN_POINT('',(-1.091437340596E-2,-1.E-1,7.399943549214E-2));
#196=CARTESIAN_POINT('',(-1.042778411469E-2,-9.813042634364E-2,
7.455940209050E-2));
#197=CARTESIAN_POINT('',(-9.455911331138E-3,-9.434710923145E-2,
7.567783257474E-2));
#198=CARTESIAN_POINT('',(-8.485293333423E-3,-9.047629073402E-2,
7.679481905235E-2));
#199=CARTESIAN_POINT('',(-8.E-3,-8.851917316756E-2,7.735329426338E-2));
#201=CARTESIAN_POINT('',(0.E0,-1.E-1,0.E0));
#202=DIRECTION('',(0.E0,1.E0,0.E0));
#203=DIRECTION('',(-1.459140829673E-1,0.E0,9.892972659377E-1));
#204=AXIS2_PLACEMENT_3D('',#201,#202,#203);
#206=CARTESIAN_POINT('',(9.718092408260E-3,0.E0,7.537611478409E-2));
#207=CARTESIAN_POINT('',(9.850722990792E-3,-1.120156671516E-2,
7.522348360730E-2));
#208=CARTESIAN_POINT('',(1.011615883141E-2,-3.354439673095E-2,
7.491802023721E-2));
#209=CARTESIAN_POINT('',(1.051489061073E-2,-6.687771513140E-2,
7.445915999895E-2));
#210=CARTESIAN_POINT('',(1.078113530536E-2,-8.897933838683E-2,
7.415276580027E-2));
#211=CARTESIAN_POINT('',(1.091437340596E-2,-1.E-1,7.399943549214E-2));
#213=CARTESIAN_POINT('',(7.399943549214E-2,-1.E-1,1.091437340596E-2));
#214=CARTESIAN_POINT('',(7.415276217812E-2,-8.897959873040E-2,
1.078113845287E-2));
#215=CARTESIAN_POINT('',(7.445915159876E-2,-6.687832262714E-2,
1.051489791017E-2));
#216=CARTESIAN_POINT('',(7.491801188104E-2,-3.354500646529E-2,
1.011616609261E-2));
#217=CARTESIAN_POINT('',(7.522348004650E-2,-1.120182804158E-2,
9.850726084991E-3));
#218=CARTESIAN_POINT('',(7.537611478409E-2,0.E0,9.718092408260E-3));
#220=CARTESIAN_POINT('',(0.E0,-1.E-1,0.E0));
#221=DIRECTION('',(0.E0,1.E0,0.E0));
#222=DIRECTION('',(9.892972659377E-1,0.E0,1.459140829673E-1));
#223=AXIS2_PLACEMENT_3D('',#220,#221,#222);
#225=DIRECTION('',(1.199913609330E-2,9.999280077751E-1,0.E0));
#226=VECTOR('',#225,4.000287989633E-1);
#227=CARTESIAN_POINT('',(7.E-2,-5.E-1,0.E0));
#228=LINE('',#227,#226);
#229=CARTESIAN_POINT('',(0.E0,-5.E-1,0.E0));
#230=DIRECTION('',(0.E0,-1.E0,0.E0));
#231=DIRECTION('',(1.E0,0.E0,0.E0));
#232=AXIS2_PLACEMENT_3D('',#229,#230,#231);
#234=DIRECTION('',(-1.199913609330E-2,9.999280077751E-1,0.E0));
#235=VECTOR('',#234,4.000287989633E-1);
#236=CARTESIAN_POINT('',(-7.E-2,-5.E-1,0.E0));
#237=LINE('',#236,#235);
#238=CARTESIAN_POINT('',(0.E0,-1.E-1,0.E0));
#239=DIRECTION('',(0.E0,1.E0,0.E0));
#240=DIRECTION('',(-1.E0,0.E0,0.E0));
#241=AXIS2_PLACEMENT_3D('',#238,#239,#240);
#243=CARTESIAN_POINT('',(-7.537611478409E-2,0.E0,9.718092408260E-3));
#244=CARTESIAN_POINT('',(-7.522348360730E-2,-1.120156671516E-2,
9.850722990792E-3));
#245=CARTESIAN_POINT('',(-7.491802023721E-2,-3.354439673095E-2,
1.011615883141E-2));
#246=CARTESIAN_POINT('',(-7.445915999895E-2,-6.687771513140E-2,
1.051489061073E-2));
#247=CARTESIAN_POINT('',(-7.415276580027E-2,-8.897933838683E-2,
1.078113530536E-2));
#248=CARTESIAN_POINT('',(-7.399943549214E-2,-1.E-1,1.091437340596E-2));
#250=CARTESIAN_POINT('',(-1.091437340596E-2,-1.E-1,7.399943549214E-2));
#251=CARTESIAN_POINT('',(-1.078113845287E-2,-8.897959873040E-2,
7.415276217812E-2));
#252=CARTESIAN_POINT('',(-1.051489791017E-2,-6.687832262714E-2,
7.445915159876E-2));
#253=CARTESIAN_POINT('',(-1.011616609261E-2,-3.354500646529E-2,
7.491801188104E-2));
#254=CARTESIAN_POINT('',(-9.850726084991E-3,-1.120182804158E-2,
7.522348004650E-2));
#255=CARTESIAN_POINT('',(-9.718092408260E-3,0.E0,7.537611478409E-2));
#257=DIRECTION('',(0.E0,-1.E0,0.E0));
#258=VECTOR('',#257,8.851917316756E-2);
#259=CARTESIAN_POINT('',(7.735329426338E-2,0.E0,8.E-3));
#260=LINE('',#259,#258);
#261=CARTESIAN_POINT('',(7.399943549214E-2,-1.E-1,1.091437340596E-2));
#262=CARTESIAN_POINT('',(7.455940209050E-2,-9.813042634364E-2,
1.042778411469E-2));
#263=CARTESIAN_POINT('',(7.567783257474E-2,-9.434710923145E-2,
9.455911331138E-3));
#264=CARTESIAN_POINT('',(7.679481905235E-2,-9.047629073402E-2,
8.485293333423E-3));
#265=CARTESIAN_POINT('',(7.735329426338E-2,-8.851917316756E-2,8.E-3));
#267=DIRECTION('',(0.E0,-1.E0,0.E0));
#268=VECTOR('',#267,8.851917316756E-2);
#269=CARTESIAN_POINT('',(7.735329426338E-2,0.E0,-8.E-3));
#270=LINE('',#269,#268);
#271=CARTESIAN_POINT('',(7.735329426338E-2,-8.851917316756E-2,-8.E-3));
#272=CARTESIAN_POINT('',(7.679498656630E-2,-9.047570369903E-2,
-8.485147770288E-3));
#273=CARTESIAN_POINT('',(7.567817429049E-2,-9.434593846242E-2,
-9.455614393379E-3));
#274=CARTESIAN_POINT('',(7.455957680850E-2,-9.812984300854E-2,
-1.042763229152E-2));
#275=CARTESIAN_POINT('',(7.399943549214E-2,-1.E-1,-1.091437340596E-2));
#277=CARTESIAN_POINT('',(0.E0,-1.E-1,0.E0));
#278=DIRECTION('',(0.E0,1.E0,0.E0));
#279=DIRECTION('',(1.E0,0.E0,0.E0));
#280=AXIS2_PLACEMENT_3D('',#277,#278,#279);
#282=CARTESIAN_POINT('',(7.537611478409E-2,0.E0,-9.718092408260E-3));
#283=CARTESIAN_POINT('',(7.522348360730E-2,-1.120156671516E-2,
-9.850722990792E-3));
#284=CARTESIAN_POINT('',(7.491802023721E-2,-3.354439673095E-2,
-1.011615883141E-2));
#285=CARTESIAN_POINT('',(7.445915999895E-2,-6.687771513140E-2,
-1.051489061073E-2));
#286=CARTESIAN_POINT('',(7.415276580027E-2,-8.897933838683E-2,
-1.078113530536E-2));
#287=CARTESIAN_POINT('',(7.399943549214E-2,-1.E-1,-1.091437340596E-2));
#289=CARTESIAN_POINT('',(1.091437340596E-2,-1.E-1,-7.399943549214E-2));
#290=CARTESIAN_POINT('',(1.078113845287E-2,-8.897959873040E-2,
-7.415276217812E-2));
#291=CARTESIAN_POINT('',(1.051489791017E-2,-6.687832262714E-2,
-7.445915159876E-2));
#292=CARTESIAN_POINT('',(1.011616609261E-2,-3.354500646529E-2,
-7.491801188104E-2));
#293=CARTESIAN_POINT('',(9.850726084991E-3,-1.120182804158E-2,
-7.522348004650E-2));
#294=CARTESIAN_POINT('',(9.718092408260E-3,0.E0,-7.537611478409E-2));
#296=CARTESIAN_POINT('',(0.E0,-1.E-1,0.E0));
#297=DIRECTION('',(0.E0,1.E0,0.E0));
#298=DIRECTION('',(1.459140829673E-1,0.E0,-9.892972659377E-1));
#299=AXIS2_PLACEMENT_3D('',#296,#297,#298);
#301=CARTESIAN_POINT('',(-9.718092408260E-3,0.E0,-7.537611478409E-2));
#302=CARTESIAN_POINT('',(-9.850722990792E-3,-1.120156671516E-2,
-7.522348360730E-2));
#303=CARTESIAN_POINT('',(-1.011615883141E-2,-3.354439673095E-2,
-7.491802023721E-2));
#304=CARTESIAN_POINT('',(-1.051489061073E-2,-6.687771513140E-2,
-7.445915999895E-2));
#305=CARTESIAN_POINT('',(-1.078113530536E-2,-8.897933838683E-2,
-7.415276580027E-2));
#306=CARTESIAN_POINT('',(-1.091437340596E-2,-1.E-1,-7.399943549214E-2));
#308=CARTESIAN_POINT('',(-7.399943549214E-2,-1.E-1,-1.091437340596E-2));
#309=CARTESIAN_POINT('',(-7.415276217812E-2,-8.897959873040E-2,
-1.078113845287E-2));
#310=CARTESIAN_POINT('',(-7.445915159876E-2,-6.687832262714E-2,
-1.051489791017E-2));
#311=CARTESIAN_POINT('',(-7.491801188104E-2,-3.354500646529E-2,
-1.011616609261E-2));
#312=CARTESIAN_POINT('',(-7.522348004650E-2,-1.120182804158E-2,
-9.850726084991E-3));
#313=CARTESIAN_POINT('',(-7.537611478409E-2,0.E0,-9.718092408260E-3));
#315=CARTESIAN_POINT('',(0.E0,-1.E-1,0.E0));
#316=DIRECTION('',(0.E0,1.E0,0.E0));
#317=DIRECTION('',(-9.892972659377E-1,0.E0,-1.459140829673E-1));
#318=AXIS2_PLACEMENT_3D('',#315,#316,#317);
#320=CARTESIAN_POINT('',(0.E0,-5.E-1,0.E0));
#321=DIRECTION('',(0.E0,1.E0,0.E0));
#322=DIRECTION('',(1.E0,0.E0,0.E0));
#323=AXIS2_PLACEMENT_3D('',#320,#321,#322);
#325=DIRECTION('',(0.E0,-1.E0,0.E0));
#326=VECTOR('',#325,8.851917316756E-2);
#327=CARTESIAN_POINT('',(8.E-3,0.E0,-7.735329426338E-2));
#328=LINE('',#327,#326);
#329=CARTESIAN_POINT('',(1.091437340596E-2,-1.E-1,-7.399943549214E-2));
#330=CARTESIAN_POINT('',(1.042778411469E-2,-9.813042634364E-2,
-7.455940209050E-2));
#331=CARTESIAN_POINT('',(9.455911331138E-3,-9.434710923145E-2,
-7.567783257474E-2));
#332=CARTESIAN_POINT('',(8.485293333423E-3,-9.047629073402E-2,
-7.679481905235E-2));
#333=CARTESIAN_POINT('',(8.E-3,-8.851917316756E-2,-7.735329426338E-2));
#335=DIRECTION('',(0.E0,-1.E0,0.E0));
#336=VECTOR('',#335,8.851917316756E-2);
#337=CARTESIAN_POINT('',(-8.E-3,0.E0,-7.735329426338E-2));
#338=LINE('',#337,#336);
#339=CARTESIAN_POINT('',(-8.E-3,-8.851917316756E-2,-7.735329426338E-2));
#340=CARTESIAN_POINT('',(-7.777869529941E-3,-8.762335322721E-2,
-7.760892184489E-2));
#341=CARTESIAN_POINT('',(-7.309541333432E-3,-8.591620676004E-2,
-7.809834665528E-2));
#342=CARTESIAN_POINT('',(-6.539133019338E-3,-8.361600159540E-2,
-7.876309295756E-2));
#343=CARTESIAN_POINT('',(-5.695181765694E-3,-8.156473489760E-2,
-7.936012313612E-2));
#344=CARTESIAN_POINT('',(-4.769601395755E-3,-7.976583179982E-2,
-7.988698979185E-2));
#345=CARTESIAN_POINT('',(-3.744970285266E-3,-7.823288806510E-2,
-8.033839406770E-2));
#346=CARTESIAN_POINT('',(-2.604344259844E-3,-7.700730242005E-2,
-8.070091785843E-2));
#347=CARTESIAN_POINT('',(-1.312178013340E-3,-7.618036298393E-2,
-8.094636348526E-2));
#348=CARTESIAN_POINT('',(-1.022627237318E-6,-7.591010339601E-2,
-8.102673359112E-2));
#349=CARTESIAN_POINT('',(1.309432019555E-3,-7.617922466845E-2,
-8.094670178275E-2));
#350=CARTESIAN_POINT('',(2.602563393473E-3,-7.700565443985E-2,
-8.070140621978E-2));
#351=CARTESIAN_POINT('',(3.743609097985E-3,-7.823110953050E-2,
-8.033891888222E-2));
#352=CARTESIAN_POINT('',(4.768769562325E-3,-7.976434207713E-2,
-7.988742707007E-2));
#353=CARTESIAN_POINT('',(5.694672440935E-3,-8.156359060053E-2,
-7.936045699135E-2));
#354=CARTESIAN_POINT('',(6.538863021992E-3,-8.361523987512E-2,
-7.876331359738E-2));
#355=CARTESIAN_POINT('',(7.309432048097E-3,-8.591581927496E-2,
-7.809845789239E-2));
#356=CARTESIAN_POINT('',(7.777837505962E-3,-8.762322407916E-2,
-7.760895869806E-2));
#357=CARTESIAN_POINT('',(8.E-3,-8.851917316756E-2,-7.735329426338E-2));
#359=CARTESIAN_POINT('',(-8.E-3,-8.851917316756E-2,-7.735329426338E-2));
#360=CARTESIAN_POINT('',(-8.485147770288E-3,-9.047570369903E-2,
-7.679498656630E-2));
#361=CARTESIAN_POINT('',(-9.455614393379E-3,-9.434593846242E-2,
-7.567817429049E-2));
#362=CARTESIAN_POINT('',(-1.042763229152E-2,-9.812984300854E-2,
-7.455957680850E-2));
#363=CARTESIAN_POINT('',(-1.091437340596E-2,-1.E-1,-7.399943549214E-2));
#365=DIRECTION('',(0.E0,-1.E0,0.E0));
#366=VECTOR('',#365,8.851917316756E-2);
#367=CARTESIAN_POINT('',(-7.735329426338E-2,0.E0,-8.E-3));
#368=LINE('',#367,#366);
#369=CARTESIAN_POINT('',(-7.399943549214E-2,-1.E-1,-1.091437340596E-2));
#370=CARTESIAN_POINT('',(-7.455940209050E-2,-9.813042634364E-2,
-1.042778411469E-2));
#371=CARTESIAN_POINT('',(-7.567783257474E-2,-9.434710923145E-2,
-9.455911331138E-3));
#372=CARTESIAN_POINT('',(-7.679481905235E-2,-9.047629073402E-2,
-8.485293333423E-3));
#373=CARTESIAN_POINT('',(-7.735329426338E-2,-8.851917316756E-2,-8.E-3));
#375=CARTESIAN_POINT('',(0.E0,-6.25E-1,0.E0));
#376=DIRECTION('',(0.E0,1.E0,0.E0));
#377=DIRECTION('',(1.E0,0.E0,0.E0));
#378=AXIS2_PLACEMENT_3D('',#375,#376,#377);
#380=DIRECTION('',(0.E0,1.E0,0.E0));
#381=VECTOR('',#380,1.25E-1);
#382=CARTESIAN_POINT('',(7.E-2,-6.25E-1,0.E0));
#383=LINE('',#382,#381);
#384=CARTESIAN_POINT('',(0.E0,-6.25E-1,0.E0));
#385=DIRECTION('',(0.E0,-1.E0,0.E0));
#386=DIRECTION('',(1.E0,0.E0,0.E0));
#387=AXIS2_PLACEMENT_3D('',#384,#385,#386);
#389=DIRECTION('',(0.E0,1.E0,0.E0));
#390=VECTOR('',#389,1.25E-1);
#391=CARTESIAN_POINT('',(-7.E-2,-6.25E-1,0.E0));
#392=LINE('',#391,#390);
#393=CARTESIAN_POINT('',(9.85E-2,0.E0,0.E0));
#394=CARTESIAN_POINT('',(-9.85E-2,0.E0,0.E0));
#395=VERTEX_POINT('',#393);
#396=VERTEX_POINT('',#394);
#397=CARTESIAN_POINT('',(9.85E-2,3.E-2,0.E0));
#398=CARTESIAN_POINT('',(-9.85E-2,3.E-2,0.E0));
#399=VERTEX_POINT('',#397);
#400=VERTEX_POINT('',#398);
#401=CARTESIAN_POINT('',(0.E0,9.45E-2,0.E0));
#402=VERTEX_POINT('',#401);
#403=CARTESIAN_POINT('',(8.E-3,0.E0,7.735329426338E-2));
#404=CARTESIAN_POINT('',(8.E-3,-8.851917316756E-2,7.735329426338E-2));
#405=VERTEX_POINT('',#403);
#406=VERTEX_POINT('',#404);
#407=CARTESIAN_POINT('',(-8.E-3,0.E0,7.735329426338E-2));
#408=CARTESIAN_POINT('',(-8.E-3,-8.851917316756E-2,7.735329426338E-2));
#409=VERTEX_POINT('',#407);
#410=VERTEX_POINT('',#408);
#411=CARTESIAN_POINT('',(7.735329426338E-2,0.E0,-8.E-3));
#412=CARTESIAN_POINT('',(7.735329426338E-2,-8.851917316756E-2,-8.E-3));
#413=VERTEX_POINT('',#411);
#414=VERTEX_POINT('',#412);
#415=CARTESIAN_POINT('',(7.735329426338E-2,0.E0,8.E-3));
#416=CARTESIAN_POINT('',(7.735329426338E-2,-8.851917316756E-2,8.E-3));
#417=VERTEX_POINT('',#415);
#418=VERTEX_POINT('',#416);
#419=CARTESIAN_POINT('',(-8.E-3,0.E0,-7.735329426338E-2));
#420=CARTESIAN_POINT('',(-8.E-3,-8.851917316756E-2,-7.735329426338E-2));
#421=VERTEX_POINT('',#419);
#422=VERTEX_POINT('',#420);
#423=CARTESIAN_POINT('',(8.E-3,0.E0,-7.735329426338E-2));
#424=CARTESIAN_POINT('',(8.E-3,-8.851917316756E-2,-7.735329426338E-2));
#425=VERTEX_POINT('',#423);
#426=VERTEX_POINT('',#424);
#427=CARTESIAN_POINT('',(-7.735329426338E-2,0.E0,8.E-3));
#428=CARTESIAN_POINT('',(-7.735329426338E-2,-8.851917316756E-2,8.E-3));
#429=VERTEX_POINT('',#427);
#430=VERTEX_POINT('',#428);
#431=CARTESIAN_POINT('',(-7.735329426338E-2,0.E0,-8.E-3));
#432=CARTESIAN_POINT('',(-7.735329426338E-2,-8.851917316756E-2,-8.E-3));
#433=VERTEX_POINT('',#431);
#434=VERTEX_POINT('',#432);
#435=VERTEX_POINT('',#165);
#436=VERTEX_POINT('',#195);
#437=VERTEX_POINT('',#275);
#438=VERTEX_POINT('',#261);
#439=VERTEX_POINT('',#363);
#440=VERTEX_POINT('',#329);
#441=VERTEX_POINT('',#115);
#442=VERTEX_POINT('',#369);
#443=CARTESIAN_POINT('',(7.E-2,-6.25E-1,0.E0));
#444=CARTESIAN_POINT('',(7.E-2,-5.E-1,0.E0));
#445=VERTEX_POINT('',#443);
#446=VERTEX_POINT('',#444);
#447=CARTESIAN_POINT('',(-7.E-2,-6.25E-1,0.E0));
#448=CARTESIAN_POINT('',(-7.E-2,-5.E-1,0.E0));
#449=VERTEX_POINT('',#447);
#450=VERTEX_POINT('',#448);
#451=CARTESIAN_POINT('',(9.718092408260E-3,0.E0,7.537611478409E-2));
#452=VERTEX_POINT('',#451);
#453=CARTESIAN_POINT('',(-9.718092408260E-3,0.E0,7.537611478409E-2));
#454=VERTEX_POINT('',#453);
#455=CARTESIAN_POINT('',(7.537611478409E-2,0.E0,-9.718092408260E-3));
#456=VERTEX_POINT('',#455);
#457=CARTESIAN_POINT('',(7.537611478409E-2,0.E0,9.718092408260E-3));
#458=VERTEX_POINT('',#457);
#459=CARTESIAN_POINT('',(-9.718092408260E-3,0.E0,-7.537611478409E-2));
#460=VERTEX_POINT('',#459);
#461=CARTESIAN_POINT('',(9.718092408260E-3,0.E0,-7.537611478409E-2));
#462=VERTEX_POINT('',#461);
#463=CARTESIAN_POINT('',(-7.537611478409E-2,0.E0,9.718092408260E-3));
#464=VERTEX_POINT('',#463);
#465=CARTESIAN_POINT('',(-7.537611478409E-2,0.E0,-9.718092408260E-3));
#466=VERTEX_POINT('',#465);
#467=CARTESIAN_POINT('',(7.48E-2,-1.E-1,0.E0));
#468=VERTEX_POINT('',#467);
#469=CARTESIAN_POINT('',(-7.48E-2,-1.E-1,0.E0));
#470=VERTEX_POINT('',#469);
#471=CARTESIAN_POINT('',(0.E0,0.E0,0.E0));
#472=DIRECTION('',(0.E0,1.E0,0.E0));
#473=DIRECTION('',(1.E0,0.E0,0.E0));
#474=AXIS2_PLACEMENT_3D('',#471,#472,#473);
#475=PLANE('',#474);
#477=ORIENTED_EDGE('',*,*,#476,.T.);
#479=ORIENTED_EDGE('',*,*,#478,.T.);
#480=EDGE_LOOP('',(#477,#479));
#481=FACE_OUTER_BOUND('',#480,.F.);
#483=ORIENTED_EDGE('',*,*,#482,.T.);
#485=ORIENTED_EDGE('',*,*,#484,.T.);
#487=ORIENTED_EDGE('',*,*,#486,.T.);
#489=ORIENTED_EDGE('',*,*,#488,.F.);
#491=ORIENTED_EDGE('',*,*,#490,.T.);
#493=ORIENTED_EDGE('',*,*,#492,.T.);
#495=ORIENTED_EDGE('',*,*,#494,.T.);
#497=ORIENTED_EDGE('',*,*,#496,.F.);
#499=ORIENTED_EDGE('',*,*,#498,.T.);
#501=ORIENTED_EDGE('',*,*,#500,.T.);
#503=ORIENTED_EDGE('',*,*,#502,.T.);
#505=ORIENTED_EDGE('',*,*,#504,.F.);
#507=ORIENTED_EDGE('',*,*,#506,.T.);
#509=ORIENTED_EDGE('',*,*,#508,.T.);
#511=ORIENTED_EDGE('',*,*,#510,.T.);
#513=ORIENTED_EDGE('',*,*,#512,.F.);
#514=EDGE_LOOP('',(#483,#485,#487,#489,#491,#493,#495,#497,#499,#501,#503,#505,
#507,#509,#511,#513));
#515=FACE_BOUND('',#514,.F.);
#516=ADVANCED_FACE('',(#481,#515),#475,.F.);
#517=CARTESIAN_POINT('',(0.E0,0.E0,0.E0));
#518=DIRECTION('',(0.E0,1.E0,0.E0));
#519=DIRECTION('',(1.E0,0.E0,0.E0));
#520=AXIS2_PLACEMENT_3D('',#517,#518,#519);
#521=CYLINDRICAL_SURFACE('',#520,9.85E-2);
#523=ORIENTED_EDGE('',*,*,#522,.T.);
#525=ORIENTED_EDGE('',*,*,#524,.F.);
#526=ORIENTED_EDGE('',*,*,#476,.F.);
#528=ORIENTED_EDGE('',*,*,#527,.T.);
#529=EDGE_LOOP('',(#523,#525,#526,#528));
#530=FACE_OUTER_BOUND('',#529,.F.);
#531=ADVANCED_FACE('',(#530),#521,.T.);
#532=CARTESIAN_POINT('',(0.E0,-1.296124031008E-2,0.E0));
#533=DIRECTION('',(0.E0,1.E0,0.E0));
#534=DIRECTION('',(1.E0,0.E0,0.E0));
#535=AXIS2_PLACEMENT_3D('',#532,#533,#534);
#536=SPHERICAL_SURFACE('',#535,1.074612403101E-1);
#537=ORIENTED_EDGE('',*,*,#522,.F.);
#539=ORIENTED_EDGE('',*,*,#538,.T.);
#541=ORIENTED_EDGE('',*,*,#540,.F.);
#542=EDGE_LOOP('',(#537,#539,#541));
#543=FACE_OUTER_BOUND('',#542,.F.);
#544=ADVANCED_FACE('',(#543),#536,.T.);
#545=CARTESIAN_POINT('',(0.E0,-1.296124031008E-2,0.E0));
#546=DIRECTION('',(0.E0,1.E0,0.E0));
#547=DIRECTION('',(1.E0,0.E0,0.E0));
#548=AXIS2_PLACEMENT_3D('',#545,#546,#547);
#549=SPHERICAL_SURFACE('',#548,1.074612403101E-1);
#551=ORIENTED_EDGE('',*,*,#550,.F.);
#552=ORIENTED_EDGE('',*,*,#540,.T.);
#553=ORIENTED_EDGE('',*,*,#538,.F.);
#554=EDGE_LOOP('',(#551,#552,#553));
#555=FACE_OUTER_BOUND('',#554,.F.);
#556=ADVANCED_FACE('',(#555),#549,.T.);
#557=CARTESIAN_POINT('',(0.E0,0.E0,0.E0));
#558=DIRECTION('',(0.E0,1.E0,0.E0));
#559=DIRECTION('',(1.E0,0.E0,0.E0));
#560=AXIS2_PLACEMENT_3D('',#557,#558,#559);
#561=CYLINDRICAL_SURFACE('',#560,9.85E-2);
#562=ORIENTED_EDGE('',*,*,#550,.T.);
#563=ORIENTED_EDGE('',*,*,#527,.F.);
#564=ORIENTED_EDGE('',*,*,#478,.F.);
#565=ORIENTED_EDGE('',*,*,#524,.T.);
#566=EDGE_LOOP('',(#562,#563,#564,#565));
#567=FACE_OUTER_BOUND('',#566,.F.);
#568=ADVANCED_FACE('',(#567),#561,.T.);
#569=CARTESIAN_POINT('',(-6.814690014960E-2,0.E0,1.6E-2));
#570=DIRECTION('',(-6.559190892058E-1,0.E0,7.548312052475E-1));
#571=DIRECTION('',(-7.548312052475E-1,0.E0,-6.559190892058E-1));
#572=AXIS2_PLACEMENT_3D('',#569,#570,#571);
#573=PLANE('',#572);
#575=ORIENTED_EDGE('',*,*,#574,.F.);
#576=ORIENTED_EDGE('',*,*,#482,.F.);
#578=ORIENTED_EDGE('',*,*,#577,.T.);
#580=ORIENTED_EDGE('',*,*,#579,.F.);
#581=EDGE_LOOP('',(#575,#576,#578,#580));
#582=FACE_OUTER_BOUND('',#581,.F.);
#583=ADVANCED_FACE('',(#582),#573,.T.);
#584=CARTESIAN_POINT('',(-7.040160403494E-2,0.E0,0.E0));
#585=DIRECTION('',(0.E0,-1.E0,0.E0));
#586=DIRECTION('',(0.E0,0.E0,1.E0));
#587=AXIS2_PLACEMENT_3D('',#584,#585,#586);
#588=CYLINDRICAL_SURFACE('',#587,1.059839596506E-2);
#589=ORIENTED_EDGE('',*,*,#574,.T.);
#591=ORIENTED_EDGE('',*,*,#590,.F.);
#593=ORIENTED_EDGE('',*,*,#592,.F.);
#594=ORIENTED_EDGE('',*,*,#484,.F.);
#595=EDGE_LOOP('',(#589,#591,#593,#594));
#596=FACE_OUTER_BOUND('',#595,.F.);
#597=ADVANCED_FACE('',(#596),#588,.T.);
#598=CARTESIAN_POINT('',(0.E0,-8.799999994875E-2,0.E0));
#599=DIRECTION('',(0.E0,1.E0,0.E0));
#600=DIRECTION('',(1.E0,0.E0,0.E0));
#601=AXIS2_PLACEMENT_3D('',#598,#599,#600);
#602=CONICAL_SURFACE('',#601,7.790000001324E-2,1.448473356032E1);
#604=ORIENTED_EDGE('',*,*,#603,.T.);
#606=ORIENTED_EDGE('',*,*,#605,.F.);
#608=ORIENTED_EDGE('',*,*,#607,.T.);
#610=ORIENTED_EDGE('',*,*,#609,.F.);
#611=EDGE_LOOP('',(#604,#606,#608,#610));
#612=FACE_OUTER_BOUND('',#611,.F.);
#613=ADVANCED_FACE('',(#612),#602,.T.);
#614=CARTESIAN_POINT('',(0.E0,-8.799999994875E-2,0.E0));
#615=DIRECTION('',(0.E0,1.E0,0.E0));
#616=DIRECTION('',(1.E0,0.E0,0.E0));
#617=AXIS2_PLACEMENT_3D('',#614,#615,#616);
#618=CONICAL_SURFACE('',#617,7.790000001324E-2,1.448473356032E1);
#620=ORIENTED_EDGE('',*,*,#619,.F.);
#622=ORIENTED_EDGE('',*,*,#621,.F.);
#624=ORIENTED_EDGE('',*,*,#623,.T.);
#626=ORIENTED_EDGE('',*,*,#625,.T.);
#628=ORIENTED_EDGE('',*,*,#627,.T.);
#629=EDGE_LOOP('',(#620,#622,#624,#626,#628));
#630=FACE_OUTER_BOUND('',#629,.F.);
#631=ADVANCED_FACE('',(#630),#618,.T.);
#632=CARTESIAN_POINT('',(0.E0,-8.799999994875E-2,0.E0));
#633=DIRECTION('',(0.E0,1.E0,0.E0));
#634=DIRECTION('',(1.E0,0.E0,0.E0));
#635=AXIS2_PLACEMENT_3D('',#632,#633,#634);
#636=CONICAL_SURFACE('',#635,7.790000001324E-2,1.448473356032E1);
#638=ORIENTED_EDGE('',*,*,#637,.T.);
#640=ORIENTED_EDGE('',*,*,#639,.F.);
#642=ORIENTED_EDGE('',*,*,#641,.T.);
#644=ORIENTED_EDGE('',*,*,#643,.F.);
#645=EDGE_LOOP('',(#638,#640,#642,#644));
#646=FACE_OUTER_BOUND('',#645,.F.);
#647=ADVANCED_FACE('',(#646),#636,.T.);
#648=CARTESIAN_POINT('',(0.E0,-8.799999994875E-2,0.E0));
#649=DIRECTION('',(0.E0,1.E0,0.E0));
#650=DIRECTION('',(1.E0,0.E0,0.E0));
#651=AXIS2_PLACEMENT_3D('',#648,#649,#650);
#652=CONICAL_SURFACE('',#651,7.790000001324E-2,1.448473356032E1);
#653=ORIENTED_EDGE('',*,*,#590,.T.);
#654=ORIENTED_EDGE('',*,*,#579,.T.);
#656=ORIENTED_EDGE('',*,*,#655,.F.);
#658=ORIENTED_EDGE('',*,*,#657,.F.);
#660=ORIENTED_EDGE('',*,*,#659,.T.);
#661=EDGE_LOOP('',(#653,#654,#656,#658,#660));
#662=FACE_OUTER_BOUND('',#661,.F.);
#663=ADVANCED_FACE('',(#662),#652,.T.);
#664=CARTESIAN_POINT('',(1.6E-2,0.E0,6.814690014960E-2));
#665=DIRECTION('',(7.548312052475E-1,0.E0,6.559190892058E-1));
#666=DIRECTION('',(-6.559190892058E-1,0.E0,7.548312052475E-1));
#667=AXIS2_PLACEMENT_3D('',#664,#665,#666);
#668=PLANE('',#667);
#670=ORIENTED_EDGE('',*,*,#669,.F.);
#671=ORIENTED_EDGE('',*,*,#506,.F.);
#673=ORIENTED_EDGE('',*,*,#672,.T.);
#674=ORIENTED_EDGE('',*,*,#603,.F.);
#675=EDGE_LOOP('',(#670,#671,#673,#674));
#676=FACE_OUTER_BOUND('',#675,.F.);
#677=ADVANCED_FACE('',(#676),#668,.T.);
#678=CARTESIAN_POINT('',(0.E0,0.E0,7.040160403494E-2));
#679=DIRECTION('',(0.E0,-1.E0,0.E0));
#680=DIRECTION('',(1.E0,0.E0,0.E0));
#681=AXIS2_PLACEMENT_3D('',#678,#679,#680);
#682=CYLINDRICAL_SURFACE('',#681,1.059839596506E-2);
#683=ORIENTED_EDGE('',*,*,#669,.T.);
#684=ORIENTED_EDGE('',*,*,#609,.T.);
#686=ORIENTED_EDGE('',*,*,#685,.F.);
#687=ORIENTED_EDGE('',*,*,#508,.F.);
#688=EDGE_LOOP('',(#683,#684,#686,#687));
#689=FACE_OUTER_BOUND('',#688,.F.);
#690=ADVANCED_FACE('',(#689),#682,.T.);
#691=CARTESIAN_POINT('',(-8.E-3,0.E0,7.735329426338E-2));
#692=DIRECTION('',(-7.548312052475E-1,0.E0,6.559190892058E-1));
#693=DIRECTION('',(-6.559190892058E-1,0.E0,-7.548312052475E-1));
#694=AXIS2_PLACEMENT_3D('',#691,#692,#693);
#695=PLANE('',#694);
#696=ORIENTED_EDGE('',*,*,#685,.T.);
#697=ORIENTED_EDGE('',*,*,#607,.F.);
#699=ORIENTED_EDGE('',*,*,#698,.T.);
#700=ORIENTED_EDGE('',*,*,#510,.F.);
#701=EDGE_LOOP('',(#696,#697,#699,#700));
#702=FACE_OUTER_BOUND('',#701,.F.);
#703=ADVANCED_FACE('',(#702),#695,.T.);
#704=CARTESIAN_POINT('',(0.E0,-2.5E-1,0.E0));
#705=DIRECTION('',(0.E0,1.E0,0.E0));
#706=DIRECTION('',(1.E0,0.E0,0.E0));
#707=AXIS2_PLACEMENT_3D('',#704,#705,#706);
#708=CONICAL_SURFACE('',#707,7.3E-2,6.875163546391E-1);
#709=ORIENTED_EDGE('',*,*,#605,.T.);
#710=ORIENTED_EDGE('',*,*,#672,.F.);
#711=ORIENTED_EDGE('',*,*,#504,.T.);
#713=ORIENTED_EDGE('',*,*,#712,.F.);
#714=ORIENTED_EDGE('',*,*,#621,.T.);
#716=ORIENTED_EDGE('',*,*,#715,.F.);
#718=ORIENTED_EDGE('',*,*,#717,.T.);
#720=ORIENTED_EDGE('',*,*,#719,.T.);
#721=ORIENTED_EDGE('',*,*,#655,.T.);
#722=ORIENTED_EDGE('',*,*,#577,.F.);
#723=ORIENTED_EDGE('',*,*,#512,.T.);
#724=ORIENTED_EDGE('',*,*,#698,.F.);
#725=EDGE_LOOP('',(#709,#710,#711,#713,#714,#716,#718,#720,#721,#722,#723,
#724));
#726=FACE_OUTER_BOUND('',#725,.F.);
#727=ADVANCED_FACE('',(#726),#708,.T.);
#728=CARTESIAN_POINT('',(7.735329426338E-2,0.E0,8.E-3));
#729=DIRECTION('',(6.559190892058E-1,0.E0,7.548312052475E-1));
#730=DIRECTION('',(-7.548312052475E-1,0.E0,6.559190892058E-1));
#731=AXIS2_PLACEMENT_3D('',#728,#729,#730);
#732=PLANE('',#731);
#734=ORIENTED_EDGE('',*,*,#733,.T.);
#735=ORIENTED_EDGE('',*,*,#623,.F.);
#736=ORIENTED_EDGE('',*,*,#712,.T.);
#737=ORIENTED_EDGE('',*,*,#502,.F.);
#738=EDGE_LOOP('',(#734,#735,#736,#737));
#739=FACE_OUTER_BOUND('',#738,.F.);
#740=ADVANCED_FACE('',(#739),#732,.T.);
#741=CARTESIAN_POINT('',(7.040160403494E-2,0.E0,0.E0));
#742=DIRECTION('',(0.E0,-1.E0,0.E0));
#743=DIRECTION('',(0.E0,0.E0,-1.E0));
#744=AXIS2_PLACEMENT_3D('',#741,#742,#743);
#745=CYLINDRICAL_SURFACE('',#744,1.059839596506E-2);
#747=ORIENTED_EDGE('',*,*,#746,.T.);
#748=ORIENTED_EDGE('',*,*,#625,.F.);
#749=ORIENTED_EDGE('',*,*,#733,.F.);
#750=ORIENTED_EDGE('',*,*,#500,.F.);
#751=EDGE_LOOP('',(#747,#748,#749,#750));
#752=FACE_OUTER_BOUND('',#751,.F.);
#753=ADVANCED_FACE('',(#752),#745,.T.);
#754=CARTESIAN_POINT('',(6.814690014960E-2,0.E0,-1.6E-2));
#755=DIRECTION('',(6.559190892058E-1,0.E0,-7.548312052475E-1));
#756=DIRECTION('',(7.548312052475E-1,0.E0,6.559190892058E-1));
#757=AXIS2_PLACEMENT_3D('',#754,#755,#756);
#758=PLANE('',#757);
#759=ORIENTED_EDGE('',*,*,#746,.F.);
#760=ORIENTED_EDGE('',*,*,#498,.F.);
#762=ORIENTED_EDGE('',*,*,#761,.T.);
#763=ORIENTED_EDGE('',*,*,#627,.F.);
#764=EDGE_LOOP('',(#759,#760,#762,#763));
#765=FACE_OUTER_BOUND('',#764,.F.);
#766=ADVANCED_FACE('',(#765),#758,.T.);
#767=CARTESIAN_POINT('',(0.E0,-2.5E-1,0.E0));
#768=DIRECTION('',(0.E0,1.E0,0.E0));
#769=DIRECTION('',(1.E0,0.E0,0.E0));
#770=AXIS2_PLACEMENT_3D('',#767,#768,#769);
#771=CONICAL_SURFACE('',#770,7.3E-2,6.875163546391E-1);
#772=ORIENTED_EDGE('',*,*,#619,.T.);
#773=ORIENTED_EDGE('',*,*,#761,.F.);
#774=ORIENTED_EDGE('',*,*,#496,.T.);
#776=ORIENTED_EDGE('',*,*,#775,.F.);
#777=ORIENTED_EDGE('',*,*,#639,.T.);
#779=ORIENTED_EDGE('',*,*,#778,.F.);
#780=ORIENTED_EDGE('',*,*,#488,.T.);
#782=ORIENTED_EDGE('',*,*,#781,.F.);
#783=ORIENTED_EDGE('',*,*,#657,.T.);
#784=ORIENTED_EDGE('',*,*,#719,.F.);
#786=ORIENTED_EDGE('',*,*,#785,.F.);
#787=ORIENTED_EDGE('',*,*,#715,.T.);
#788=EDGE_LOOP('',(#772,#773,#774,#776,#777,#779,#780,#782,#783,#784,#786,
#787));
#789=FACE_OUTER_BOUND('',#788,.F.);
#790=ADVANCED_FACE('',(#789),#771,.T.);
#791=CARTESIAN_POINT('',(8.E-3,0.E0,-7.735329426338E-2));
#792=DIRECTION('',(7.548312052475E-1,0.E0,-6.559190892058E-1));
#793=DIRECTION('',(6.559190892058E-1,0.E0,7.548312052475E-1));
#794=AXIS2_PLACEMENT_3D('',#791,#792,#793);
#795=PLANE('',#794);
#797=ORIENTED_EDGE('',*,*,#796,.T.);
#798=ORIENTED_EDGE('',*,*,#641,.F.);
#799=ORIENTED_EDGE('',*,*,#775,.T.);
#800=ORIENTED_EDGE('',*,*,#494,.F.);
#801=EDGE_LOOP('',(#797,#798,#799,#800));
#802=FACE_OUTER_BOUND('',#801,.F.);
#803=ADVANCED_FACE('',(#802),#795,.T.);
#804=CARTESIAN_POINT('',(0.E0,0.E0,-7.040160403494E-2));
#805=DIRECTION('',(0.E0,-1.E0,0.E0));
#806=DIRECTION('',(-1.E0,0.E0,0.E0));
#807=AXIS2_PLACEMENT_3D('',#804,#805,#806);
#808=CYLINDRICAL_SURFACE('',#807,1.059839596506E-2);
#810=ORIENTED_EDGE('',*,*,#809,.T.);
#811=ORIENTED_EDGE('',*,*,#643,.T.);
#812=ORIENTED_EDGE('',*,*,#796,.F.);
#813=ORIENTED_EDGE('',*,*,#492,.F.);
#814=EDGE_LOOP('',(#810,#811,#812,#813));
#815=FACE_OUTER_BOUND('',#814,.F.);
#816=ADVANCED_FACE('',(#815),#808,.T.);
#817=CARTESIAN_POINT('',(-1.6E-2,0.E0,-6.814690014960E-2));
#818=DIRECTION('',(-7.548312052475E-1,0.E0,-6.559190892058E-1));
#819=DIRECTION('',(6.559190892058E-1,0.E0,-7.548312052475E-1));
#820=AXIS2_PLACEMENT_3D('',#817,#818,#819);
#821=PLANE('',#820);
#822=ORIENTED_EDGE('',*,*,#809,.F.);
#823=ORIENTED_EDGE('',*,*,#490,.F.);
#824=ORIENTED_EDGE('',*,*,#778,.T.);
#825=ORIENTED_EDGE('',*,*,#637,.F.);
#826=EDGE_LOOP('',(#822,#823,#824,#825));
#827=FACE_OUTER_BOUND('',#826,.F.);
#828=ADVANCED_FACE('',(#827),#821,.T.);
#829=CARTESIAN_POINT('',(-7.735329426338E-2,0.E0,-8.E-3));
#830=DIRECTION('',(-6.559190892058E-1,0.E0,-7.548312052475E-1));
#831=DIRECTION('',(7.548312052475E-1,0.E0,-6.559190892058E-1));
#832=AXIS2_PLACEMENT_3D('',#829,#830,#831);
#833=PLANE('',#832);
#834=ORIENTED_EDGE('',*,*,#592,.T.);
#835=ORIENTED_EDGE('',*,*,#659,.F.);
#836=ORIENTED_EDGE('',*,*,#781,.T.);
#837=ORIENTED_EDGE('',*,*,#486,.F.);
#838=EDGE_LOOP('',(#834,#835,#836,#837));
#839=FACE_OUTER_BOUND('',#838,.F.);
#840=ADVANCED_FACE('',(#839),#833,.T.);
#841=CARTESIAN_POINT('',(0.E0,0.E0,0.E0));
#842=DIRECTION('',(0.E0,1.E0,0.E0));
#843=DIRECTION('',(1.E0,0.E0,0.E0));
#844=AXIS2_PLACEMENT_3D('',#841,#842,#843);
#845=CYLINDRICAL_SURFACE('',#844,7.E-2);
#847=ORIENTED_EDGE('',*,*,#846,.T.);
#848=ORIENTED_EDGE('',*,*,#785,.T.);
#850=ORIENTED_EDGE('',*,*,#849,.F.);
#852=ORIENTED_EDGE('',*,*,#851,.F.);
#853=EDGE_LOOP('',(#847,#848,#850,#852));
#854=FACE_OUTER_BOUND('',#853,.F.);
#855=ADVANCED_FACE('',(#854),#845,.T.);
#856=CARTESIAN_POINT('',(0.E0,0.E0,0.E0));
#857=DIRECTION('',(0.E0,1.E0,0.E0));
#858=DIRECTION('',(1.E0,0.E0,0.E0));
#859=AXIS2_PLACEMENT_3D('',#856,#857,#858);
#860=CYLINDRICAL_SURFACE('',#859,7.E-2);
#861=ORIENTED_EDGE('',*,*,#846,.F.);
#863=ORIENTED_EDGE('',*,*,#862,.T.);
#864=ORIENTED_EDGE('',*,*,#849,.T.);
#865=ORIENTED_EDGE('',*,*,#717,.F.);
#866=EDGE_LOOP('',(#861,#863,#864,#865));
#867=FACE_OUTER_BOUND('',#866,.F.);
#868=ADVANCED_FACE('',(#867),#860,.T.);
#869=CARTESIAN_POINT('',(0.E0,-6.25E-1,0.E0));
#870=DIRECTION('',(0.E0,1.E0,0.E0));
#871=DIRECTION('',(1.E0,0.E0,0.E0));
#872=AXIS2_PLACEMENT_3D('',#869,#870,#871);
#873=PLANE('',#872);
#874=ORIENTED_EDGE('',*,*,#862,.F.);
#875=ORIENTED_EDGE('',*,*,#851,.T.);
#876=EDGE_LOOP('',(#874,#875));
#877=FACE_OUTER_BOUND('',#876,.F.);
#878=ADVANCED_FACE('',(#877),#873,.F.);
#881=DIMENSIONAL_EXPONENTS(1.E0,0.E0,0.E0,0.E0,0.E0,0.E0,0.E0);
#883=LENGTH_MEASURE_WITH_UNIT(LENGTH_MEASURE(2.54E1),#882);
#884=(CONVERSION_BASED_UNIT('INCH',#883)LENGTH_UNIT()NAMED_UNIT(#881));
#885=DIMENSIONAL_EXPONENTS(0.E0,0.E0,0.E0,0.E0,0.E0,0.E0,0.E0);
#887=PLANE_ANGLE_MEASURE_WITH_UNIT(PLANE_ANGLE_MEASURE(1.745329251994E-2),#886);
#888=(CONVERSION_BASED_UNIT('DEGREE',#887)NAMED_UNIT(*)PLANE_ANGLE_UNIT());
#890=UNCERTAINTY_MEASURE_WITH_UNIT(LENGTH_MEASURE(7.715248713376E-5),#884,
'closure',
'Maximum model space distance between geometric entities at asserted connectivities');
#891=(GEOMETRIC_REPRESENTATION_CONTEXT(3)GLOBAL_UNCERTAINTY_ASSIGNED_CONTEXT((
#890))GLOBAL_UNIT_ASSIGNED_CONTEXT((#884,#888,#889))REPRESENTATION_CONTEXT
('ID1','3'));
#893=APPLICATION_CONTEXT(
'CONFIGURATION CONTROLLED 3D DESIGNS OF MECHANICAL PARTS AND ASSEMBLIES');
#894=APPLICATION_PROTOCOL_DEFINITION('international standard',
'config_control_design',1994,#893);
#895=DESIGN_CONTEXT('',#893,'design');
#896=MECHANICAL_CONTEXT('',#893,'mechanical');
#897=PRODUCT('51513530625F_SW0001','51513530625F_SW0001','NOT SPECIFIED',
(#896));
#898=PRODUCT_DEFINITION_FORMATION_WITH_SPECIFIED_SOURCE('1','LAST_VERSION',#897,
.MADE.);
#902=PRODUCT_CATEGORY('part','');
#903=PRODUCT_RELATED_PRODUCT_CATEGORY('detail','',(#897));
#904=PRODUCT_CATEGORY_RELATIONSHIP('','',#902,#903);
#905=SECURITY_CLASSIFICATION_LEVEL('unclassified');
#906=SECURITY_CLASSIFICATION('','',#905);
#907=CC_DESIGN_SECURITY_CLASSIFICATION(#906,(#898));
#908=APPROVAL_STATUS('approved');
#909=APPROVAL(#908,'');
#910=CC_DESIGN_APPROVAL(#909,(#906,#898,#899));
#911=CALENDAR_DATE(122,10,2);
#912=COORDINATED_UNIVERSAL_TIME_OFFSET(5,0,.BEHIND.);
#913=LOCAL_TIME(11,13,4.5E1,#912);
#914=DATE_AND_TIME(#911,#913);
#915=APPROVAL_DATE_TIME(#914,#909);
#916=DATE_TIME_ROLE('creation_date');
#917=CC_DESIGN_DATE_AND_TIME_ASSIGNMENT(#914,#916,(#899));
#918=DATE_TIME_ROLE('classification_date');
#919=CC_DESIGN_DATE_AND_TIME_ASSIGNMENT(#914,#918,(#906));
#920=PERSON('UNSPECIFIED','UNSPECIFIED',$,$,$,$);
#921=ORGANIZATION('UNSPECIFIED','UNSPECIFIED','UNSPECIFIED');
#922=PERSON_AND_ORGANIZATION(#920,#921);
#923=APPROVAL_ROLE('approver');
#924=APPROVAL_PERSON_ORGANIZATION(#922,#909,#923);
#925=PERSON_AND_ORGANIZATION_ROLE('creator');
#926=CC_DESIGN_PERSON_AND_ORGANIZATION_ASSIGNMENT(#922,#925,(#898,#899));
#927=PERSON_AND_ORGANIZATION_ROLE('design_supplier');
#928=CC_DESIGN_PERSON_AND_ORGANIZATION_ASSIGNMENT(#922,#927,(#898));
#929=PERSON_AND_ORGANIZATION_ROLE('classification_officer');
#930=CC_DESIGN_PERSON_AND_ORGANIZATION_ASSIGNMENT(#922,#929,(#906));
#931=PERSON_AND_ORGANIZATION_ROLE('design_owner');
#932=CC_DESIGN_PERSON_AND_ORGANIZATION_ASSIGNMENT(#922,#931,(#897));
#5=CIRCLE('',#4,9.85E-2);
#10=CIRCLE('',#9,9.85E-2);
#19=CIRCLE('',#18,1.059839596506E-2);
#28=CIRCLE('',#27,7.6E-2);
#37=CIRCLE('',#36,1.059839596506E-2);
#46=CIRCLE('',#45,7.6E-2);
#55=CIRCLE('',#54,1.059839596506E-2);
#64=CIRCLE('',#63,7.6E-2);
#73=CIRCLE('',#72,1.059839596506E-2);
#82=CIRCLE('',#81,7.6E-2);
#87=CIRCLE('',#86,9.85E-2);
#96=CIRCLE('',#95,1.074612403101E-1);
#101=CIRCLE('',#100,1.074612403101E-1);
#106=CIRCLE('',#105,9.85E-2);
#116=B_SPLINE_CURVE_WITH_KNOTS('',3,(#111,#112,#113,#114,#115),.UNSPECIFIED.,
.F.,.F.,(4,1,4),(0.E0,5.E-1,1.E0),.UNSPECIFIED.);
#140=B_SPLINE_CURVE_WITH_KNOTS('',3,(#121,#122,#123,#124,#125,#126,#127,#128,
#129,#130,#131,#132,#133,#134,#135,#136,#137,#138,#139),.UNSPECIFIED.,.F.,.F.,
(4,1,1,1,1,1,1,1,1,1,1,1,1,1,1,1,4),(0.E0,6.25E-2,1.25E-1,1.875E-1,2.5E-1,
3.125E-1,3.75E-1,4.375E-1,5.E-1,5.625E-1,6.25E-1,6.875E-1,7.5E-1,8.125E-1,
8.75E-1,9.375E-1,1.E0),.UNSPECIFIED.);
#160=B_SPLINE_CURVE_WITH_KNOTS('',3,(#141,#142,#143,#144,#145,#146,#147,#148,
#149,#150,#151,#152,#153,#154,#155,#156,#157,#158,#159),.UNSPECIFIED.,.F.,.F.,
(4,1,1,1,1,1,1,1,1,1,1,1,1,1,1,1,4),(0.E0,6.25E-2,1.25E-1,1.875E-1,2.5E-1,
3.125E-1,3.75E-1,4.375E-1,5.E-1,5.625E-1,6.25E-1,6.875E-1,7.5E-1,8.125E-1,
8.75E-1,9.375E-1,1.E0),.UNSPECIFIED.);
#166=B_SPLINE_CURVE_WITH_KNOTS('',3,(#161,#162,#163,#164,#165),.UNSPECIFIED.,
.F.,.F.,(4,1,4),(0.E0,5.E-1,1.E0),.UNSPECIFIED.);
#190=B_SPLINE_CURVE_WITH_KNOTS('',3,(#171,#172,#173,#174,#175,#176,#177,#178,
#179,#180,#181,#182,#183,#184,#185,#186,#187,#188,#189),.UNSPECIFIED.,.F.,.F.,
(4,1,1,1,1,1,1,1,1,1,1,1,1,1,1,1,4),(0.E0,6.25E-2,1.25E-1,1.875E-1,2.5E-1,
3.125E-1,3.75E-1,4.375E-1,5.E-1,5.625E-1,6.25E-1,6.875E-1,7.5E-1,8.125E-1,
8.75E-1,9.375E-1,1.E0),.UNSPECIFIED.);
#200=B_SPLINE_CURVE_WITH_KNOTS('',3,(#195,#196,#197,#198,#199),.UNSPECIFIED.,
.F.,.F.,(4,1,4),(0.E0,5.E-1,1.E0),.UNSPECIFIED.);
#205=CIRCLE('',#204,7.48E-2);
#212=B_SPLINE_CURVE_WITH_KNOTS('',3,(#206,#207,#208,#209,#210,#211),
.UNSPECIFIED.,.F.,.F.,(4,1,1,4),(0.E0,3.333333333333E-1,6.666666666667E-1,1.E0),
.UNSPECIFIED.);
#219=B_SPLINE_CURVE_WITH_KNOTS('',3,(#213,#214,#215,#216,#217,#218),
.UNSPECIFIED.,.F.,.F.,(4,1,1,4),(0.E0,3.333333333333E-1,6.666666666667E-1,1.E0),
.UNSPECIFIED.);
#224=CIRCLE('',#223,7.48E-2);
#233=CIRCLE('',#232,7.E-2);
#242=CIRCLE('',#241,7.48E-2);
#249=B_SPLINE_CURVE_WITH_KNOTS('',3,(#243,#244,#245,#246,#247,#248),
.UNSPECIFIED.,.F.,.F.,(4,1,1,4),(0.E0,3.333333333333E-1,6.666666666667E-1,1.E0),
.UNSPECIFIED.);
#256=B_SPLINE_CURVE_WITH_KNOTS('',3,(#250,#251,#252,#253,#254,#255),
.UNSPECIFIED.,.F.,.F.,(4,1,1,4),(0.E0,3.333333333333E-1,6.666666666667E-1,1.E0),
.UNSPECIFIED.);
#266=B_SPLINE_CURVE_WITH_KNOTS('',3,(#261,#262,#263,#264,#265),.UNSPECIFIED.,
.F.,.F.,(4,1,4),(0.E0,5.E-1,1.E0),.UNSPECIFIED.);
#276=B_SPLINE_CURVE_WITH_KNOTS('',3,(#271,#272,#273,#274,#275),.UNSPECIFIED.,
.F.,.F.,(4,1,4),(0.E0,5.E-1,1.E0),.UNSPECIFIED.);
#281=CIRCLE('',#280,7.48E-2);
#288=B_SPLINE_CURVE_WITH_KNOTS('',3,(#282,#283,#284,#285,#286,#287),
.UNSPECIFIED.,.F.,.F.,(4,1,1,4),(0.E0,3.333333333333E-1,6.666666666667E-1,1.E0),
.UNSPECIFIED.);
#295=B_SPLINE_CURVE_WITH_KNOTS('',3,(#289,#290,#291,#292,#293,#294),
.UNSPECIFIED.,.F.,.F.,(4,1,1,4),(0.E0,3.333333333333E-1,6.666666666667E-1,1.E0),
.UNSPECIFIED.);
#300=CIRCLE('',#299,7.48E-2);
#307=B_SPLINE_CURVE_WITH_KNOTS('',3,(#301,#302,#303,#304,#305,#306),
.UNSPECIFIED.,.F.,.F.,(4,1,1,4),(0.E0,3.333333333333E-1,6.666666666667E-1,1.E0),
.UNSPECIFIED.);
#314=B_SPLINE_CURVE_WITH_KNOTS('',3,(#308,#309,#310,#311,#312,#313),
.UNSPECIFIED.,.F.,.F.,(4,1,1,4),(0.E0,3.333333333333E-1,6.666666666667E-1,1.E0),
.UNSPECIFIED.);
#319=CIRCLE('',#318,7.48E-2);
#324=CIRCLE('',#323,7.E-2);
#334=B_SPLINE_CURVE_WITH_KNOTS('',3,(#329,#330,#331,#332,#333),.UNSPECIFIED.,
.F.,.F.,(4,1,4),(0.E0,5.E-1,1.E0),.UNSPECIFIED.);
#358=B_SPLINE_CURVE_WITH_KNOTS('',3,(#339,#340,#341,#342,#343,#344,#345,#346,
#347,#348,#349,#350,#351,#352,#353,#354,#355,#356,#357),.UNSPECIFIED.,.F.,.F.,
(4,1,1,1,1,1,1,1,1,1,1,1,1,1,1,1,4),(0.E0,6.25E-2,1.25E-1,1.875E-1,2.5E-1,
3.125E-1,3.75E-1,4.375E-1,5.E-1,5.625E-1,6.25E-1,6.875E-1,7.5E-1,8.125E-1,
8.75E-1,9.375E-1,1.E0),.UNSPECIFIED.);
#364=B_SPLINE_CURVE_WITH_KNOTS('',3,(#359,#360,#361,#362,#363),.UNSPECIFIED.,
.F.,.F.,(4,1,4),(0.E0,5.E-1,1.E0),.UNSPECIFIED.);
#374=B_SPLINE_CURVE_WITH_KNOTS('',3,(#369,#370,#371,#372,#373),.UNSPECIFIED.,
.F.,.F.,(4,1,4),(0.E0,5.E-1,1.E0),.UNSPECIFIED.);
#379=CIRCLE('',#378,7.E-2);
#388=CIRCLE('',#387,7.E-2);
#476=EDGE_CURVE('',#395,#396,#5,.T.);
#478=EDGE_CURVE('',#396,#395,#10,.T.);
#482=EDGE_CURVE('',#464,#429,#14,.T.);
#484=EDGE_CURVE('',#429,#433,#19,.T.);
#486=EDGE_CURVE('',#433,#466,#23,.T.);
#488=EDGE_CURVE('',#460,#466,#28,.T.);
#490=EDGE_CURVE('',#460,#421,#32,.T.);
#492=EDGE_CURVE('',#421,#425,#37,.T.);
#494=EDGE_CURVE('',#425,#462,#41,.T.);
#496=EDGE_CURVE('',#456,#462,#46,.T.);
#498=EDGE_CURVE('',#456,#413,#50,.T.);
#500=EDGE_CURVE('',#413,#417,#55,.T.);
#502=EDGE_CURVE('',#417,#458,#59,.T.);
#504=EDGE_CURVE('',#452,#458,#64,.T.);
#506=EDGE_CURVE('',#452,#405,#68,.T.);
#508=EDGE_CURVE('',#405,#409,#73,.T.);
#510=EDGE_CURVE('',#409,#454,#77,.T.);
#512=EDGE_CURVE('',#464,#454,#82,.T.);
#522=EDGE_CURVE('',#399,#400,#87,.T.);
#524=EDGE_CURVE('',#396,#400,#110,.T.);
#527=EDGE_CURVE('',#395,#399,#91,.T.);
#538=EDGE_CURVE('',#399,#402,#101,.T.);
#540=EDGE_CURVE('',#400,#402,#96,.T.);
#550=EDGE_CURVE('',#400,#399,#106,.T.);
#574=EDGE_CURVE('',#429,#430,#120,.T.);
#577=EDGE_CURVE('',#464,#441,#249,.T.);
#579=EDGE_CURVE('',#430,#441,#116,.T.);
#590=EDGE_CURVE('',#434,#430,#160,.T.);
#592=EDGE_CURVE('',#433,#434,#368,.T.);
#603=EDGE_CURVE('',#406,#435,#166,.T.);
#605=EDGE_CURVE('',#436,#435,#205,.T.);
#607=EDGE_CURVE('',#436,#410,#200,.T.);
#609=EDGE_CURVE('',#406,#410,#190,.T.);
#619=EDGE_CURVE('',#468,#437,#281,.T.);
#621=EDGE_CURVE('',#438,#468,#224,.T.);
#623=EDGE_CURVE('',#438,#418,#266,.T.);
#625=EDGE_CURVE('',#418,#414,#140,.T.);
#627=EDGE_CURVE('',#414,#437,#276,.T.);
#637=EDGE_CURVE('',#422,#439,#364,.T.);
#639=EDGE_CURVE('',#440,#439,#300,.T.);
#641=EDGE_CURVE('',#440,#426,#334,.T.);
#643=EDGE_CURVE('',#422,#426,#358,.T.);
#655=EDGE_CURVE('',#470,#441,#242,.T.);
#657=EDGE_CURVE('',#442,#470,#319,.T.);
#659=EDGE_CURVE('',#442,#434,#374,.T.);
#669=EDGE_CURVE('',#405,#406,#170,.T.);
#672=EDGE_CURVE('',#452,#435,#212,.T.);
#685=EDGE_CURVE('',#409,#410,#194,.T.);
#698=EDGE_CURVE('',#436,#454,#256,.T.);
#712=EDGE_CURVE('',#438,#458,#219,.T.);
#715=EDGE_CURVE('',#446,#468,#228,.T.);
#717=EDGE_CURVE('',#446,#450,#233,.T.);
#719=EDGE_CURVE('',#450,#470,#237,.T.);
#733=EDGE_CURVE('',#417,#418,#260,.T.);
#746=EDGE_CURVE('',#413,#414,#270,.T.);
#761=EDGE_CURVE('',#456,#437,#288,.T.);
#775=EDGE_CURVE('',#440,#462,#295,.T.);
#778=EDGE_CURVE('',#460,#439,#307,.T.);
#781=EDGE_CURVE('',#442,#466,#314,.T.);
#785=EDGE_CURVE('',#446,#450,#324,.T.);
#796=EDGE_CURVE('',#425,#426,#328,.T.);
#809=EDGE_CURVE('',#421,#422,#338,.T.);
#846=EDGE_CURVE('',#445,#446,#383,.T.);
#849=EDGE_CURVE('',#449,#450,#392,.T.);
#851=EDGE_CURVE('',#445,#449,#379,.T.);
#862=EDGE_CURVE('',#445,#449,#388,.T.);
#879=OPEN_SHELL('',(#516,#531,#544,#556,#568,#583,#597,#613,#631,#647,#663,#677,
#690,#703,#727,#740,#753,#766,#790,#803,#816,#828,#840,#855,#868,#878));
#880=SHELL_BASED_SURFACE_MODEL('',(#879));
#882=(LENGTH_UNIT()NAMED_UNIT(*)SI_UNIT(.MILLI.,.METRE.));
#886=(NAMED_UNIT(*)PLANE_ANGLE_UNIT()SI_UNIT($,.RADIAN.));
#889=(NAMED_UNIT(*)SI_UNIT($,.STERADIAN.)SOLID_ANGLE_UNIT());
#892=MANIFOLD_SURFACE_SHAPE_REPRESENTATION('',(#880),#891);
#899=PRODUCT_DEFINITION('design','',#898,#895);
#900=PRODUCT_DEFINITION_SHAPE('','SHAPE FOR 51513530625F_SW0001.',#899);
#901=SHAPE_DEFINITION_REPRESENTATION(#900,#892);
ENDSEC;
END-ISO-10303-21;
