ISO-10303-21;
HEADER;
FILE_DESCRIPTION((''),'2;1');
FILE_NAME('51513530700F_SW0001','2022-07-05T13:24:17',('ldichoso'),(''),
'CREO PARAMETRIC BY PTC INC, 2021304','CREO PARAMETRIC BY PTC INC, 2021304','');
FILE_SCHEMA(('CONFIG_CONTROL_DESIGN'));
ENDSEC;
DATA;
#1=CARTESIAN_POINT('',(0.E0,0.E0,0.E0));
#2=DIRECTION('',(0.E0,1.E0,0.E0));
#3=DIRECTION('',(1.E0,0.E0,0.E0));
#4=AXIS2_PLACEMENT_3D('',#1,#2,#3);
#6=CARTESIAN_POINT('',(0.E0,0.E0,0.E0));
#7=DIRECTION('',(0.E0,1.E0,0.E0));
#8=DIRECTION('',(-1.E0,0.E0,0.E0));
#9=AXIS2_PLACEMENT_3D('',#6,#7,#8);
#11=DIRECTION('',(-7.548312052476E-1,0.E0,-6.559190892057E-1));
#12=VECTOR('',#11,2.619366376941E-3);
#13=CARTESIAN_POINT('',(-7.537611478409E-2,0.E0,9.718092408259E-3));
#14=LINE('',#13,#12);
#15=CARTESIAN_POINT('',(-7.040160403494E-2,0.E0,0.E0));
#16=DIRECTION('',(0.E0,-1.E0,0.E0));
#17=DIRECTION('',(-6.559190892058E-1,0.E0,7.548312052475E-1));
#18=AXIS2_PLACEMENT_3D('',#15,#16,#17);
#20=DIRECTION('',(7.548312052476E-1,0.E0,-6.559190892057E-1));
#21=VECTOR('',#20,2.619366376941E-3);
#22=CARTESIAN_POINT('',(-7.735329426338E-2,0.E0,-8.E-3));
#23=LINE('',#22,#21);
#24=CARTESIAN_POINT('',(0.E0,0.E0,0.E0));
#25=DIRECTION('',(0.E0,1.E0,0.E0));
#26=DIRECTION('',(-1.278696369508E-1,0.E0,-9.917909840012E-1));
#27=AXIS2_PLACEMENT_3D('',#24,#25,#26);
#29=DIRECTION('',(6.559190892057E-1,0.E0,-7.548312052476E-1));
#30=VECTOR('',#29,2.619366376941E-3);
#31=CARTESIAN_POINT('',(-9.718092408259E-3,0.E0,-7.537611478409E-2));
#32=LINE('',#31,#30);
#33=CARTESIAN_POINT('',(0.E0,0.E0,-7.040160403494E-2));
#34=DIRECTION('',(0.E0,-1.E0,0.E0));
#35=DIRECTION('',(-7.548312052475E-1,0.E0,-6.559190892058E-1));
#36=AXIS2_PLACEMENT_3D('',#33,#34,#35);
#38=DIRECTION('',(6.559190892057E-1,0.E0,7.548312052476E-1));
#39=VECTOR('',#38,2.619366376941E-3);
#40=CARTESIAN_POINT('',(8.E-3,0.E0,-7.735329426338E-2));
#41=LINE('',#40,#39);
#42=CARTESIAN_POINT('',(0.E0,0.E0,0.E0));
#43=DIRECTION('',(0.E0,1.E0,0.E0));
#44=DIRECTION('',(9.917909840012E-1,0.E0,-1.278696369508E-1));
#45=AXIS2_PLACEMENT_3D('',#42,#43,#44);
#47=DIRECTION('',(7.548312052476E-1,0.E0,6.559190892057E-1));
#48=VECTOR('',#47,2.619366376941E-3);
#49=CARTESIAN_POINT('',(7.537611478409E-2,0.E0,-9.718092408259E-3));
#50=LINE('',#49,#48);
#51=CARTESIAN_POINT('',(7.040160403494E-2,0.E0,0.E0));
#52=DIRECTION('',(0.E0,-1.E0,0.E0));
#53=DIRECTION('',(6.559190892058E-1,0.E0,-7.548312052475E-1));
#54=AXIS2_PLACEMENT_3D('',#51,#52,#53);
#56=DIRECTION('',(-7.548312052476E-1,0.E0,6.559190892057E-1));
#57=VECTOR('',#56,2.619366376941E-3);
#58=CARTESIAN_POINT('',(7.735329426338E-2,0.E0,8.E-3));
#59=LINE('',#58,#57);
#60=CARTESIAN_POINT('',(0.E0,0.E0,0.E0));
#61=DIRECTION('',(0.E0,1.E0,0.E0));
#62=DIRECTION('',(1.278696369508E-1,0.E0,9.917909840012E-1));
#63=AXIS2_PLACEMENT_3D('',#60,#61,#62);
#65=DIRECTION('',(-6.559190892057E-1,0.E0,7.548312052476E-1));
#66=VECTOR('',#65,2.619366376941E-3);
#67=CARTESIAN_POINT('',(9.718092408259E-3,0.E0,7.537611478409E-2));
#68=LINE('',#67,#66);
#69=CARTESIAN_POINT('',(0.E0,0.E0,7.040160403494E-2));
#70=DIRECTION('',(0.E0,-1.E0,0.E0));
#71=DIRECTION('',(7.548312052475E-1,0.E0,6.559190892058E-1));
#72=AXIS2_PLACEMENT_3D('',#69,#70,#71);
#74=DIRECTION('',(-6.559190892057E-1,0.E0,-7.548312052476E-1));
#75=VECTOR('',#74,2.619366376941E-3);
#76=CARTESIAN_POINT('',(-8.E-3,0.E0,7.735329426338E-2));
#77=LINE('',#76,#75);
#78=CARTESIAN_POINT('',(0.E0,0.E0,0.E0));
#79=DIRECTION('',(0.E0,1.E0,0.E0));
#80=DIRECTION('',(-9.917909840012E-1,0.E0,1.278696369508E-1));
#81=AXIS2_PLACEMENT_3D('',#78,#79,#80);
#83=CARTESIAN_POINT('',(0.E0,3.E-2,0.E0));
#84=DIRECTION('',(0.E0,1.E0,0.E0));
#85=DIRECTION('',(1.E0,0.E0,0.E0));
#86=AXIS2_PLACEMENT_3D('',#83,#84,#85);
#88=DIRECTION('',(0.E0,1.E0,0.E0));
#89=VECTOR('',#88,3.E-2);
#90=CARTESIAN_POINT('',(9.85E-2,0.E0,0.E0));
#91=LINE('',#90,#89);
#92=CARTESIAN_POINT('',(0.E0,-1.296124031008E-2,0.E0));
#93=DIRECTION('',(0.E0,0.E0,-1.E0));
#94=DIRECTION('',(-9.166095581605E-1,3.997835888188E-1,0.E0));
#95=AXIS2_PLACEMENT_3D('',#92,#93,#94);
#97=CARTESIAN_POINT('',(0.E0,-1.296124031008E-2,0.E0));
#98=DIRECTION('',(0.E0,0.E0,1.E0));
#99=DIRECTION('',(9.166095581605E-1,3.997835888188E-1,0.E0));
#100=AXIS2_PLACEMENT_3D('',#97,#98,#99);
#102=CARTESIAN_POINT('',(0.E0,3.E-2,0.E0));
#103=DIRECTION('',(0.E0,1.E0,0.E0));
#104=DIRECTION('',(-1.E0,0.E0,0.E0));
#105=AXIS2_PLACEMENT_3D('',#102,#103,#104);
#107=DIRECTION('',(0.E0,1.E0,0.E0));
#108=VECTOR('',#107,3.E-2);
#109=CARTESIAN_POINT('',(-9.85E-2,0.E0,0.E0));
#110=LINE('',#109,#108);
#111=CARTESIAN_POINT('',(-7.735329426338E-2,-8.919520851861E-2,8.E-3));
#112=CARTESIAN_POINT('',(-7.685650403337E-2,-9.103016881335E-2,
8.431691473446E-3));
#113=CARTESIAN_POINT('',(-7.586229477277E-2,-9.466609295119E-2,
9.295620823690E-3));
#114=CARTESIAN_POINT('',(-7.486578846978E-2,-9.823354218376E-2,
1.016154621482E-2));
#115=CARTESIAN_POINT('',(-7.436666800897E-2,-1.E-1,1.059526256860E-2));
#117=DIRECTION('',(0.E0,-1.E0,0.E0));
#118=VECTOR('',#117,8.919520851861E-2);
#119=CARTESIAN_POINT('',(-7.735329426338E-2,0.E0,8.E-3));
#120=LINE('',#119,#118);
#121=CARTESIAN_POINT('',(7.735329426338E-2,-8.919520851861E-2,8.E-3));
#122=CARTESIAN_POINT('',(7.759295569192E-2,-8.830998739511E-2,
7.791743498634E-3));
#123=CARTESIAN_POINT('',(7.805282465525E-2,-8.661880569300E-2,
7.354299572657E-3));
#124=CARTESIAN_POINT('',(7.868090103666E-2,-8.432639390981E-2,
6.639525404838E-3));
#125=CARTESIAN_POINT('',(7.924935274452E-2,-8.226555621474E-2,
5.861620785842E-3));
#126=CARTESIAN_POINT('',(7.975691124826E-2,-8.043648860979E-2,
5.014158662141E-3));
#127=CARTESIAN_POINT('',(8.020084396467E-2,-7.884510392376E-2,
4.083259200105E-3));
#128=CARTESIAN_POINT('',(8.057200665843E-2,-7.752053134234E-2,
3.053295790818E-3));
#129=CARTESIAN_POINT('',(8.085534677113E-2,-7.651305933904E-2,
1.889025725076E-3));
#130=CARTESIAN_POINT('',(8.100677415173E-2,-7.597596635375E-2,
6.226863498827E-4));
#131=CARTESIAN_POINT('',(8.100661532479E-2,-7.597652930288E-2,
-6.251353786616E-4));
#132=CARTESIAN_POINT('',(8.085498366972E-2,-7.651434837336E-2,
-1.890948529892E-3));
#133=CARTESIAN_POINT('',(8.057150811290E-2,-7.752230728381E-2,
-3.054905889968E-3));
#134=CARTESIAN_POINT('',(8.020039621916E-2,-7.884670579982E-2,
-4.084292249845E-3));
#135=CARTESIAN_POINT('',(7.975651178042E-2,-8.043792489235E-2,
-5.014886743670E-3));
#136=CARTESIAN_POINT('',(7.924905357086E-2,-8.226663838356E-2,
-5.862057051340E-3));
#137=CARTESIAN_POINT('',(7.868069885646E-2,-8.432713018061E-2,
-6.639768854913E-3));
#138=CARTESIAN_POINT('',(7.805272274293E-2,-8.661918001914E-2,
-7.354398634900E-3));
#139=CARTESIAN_POINT('',(7.759292166103E-2,-8.831011309272E-2,
-7.791773070166E-3));
#140=CARTESIAN_POINT('',(7.735329426338E-2,-8.919520851861E-2,-8.E-3));
#142=CARTESIAN_POINT('',(-7.735329426338E-2,-8.919520851861E-2,-8.E-3));
#143=CARTESIAN_POINT('',(-7.759295569192E-2,-8.830998739511E-2,
-7.791743498634E-3));
#144=CARTESIAN_POINT('',(-7.805282465525E-2,-8.661880569300E-2,
-7.354299572657E-3));
#145=CARTESIAN_POINT('',(-7.868090103666E-2,-8.432639390981E-2,
-6.639525404838E-3));
#146=CARTESIAN_POINT('',(-7.924935274452E-2,-8.226555621474E-2,
-5.861620785842E-3));
#147=CARTESIAN_POINT('',(-7.975691124826E-2,-8.043648860979E-2,
-5.014158662141E-3));
#148=CARTESIAN_POINT('',(-8.020084396467E-2,-7.884510392376E-2,
-4.083259200105E-3));
#149=CARTESIAN_POINT('',(-8.057200665843E-2,-7.752053134234E-2,
-3.053295790818E-3));
#150=CARTESIAN_POINT('',(-8.085534677113E-2,-7.651305933904E-2,
-1.889025725076E-3));
#151=CARTESIAN_POINT('',(-8.100677415173E-2,-7.597596635375E-2,
-6.226863498826E-4));
#152=CARTESIAN_POINT('',(-8.100661532479E-2,-7.597652930288E-2,
6.251353786616E-4));
#153=CARTESIAN_POINT('',(-8.085498366972E-2,-7.651434837336E-2,
1.890948529892E-3));
#154=CARTESIAN_POINT('',(-8.057150811290E-2,-7.752230728381E-2,
3.054905889968E-3));
#155=CARTESIAN_POINT('',(-8.020039621916E-2,-7.884670579982E-2,
4.084292249845E-3));
#156=CARTESIAN_POINT('',(-7.975651178042E-2,-8.043792489235E-2,
5.014886743670E-3));
#157=CARTESIAN_POINT('',(-7.924905357086E-2,-8.226663838356E-2,
5.862057051340E-3));
#158=CARTESIAN_POINT('',(-7.868069885646E-2,-8.432713018061E-2,
6.639768854913E-3));
#159=CARTESIAN_POINT('',(-7.805272274293E-2,-8.661918001914E-2,
7.354398634900E-3));
#160=CARTESIAN_POINT('',(-7.759292166103E-2,-8.831011309272E-2,
7.791773070165E-3));
#161=CARTESIAN_POINT('',(-7.735329426338E-2,-8.919520851861E-2,8.E-3));
#163=CARTESIAN_POINT('',(8.E-3,-8.919520851861E-2,7.735329426338E-2));
#164=CARTESIAN_POINT('',(8.431691473446E-3,-9.103016881335E-2,
7.685650403337E-2));
#165=CARTESIAN_POINT('',(9.295620823690E-3,-9.466609295119E-2,
7.586229477277E-2));
#166=CARTESIAN_POINT('',(1.016154621482E-2,-9.823354218376E-2,
7.486578846978E-2));
#167=CARTESIAN_POINT('',(1.059526256860E-2,-1.E-1,7.436666800897E-2));
#169=DIRECTION('',(0.E0,-1.E0,0.E0));
#170=VECTOR('',#169,8.919520851861E-2);
#171=CARTESIAN_POINT('',(8.E-3,0.E0,7.735329426338E-2));
#172=LINE('',#171,#170);
#173=CARTESIAN_POINT('',(8.E-3,-8.919520851861E-2,7.735329426338E-2));
#174=CARTESIAN_POINT('',(7.791773070165E-3,-8.831011309272E-2,
7.759292166103E-2));
#175=CARTESIAN_POINT('',(7.354398634900E-3,-8.661918001914E-2,
7.805272274293E-2));
#176=CARTESIAN_POINT('',(6.639768854913E-3,-8.432713018061E-2,
7.868069885646E-2));
#177=CARTESIAN_POINT('',(5.862057051340E-3,-8.226663838356E-2,
7.924905357086E-2));
#178=CARTESIAN_POINT('',(5.014886743670E-3,-8.043792489235E-2,
7.975651178042E-2));
#179=CARTESIAN_POINT('',(4.084292249845E-3,-7.884670579982E-2,
8.020039621916E-2));
#180=CARTESIAN_POINT('',(3.054905889968E-3,-7.752230728381E-2,
8.057150811290E-2));
#181=CARTESIAN_POINT('',(1.890948529892E-3,-7.651434837336E-2,
8.085498366972E-2));
#182=CARTESIAN_POINT('',(6.251353786616E-4,-7.597652930288E-2,
8.100661532479E-2));
#183=CARTESIAN_POINT('',(-6.226863498827E-4,-7.597596635375E-2,
8.100677415173E-2));
#184=CARTESIAN_POINT('',(-1.889025725076E-3,-7.651305933904E-2,
8.085534677113E-2));
#185=CARTESIAN_POINT('',(-3.053295790818E-3,-7.752053134234E-2,
8.057200665843E-2));
#186=CARTESIAN_POINT('',(-4.083259200105E-3,-7.884510392376E-2,
8.020084396467E-2));
#187=CARTESIAN_POINT('',(-5.014158662141E-3,-8.043648860979E-2,
7.975691124826E-2));
#188=CARTESIAN_POINT('',(-5.861620785842E-3,-8.226555621474E-2,
7.924935274452E-2));
#189=CARTESIAN_POINT('',(-6.639525404838E-3,-8.432639390981E-2,
7.868090103666E-2));
#190=CARTESIAN_POINT('',(-7.354299572657E-3,-8.661880569300E-2,
7.805282465525E-2));
#191=CARTESIAN_POINT('',(-7.791743498634E-3,-8.830998739511E-2,
7.759295569192E-2));
#192=CARTESIAN_POINT('',(-8.E-3,-8.919520851861E-2,7.735329426338E-2));
#194=DIRECTION('',(0.E0,-1.E0,0.E0));
#195=VECTOR('',#194,8.919520851861E-2);
#196=CARTESIAN_POINT('',(-8.E-3,0.E0,7.735329426338E-2));
#197=LINE('',#196,#195);
#198=CARTESIAN_POINT('',(-1.059526256860E-2,-1.E-1,7.436666800897E-2));
#199=CARTESIAN_POINT('',(-1.016165075435E-2,-9.823396795664E-2,
7.486566816577E-2));
#200=CARTESIAN_POINT('',(-9.295825787059E-3,-9.466694686680E-2,
7.586205890107E-2));
#201=CARTESIAN_POINT('',(-8.431792148705E-3,-9.103059674653E-2,
7.685638817636E-2));
#202=CARTESIAN_POINT('',(-8.E-3,-8.919520851861E-2,7.735329426338E-2));
#204=CARTESIAN_POINT('',(0.E0,-1.E-1,0.E0));
#205=DIRECTION('',(0.E0,1.E0,0.E0));
#206=DIRECTION('',(-1.410489143824E-1,0.E0,9.900026281539E-1));
#207=AXIS2_PLACEMENT_3D('',#204,#205,#206);
#209=CARTESIAN_POINT('',(9.718092408259E-3,0.E0,7.537611478409E-2));
#210=CARTESIAN_POINT('',(9.815378329464E-3,-1.117439442532E-2,
7.526415821755E-2));
#211=CARTESIAN_POINT('',(1.001006103616E-2,-3.348099472738E-2,
7.504011750193E-2));
#212=CARTESIAN_POINT('',(1.030243983328E-2,-6.681434344453E-2,
7.470364819732E-2));
#213=CARTESIAN_POINT('',(1.049761045360E-2,-8.895217908084E-2,
7.447904599107E-2));
#214=CARTESIAN_POINT('',(1.059526256860E-2,-1.E-1,7.436666800897E-2));
#216=CARTESIAN_POINT('',(7.436666800897E-2,-1.E-1,1.059526256860E-2));
#217=CARTESIAN_POINT('',(7.447904461788E-2,-8.895231407882E-2,
1.049761164685E-2));
#218=CARTESIAN_POINT('',(7.470364500729E-2,-6.681465844895E-2,
1.030244260530E-2));
#219=CARTESIAN_POINT('',(7.504011432490E-2,-3.348131049058E-2,
1.001006379687E-2));
#220=CARTESIAN_POINT('',(7.526415686167E-2,-1.117452975630E-2,
9.815379507675E-3));
#221=CARTESIAN_POINT('',(7.537611478409E-2,0.E0,9.718092408259E-3));
#223=CARTESIAN_POINT('',(0.E0,-1.E-1,0.E0));
#224=DIRECTION('',(0.E0,1.E0,0.E0));
#225=DIRECTION('',(9.900026281539E-1,0.E0,1.410489143824E-1));
#226=AXIS2_PLACEMENT_3D('',#223,#224,#225);
#228=DIRECTION('',(8.823185955329E-3,9.999610749372E-1,0.E0));
#229=VECTOR('',#228,5.800225774152E-1);
#230=CARTESIAN_POINT('',(7.E-2,-6.8E-1,0.E0));
#231=LINE('',#230,#229);
#232=CARTESIAN_POINT('',(0.E0,-6.8E-1,0.E0));
#233=DIRECTION('',(0.E0,-1.E0,0.E0));
#234=DIRECTION('',(1.E0,0.E0,0.E0));
#235=AXIS2_PLACEMENT_3D('',#232,#233,#234);
#237=DIRECTION('',(-8.823185955329E-3,9.999610749372E-1,0.E0));
#238=VECTOR('',#237,5.800225774152E-1);
#239=CARTESIAN_POINT('',(-7.E-2,-6.8E-1,0.E0));
#240=LINE('',#239,#238);
#241=CARTESIAN_POINT('',(0.E0,-1.E-1,0.E0));
#242=DIRECTION('',(0.E0,1.E0,0.E0));
#243=DIRECTION('',(-1.E0,0.E0,0.E0));
#244=AXIS2_PLACEMENT_3D('',#241,#242,#243);
#246=CARTESIAN_POINT('',(-7.537611478409E-2,0.E0,9.718092408259E-3));
#247=CARTESIAN_POINT('',(-7.526415821755E-2,-1.117439442532E-2,
9.815378329464E-3));
#248=CARTESIAN_POINT('',(-7.504011750193E-2,-3.348099472739E-2,
1.001006103616E-2));
#249=CARTESIAN_POINT('',(-7.470364819732E-2,-6.681434344453E-2,
1.030243983328E-2));
#250=CARTESIAN_POINT('',(-7.447904599107E-2,-8.895217908084E-2,
1.049761045360E-2));
#251=CARTESIAN_POINT('',(-7.436666800897E-2,-1.E-1,1.059526256860E-2));
#253=CARTESIAN_POINT('',(-1.059526256860E-2,-1.E-1,7.436666800897E-2));
#254=CARTESIAN_POINT('',(-1.049761164685E-2,-8.895231407883E-2,
7.447904461788E-2));
#255=CARTESIAN_POINT('',(-1.030244260530E-2,-6.681465844895E-2,
7.470364500729E-2));
#256=CARTESIAN_POINT('',(-1.001006379687E-2,-3.348131049058E-2,
7.504011432490E-2));
#257=CARTESIAN_POINT('',(-9.815379507675E-3,-1.117452975630E-2,
7.526415686167E-2));
#258=CARTESIAN_POINT('',(-9.718092408259E-3,0.E0,7.537611478409E-2));
#260=DIRECTION('',(0.E0,-1.E0,0.E0));
#261=VECTOR('',#260,8.919520851861E-2);
#262=CARTESIAN_POINT('',(7.735329426338E-2,0.E0,8.E-3));
#263=LINE('',#262,#261);
#264=CARTESIAN_POINT('',(7.436666800897E-2,-1.E-1,1.059526256860E-2));
#265=CARTESIAN_POINT('',(7.486566816577E-2,-9.823396795664E-2,
1.016165075435E-2));
#266=CARTESIAN_POINT('',(7.586205890107E-2,-9.466694686680E-2,
9.295825787059E-3));
#267=CARTESIAN_POINT('',(7.685638817636E-2,-9.103059674653E-2,
8.431792148705E-3));
#268=CARTESIAN_POINT('',(7.735329426338E-2,-8.919520851861E-2,8.E-3));
#270=DIRECTION('',(0.E0,-1.E0,0.E0));
#271=VECTOR('',#270,8.919520851861E-2);
#272=CARTESIAN_POINT('',(7.735329426338E-2,0.E0,-8.E-3));
#273=LINE('',#272,#271);
#274=CARTESIAN_POINT('',(7.735329426338E-2,-8.919520851861E-2,-8.E-3));
#275=CARTESIAN_POINT('',(7.685650403337E-2,-9.103016881336E-2,
-8.431691473446E-3));
#276=CARTESIAN_POINT('',(7.586229477277E-2,-9.466609295119E-2,
-9.295620823690E-3));
#277=CARTESIAN_POINT('',(7.486578846978E-2,-9.823354218376E-2,
-1.016154621482E-2));
#278=CARTESIAN_POINT('',(7.436666800897E-2,-1.E-1,-1.059526256860E-2));
#280=CARTESIAN_POINT('',(0.E0,-1.E-1,0.E0));
#281=DIRECTION('',(0.E0,1.E0,0.E0));
#282=DIRECTION('',(1.E0,0.E0,0.E0));
#283=AXIS2_PLACEMENT_3D('',#280,#281,#282);
#285=CARTESIAN_POINT('',(7.537611478409E-2,0.E0,-9.718092408259E-3));
#286=CARTESIAN_POINT('',(7.526415821755E-2,-1.117439442532E-2,
-9.815378329464E-3));
#287=CARTESIAN_POINT('',(7.504011750193E-2,-3.348099472739E-2,
-1.001006103616E-2));
#288=CARTESIAN_POINT('',(7.470364819732E-2,-6.681434344453E-2,
-1.030243983328E-2));
#289=CARTESIAN_POINT('',(7.447904599107E-2,-8.895217908084E-2,
-1.049761045360E-2));
#290=CARTESIAN_POINT('',(7.436666800897E-2,-1.E-1,-1.059526256860E-2));
#292=CARTESIAN_POINT('',(1.059526256860E-2,-1.E-1,-7.436666800897E-2));
#293=CARTESIAN_POINT('',(1.049761164685E-2,-8.895231407882E-2,
-7.447904461788E-2));
#294=CARTESIAN_POINT('',(1.030244260530E-2,-6.681465844895E-2,
-7.470364500729E-2));
#295=CARTESIAN_POINT('',(1.001006379687E-2,-3.348131049058E-2,
-7.504011432490E-2));
#296=CARTESIAN_POINT('',(9.815379507675E-3,-1.117452975630E-2,
-7.526415686167E-2));
#297=CARTESIAN_POINT('',(9.718092408260E-3,0.E0,-7.537611478409E-2));
#299=CARTESIAN_POINT('',(0.E0,-1.E-1,0.E0));
#300=DIRECTION('',(0.E0,1.E0,0.E0));
#301=DIRECTION('',(1.410489143824E-1,0.E0,-9.900026281539E-1));
#302=AXIS2_PLACEMENT_3D('',#299,#300,#301);
#304=CARTESIAN_POINT('',(-9.718092408259E-3,0.E0,-7.537611478409E-2));
#305=CARTESIAN_POINT('',(-9.815378329464E-3,-1.117439442532E-2,
-7.526415821755E-2));
#306=CARTESIAN_POINT('',(-1.001006103616E-2,-3.348099472739E-2,
-7.504011750193E-2));
#307=CARTESIAN_POINT('',(-1.030243983328E-2,-6.681434344453E-2,
-7.470364819732E-2));
#308=CARTESIAN_POINT('',(-1.049761045360E-2,-8.895217908084E-2,
-7.447904599107E-2));
#309=CARTESIAN_POINT('',(-1.059526256860E-2,-1.E-1,-7.436666800897E-2));
#311=CARTESIAN_POINT('',(-7.436666800897E-2,-1.E-1,-1.059526256860E-2));
#312=CARTESIAN_POINT('',(-7.447904461788E-2,-8.895231407882E-2,
-1.049761164685E-2));
#313=CARTESIAN_POINT('',(-7.470364500729E-2,-6.681465844895E-2,
-1.030244260530E-2));
#314=CARTESIAN_POINT('',(-7.504011432490E-2,-3.348131049058E-2,
-1.001006379687E-2));
#315=CARTESIAN_POINT('',(-7.526415686167E-2,-1.117452975630E-2,
-9.815379507675E-3));
#316=CARTESIAN_POINT('',(-7.537611478409E-2,0.E0,-9.718092408260E-3));
#318=CARTESIAN_POINT('',(0.E0,-1.E-1,0.E0));
#319=DIRECTION('',(0.E0,1.E0,0.E0));
#320=DIRECTION('',(-9.900026281539E-1,0.E0,-1.410489143824E-1));
#321=AXIS2_PLACEMENT_3D('',#318,#319,#320);
#323=CARTESIAN_POINT('',(0.E0,-6.8E-1,0.E0));
#324=DIRECTION('',(0.E0,1.E0,0.E0));
#325=DIRECTION('',(1.E0,0.E0,0.E0));
#326=AXIS2_PLACEMENT_3D('',#323,#324,#325);
#328=DIRECTION('',(0.E0,-1.E0,0.E0));
#329=VECTOR('',#328,8.919520851861E-2);
#330=CARTESIAN_POINT('',(8.E-3,0.E0,-7.735329426338E-2));
#331=LINE('',#330,#329);
#332=CARTESIAN_POINT('',(1.059526256860E-2,-1.E-1,-7.436666800897E-2));
#333=CARTESIAN_POINT('',(1.016165075435E-2,-9.823396795664E-2,
-7.486566816577E-2));
#334=CARTESIAN_POINT('',(9.295825787060E-3,-9.466694686680E-2,
-7.586205890107E-2));
#335=CARTESIAN_POINT('',(8.431792148705E-3,-9.103059674653E-2,
-7.685638817636E-2));
#336=CARTESIAN_POINT('',(8.E-3,-8.919520851861E-2,-7.735329426338E-2));
#338=DIRECTION('',(0.E0,-1.E0,0.E0));
#339=VECTOR('',#338,8.919520851861E-2);
#340=CARTESIAN_POINT('',(-8.E-3,0.E0,-7.735329426338E-2));
#341=LINE('',#340,#339);
#342=CARTESIAN_POINT('',(-8.E-3,-8.919520851861E-2,-7.735329426338E-2));
#343=CARTESIAN_POINT('',(-7.791773070165E-3,-8.831011309272E-2,
-7.759292166103E-2));
#344=CARTESIAN_POINT('',(-7.354398634900E-3,-8.661918001914E-2,
-7.805272274293E-2));
#345=CARTESIAN_POINT('',(-6.639768854913E-3,-8.432713018061E-2,
-7.868069885646E-2));
#346=CARTESIAN_POINT('',(-5.862057051340E-3,-8.226663838356E-2,
-7.924905357086E-2));
#347=CARTESIAN_POINT('',(-5.014886743670E-3,-8.043792489235E-2,
-7.975651178042E-2));
#348=CARTESIAN_POINT('',(-4.084292249845E-3,-7.884670579982E-2,
-8.020039621916E-2));
#349=CARTESIAN_POINT('',(-3.054905889968E-3,-7.752230728381E-2,
-8.057150811290E-2));
#350=CARTESIAN_POINT('',(-1.890948529892E-3,-7.651434837336E-2,
-8.085498366972E-2));
#351=CARTESIAN_POINT('',(-6.251353786616E-4,-7.597652930288E-2,
-8.100661532479E-2));
#352=CARTESIAN_POINT('',(6.226863498827E-4,-7.597596635375E-2,
-8.100677415173E-2));
#353=CARTESIAN_POINT('',(1.889025725076E-3,-7.651305933904E-2,
-8.085534677113E-2));
#354=CARTESIAN_POINT('',(3.053295790818E-3,-7.752053134234E-2,
-8.057200665843E-2));
#355=CARTESIAN_POINT('',(4.083259200105E-3,-7.884510392376E-2,
-8.020084396467E-2));
#356=CARTESIAN_POINT('',(5.014158662141E-3,-8.043648860979E-2,
-7.975691124826E-2));
#357=CARTESIAN_POINT('',(5.861620785842E-3,-8.226555621474E-2,
-7.924935274452E-2));
#358=CARTESIAN_POINT('',(6.639525404838E-3,-8.432639390981E-2,
-7.868090103666E-2));
#359=CARTESIAN_POINT('',(7.354299572657E-3,-8.661880569300E-2,
-7.805282465525E-2));
#360=CARTESIAN_POINT('',(7.791743498634E-3,-8.830998739511E-2,
-7.759295569192E-2));
#361=CARTESIAN_POINT('',(8.E-3,-8.919520851861E-2,-7.735329426338E-2));
#363=CARTESIAN_POINT('',(-8.E-3,-8.919520851861E-2,-7.735329426338E-2));
#364=CARTESIAN_POINT('',(-8.431691473446E-3,-9.103016881335E-2,
-7.685650403337E-2));
#365=CARTESIAN_POINT('',(-9.295620823690E-3,-9.466609295119E-2,
-7.586229477277E-2));
#366=CARTESIAN_POINT('',(-1.016154621482E-2,-9.823354218376E-2,
-7.486578846978E-2));
#367=CARTESIAN_POINT('',(-1.059526256860E-2,-1.E-1,-7.436666800897E-2));
#369=DIRECTION('',(0.E0,-1.E0,0.E0));
#370=VECTOR('',#369,8.919520851861E-2);
#371=CARTESIAN_POINT('',(-7.735329426338E-2,0.E0,-8.E-3));
#372=LINE('',#371,#370);
#373=CARTESIAN_POINT('',(-7.436666800897E-2,-1.E-1,-1.059526256860E-2));
#374=CARTESIAN_POINT('',(-7.486566816577E-2,-9.823396795664E-2,
-1.016165075435E-2));
#375=CARTESIAN_POINT('',(-7.586205890107E-2,-9.466694686680E-2,
-9.295825787060E-3));
#376=CARTESIAN_POINT('',(-7.685638817636E-2,-9.103059674653E-2,
-8.431792148705E-3));
#377=CARTESIAN_POINT('',(-7.735329426338E-2,-8.919520851861E-2,-8.E-3));
#379=CARTESIAN_POINT('',(0.E0,-7.E-1,0.E0));
#380=DIRECTION('',(0.E0,1.E0,0.E0));
#381=DIRECTION('',(1.E0,0.E0,0.E0));
#382=AXIS2_PLACEMENT_3D('',#379,#380,#381);
#384=DIRECTION('',(0.E0,1.E0,0.E0));
#385=VECTOR('',#384,2.E-2);
#386=CARTESIAN_POINT('',(7.E-2,-7.E-1,0.E0));
#387=LINE('',#386,#385);
#388=CARTESIAN_POINT('',(0.E0,-7.E-1,0.E0));
#389=DIRECTION('',(0.E0,-1.E0,0.E0));
#390=DIRECTION('',(1.E0,0.E0,0.E0));
#391=AXIS2_PLACEMENT_3D('',#388,#389,#390);
#393=DIRECTION('',(0.E0,1.E0,0.E0));
#394=VECTOR('',#393,2.E-2);
#395=CARTESIAN_POINT('',(-7.E-2,-7.E-1,0.E0));
#396=LINE('',#395,#394);
#397=CARTESIAN_POINT('',(9.85E-2,0.E0,0.E0));
#398=CARTESIAN_POINT('',(-9.85E-2,0.E0,0.E0));
#399=VERTEX_POINT('',#397);
#400=VERTEX_POINT('',#398);
#401=CARTESIAN_POINT('',(9.85E-2,3.E-2,0.E0));
#402=CARTESIAN_POINT('',(-9.85E-2,3.E-2,0.E0));
#403=VERTEX_POINT('',#401);
#404=VERTEX_POINT('',#402);
#405=CARTESIAN_POINT('',(0.E0,9.45E-2,0.E0));
#406=VERTEX_POINT('',#405);
#407=CARTESIAN_POINT('',(8.E-3,0.E0,7.735329426338E-2));
#408=CARTESIAN_POINT('',(8.E-3,-8.919520851861E-2,7.735329426338E-2));
#409=VERTEX_POINT('',#407);
#410=VERTEX_POINT('',#408);
#411=CARTESIAN_POINT('',(-8.E-3,0.E0,7.735329426338E-2));
#412=CARTESIAN_POINT('',(-8.E-3,-8.919520851861E-2,7.735329426338E-2));
#413=VERTEX_POINT('',#411);
#414=VERTEX_POINT('',#412);
#415=CARTESIAN_POINT('',(7.735329426338E-2,0.E0,-8.E-3));
#416=CARTESIAN_POINT('',(7.735329426338E-2,-8.919520851861E-2,-8.E-3));
#417=VERTEX_POINT('',#415);
#418=VERTEX_POINT('',#416);
#419=CARTESIAN_POINT('',(7.735329426338E-2,0.E0,8.E-3));
#420=CARTESIAN_POINT('',(7.735329426338E-2,-8.919520851861E-2,8.E-3));
#421=VERTEX_POINT('',#419);
#422=VERTEX_POINT('',#420);
#423=CARTESIAN_POINT('',(-8.E-3,0.E0,-7.735329426338E-2));
#424=CARTESIAN_POINT('',(-8.E-3,-8.919520851861E-2,-7.735329426338E-2));
#425=VERTEX_POINT('',#423);
#426=VERTEX_POINT('',#424);
#427=CARTESIAN_POINT('',(8.E-3,0.E0,-7.735329426338E-2));
#428=CARTESIAN_POINT('',(8.E-3,-8.919520851861E-2,-7.735329426338E-2));
#429=VERTEX_POINT('',#427);
#430=VERTEX_POINT('',#428);
#431=CARTESIAN_POINT('',(-7.735329426338E-2,0.E0,8.E-3));
#432=CARTESIAN_POINT('',(-7.735329426338E-2,-8.919520851861E-2,8.E-3));
#433=VERTEX_POINT('',#431);
#434=VERTEX_POINT('',#432);
#435=CARTESIAN_POINT('',(-7.735329426338E-2,0.E0,-8.E-3));
#436=CARTESIAN_POINT('',(-7.735329426338E-2,-8.919520851861E-2,-8.E-3));
#437=VERTEX_POINT('',#435);
#438=VERTEX_POINT('',#436);
#439=VERTEX_POINT('',#167);
#440=VERTEX_POINT('',#198);
#441=VERTEX_POINT('',#278);
#442=VERTEX_POINT('',#264);
#443=VERTEX_POINT('',#367);
#444=VERTEX_POINT('',#332);
#445=VERTEX_POINT('',#115);
#446=VERTEX_POINT('',#373);
#447=CARTESIAN_POINT('',(7.E-2,-7.E-1,0.E0));
#448=CARTESIAN_POINT('',(7.E-2,-6.8E-1,0.E0));
#449=VERTEX_POINT('',#447);
#450=VERTEX_POINT('',#448);
#451=CARTESIAN_POINT('',(-7.E-2,-7.E-1,0.E0));
#452=CARTESIAN_POINT('',(-7.E-2,-6.8E-1,0.E0));
#453=VERTEX_POINT('',#451);
#454=VERTEX_POINT('',#452);
#455=CARTESIAN_POINT('',(9.718092408259E-3,0.E0,7.537611478409E-2));
#456=VERTEX_POINT('',#455);
#457=CARTESIAN_POINT('',(-9.718092408259E-3,0.E0,7.537611478409E-2));
#458=VERTEX_POINT('',#457);
#459=CARTESIAN_POINT('',(7.537611478409E-2,0.E0,-9.718092408259E-3));
#460=VERTEX_POINT('',#459);
#461=CARTESIAN_POINT('',(7.537611478409E-2,0.E0,9.718092408259E-3));
#462=VERTEX_POINT('',#461);
#463=CARTESIAN_POINT('',(-9.718092408259E-3,0.E0,-7.537611478409E-2));
#464=VERTEX_POINT('',#463);
#465=CARTESIAN_POINT('',(9.718092408260E-3,0.E0,-7.537611478409E-2));
#466=VERTEX_POINT('',#465);
#467=CARTESIAN_POINT('',(-7.537611478409E-2,0.E0,9.718092408259E-3));
#468=VERTEX_POINT('',#467);
#469=CARTESIAN_POINT('',(-7.537611478409E-2,0.E0,-9.718092408260E-3));
#470=VERTEX_POINT('',#469);
#471=CARTESIAN_POINT('',(7.511764705882E-2,-1.E-1,0.E0));
#472=VERTEX_POINT('',#471);
#473=CARTESIAN_POINT('',(-7.511764705882E-2,-1.E-1,0.E0));
#474=VERTEX_POINT('',#473);
#475=CARTESIAN_POINT('',(0.E0,0.E0,0.E0));
#476=DIRECTION('',(0.E0,1.E0,0.E0));
#477=DIRECTION('',(1.E0,0.E0,0.E0));
#478=AXIS2_PLACEMENT_3D('',#475,#476,#477);
#479=PLANE('',#478);
#481=ORIENTED_EDGE('',*,*,#480,.T.);
#483=ORIENTED_EDGE('',*,*,#482,.T.);
#484=EDGE_LOOP('',(#481,#483));
#485=FACE_OUTER_BOUND('',#484,.F.);
#487=ORIENTED_EDGE('',*,*,#486,.T.);
#489=ORIENTED_EDGE('',*,*,#488,.T.);
#491=ORIENTED_EDGE('',*,*,#490,.T.);
#493=ORIENTED_EDGE('',*,*,#492,.F.);
#495=ORIENTED_EDGE('',*,*,#494,.T.);
#497=ORIENTED_EDGE('',*,*,#496,.T.);
#499=ORIENTED_EDGE('',*,*,#498,.T.);
#501=ORIENTED_EDGE('',*,*,#500,.F.);
#503=ORIENTED_EDGE('',*,*,#502,.T.);
#505=ORIENTED_EDGE('',*,*,#504,.T.);
#507=ORIENTED_EDGE('',*,*,#506,.T.);
#509=ORIENTED_EDGE('',*,*,#508,.F.);
#511=ORIENTED_EDGE('',*,*,#510,.T.);
#513=ORIENTED_EDGE('',*,*,#512,.T.);
#515=ORIENTED_EDGE('',*,*,#514,.T.);
#517=ORIENTED_EDGE('',*,*,#516,.F.);
#518=EDGE_LOOP('',(#487,#489,#491,#493,#495,#497,#499,#501,#503,#505,#507,#509,
#511,#513,#515,#517));
#519=FACE_BOUND('',#518,.F.);
#520=ADVANCED_FACE('',(#485,#519),#479,.F.);
#521=CARTESIAN_POINT('',(0.E0,0.E0,0.E0));
#522=DIRECTION('',(0.E0,1.E0,0.E0));
#523=DIRECTION('',(1.E0,0.E0,0.E0));
#524=AXIS2_PLACEMENT_3D('',#521,#522,#523);
#525=CYLINDRICAL_SURFACE('',#524,9.85E-2);
#527=ORIENTED_EDGE('',*,*,#526,.T.);
#529=ORIENTED_EDGE('',*,*,#528,.F.);
#530=ORIENTED_EDGE('',*,*,#480,.F.);
#532=ORIENTED_EDGE('',*,*,#531,.T.);
#533=EDGE_LOOP('',(#527,#529,#530,#532));
#534=FACE_OUTER_BOUND('',#533,.F.);
#535=ADVANCED_FACE('',(#534),#525,.T.);
#536=CARTESIAN_POINT('',(0.E0,-1.296124031008E-2,0.E0));
#537=DIRECTION('',(0.E0,1.E0,0.E0));
#538=DIRECTION('',(1.E0,0.E0,0.E0));
#539=AXIS2_PLACEMENT_3D('',#536,#537,#538);
#540=SPHERICAL_SURFACE('',#539,1.074612403101E-1);
#541=ORIENTED_EDGE('',*,*,#526,.F.);
#543=ORIENTED_EDGE('',*,*,#542,.T.);
#545=ORIENTED_EDGE('',*,*,#544,.F.);
#546=EDGE_LOOP('',(#541,#543,#545));
#547=FACE_OUTER_BOUND('',#546,.F.);
#548=ADVANCED_FACE('',(#547),#540,.T.);
#549=CARTESIAN_POINT('',(0.E0,-1.296124031008E-2,0.E0));
#550=DIRECTION('',(0.E0,1.E0,0.E0));
#551=DIRECTION('',(1.E0,0.E0,0.E0));
#552=AXIS2_PLACEMENT_3D('',#549,#550,#551);
#553=SPHERICAL_SURFACE('',#552,1.074612403101E-1);
#555=ORIENTED_EDGE('',*,*,#554,.F.);
#556=ORIENTED_EDGE('',*,*,#544,.T.);
#557=ORIENTED_EDGE('',*,*,#542,.F.);
#558=EDGE_LOOP('',(#555,#556,#557));
#559=FACE_OUTER_BOUND('',#558,.F.);
#560=ADVANCED_FACE('',(#559),#553,.T.);
#561=CARTESIAN_POINT('',(0.E0,0.E0,0.E0));
#562=DIRECTION('',(0.E0,1.E0,0.E0));
#563=DIRECTION('',(1.E0,0.E0,0.E0));
#564=AXIS2_PLACEMENT_3D('',#561,#562,#563);
#565=CYLINDRICAL_SURFACE('',#564,9.85E-2);
#566=ORIENTED_EDGE('',*,*,#554,.T.);
#567=ORIENTED_EDGE('',*,*,#531,.F.);
#568=ORIENTED_EDGE('',*,*,#482,.F.);
#569=ORIENTED_EDGE('',*,*,#528,.T.);
#570=EDGE_LOOP('',(#566,#567,#568,#569));
#571=FACE_OUTER_BOUND('',#570,.F.);
#572=ADVANCED_FACE('',(#571),#565,.T.);
#573=CARTESIAN_POINT('',(-6.814690014960E-2,0.E0,1.6E-2));
#574=DIRECTION('',(-6.559190892058E-1,0.E0,7.548312052475E-1));
#575=DIRECTION('',(-7.548312052475E-1,0.E0,-6.559190892058E-1));
#576=AXIS2_PLACEMENT_3D('',#573,#574,#575);
#577=PLANE('',#576);
#579=ORIENTED_EDGE('',*,*,#578,.F.);
#580=ORIENTED_EDGE('',*,*,#486,.F.);
#582=ORIENTED_EDGE('',*,*,#581,.T.);
#584=ORIENTED_EDGE('',*,*,#583,.F.);
#585=EDGE_LOOP('',(#579,#580,#582,#584));
#586=FACE_OUTER_BOUND('',#585,.F.);
#587=ADVANCED_FACE('',(#586),#577,.T.);
#588=CARTESIAN_POINT('',(-7.040160403494E-2,0.E0,0.E0));
#589=DIRECTION('',(0.E0,-1.E0,0.E0));
#590=DIRECTION('',(0.E0,0.E0,1.E0));
#591=AXIS2_PLACEMENT_3D('',#588,#589,#590);
#592=CYLINDRICAL_SURFACE('',#591,1.059839596506E-2);
#593=ORIENTED_EDGE('',*,*,#578,.T.);
#595=ORIENTED_EDGE('',*,*,#594,.F.);
#597=ORIENTED_EDGE('',*,*,#596,.F.);
#598=ORIENTED_EDGE('',*,*,#488,.F.);
#599=EDGE_LOOP('',(#593,#595,#597,#598));
#600=FACE_OUTER_BOUND('',#599,.F.);
#601=ADVANCED_FACE('',(#600),#592,.T.);
#602=CARTESIAN_POINT('',(0.E0,-8.799019062063E-2,0.E0));
#603=DIRECTION('',(0.E0,1.E0,0.E0));
#604=DIRECTION('',(1.E0,0.E0,0.E0));
#605=AXIS2_PLACEMENT_3D('',#602,#603,#604);
#606=CONICAL_SURFACE('',#605,7.806122778906E-2,1.377159971708E1);
#608=ORIENTED_EDGE('',*,*,#607,.T.);
#610=ORIENTED_EDGE('',*,*,#609,.F.);
#612=ORIENTED_EDGE('',*,*,#611,.T.);
#614=ORIENTED_EDGE('',*,*,#613,.F.);
#615=EDGE_LOOP('',(#608,#610,#612,#614));
#616=FACE_OUTER_BOUND('',#615,.F.);
#617=ADVANCED_FACE('',(#616),#606,.T.);
#618=CARTESIAN_POINT('',(0.E0,-8.799019062063E-2,0.E0));
#619=DIRECTION('',(0.E0,1.E0,0.E0));
#620=DIRECTION('',(1.E0,0.E0,0.E0));
#621=AXIS2_PLACEMENT_3D('',#618,#619,#620);
#622=CONICAL_SURFACE('',#621,7.806122778906E-2,1.377159971708E1);
#624=ORIENTED_EDGE('',*,*,#623,.F.);
#626=ORIENTED_EDGE('',*,*,#625,.F.);
#628=ORIENTED_EDGE('',*,*,#627,.T.);
#630=ORIENTED_EDGE('',*,*,#629,.T.);
#632=ORIENTED_EDGE('',*,*,#631,.T.);
#633=EDGE_LOOP('',(#624,#626,#628,#630,#632));
#634=FACE_OUTER_BOUND('',#633,.F.);
#635=ADVANCED_FACE('',(#634),#622,.T.);
#636=CARTESIAN_POINT('',(0.E0,-8.799019062063E-2,0.E0));
#637=DIRECTION('',(0.E0,1.E0,0.E0));
#638=DIRECTION('',(1.E0,0.E0,0.E0));
#639=AXIS2_PLACEMENT_3D('',#636,#637,#638);
#640=CONICAL_SURFACE('',#639,7.806122778906E-2,1.377159971708E1);
#642=ORIENTED_EDGE('',*,*,#641,.T.);
#644=ORIENTED_EDGE('',*,*,#643,.F.);
#646=ORIENTED_EDGE('',*,*,#645,.T.);
#648=ORIENTED_EDGE('',*,*,#647,.F.);
#649=EDGE_LOOP('',(#642,#644,#646,#648));
#650=FACE_OUTER_BOUND('',#649,.F.);
#651=ADVANCED_FACE('',(#650),#640,.T.);
#652=CARTESIAN_POINT('',(0.E0,-8.799019062063E-2,0.E0));
#653=DIRECTION('',(0.E0,1.E0,0.E0));
#654=DIRECTION('',(1.E0,0.E0,0.E0));
#655=AXIS2_PLACEMENT_3D('',#652,#653,#654);
#656=CONICAL_SURFACE('',#655,7.806122778906E-2,1.377159971708E1);
#657=ORIENTED_EDGE('',*,*,#594,.T.);
#658=ORIENTED_EDGE('',*,*,#583,.T.);
#660=ORIENTED_EDGE('',*,*,#659,.F.);
#662=ORIENTED_EDGE('',*,*,#661,.F.);
#664=ORIENTED_EDGE('',*,*,#663,.T.);
#665=EDGE_LOOP('',(#657,#658,#660,#662,#664));
#666=FACE_OUTER_BOUND('',#665,.F.);
#667=ADVANCED_FACE('',(#666),#656,.T.);
#668=CARTESIAN_POINT('',(1.6E-2,0.E0,6.814690014960E-2));
#669=DIRECTION('',(7.548312052475E-1,0.E0,6.559190892058E-1));
#670=DIRECTION('',(-6.559190892058E-1,0.E0,7.548312052475E-1));
#671=AXIS2_PLACEMENT_3D('',#668,#669,#670);
#672=PLANE('',#671);
#674=ORIENTED_EDGE('',*,*,#673,.F.);
#675=ORIENTED_EDGE('',*,*,#510,.F.);
#677=ORIENTED_EDGE('',*,*,#676,.T.);
#678=ORIENTED_EDGE('',*,*,#607,.F.);
#679=EDGE_LOOP('',(#674,#675,#677,#678));
#680=FACE_OUTER_BOUND('',#679,.F.);
#681=ADVANCED_FACE('',(#680),#672,.T.);
#682=CARTESIAN_POINT('',(0.E0,0.E0,7.040160403494E-2));
#683=DIRECTION('',(0.E0,-1.E0,0.E0));
#684=DIRECTION('',(1.E0,0.E0,0.E0));
#685=AXIS2_PLACEMENT_3D('',#682,#683,#684);
#686=CYLINDRICAL_SURFACE('',#685,1.059839596506E-2);
#687=ORIENTED_EDGE('',*,*,#673,.T.);
#688=ORIENTED_EDGE('',*,*,#613,.T.);
#690=ORIENTED_EDGE('',*,*,#689,.F.);
#691=ORIENTED_EDGE('',*,*,#512,.F.);
#692=EDGE_LOOP('',(#687,#688,#690,#691));
#693=FACE_OUTER_BOUND('',#692,.F.);
#694=ADVANCED_FACE('',(#693),#686,.T.);
#695=CARTESIAN_POINT('',(-8.E-3,0.E0,7.735329426338E-2));
#696=DIRECTION('',(-7.548312052475E-1,0.E0,6.559190892058E-1));
#697=DIRECTION('',(-6.559190892058E-1,0.E0,-7.548312052475E-1));
#698=AXIS2_PLACEMENT_3D('',#695,#696,#697);
#699=PLANE('',#698);
#700=ORIENTED_EDGE('',*,*,#689,.T.);
#701=ORIENTED_EDGE('',*,*,#611,.F.);
#703=ORIENTED_EDGE('',*,*,#702,.T.);
#704=ORIENTED_EDGE('',*,*,#514,.F.);
#705=EDGE_LOOP('',(#700,#701,#703,#704));
#706=FACE_OUTER_BOUND('',#705,.F.);
#707=ADVANCED_FACE('',(#706),#699,.T.);
#708=CARTESIAN_POINT('',(0.E0,-3.4E-1,0.E0));
#709=DIRECTION('',(0.E0,1.E0,0.E0));
#710=DIRECTION('',(1.E0,0.E0,0.E0));
#711=AXIS2_PLACEMENT_3D('',#708,#709,#710);
#712=CONICAL_SURFACE('',#711,7.3E-2,5.055378764810E-1);
#713=ORIENTED_EDGE('',*,*,#609,.T.);
#714=ORIENTED_EDGE('',*,*,#676,.F.);
#715=ORIENTED_EDGE('',*,*,#508,.T.);
#717=ORIENTED_EDGE('',*,*,#716,.F.);
#718=ORIENTED_EDGE('',*,*,#625,.T.);
#720=ORIENTED_EDGE('',*,*,#719,.F.);
#722=ORIENTED_EDGE('',*,*,#721,.T.);
#724=ORIENTED_EDGE('',*,*,#723,.T.);
#725=ORIENTED_EDGE('',*,*,#659,.T.);
#726=ORIENTED_EDGE('',*,*,#581,.F.);
#727=ORIENTED_EDGE('',*,*,#516,.T.);
#728=ORIENTED_EDGE('',*,*,#702,.F.);
#729=EDGE_LOOP('',(#713,#714,#715,#717,#718,#720,#722,#724,#725,#726,#727,
#728));
#730=FACE_OUTER_BOUND('',#729,.F.);
#731=ADVANCED_FACE('',(#730),#712,.T.);
#732=CARTESIAN_POINT('',(7.735329426338E-2,0.E0,8.E-3));
#733=DIRECTION('',(6.559190892058E-1,0.E0,7.548312052475E-1));
#734=DIRECTION('',(-7.548312052475E-1,0.E0,6.559190892058E-1));
#735=AXIS2_PLACEMENT_3D('',#732,#733,#734);
#736=PLANE('',#735);
#738=ORIENTED_EDGE('',*,*,#737,.T.);
#739=ORIENTED_EDGE('',*,*,#627,.F.);
#740=ORIENTED_EDGE('',*,*,#716,.T.);
#741=ORIENTED_EDGE('',*,*,#506,.F.);
#742=EDGE_LOOP('',(#738,#739,#740,#741));
#743=FACE_OUTER_BOUND('',#742,.F.);
#744=ADVANCED_FACE('',(#743),#736,.T.);
#745=CARTESIAN_POINT('',(7.040160403494E-2,0.E0,0.E0));
#746=DIRECTION('',(0.E0,-1.E0,0.E0));
#747=DIRECTION('',(0.E0,0.E0,-1.E0));
#748=AXIS2_PLACEMENT_3D('',#745,#746,#747);
#749=CYLINDRICAL_SURFACE('',#748,1.059839596506E-2);
#751=ORIENTED_EDGE('',*,*,#750,.T.);
#752=ORIENTED_EDGE('',*,*,#629,.F.);
#753=ORIENTED_EDGE('',*,*,#737,.F.);
#754=ORIENTED_EDGE('',*,*,#504,.F.);
#755=EDGE_LOOP('',(#751,#752,#753,#754));
#756=FACE_OUTER_BOUND('',#755,.F.);
#757=ADVANCED_FACE('',(#756),#749,.T.);
#758=CARTESIAN_POINT('',(6.814690014960E-2,0.E0,-1.6E-2));
#759=DIRECTION('',(6.559190892058E-1,0.E0,-7.548312052475E-1));
#760=DIRECTION('',(7.548312052475E-1,0.E0,6.559190892058E-1));
#761=AXIS2_PLACEMENT_3D('',#758,#759,#760);
#762=PLANE('',#761);
#763=ORIENTED_EDGE('',*,*,#750,.F.);
#764=ORIENTED_EDGE('',*,*,#502,.F.);
#766=ORIENTED_EDGE('',*,*,#765,.T.);
#767=ORIENTED_EDGE('',*,*,#631,.F.);
#768=EDGE_LOOP('',(#763,#764,#766,#767));
#769=FACE_OUTER_BOUND('',#768,.F.);
#770=ADVANCED_FACE('',(#769),#762,.T.);
#771=CARTESIAN_POINT('',(0.E0,-3.4E-1,0.E0));
#772=DIRECTION('',(0.E0,1.E0,0.E0));
#773=DIRECTION('',(1.E0,0.E0,0.E0));
#774=AXIS2_PLACEMENT_3D('',#771,#772,#773);
#775=CONICAL_SURFACE('',#774,7.3E-2,5.055378764810E-1);
#776=ORIENTED_EDGE('',*,*,#623,.T.);
#777=ORIENTED_EDGE('',*,*,#765,.F.);
#778=ORIENTED_EDGE('',*,*,#500,.T.);
#780=ORIENTED_EDGE('',*,*,#779,.F.);
#781=ORIENTED_EDGE('',*,*,#643,.T.);
#783=ORIENTED_EDGE('',*,*,#782,.F.);
#784=ORIENTED_EDGE('',*,*,#492,.T.);
#786=ORIENTED_EDGE('',*,*,#785,.F.);
#787=ORIENTED_EDGE('',*,*,#661,.T.);
#788=ORIENTED_EDGE('',*,*,#723,.F.);
#790=ORIENTED_EDGE('',*,*,#789,.F.);
#791=ORIENTED_EDGE('',*,*,#719,.T.);
#792=EDGE_LOOP('',(#776,#777,#778,#780,#781,#783,#784,#786,#787,#788,#790,
#791));
#793=FACE_OUTER_BOUND('',#792,.F.);
#794=ADVANCED_FACE('',(#793),#775,.T.);
#795=CARTESIAN_POINT('',(8.E-3,0.E0,-7.735329426338E-2));
#796=DIRECTION('',(7.548312052475E-1,0.E0,-6.559190892058E-1));
#797=DIRECTION('',(6.559190892058E-1,0.E0,7.548312052475E-1));
#798=AXIS2_PLACEMENT_3D('',#795,#796,#797);
#799=PLANE('',#798);
#801=ORIENTED_EDGE('',*,*,#800,.T.);
#802=ORIENTED_EDGE('',*,*,#645,.F.);
#803=ORIENTED_EDGE('',*,*,#779,.T.);
#804=ORIENTED_EDGE('',*,*,#498,.F.);
#805=EDGE_LOOP('',(#801,#802,#803,#804));
#806=FACE_OUTER_BOUND('',#805,.F.);
#807=ADVANCED_FACE('',(#806),#799,.T.);
#808=CARTESIAN_POINT('',(0.E0,0.E0,-7.040160403494E-2));
#809=DIRECTION('',(0.E0,-1.E0,0.E0));
#810=DIRECTION('',(-1.E0,0.E0,0.E0));
#811=AXIS2_PLACEMENT_3D('',#808,#809,#810);
#812=CYLINDRICAL_SURFACE('',#811,1.059839596506E-2);
#814=ORIENTED_EDGE('',*,*,#813,.T.);
#815=ORIENTED_EDGE('',*,*,#647,.T.);
#816=ORIENTED_EDGE('',*,*,#800,.F.);
#817=ORIENTED_EDGE('',*,*,#496,.F.);
#818=EDGE_LOOP('',(#814,#815,#816,#817));
#819=FACE_OUTER_BOUND('',#818,.F.);
#820=ADVANCED_FACE('',(#819),#812,.T.);
#821=CARTESIAN_POINT('',(-1.6E-2,0.E0,-6.814690014960E-2));
#822=DIRECTION('',(-7.548312052475E-1,0.E0,-6.559190892058E-1));
#823=DIRECTION('',(6.559190892058E-1,0.E0,-7.548312052475E-1));
#824=AXIS2_PLACEMENT_3D('',#821,#822,#823);
#825=PLANE('',#824);
#826=ORIENTED_EDGE('',*,*,#813,.F.);
#827=ORIENTED_EDGE('',*,*,#494,.F.);
#828=ORIENTED_EDGE('',*,*,#782,.T.);
#829=ORIENTED_EDGE('',*,*,#641,.F.);
#830=EDGE_LOOP('',(#826,#827,#828,#829));
#831=FACE_OUTER_BOUND('',#830,.F.);
#832=ADVANCED_FACE('',(#831),#825,.T.);
#833=CARTESIAN_POINT('',(-7.735329426338E-2,0.E0,-8.E-3));
#834=DIRECTION('',(-6.559190892058E-1,0.E0,-7.548312052475E-1));
#835=DIRECTION('',(7.548312052475E-1,0.E0,-6.559190892058E-1));
#836=AXIS2_PLACEMENT_3D('',#833,#834,#835);
#837=PLANE('',#836);
#838=ORIENTED_EDGE('',*,*,#596,.T.);
#839=ORIENTED_EDGE('',*,*,#663,.F.);
#840=ORIENTED_EDGE('',*,*,#785,.T.);
#841=ORIENTED_EDGE('',*,*,#490,.F.);
#842=EDGE_LOOP('',(#838,#839,#840,#841));
#843=FACE_OUTER_BOUND('',#842,.F.);
#844=ADVANCED_FACE('',(#843),#837,.T.);
#845=CARTESIAN_POINT('',(0.E0,0.E0,0.E0));
#846=DIRECTION('',(0.E0,1.E0,0.E0));
#847=DIRECTION('',(1.E0,0.E0,0.E0));
#848=AXIS2_PLACEMENT_3D('',#845,#846,#847);
#849=CYLINDRICAL_SURFACE('',#848,7.E-2);
#851=ORIENTED_EDGE('',*,*,#850,.T.);
#852=ORIENTED_EDGE('',*,*,#789,.T.);
#854=ORIENTED_EDGE('',*,*,#853,.F.);
#856=ORIENTED_EDGE('',*,*,#855,.F.);
#857=EDGE_LOOP('',(#851,#852,#854,#856));
#858=FACE_OUTER_BOUND('',#857,.F.);
#859=ADVANCED_FACE('',(#858),#849,.T.);
#860=CARTESIAN_POINT('',(0.E0,0.E0,0.E0));
#861=DIRECTION('',(0.E0,1.E0,0.E0));
#862=DIRECTION('',(1.E0,0.E0,0.E0));
#863=AXIS2_PLACEMENT_3D('',#860,#861,#862);
#864=CYLINDRICAL_SURFACE('',#863,7.E-2);
#865=ORIENTED_EDGE('',*,*,#850,.F.);
#867=ORIENTED_EDGE('',*,*,#866,.T.);
#868=ORIENTED_EDGE('',*,*,#853,.T.);
#869=ORIENTED_EDGE('',*,*,#721,.F.);
#870=EDGE_LOOP('',(#865,#867,#868,#869));
#871=FACE_OUTER_BOUND('',#870,.F.);
#872=ADVANCED_FACE('',(#871),#864,.T.);
#873=CARTESIAN_POINT('',(0.E0,-7.E-1,0.E0));
#874=DIRECTION('',(0.E0,1.E0,0.E0));
#875=DIRECTION('',(1.E0,0.E0,0.E0));
#876=AXIS2_PLACEMENT_3D('',#873,#874,#875);
#877=PLANE('',#876);
#878=ORIENTED_EDGE('',*,*,#866,.F.);
#879=ORIENTED_EDGE('',*,*,#855,.T.);
#880=EDGE_LOOP('',(#878,#879));
#881=FACE_OUTER_BOUND('',#880,.F.);
#882=ADVANCED_FACE('',(#881),#877,.F.);
#885=DIMENSIONAL_EXPONENTS(1.E0,0.E0,0.E0,0.E0,0.E0,0.E0,0.E0);
#887=LENGTH_MEASURE_WITH_UNIT(LENGTH_MEASURE(2.54E1),#886);
#888=(CONVERSION_BASED_UNIT('INCH',#887)LENGTH_UNIT()NAMED_UNIT(#885));
#889=DIMENSIONAL_EXPONENTS(0.E0,0.E0,0.E0,0.E0,0.E0,0.E0,0.E0);
#891=PLANE_ANGLE_MEASURE_WITH_UNIT(PLANE_ANGLE_MEASURE(1.745329251994E-2),#890);
#892=(CONVERSION_BASED_UNIT('DEGREE',#891)NAMED_UNIT(*)PLANE_ANGLE_UNIT());
#894=UNCERTAINTY_MEASURE_WITH_UNIT(LENGTH_MEASURE(8.418975847894E-5),#888,
'closure',
'Maximum model space distance between geometric entities at asserted connectivities');
#895=(GEOMETRIC_REPRESENTATION_CONTEXT(3)GLOBAL_UNCERTAINTY_ASSIGNED_CONTEXT((
#894))GLOBAL_UNIT_ASSIGNED_CONTEXT((#888,#892,#893))REPRESENTATION_CONTEXT
('ID1','3'));
#897=APPLICATION_CONTEXT(
'CONFIGURATION CONTROLLED 3D DESIGNS OF MECHANICAL PARTS AND ASSEMBLIES');
#898=APPLICATION_PROTOCOL_DEFINITION('international standard',
'config_control_design',1994,#897);
#899=DESIGN_CONTEXT('',#897,'design');
#900=MECHANICAL_CONTEXT('',#897,'mechanical');
#901=PRODUCT('51513530700F_SW0001','51513530700F_SW0001','NOT SPECIFIED',
(#900));
#902=PRODUCT_DEFINITION_FORMATION_WITH_SPECIFIED_SOURCE('1','LAST_VERSION',#901,
.MADE.);
#906=PRODUCT_CATEGORY('part','');
#907=PRODUCT_RELATED_PRODUCT_CATEGORY('detail','',(#901));
#908=PRODUCT_CATEGORY_RELATIONSHIP('','',#906,#907);
#909=SECURITY_CLASSIFICATION_LEVEL('unclassified');
#910=SECURITY_CLASSIFICATION('','',#909);
#911=CC_DESIGN_SECURITY_CLASSIFICATION(#910,(#902));
#912=APPROVAL_STATUS('approved');
#913=APPROVAL(#912,'');
#914=CC_DESIGN_APPROVAL(#913,(#910,#902,#903));
#915=CALENDAR_DATE(122,5,7);
#916=COORDINATED_UNIVERSAL_TIME_OFFSET(4,0,.BEHIND.);
#917=LOCAL_TIME(13,24,1.7E1,#916);
#918=DATE_AND_TIME(#915,#917);
#919=APPROVAL_DATE_TIME(#918,#913);
#920=DATE_TIME_ROLE('creation_date');
#921=CC_DESIGN_DATE_AND_TIME_ASSIGNMENT(#918,#920,(#903));
#922=DATE_TIME_ROLE('classification_date');
#923=CC_DESIGN_DATE_AND_TIME_ASSIGNMENT(#918,#922,(#910));
#924=PERSON('UNSPECIFIED','UNSPECIFIED',$,$,$,$);
#925=ORGANIZATION('UNSPECIFIED','UNSPECIFIED','UNSPECIFIED');
#926=PERSON_AND_ORGANIZATION(#924,#925);
#927=APPROVAL_ROLE('approver');
#928=APPROVAL_PERSON_ORGANIZATION(#926,#913,#927);
#929=PERSON_AND_ORGANIZATION_ROLE('creator');
#930=CC_DESIGN_PERSON_AND_ORGANIZATION_ASSIGNMENT(#926,#929,(#902,#903));
#931=PERSON_AND_ORGANIZATION_ROLE('design_supplier');
#932=CC_DESIGN_PERSON_AND_ORGANIZATION_ASSIGNMENT(#926,#931,(#902));
#933=PERSON_AND_ORGANIZATION_ROLE('classification_officer');
#934=CC_DESIGN_PERSON_AND_ORGANIZATION_ASSIGNMENT(#926,#933,(#910));
#935=PERSON_AND_ORGANIZATION_ROLE('design_owner');
#936=CC_DESIGN_PERSON_AND_ORGANIZATION_ASSIGNMENT(#926,#935,(#901));
#5=CIRCLE('',#4,9.85E-2);
#10=CIRCLE('',#9,9.85E-2);
#19=CIRCLE('',#18,1.059839596506E-2);
#28=CIRCLE('',#27,7.6E-2);
#37=CIRCLE('',#36,1.059839596506E-2);
#46=CIRCLE('',#45,7.6E-2);
#55=CIRCLE('',#54,1.059839596506E-2);
#64=CIRCLE('',#63,7.6E-2);
#73=CIRCLE('',#72,1.059839596506E-2);
#82=CIRCLE('',#81,7.6E-2);
#87=CIRCLE('',#86,9.85E-2);
#96=CIRCLE('',#95,1.074612403101E-1);
#101=CIRCLE('',#100,1.074612403101E-1);
#106=CIRCLE('',#105,9.85E-2);
#116=B_SPLINE_CURVE_WITH_KNOTS('',3,(#111,#112,#113,#114,#115),.UNSPECIFIED.,
.F.,.F.,(4,1,4),(0.E0,5.E-1,1.E0),.UNSPECIFIED.);
#141=B_SPLINE_CURVE_WITH_KNOTS('',3,(#121,#122,#123,#124,#125,#126,#127,#128,
#129,#130,#131,#132,#133,#134,#135,#136,#137,#138,#139,#140),.UNSPECIFIED.,.F.,
.F.,(4,1,1,1,1,1,1,1,1,1,1,1,1,1,1,1,1,4),(0.E0,5.882352941176E-2,
1.176470588235E-1,1.764705882353E-1,2.352941176471E-1,2.941176470588E-1,
3.529411764706E-1,4.117647058824E-1,4.705882352941E-1,5.294117647059E-1,
5.882352941176E-1,6.470588235294E-1,7.058823529412E-1,7.647058823529E-1,
8.235294117647E-1,8.823529411765E-1,9.411764705882E-1,1.E0),.UNSPECIFIED.);
#162=B_SPLINE_CURVE_WITH_KNOTS('',3,(#142,#143,#144,#145,#146,#147,#148,#149,
#150,#151,#152,#153,#154,#155,#156,#157,#158,#159,#160,#161),.UNSPECIFIED.,.F.,
.F.,(4,1,1,1,1,1,1,1,1,1,1,1,1,1,1,1,1,4),(0.E0,5.882352941176E-2,
1.176470588235E-1,1.764705882353E-1,2.352941176471E-1,2.941176470588E-1,
3.529411764706E-1,4.117647058824E-1,4.705882352941E-1,5.294117647059E-1,
5.882352941176E-1,6.470588235294E-1,7.058823529412E-1,7.647058823529E-1,
8.235294117647E-1,8.823529411765E-1,9.411764705882E-1,1.E0),.UNSPECIFIED.);
#168=B_SPLINE_CURVE_WITH_KNOTS('',3,(#163,#164,#165,#166,#167),.UNSPECIFIED.,
.F.,.F.,(4,1,4),(0.E0,5.E-1,1.E0),.UNSPECIFIED.);
#193=B_SPLINE_CURVE_WITH_KNOTS('',3,(#173,#174,#175,#176,#177,#178,#179,#180,
#181,#182,#183,#184,#185,#186,#187,#188,#189,#190,#191,#192),.UNSPECIFIED.,.F.,
.F.,(4,1,1,1,1,1,1,1,1,1,1,1,1,1,1,1,1,4),(0.E0,5.882352941176E-2,
1.176470588235E-1,1.764705882353E-1,2.352941176471E-1,2.941176470588E-1,
3.529411764706E-1,4.117647058824E-1,4.705882352941E-1,5.294117647059E-1,
5.882352941176E-1,6.470588235294E-1,7.058823529412E-1,7.647058823529E-1,
8.235294117647E-1,8.823529411765E-1,9.411764705882E-1,1.E0),.UNSPECIFIED.);
#203=B_SPLINE_CURVE_WITH_KNOTS('',3,(#198,#199,#200,#201,#202),.UNSPECIFIED.,
.F.,.F.,(4,1,4),(0.E0,5.E-1,1.E0),.UNSPECIFIED.);
#208=CIRCLE('',#207,7.511764705882E-2);
#215=B_SPLINE_CURVE_WITH_KNOTS('',3,(#209,#210,#211,#212,#213,#214),
.UNSPECIFIED.,.F.,.F.,(4,1,1,4),(0.E0,3.333333333333E-1,6.666666666667E-1,1.E0),
.UNSPECIFIED.);
#222=B_SPLINE_CURVE_WITH_KNOTS('',3,(#216,#217,#218,#219,#220,#221),
.UNSPECIFIED.,.F.,.F.,(4,1,1,4),(0.E0,3.333333333333E-1,6.666666666667E-1,1.E0),
.UNSPECIFIED.);
#227=CIRCLE('',#226,7.511764705882E-2);
#236=CIRCLE('',#235,7.E-2);
#245=CIRCLE('',#244,7.511764705882E-2);
#252=B_SPLINE_CURVE_WITH_KNOTS('',3,(#246,#247,#248,#249,#250,#251),
.UNSPECIFIED.,.F.,.F.,(4,1,1,4),(0.E0,3.333333333333E-1,6.666666666667E-1,1.E0),
.UNSPECIFIED.);
#259=B_SPLINE_CURVE_WITH_KNOTS('',3,(#253,#254,#255,#256,#257,#258),
.UNSPECIFIED.,.F.,.F.,(4,1,1,4),(0.E0,3.333333333333E-1,6.666666666667E-1,1.E0),
.UNSPECIFIED.);
#269=B_SPLINE_CURVE_WITH_KNOTS('',3,(#264,#265,#266,#267,#268),.UNSPECIFIED.,
.F.,.F.,(4,1,4),(0.E0,5.E-1,1.E0),.UNSPECIFIED.);
#279=B_SPLINE_CURVE_WITH_KNOTS('',3,(#274,#275,#276,#277,#278),.UNSPECIFIED.,
.F.,.F.,(4,1,4),(0.E0,5.E-1,1.E0),.UNSPECIFIED.);
#284=CIRCLE('',#283,7.511764705882E-2);
#291=B_SPLINE_CURVE_WITH_KNOTS('',3,(#285,#286,#287,#288,#289,#290),
.UNSPECIFIED.,.F.,.F.,(4,1,1,4),(0.E0,3.333333333333E-1,6.666666666667E-1,1.E0),
.UNSPECIFIED.);
#298=B_SPLINE_CURVE_WITH_KNOTS('',3,(#292,#293,#294,#295,#296,#297),
.UNSPECIFIED.,.F.,.F.,(4,1,1,4),(0.E0,3.333333333333E-1,6.666666666667E-1,1.E0),
.UNSPECIFIED.);
#303=CIRCLE('',#302,7.511764705882E-2);
#310=B_SPLINE_CURVE_WITH_KNOTS('',3,(#304,#305,#306,#307,#308,#309),
.UNSPECIFIED.,.F.,.F.,(4,1,1,4),(0.E0,3.333333333333E-1,6.666666666667E-1,1.E0),
.UNSPECIFIED.);
#317=B_SPLINE_CURVE_WITH_KNOTS('',3,(#311,#312,#313,#314,#315,#316),
.UNSPECIFIED.,.F.,.F.,(4,1,1,4),(0.E0,3.333333333333E-1,6.666666666667E-1,1.E0),
.UNSPECIFIED.);
#322=CIRCLE('',#321,7.511764705882E-2);
#327=CIRCLE('',#326,7.E-2);
#337=B_SPLINE_CURVE_WITH_KNOTS('',3,(#332,#333,#334,#335,#336),.UNSPECIFIED.,
.F.,.F.,(4,1,4),(0.E0,5.E-1,1.E0),.UNSPECIFIED.);
#362=B_SPLINE_CURVE_WITH_KNOTS('',3,(#342,#343,#344,#345,#346,#347,#348,#349,
#350,#351,#352,#353,#354,#355,#356,#357,#358,#359,#360,#361),.UNSPECIFIED.,.F.,
.F.,(4,1,1,1,1,1,1,1,1,1,1,1,1,1,1,1,1,4),(0.E0,5.882352941176E-2,
1.176470588235E-1,1.764705882353E-1,2.352941176471E-1,2.941176470588E-1,
3.529411764706E-1,4.117647058824E-1,4.705882352941E-1,5.294117647059E-1,
5.882352941176E-1,6.470588235294E-1,7.058823529412E-1,7.647058823529E-1,
8.235294117647E-1,8.823529411765E-1,9.411764705882E-1,1.E0),.UNSPECIFIED.);
#368=B_SPLINE_CURVE_WITH_KNOTS('',3,(#363,#364,#365,#366,#367),.UNSPECIFIED.,
.F.,.F.,(4,1,4),(0.E0,5.E-1,1.E0),.UNSPECIFIED.);
#378=B_SPLINE_CURVE_WITH_KNOTS('',3,(#373,#374,#375,#376,#377),.UNSPECIFIED.,
.F.,.F.,(4,1,4),(0.E0,5.E-1,1.E0),.UNSPECIFIED.);
#383=CIRCLE('',#382,7.E-2);
#392=CIRCLE('',#391,7.E-2);
#480=EDGE_CURVE('',#399,#400,#5,.T.);
#482=EDGE_CURVE('',#400,#399,#10,.T.);
#486=EDGE_CURVE('',#468,#433,#14,.T.);
#488=EDGE_CURVE('',#433,#437,#19,.T.);
#490=EDGE_CURVE('',#437,#470,#23,.T.);
#492=EDGE_CURVE('',#464,#470,#28,.T.);
#494=EDGE_CURVE('',#464,#425,#32,.T.);
#496=EDGE_CURVE('',#425,#429,#37,.T.);
#498=EDGE_CURVE('',#429,#466,#41,.T.);
#500=EDGE_CURVE('',#460,#466,#46,.T.);
#502=EDGE_CURVE('',#460,#417,#50,.T.);
#504=EDGE_CURVE('',#417,#421,#55,.T.);
#506=EDGE_CURVE('',#421,#462,#59,.T.);
#508=EDGE_CURVE('',#456,#462,#64,.T.);
#510=EDGE_CURVE('',#456,#409,#68,.T.);
#512=EDGE_CURVE('',#409,#413,#73,.T.);
#514=EDGE_CURVE('',#413,#458,#77,.T.);
#516=EDGE_CURVE('',#468,#458,#82,.T.);
#526=EDGE_CURVE('',#403,#404,#87,.T.);
#528=EDGE_CURVE('',#400,#404,#110,.T.);
#531=EDGE_CURVE('',#399,#403,#91,.T.);
#542=EDGE_CURVE('',#403,#406,#101,.T.);
#544=EDGE_CURVE('',#404,#406,#96,.T.);
#554=EDGE_CURVE('',#404,#403,#106,.T.);
#578=EDGE_CURVE('',#433,#434,#120,.T.);
#581=EDGE_CURVE('',#468,#445,#252,.T.);
#583=EDGE_CURVE('',#434,#445,#116,.T.);
#594=EDGE_CURVE('',#438,#434,#162,.T.);
#596=EDGE_CURVE('',#437,#438,#372,.T.);
#607=EDGE_CURVE('',#410,#439,#168,.T.);
#609=EDGE_CURVE('',#440,#439,#208,.T.);
#611=EDGE_CURVE('',#440,#414,#203,.T.);
#613=EDGE_CURVE('',#410,#414,#193,.T.);
#623=EDGE_CURVE('',#472,#441,#284,.T.);
#625=EDGE_CURVE('',#442,#472,#227,.T.);
#627=EDGE_CURVE('',#442,#422,#269,.T.);
#629=EDGE_CURVE('',#422,#418,#141,.T.);
#631=EDGE_CURVE('',#418,#441,#279,.T.);
#641=EDGE_CURVE('',#426,#443,#368,.T.);
#643=EDGE_CURVE('',#444,#443,#303,.T.);
#645=EDGE_CURVE('',#444,#430,#337,.T.);
#647=EDGE_CURVE('',#426,#430,#362,.T.);
#659=EDGE_CURVE('',#474,#445,#245,.T.);
#661=EDGE_CURVE('',#446,#474,#322,.T.);
#663=EDGE_CURVE('',#446,#438,#378,.T.);
#673=EDGE_CURVE('',#409,#410,#172,.T.);
#676=EDGE_CURVE('',#456,#439,#215,.T.);
#689=EDGE_CURVE('',#413,#414,#197,.T.);
#702=EDGE_CURVE('',#440,#458,#259,.T.);
#716=EDGE_CURVE('',#442,#462,#222,.T.);
#719=EDGE_CURVE('',#450,#472,#231,.T.);
#721=EDGE_CURVE('',#450,#454,#236,.T.);
#723=EDGE_CURVE('',#454,#474,#240,.T.);
#737=EDGE_CURVE('',#421,#422,#263,.T.);
#750=EDGE_CURVE('',#417,#418,#273,.T.);
#765=EDGE_CURVE('',#460,#441,#291,.T.);
#779=EDGE_CURVE('',#444,#466,#298,.T.);
#782=EDGE_CURVE('',#464,#443,#310,.T.);
#785=EDGE_CURVE('',#446,#470,#317,.T.);
#789=EDGE_CURVE('',#450,#454,#327,.T.);
#800=EDGE_CURVE('',#429,#430,#331,.T.);
#813=EDGE_CURVE('',#425,#426,#341,.T.);
#850=EDGE_CURVE('',#449,#450,#387,.T.);
#853=EDGE_CURVE('',#453,#454,#396,.T.);
#855=EDGE_CURVE('',#449,#453,#383,.T.);
#866=EDGE_CURVE('',#449,#453,#392,.T.);
#883=OPEN_SHELL('',(#520,#535,#548,#560,#572,#587,#601,#617,#635,#651,#667,#681,
#694,#707,#731,#744,#757,#770,#794,#807,#820,#832,#844,#859,#872,#882));
#884=SHELL_BASED_SURFACE_MODEL('',(#883));
#886=(LENGTH_UNIT()NAMED_UNIT(*)SI_UNIT(.MILLI.,.METRE.));
#890=(NAMED_UNIT(*)PLANE_ANGLE_UNIT()SI_UNIT($,.RADIAN.));
#893=(NAMED_UNIT(*)SI_UNIT($,.STERADIAN.)SOLID_ANGLE_UNIT());
#896=MANIFOLD_SURFACE_SHAPE_REPRESENTATION('',(#884),#895);
#903=PRODUCT_DEFINITION('design','',#902,#899);
#904=PRODUCT_DEFINITION_SHAPE('','SHAPE FOR 51513530700F_SW0001.',#903);
#905=SHAPE_DEFINITION_REPRESENTATION(#904,#896);
ENDSEC;
END-ISO-10303-21;
